%TF.GenerationSoftware,KiCad,Pcbnew,9.0.3*%
%TF.CreationDate,2026-02-10T09:27:50-05:00*%
%TF.ProjectId,home energy monitor,686f6d65-2065-46e6-9572-6779206d6f6e,0.1*%
%TF.SameCoordinates,Original*%
%TF.FileFunction,Copper,L2,Bot*%
%TF.FilePolarity,Positive*%
%FSLAX46Y46*%
G04 Gerber Fmt 4.6, Leading zero omitted, Abs format (unit mm)*
G04 Created by KiCad (PCBNEW 9.0.3) date 2026-02-10 09:27:50*
%MOMM*%
%LPD*%
G01*
G04 APERTURE LIST*
G04 Aperture macros list*
%AMRoundRect*
0 Rectangle with rounded corners*
0 $1 Rounding radius*
0 $2 $3 $4 $5 $6 $7 $8 $9 X,Y pos of 4 corners*
0 Add a 4 corners polygon primitive as box body*
4,1,4,$2,$3,$4,$5,$6,$7,$8,$9,$2,$3,0*
0 Add four circle primitives for the rounded corners*
1,1,$1+$1,$2,$3*
1,1,$1+$1,$4,$5*
1,1,$1+$1,$6,$7*
1,1,$1+$1,$8,$9*
0 Add four rect primitives between the rounded corners*
20,1,$1+$1,$2,$3,$4,$5,0*
20,1,$1+$1,$4,$5,$6,$7,0*
20,1,$1+$1,$6,$7,$8,$9,0*
20,1,$1+$1,$8,$9,$2,$3,0*%
%AMFreePoly0*
4,1,23,0.000000,0.745722,0.065263,0.745722,0.191342,0.711940,0.304381,0.646677,0.396677,0.554381,0.461940,0.441342,0.495722,0.315263,0.495722,0.250000,0.500000,0.250000,0.500000,-0.250000,0.495722,-0.250000,0.495722,-0.315263,0.461940,-0.441342,0.396677,-0.554381,0.304381,-0.646677,0.191342,-0.711940,0.065263,-0.745722,0.000000,-0.745722,0.000000,-0.750000,-0.500000,-0.750000,
-0.500000,0.750000,0.000000,0.750000,0.000000,0.745722,0.000000,0.745722,$1*%
%AMFreePoly1*
4,1,23,0.500000,-0.750000,0.000000,-0.750000,0.000000,-0.745722,-0.065263,-0.745722,-0.191342,-0.711940,-0.304381,-0.646677,-0.396677,-0.554381,-0.461940,-0.441342,-0.495722,-0.315263,-0.495722,-0.250000,-0.500000,-0.250000,-0.500000,0.250000,-0.495722,0.250000,-0.495722,0.315263,-0.461940,0.441342,-0.396677,0.554381,-0.304381,0.646677,-0.191342,0.711940,-0.065263,0.745722,0.000000,0.745722,
0.000000,0.750000,0.500000,0.750000,0.500000,-0.750000,0.500000,-0.750000,$1*%
G04 Aperture macros list end*
%TA.AperFunction,ComponentPad*%
%ADD10R,1.700000X1.700000*%
%TD*%
%TA.AperFunction,ComponentPad*%
%ADD11C,1.700000*%
%TD*%
%TA.AperFunction,SMDPad,CuDef*%
%ADD12RoundRect,0.237500X-0.237500X0.300000X-0.237500X-0.300000X0.237500X-0.300000X0.237500X0.300000X0*%
%TD*%
%TA.AperFunction,SMDPad,CuDef*%
%ADD13FreePoly0,90.000000*%
%TD*%
%TA.AperFunction,SMDPad,CuDef*%
%ADD14FreePoly1,90.000000*%
%TD*%
%TA.AperFunction,SMDPad,CuDef*%
%ADD15RoundRect,0.237500X-0.237500X0.250000X-0.237500X-0.250000X0.237500X-0.250000X0.237500X0.250000X0*%
%TD*%
%TA.AperFunction,SMDPad,CuDef*%
%ADD16RoundRect,0.237500X0.237500X-0.250000X0.237500X0.250000X-0.237500X0.250000X-0.237500X-0.250000X0*%
%TD*%
%TA.AperFunction,ViaPad*%
%ADD17C,0.600000*%
%TD*%
%TA.AperFunction,Conductor*%
%ADD18C,0.200000*%
%TD*%
G04 APERTURE END LIST*
D10*
%TO.P,J4,1,Pin_1*%
%TO.N,/ADC1*%
X157620000Y-107620000D03*
D11*
%TO.P,J4,2,Pin_2*%
%TO.N,/ADC2*%
X157620000Y-105080000D03*
%TO.P,J4,3,Pin_3*%
%TO.N,/ADC3*%
X157620000Y-102540000D03*
%TO.P,J4,4,Pin_4*%
%TO.N,unconnected-(J4-Pin_4-Pad4)*%
X157620000Y-100000000D03*
%TO.P,J4,5,Pin_5*%
%TO.N,unconnected-(J4-Pin_5-Pad5)*%
X157620000Y-97460000D03*
%TO.P,J4,6,Pin_6*%
%TO.N,unconnected-(J4-Pin_6-Pad6)*%
X157620000Y-94920000D03*
%TO.P,J4,7,Pin_7*%
%TO.N,unconnected-(J4-Pin_7-Pad7)*%
X157620000Y-92380000D03*
%TD*%
%TO.P,J5,7,Pin_7*%
%TO.N,unconnected-(J5-Pin_7-Pad7)*%
X142380000Y-92380000D03*
%TO.P,J5,6,Pin_6*%
%TO.N,unconnected-(J5-Pin_6-Pad6)*%
X142380000Y-94920000D03*
%TO.P,J5,5,Pin_5*%
%TO.N,unconnected-(J5-Pin_5-Pad5)*%
X142380000Y-97460000D03*
%TO.P,J5,4,Pin_4*%
%TO.N,unconnected-(J5-Pin_4-Pad4)*%
X142380000Y-100000000D03*
%TO.P,J5,3,Pin_3*%
%TO.N,VCC*%
X142380000Y-102540000D03*
%TO.P,J5,2,Pin_2*%
%TO.N,GND*%
X142380000Y-105080000D03*
D10*
%TO.P,J5,1,Pin_1*%
%TO.N,unconnected-(J5-Pin_1-Pad1)*%
X142380000Y-107620000D03*
%TD*%
D12*
%TO.P,C3,1*%
%TO.N,Net-(JP3-A)*%
X163500000Y-103637500D03*
%TO.P,C3,2*%
%TO.N,GND*%
X163500000Y-105362500D03*
%TD*%
D13*
%TO.P,JP3,2,B*%
%TO.N,Net-(JP3-B)*%
X161000000Y-100350000D03*
D14*
%TO.P,JP3,1,A*%
%TO.N,Net-(JP3-A)*%
X161000000Y-101650000D03*
%TD*%
%TO.P,JP2,1,A*%
%TO.N,Net-(JP2-A)*%
X146000000Y-101650000D03*
D13*
%TO.P,JP2,2,B*%
%TO.N,Net-(JP2-B)*%
X146000000Y-100350000D03*
%TD*%
%TO.P,JP1,2,B*%
%TO.N,Net-(JP1-B)*%
X131000000Y-100350000D03*
D14*
%TO.P,JP1,1,A*%
%TO.N,Net-(JP1-A)*%
X131000000Y-101650000D03*
%TD*%
D15*
%TO.P,R1,2*%
%TO.N,Net-(JP1-B)*%
X131000000Y-95912500D03*
%TO.P,R1,1*%
%TO.N,/ADC1*%
X131000000Y-94087500D03*
%TD*%
%TO.P,R9,1*%
%TO.N,Net-(JP3-A)*%
X162000000Y-103587500D03*
%TO.P,R9,2*%
%TO.N,GND*%
X162000000Y-105412500D03*
%TD*%
D16*
%TO.P,R8,2*%
%TO.N,Net-(JP3-A)*%
X160500000Y-103587500D03*
%TO.P,R8,1*%
%TO.N,VCC*%
X160500000Y-105412500D03*
%TD*%
D15*
%TO.P,R7,2*%
%TO.N,GND*%
X147000000Y-105412500D03*
%TO.P,R7,1*%
%TO.N,Net-(JP2-A)*%
X147000000Y-103587500D03*
%TD*%
D16*
%TO.P,R6,1*%
%TO.N,VCC*%
X145500000Y-105412500D03*
%TO.P,R6,2*%
%TO.N,Net-(JP2-A)*%
X145500000Y-103587500D03*
%TD*%
D15*
%TO.P,R5,2*%
%TO.N,GND*%
X132000000Y-105412500D03*
%TO.P,R5,1*%
%TO.N,Net-(JP1-A)*%
X132000000Y-103587500D03*
%TD*%
D16*
%TO.P,R4,2*%
%TO.N,Net-(JP1-A)*%
X130500000Y-103587500D03*
%TO.P,R4,1*%
%TO.N,VCC*%
X130500000Y-105412500D03*
%TD*%
D15*
%TO.P,R3,2*%
%TO.N,Net-(JP3-B)*%
X161000000Y-95912500D03*
%TO.P,R3,1*%
%TO.N,/ADC3*%
X161000000Y-94087500D03*
%TD*%
%TO.P,R2,2*%
%TO.N,Net-(JP2-B)*%
X146000000Y-95912500D03*
%TO.P,R2,1*%
%TO.N,/ADC2*%
X146000000Y-94087500D03*
%TD*%
D12*
%TO.P,C2,2*%
%TO.N,GND*%
X148500000Y-105362500D03*
%TO.P,C2,1*%
%TO.N,Net-(JP2-A)*%
X148500000Y-103637500D03*
%TD*%
%TO.P,C1,2*%
%TO.N,GND*%
X133500000Y-105362500D03*
%TO.P,C1,1*%
%TO.N,Net-(JP1-A)*%
X133500000Y-103637500D03*
%TD*%
D17*
%TO.N,/ADC3*%
X161300000Y-93400000D03*
%TO.N,VCC*%
X160500000Y-106400000D03*
X145500000Y-106400000D03*
X130500000Y-106400000D03*
%TO.N,Net-(JP3-A)*%
X161300000Y-102800000D03*
%TO.N,/ADC2*%
X146300000Y-93400000D03*
%TO.N,Net-(JP2-A)*%
X146300000Y-102800000D03*
%TO.N,Net-(JP1-A)*%
X131300000Y-102800000D03*
%TO.N,/ADC1*%
X131300000Y-93400000D03*
%TD*%
D18*
%TO.N,/ADC3*%
X161000000Y-93700000D02*
X161300000Y-93400000D01*
X161000000Y-94087500D02*
X161000000Y-93700000D01*
%TO.N,VCC*%
X160500000Y-105412500D02*
X160500000Y-106400000D01*
X145500000Y-105412500D02*
X145500000Y-106400000D01*
X130500000Y-105412500D02*
X130500000Y-106400000D01*
%TO.N,Net-(JP3-A)*%
X163450000Y-103587500D02*
X163500000Y-103637500D01*
X162000000Y-103587500D02*
X163450000Y-103587500D01*
X161300000Y-102887500D02*
X162000000Y-103587500D01*
X161300000Y-102800000D02*
X161300000Y-102887500D01*
X161287500Y-102800000D02*
X160500000Y-103587500D01*
X161300000Y-102800000D02*
X161287500Y-102800000D01*
X161000000Y-102500000D02*
X161300000Y-102800000D01*
X161000000Y-101650000D02*
X161000000Y-102500000D01*
%TO.N,Net-(JP3-B)*%
X161000000Y-95912500D02*
X161000000Y-100350000D01*
%TO.N,/ADC2*%
X146000000Y-93700000D02*
X146300000Y-93400000D01*
X146000000Y-94087500D02*
X146000000Y-93700000D01*
%TO.N,Net-(JP2-A)*%
X147000000Y-103587500D02*
X148450000Y-103587500D01*
X148450000Y-103587500D02*
X148500000Y-103637500D01*
X146300000Y-102800000D02*
X146300000Y-102887500D01*
X146300000Y-102887500D02*
X147000000Y-103587500D01*
X145512500Y-103587500D02*
X146300000Y-102800000D01*
X145500000Y-103587500D02*
X145512500Y-103587500D01*
X146000000Y-102500000D02*
X146300000Y-102800000D01*
X146000000Y-101650000D02*
X146000000Y-102500000D01*
%TO.N,Net-(JP2-B)*%
X146000000Y-95912500D02*
X146000000Y-100350000D01*
%TO.N,Net-(JP1-A)*%
X133450000Y-103587500D02*
X133500000Y-103637500D01*
X132000000Y-103587500D02*
X133450000Y-103587500D01*
X131300000Y-102887500D02*
X132000000Y-103587500D01*
X131300000Y-102800000D02*
X131300000Y-102887500D01*
X130512500Y-103587500D02*
X131300000Y-102800000D01*
X130500000Y-103587500D02*
X130512500Y-103587500D01*
X131000000Y-101650000D02*
X131000000Y-102500000D01*
X131000000Y-102500000D02*
X131300000Y-102800000D01*
%TO.N,Net-(JP1-B)*%
X131000000Y-95912500D02*
X131000000Y-100350000D01*
%TO.N,/ADC1*%
X131000000Y-93700000D02*
X131300000Y-93400000D01*
X131000000Y-94087500D02*
X131000000Y-93700000D01*
%TD*%
%TA.AperFunction,Conductor*%
%TO.N,GND*%
G36*
X172528813Y-90520185D02*
G01*
X172574568Y-90572989D01*
X172584512Y-90642147D01*
X172555487Y-90705703D01*
X172500093Y-90742430D01*
X172481588Y-90748443D01*
X172481585Y-90748444D01*
X172292179Y-90844951D01*
X172120213Y-90969890D01*
X171969890Y-91120213D01*
X171844951Y-91292179D01*
X171748444Y-91481585D01*
X171682753Y-91683760D01*
X171666465Y-91786599D01*
X171649500Y-91893713D01*
X171649500Y-92106287D01*
X171682754Y-92316243D01*
X171734075Y-92474193D01*
X171748444Y-92518414D01*
X171844951Y-92707820D01*
X171969890Y-92879786D01*
X172120213Y-93030109D01*
X172292179Y-93155048D01*
X172292181Y-93155049D01*
X172292184Y-93155051D01*
X172481588Y-93251557D01*
X172683757Y-93317246D01*
X172893713Y-93350500D01*
X172893714Y-93350500D01*
X173106286Y-93350500D01*
X173106287Y-93350500D01*
X173316243Y-93317246D01*
X173518412Y-93251557D01*
X173707816Y-93155051D01*
X173739133Y-93132298D01*
X173879786Y-93030109D01*
X173879788Y-93030106D01*
X173879792Y-93030104D01*
X174030104Y-92879792D01*
X174030106Y-92879788D01*
X174030109Y-92879786D01*
X174155048Y-92707820D01*
X174155047Y-92707820D01*
X174155051Y-92707816D01*
X174251557Y-92518412D01*
X174257569Y-92499907D01*
X174297006Y-92442232D01*
X174361365Y-92415034D01*
X174430211Y-92426949D01*
X174481687Y-92474193D01*
X174499500Y-92538226D01*
X174499500Y-107461773D01*
X174479815Y-107528812D01*
X174427011Y-107574567D01*
X174357853Y-107584511D01*
X174294297Y-107555486D01*
X174257570Y-107500094D01*
X174251557Y-107481588D01*
X174155051Y-107292184D01*
X174155049Y-107292181D01*
X174155048Y-107292179D01*
X174030109Y-107120213D01*
X173879786Y-106969890D01*
X173707820Y-106844951D01*
X173518414Y-106748444D01*
X173518413Y-106748443D01*
X173518412Y-106748443D01*
X173316243Y-106682754D01*
X173316241Y-106682753D01*
X173316240Y-106682753D01*
X173154957Y-106657208D01*
X173106287Y-106649500D01*
X172893713Y-106649500D01*
X172845042Y-106657208D01*
X172683760Y-106682753D01*
X172481585Y-106748444D01*
X172292179Y-106844951D01*
X172120213Y-106969890D01*
X171969890Y-107120213D01*
X171844951Y-107292179D01*
X171748444Y-107481585D01*
X171682753Y-107683760D01*
X171649500Y-107893713D01*
X171649500Y-108106287D01*
X171682754Y-108316243D01*
X171726718Y-108451551D01*
X171748444Y-108518414D01*
X171844951Y-108707820D01*
X171969890Y-108879786D01*
X172120213Y-109030109D01*
X172292179Y-109155048D01*
X172292181Y-109155049D01*
X172292184Y-109155051D01*
X172481588Y-109251557D01*
X172500092Y-109257569D01*
X172557768Y-109297006D01*
X172584966Y-109361365D01*
X172573051Y-109430211D01*
X172525807Y-109481687D01*
X172461774Y-109499500D01*
X127538226Y-109499500D01*
X127471187Y-109479815D01*
X127425432Y-109427011D01*
X127415488Y-109357853D01*
X127444513Y-109294297D01*
X127499906Y-109257569D01*
X127518412Y-109251557D01*
X127707816Y-109155051D01*
X127737828Y-109133246D01*
X127879786Y-109030109D01*
X127879788Y-109030106D01*
X127879792Y-109030104D01*
X128030104Y-108879792D01*
X128030106Y-108879788D01*
X128030109Y-108879786D01*
X128155048Y-108707820D01*
X128155047Y-108707820D01*
X128155051Y-108707816D01*
X128251557Y-108518412D01*
X128317246Y-108316243D01*
X128350500Y-108106287D01*
X128350500Y-107893713D01*
X128317246Y-107683757D01*
X128251557Y-107481588D01*
X128155051Y-107292184D01*
X128155049Y-107292181D01*
X128155048Y-107292179D01*
X128030109Y-107120213D01*
X127879786Y-106969890D01*
X127707820Y-106844951D01*
X127518414Y-106748444D01*
X127518413Y-106748443D01*
X127518412Y-106748443D01*
X127316243Y-106682754D01*
X127316241Y-106682753D01*
X127316240Y-106682753D01*
X127154957Y-106657208D01*
X127106287Y-106649500D01*
X126893713Y-106649500D01*
X126845042Y-106657208D01*
X126683760Y-106682753D01*
X126481585Y-106748444D01*
X126292179Y-106844951D01*
X126120213Y-106969890D01*
X125969890Y-107120213D01*
X125844951Y-107292179D01*
X125748445Y-107481582D01*
X125748443Y-107481587D01*
X125748443Y-107481588D01*
X125742429Y-107500094D01*
X125702992Y-107557768D01*
X125638633Y-107584965D01*
X125569787Y-107573050D01*
X125518312Y-107525805D01*
X125500500Y-107461773D01*
X125500500Y-103288315D01*
X129524500Y-103288315D01*
X129524500Y-103886669D01*
X129524501Y-103886687D01*
X129534825Y-103987752D01*
X129589092Y-104151515D01*
X129589093Y-104151518D01*
X129679661Y-104298351D01*
X129793629Y-104412319D01*
X129827114Y-104473642D01*
X129822130Y-104543334D01*
X129793629Y-104587681D01*
X129679661Y-104701648D01*
X129589093Y-104848481D01*
X129589091Y-104848486D01*
X129567930Y-104912347D01*
X129534826Y-105012247D01*
X129534826Y-105012248D01*
X129534825Y-105012248D01*
X129524500Y-105113315D01*
X129524500Y-105711669D01*
X129524501Y-105711687D01*
X129534825Y-105812752D01*
X129571109Y-105922249D01*
X129589020Y-105976300D01*
X129589092Y-105976515D01*
X129589093Y-105976518D01*
X129679661Y-106123351D01*
X129682159Y-106125849D01*
X129683325Y-106127985D01*
X129684138Y-106129013D01*
X129683962Y-106129151D01*
X129715644Y-106187172D01*
X129716096Y-106237720D01*
X129699500Y-106321159D01*
X129699500Y-106478846D01*
X129730261Y-106633489D01*
X129730264Y-106633501D01*
X129790602Y-106779172D01*
X129790609Y-106779185D01*
X129878210Y-106910288D01*
X129878213Y-106910292D01*
X129989707Y-107021786D01*
X129989711Y-107021789D01*
X130120814Y-107109390D01*
X130120827Y-107109397D01*
X130266498Y-107169735D01*
X130266503Y-107169737D01*
X130421153Y-107200499D01*
X130421156Y-107200500D01*
X130421158Y-107200500D01*
X130578844Y-107200500D01*
X130578845Y-107200499D01*
X130733497Y-107169737D01*
X130853059Y-107120213D01*
X130879172Y-107109397D01*
X130879172Y-107109396D01*
X130879179Y-107109394D01*
X131010289Y-107021789D01*
X131121789Y-106910289D01*
X131209394Y-106779179D01*
X131233030Y-106722116D01*
X131254057Y-106671353D01*
X131263108Y-106649500D01*
X131269737Y-106633497D01*
X131300500Y-106478842D01*
X131300500Y-106458065D01*
X131320185Y-106391026D01*
X131372989Y-106345271D01*
X131442147Y-106335327D01*
X131463504Y-106340359D01*
X131612347Y-106389680D01*
X131713352Y-106399999D01*
X131750000Y-106399999D01*
X131750000Y-105662500D01*
X132250000Y-105662500D01*
X132250000Y-106399999D01*
X132286640Y-106399999D01*
X132286654Y-106399998D01*
X132387652Y-106389680D01*
X132551300Y-106335453D01*
X132551307Y-106335450D01*
X132684902Y-106253047D01*
X132752295Y-106234606D01*
X132815098Y-106253047D01*
X132948692Y-106335450D01*
X132948699Y-106335453D01*
X133112347Y-106389680D01*
X133213352Y-106399999D01*
X133250000Y-106399999D01*
X133750000Y-106399999D01*
X133786640Y-106399999D01*
X133786654Y-106399998D01*
X133887652Y-106389680D01*
X134051300Y-106335453D01*
X134051311Y-106335448D01*
X134198034Y-106244947D01*
X134198038Y-106244944D01*
X134319944Y-106123038D01*
X134319947Y-106123034D01*
X134410448Y-105976311D01*
X134410453Y-105976300D01*
X134464680Y-105812652D01*
X134474999Y-105711654D01*
X134475000Y-105711641D01*
X134475000Y-105612500D01*
X133750000Y-105612500D01*
X133750000Y-106399999D01*
X133250000Y-106399999D01*
X133250000Y-105612500D01*
X133105000Y-105612500D01*
X133091319Y-105626181D01*
X133029996Y-105659666D01*
X133003638Y-105662500D01*
X132250000Y-105662500D01*
X131750000Y-105662500D01*
X131750000Y-105536500D01*
X131769685Y-105469461D01*
X131822489Y-105423706D01*
X131874000Y-105412500D01*
X132000000Y-105412500D01*
X132000000Y-105286500D01*
X132019685Y-105219461D01*
X132072489Y-105173706D01*
X132124000Y-105162500D01*
X132395000Y-105162500D01*
X132408681Y-105148819D01*
X132470004Y-105115334D01*
X132496362Y-105112500D01*
X134474999Y-105112500D01*
X134474999Y-105013360D01*
X134474998Y-105013347D01*
X134471743Y-104981484D01*
X134471743Y-104981482D01*
X134464680Y-104912348D01*
X134410453Y-104748699D01*
X134410448Y-104748688D01*
X134319947Y-104601965D01*
X134319944Y-104601961D01*
X134306017Y-104588034D01*
X134272532Y-104526711D01*
X134277516Y-104457019D01*
X134306017Y-104412672D01*
X134320340Y-104398350D01*
X134410908Y-104251516D01*
X134465174Y-104087753D01*
X134475500Y-103986677D01*
X134475499Y-103288324D01*
X134465174Y-103187247D01*
X134410908Y-103023484D01*
X134320340Y-102876650D01*
X134198350Y-102754660D01*
X134051516Y-102664092D01*
X133887753Y-102609826D01*
X133887751Y-102609825D01*
X133786678Y-102599500D01*
X133213330Y-102599500D01*
X133213312Y-102599501D01*
X133112247Y-102609825D01*
X132948484Y-102664092D01*
X132948481Y-102664093D01*
X132815097Y-102746366D01*
X132747704Y-102764806D01*
X132684903Y-102746366D01*
X132551518Y-102664093D01*
X132551513Y-102664091D01*
X132497781Y-102646286D01*
X132387753Y-102609826D01*
X132387751Y-102609825D01*
X132286684Y-102599500D01*
X132286677Y-102599500D01*
X132166259Y-102599500D01*
X132147077Y-102593867D01*
X132127100Y-102593154D01*
X132114240Y-102584225D01*
X132099220Y-102579815D01*
X132086130Y-102564708D01*
X132069707Y-102553306D01*
X132055498Y-102529357D01*
X132053465Y-102527011D01*
X132051698Y-102522952D01*
X132007527Y-102416313D01*
X132000058Y-102346844D01*
X132023713Y-102293374D01*
X132082371Y-102216930D01*
X132087875Y-102209757D01*
X132153701Y-102095743D01*
X132204200Y-101973829D01*
X132238275Y-101846662D01*
X132255500Y-101715826D01*
X132255500Y-101413389D01*
X133899500Y-101413389D01*
X133899500Y-101586610D01*
X133919965Y-101715826D01*
X133926598Y-101757701D01*
X133980127Y-101922445D01*
X134058768Y-102076788D01*
X134160586Y-102216928D01*
X134283072Y-102339414D01*
X134423212Y-102441232D01*
X134577555Y-102519873D01*
X134742299Y-102573402D01*
X134913389Y-102600500D01*
X134913390Y-102600500D01*
X135086610Y-102600500D01*
X135086611Y-102600500D01*
X135257701Y-102573402D01*
X135422445Y-102519873D01*
X135576788Y-102441232D01*
X135716928Y-102339414D01*
X135839414Y-102216928D01*
X135941232Y-102076788D01*
X136019873Y-101922445D01*
X136073402Y-101757701D01*
X136100500Y-101586611D01*
X136100500Y-101413389D01*
X136073402Y-101242299D01*
X136019873Y-101077555D01*
X135941232Y-100923212D01*
X135839414Y-100783072D01*
X135716928Y-100660586D01*
X135576788Y-100558768D01*
X135422445Y-100480127D01*
X135257701Y-100426598D01*
X135257699Y-100426597D01*
X135257698Y-100426597D01*
X135126271Y-100405781D01*
X135086611Y-100399500D01*
X134913389Y-100399500D01*
X134873728Y-100405781D01*
X134742302Y-100426597D01*
X134577552Y-100480128D01*
X134423211Y-100558768D01*
X134343256Y-100616859D01*
X134283072Y-100660586D01*
X134283070Y-100660588D01*
X134283069Y-100660588D01*
X134160588Y-100783069D01*
X134160588Y-100783070D01*
X134160586Y-100783072D01*
X134116859Y-100843256D01*
X134058768Y-100923211D01*
X133980128Y-101077552D01*
X133926597Y-101242302D01*
X133899500Y-101413389D01*
X132255500Y-101413389D01*
X132255500Y-101150000D01*
X132250355Y-101078060D01*
X132239396Y-101040740D01*
X132235636Y-100988158D01*
X132255500Y-100850000D01*
X132255500Y-100284174D01*
X132238275Y-100153338D01*
X132204200Y-100026171D01*
X132153701Y-99904257D01*
X132153698Y-99904252D01*
X132153697Y-99904249D01*
X132153696Y-99904248D01*
X132087879Y-99790250D01*
X132087875Y-99790243D01*
X132007541Y-99685551D01*
X131914449Y-99592459D01*
X131914444Y-99592455D01*
X131809767Y-99512132D01*
X131809749Y-99512120D01*
X131695753Y-99446304D01*
X131695741Y-99446298D01*
X131677042Y-99438552D01*
X131622641Y-99394709D01*
X131600579Y-99328413D01*
X131600500Y-99323993D01*
X131600500Y-96874900D01*
X131620185Y-96807861D01*
X131659401Y-96769363D01*
X131698350Y-96745340D01*
X131820340Y-96623350D01*
X131910908Y-96476516D01*
X131965174Y-96312753D01*
X131975500Y-96211677D01*
X131975499Y-95613324D01*
X131965174Y-95512247D01*
X131910908Y-95348484D01*
X131820340Y-95201650D01*
X131706371Y-95087681D01*
X131672886Y-95026358D01*
X131677870Y-94956666D01*
X131706371Y-94912319D01*
X131820340Y-94798350D01*
X131910908Y-94651516D01*
X131965174Y-94487753D01*
X131972771Y-94413389D01*
X133899500Y-94413389D01*
X133899500Y-94586611D01*
X133926598Y-94757701D01*
X133980127Y-94922445D01*
X134058768Y-95076788D01*
X134160586Y-95216928D01*
X134283072Y-95339414D01*
X134423212Y-95441232D01*
X134577555Y-95519873D01*
X134742299Y-95573402D01*
X134913389Y-95600500D01*
X134913390Y-95600500D01*
X135086610Y-95600500D01*
X135086611Y-95600500D01*
X135257701Y-95573402D01*
X135422445Y-95519873D01*
X135576788Y-95441232D01*
X135716928Y-95339414D01*
X135839414Y-95216928D01*
X135941232Y-95076788D01*
X136019873Y-94922445D01*
X136073402Y-94757701D01*
X136100500Y-94586611D01*
X136100500Y-94413389D01*
X136073402Y-94242299D01*
X136019873Y-94077555D01*
X135941232Y-93923212D01*
X135839414Y-93783072D01*
X135716928Y-93660586D01*
X135576788Y-93558768D01*
X135422447Y-93480128D01*
X135422446Y-93480127D01*
X135422445Y-93480127D01*
X135257701Y-93426598D01*
X135257699Y-93426597D01*
X135257698Y-93426597D01*
X135126271Y-93405781D01*
X135086611Y-93399500D01*
X134913389Y-93399500D01*
X134873728Y-93405781D01*
X134742302Y-93426597D01*
X134742299Y-93426598D01*
X134581498Y-93478846D01*
X134577552Y-93480128D01*
X134423211Y-93558768D01*
X134395976Y-93578556D01*
X134283072Y-93660586D01*
X134283070Y-93660588D01*
X134283069Y-93660588D01*
X134160588Y-93783069D01*
X134160588Y-93783070D01*
X134160586Y-93783072D01*
X134156777Y-93788315D01*
X134058768Y-93923211D01*
X133980128Y-94077552D01*
X133926597Y-94242302D01*
X133903732Y-94386669D01*
X133899500Y-94413389D01*
X131972771Y-94413389D01*
X131975500Y-94386677D01*
X131975499Y-93867519D01*
X131995183Y-93800481D01*
X131996398Y-93798628D01*
X132009394Y-93779179D01*
X132069737Y-93633497D01*
X132100500Y-93478842D01*
X132100500Y-93321158D01*
X132100500Y-93321155D01*
X132100499Y-93321153D01*
X132087273Y-93254661D01*
X132069737Y-93166503D01*
X132068738Y-93164091D01*
X132009397Y-93020827D01*
X132009390Y-93020814D01*
X131921789Y-92889711D01*
X131921786Y-92889707D01*
X131810292Y-92778213D01*
X131810288Y-92778210D01*
X131679185Y-92690609D01*
X131679172Y-92690602D01*
X131533501Y-92630264D01*
X131533489Y-92630261D01*
X131378845Y-92599500D01*
X131378842Y-92599500D01*
X131221158Y-92599500D01*
X131221155Y-92599500D01*
X131066510Y-92630261D01*
X131066498Y-92630264D01*
X130920827Y-92690602D01*
X130920814Y-92690609D01*
X130789711Y-92778210D01*
X130789707Y-92778213D01*
X130678213Y-92889707D01*
X130678210Y-92889711D01*
X130590609Y-93020814D01*
X130590604Y-93020824D01*
X130566139Y-93079888D01*
X130522297Y-93134292D01*
X130490585Y-93150140D01*
X130448485Y-93164091D01*
X130301648Y-93254661D01*
X130179661Y-93376648D01*
X130089093Y-93523481D01*
X130089092Y-93523484D01*
X130034826Y-93687247D01*
X130034826Y-93687248D01*
X130034825Y-93687248D01*
X130024500Y-93788315D01*
X130024500Y-94386669D01*
X130024501Y-94386687D01*
X130034825Y-94487752D01*
X130067584Y-94586610D01*
X130089092Y-94651516D01*
X130154587Y-94757701D01*
X130179661Y-94798351D01*
X130293629Y-94912319D01*
X130327114Y-94973642D01*
X130322130Y-95043334D01*
X130293629Y-95087681D01*
X130179661Y-95201648D01*
X130089093Y-95348481D01*
X130089092Y-95348484D01*
X130034826Y-95512247D01*
X130034826Y-95512248D01*
X130034825Y-95512248D01*
X130024500Y-95613315D01*
X130024500Y-96211669D01*
X130024501Y-96211687D01*
X130034825Y-96312752D01*
X130071109Y-96422249D01*
X130089092Y-96476516D01*
X130179660Y-96623350D01*
X130301650Y-96745340D01*
X130340597Y-96769362D01*
X130387320Y-96821307D01*
X130399500Y-96874900D01*
X130399500Y-99323993D01*
X130379815Y-99391032D01*
X130327011Y-99436787D01*
X130322958Y-99438552D01*
X130304258Y-99446298D01*
X130304246Y-99446304D01*
X130190250Y-99512120D01*
X130190232Y-99512132D01*
X130085555Y-99592455D01*
X130085545Y-99592464D01*
X129992464Y-99685545D01*
X129992455Y-99685555D01*
X129912132Y-99790232D01*
X129912120Y-99790250D01*
X129846303Y-99904248D01*
X129846302Y-99904249D01*
X129795800Y-100026170D01*
X129761724Y-100153341D01*
X129744500Y-100284166D01*
X129744500Y-100850002D01*
X129749644Y-100921939D01*
X129760603Y-100959262D01*
X129764363Y-101011841D01*
X129744500Y-101149998D01*
X129744500Y-101715833D01*
X129761724Y-101846658D01*
X129761725Y-101846662D01*
X129795800Y-101973829D01*
X129838447Y-102076788D01*
X129846302Y-102095750D01*
X129846303Y-102095751D01*
X129912120Y-102209749D01*
X129912132Y-102209767D01*
X129976287Y-102293374D01*
X129992459Y-102314449D01*
X130085551Y-102407541D01*
X130085555Y-102407544D01*
X130092049Y-102412527D01*
X130133252Y-102468955D01*
X130137406Y-102538701D01*
X130103193Y-102599621D01*
X130055567Y-102628608D01*
X129948484Y-102664092D01*
X129948481Y-102664093D01*
X129801648Y-102754661D01*
X129679661Y-102876648D01*
X129589093Y-103023481D01*
X129589092Y-103023484D01*
X129534826Y-103187247D01*
X129534826Y-103187248D01*
X129534825Y-103187248D01*
X129524500Y-103288315D01*
X125500500Y-103288315D01*
X125500500Y-92538226D01*
X125520185Y-92471187D01*
X125572989Y-92425432D01*
X125642147Y-92415488D01*
X125705703Y-92444513D01*
X125742431Y-92499908D01*
X125748444Y-92518414D01*
X125844951Y-92707820D01*
X125969890Y-92879786D01*
X126120213Y-93030109D01*
X126292179Y-93155048D01*
X126292181Y-93155049D01*
X126292184Y-93155051D01*
X126481588Y-93251557D01*
X126683757Y-93317246D01*
X126893713Y-93350500D01*
X126893714Y-93350500D01*
X127106286Y-93350500D01*
X127106287Y-93350500D01*
X127316243Y-93317246D01*
X127518412Y-93251557D01*
X127707816Y-93155051D01*
X127739133Y-93132298D01*
X127879786Y-93030109D01*
X127879788Y-93030106D01*
X127879792Y-93030104D01*
X128030104Y-92879792D01*
X128030106Y-92879788D01*
X128030109Y-92879786D01*
X128155048Y-92707820D01*
X128155047Y-92707820D01*
X128155051Y-92707816D01*
X128251557Y-92518412D01*
X128317246Y-92316243D01*
X128323982Y-92273713D01*
X141029500Y-92273713D01*
X141029500Y-92486287D01*
X141037726Y-92538226D01*
X141061861Y-92690609D01*
X141062754Y-92696243D01*
X141066514Y-92707816D01*
X141128444Y-92898414D01*
X141224951Y-93087820D01*
X141349890Y-93259786D01*
X141500213Y-93410109D01*
X141672182Y-93535050D01*
X141680946Y-93539516D01*
X141731742Y-93587491D01*
X141748536Y-93655312D01*
X141725998Y-93721447D01*
X141680946Y-93760484D01*
X141672182Y-93764949D01*
X141500213Y-93889890D01*
X141349890Y-94040213D01*
X141224951Y-94212179D01*
X141128444Y-94401585D01*
X141062753Y-94603760D01*
X141029500Y-94813713D01*
X141029500Y-95026286D01*
X141059694Y-95216928D01*
X141062754Y-95236243D01*
X141099223Y-95348484D01*
X141128444Y-95438414D01*
X141224951Y-95627820D01*
X141349890Y-95799786D01*
X141500213Y-95950109D01*
X141672182Y-96075050D01*
X141680946Y-96079516D01*
X141731742Y-96127491D01*
X141748536Y-96195312D01*
X141725998Y-96261447D01*
X141680946Y-96300484D01*
X141672182Y-96304949D01*
X141500213Y-96429890D01*
X141349890Y-96580213D01*
X141224951Y-96752179D01*
X141128444Y-96941585D01*
X141062753Y-97143760D01*
X141029500Y-97353713D01*
X141029500Y-97566286D01*
X141062753Y-97776239D01*
X141128444Y-97978414D01*
X141224951Y-98167820D01*
X141349890Y-98339786D01*
X141500213Y-98490109D01*
X141672182Y-98615050D01*
X141680946Y-98619516D01*
X141731742Y-98667491D01*
X141748536Y-98735312D01*
X141725998Y-98801447D01*
X141680946Y-98840484D01*
X141672182Y-98844949D01*
X141500213Y-98969890D01*
X141349890Y-99120213D01*
X141224951Y-99292179D01*
X141128444Y-99481585D01*
X141062753Y-99683760D01*
X141029500Y-99893713D01*
X141029500Y-100106286D01*
X141057675Y-100284180D01*
X141062754Y-100316243D01*
X141116003Y-100480127D01*
X141128444Y-100518414D01*
X141224951Y-100707820D01*
X141349890Y-100879786D01*
X141500213Y-101030109D01*
X141672182Y-101155050D01*
X141680946Y-101159516D01*
X141731742Y-101207491D01*
X141748536Y-101275312D01*
X141725998Y-101341447D01*
X141680946Y-101380484D01*
X141672182Y-101384949D01*
X141500213Y-101509890D01*
X141349890Y-101660213D01*
X141224951Y-101832179D01*
X141128444Y-102021585D01*
X141062753Y-102223760D01*
X141043259Y-102346844D01*
X141029500Y-102433713D01*
X141029500Y-102646287D01*
X141062754Y-102856243D01*
X141117093Y-103023481D01*
X141128444Y-103058414D01*
X141224951Y-103247820D01*
X141349890Y-103419786D01*
X141500213Y-103570109D01*
X141672179Y-103695048D01*
X141672181Y-103695049D01*
X141672184Y-103695051D01*
X141681493Y-103699794D01*
X141732290Y-103747766D01*
X141749087Y-103815587D01*
X141726552Y-103881722D01*
X141681505Y-103920760D01*
X141672446Y-103925376D01*
X141672440Y-103925380D01*
X141618282Y-103964727D01*
X141618282Y-103964728D01*
X142250591Y-104597037D01*
X142187007Y-104614075D01*
X142072993Y-104679901D01*
X141979901Y-104772993D01*
X141914075Y-104887007D01*
X141897037Y-104950590D01*
X141264728Y-104318282D01*
X141264727Y-104318282D01*
X141225380Y-104372439D01*
X141128904Y-104561782D01*
X141063242Y-104763869D01*
X141063242Y-104763872D01*
X141030000Y-104973753D01*
X141030000Y-105186246D01*
X141063242Y-105396127D01*
X141063242Y-105396130D01*
X141128904Y-105598217D01*
X141225375Y-105787550D01*
X141264728Y-105841716D01*
X141897037Y-105209408D01*
X141914075Y-105272993D01*
X141979901Y-105387007D01*
X142072993Y-105480099D01*
X142187007Y-105545925D01*
X142250590Y-105562962D01*
X141580370Y-106233181D01*
X141519047Y-106266666D01*
X141492698Y-106269500D01*
X141482134Y-106269500D01*
X141482123Y-106269501D01*
X141422516Y-106275908D01*
X141287671Y-106326202D01*
X141287664Y-106326206D01*
X141172455Y-106412452D01*
X141172452Y-106412455D01*
X141086206Y-106527664D01*
X141086202Y-106527671D01*
X141035908Y-106662517D01*
X141029501Y-106722116D01*
X141029501Y-106722123D01*
X141029500Y-106722135D01*
X141029500Y-108517870D01*
X141029501Y-108517876D01*
X141035908Y-108577483D01*
X141086202Y-108712328D01*
X141086206Y-108712335D01*
X141172452Y-108827544D01*
X141172455Y-108827547D01*
X141287664Y-108913793D01*
X141287671Y-108913797D01*
X141422517Y-108964091D01*
X141422516Y-108964091D01*
X141429444Y-108964835D01*
X141482127Y-108970500D01*
X143277872Y-108970499D01*
X143337483Y-108964091D01*
X143472331Y-108913796D01*
X143587546Y-108827546D01*
X143673796Y-108712331D01*
X143724091Y-108577483D01*
X143730500Y-108517873D01*
X143730499Y-106722128D01*
X143724091Y-106662517D01*
X143713267Y-106633497D01*
X143673797Y-106527671D01*
X143673793Y-106527664D01*
X143587547Y-106412455D01*
X143587544Y-106412452D01*
X143472335Y-106326206D01*
X143472328Y-106326202D01*
X143337482Y-106275908D01*
X143337483Y-106275908D01*
X143277883Y-106269501D01*
X143277881Y-106269500D01*
X143277873Y-106269500D01*
X143277865Y-106269500D01*
X143267309Y-106269500D01*
X143200270Y-106249815D01*
X143179628Y-106233181D01*
X142509408Y-105562962D01*
X142572993Y-105545925D01*
X142687007Y-105480099D01*
X142780099Y-105387007D01*
X142845925Y-105272993D01*
X142862962Y-105209408D01*
X143495270Y-105841717D01*
X143495270Y-105841716D01*
X143534622Y-105787554D01*
X143631095Y-105598217D01*
X143696757Y-105396130D01*
X143696757Y-105396127D01*
X143730000Y-105186246D01*
X143730000Y-104973753D01*
X143696757Y-104763872D01*
X143696757Y-104763869D01*
X143631095Y-104561782D01*
X143534624Y-104372449D01*
X143495270Y-104318282D01*
X143495269Y-104318282D01*
X142862962Y-104950590D01*
X142845925Y-104887007D01*
X142780099Y-104772993D01*
X142687007Y-104679901D01*
X142572993Y-104614075D01*
X142509409Y-104597037D01*
X143141716Y-103964728D01*
X143087547Y-103925373D01*
X143087547Y-103925372D01*
X143078500Y-103920763D01*
X143027706Y-103872788D01*
X143010912Y-103804966D01*
X143033451Y-103738832D01*
X143078508Y-103699793D01*
X143087816Y-103695051D01*
X143167007Y-103637515D01*
X143259786Y-103570109D01*
X143259788Y-103570106D01*
X143259792Y-103570104D01*
X143410104Y-103419792D01*
X143410106Y-103419788D01*
X143410109Y-103419786D01*
X143505627Y-103288315D01*
X144524500Y-103288315D01*
X144524500Y-103886669D01*
X144524501Y-103886687D01*
X144534825Y-103987752D01*
X144589092Y-104151515D01*
X144589093Y-104151518D01*
X144679661Y-104298351D01*
X144793629Y-104412319D01*
X144827114Y-104473642D01*
X144822130Y-104543334D01*
X144793629Y-104587681D01*
X144679661Y-104701648D01*
X144589093Y-104848481D01*
X144589091Y-104848486D01*
X144567930Y-104912347D01*
X144534826Y-105012247D01*
X144534826Y-105012248D01*
X144534825Y-105012248D01*
X144524500Y-105113315D01*
X144524500Y-105711669D01*
X144524501Y-105711687D01*
X144534825Y-105812752D01*
X144571109Y-105922249D01*
X144589020Y-105976300D01*
X144589092Y-105976515D01*
X144589093Y-105976518D01*
X144679661Y-106123351D01*
X144682159Y-106125849D01*
X144683325Y-106127985D01*
X144684138Y-106129013D01*
X144683962Y-106129151D01*
X144715644Y-106187172D01*
X144716096Y-106237720D01*
X144699500Y-106321159D01*
X144699500Y-106478846D01*
X144730261Y-106633489D01*
X144730264Y-106633501D01*
X144790602Y-106779172D01*
X144790609Y-106779185D01*
X144878210Y-106910288D01*
X144878213Y-106910292D01*
X144989707Y-107021786D01*
X144989711Y-107021789D01*
X145120814Y-107109390D01*
X145120827Y-107109397D01*
X145266498Y-107169735D01*
X145266503Y-107169737D01*
X145421153Y-107200499D01*
X145421156Y-107200500D01*
X145421158Y-107200500D01*
X145578844Y-107200500D01*
X145578845Y-107200499D01*
X145733497Y-107169737D01*
X145853059Y-107120213D01*
X145879172Y-107109397D01*
X145879172Y-107109396D01*
X145879179Y-107109394D01*
X146010289Y-107021789D01*
X146121789Y-106910289D01*
X146209394Y-106779179D01*
X146269737Y-106633497D01*
X146300500Y-106478842D01*
X146300500Y-106458065D01*
X146320185Y-106391026D01*
X146372989Y-106345271D01*
X146442147Y-106335327D01*
X146463504Y-106340359D01*
X146612347Y-106389680D01*
X146713352Y-106399999D01*
X146750000Y-106399999D01*
X146750000Y-105662500D01*
X147250000Y-105662500D01*
X147250000Y-106399999D01*
X147286640Y-106399999D01*
X147286654Y-106399998D01*
X147387652Y-106389680D01*
X147551300Y-106335453D01*
X147551307Y-106335450D01*
X147684902Y-106253047D01*
X147752295Y-106234606D01*
X147815098Y-106253047D01*
X147948692Y-106335450D01*
X147948699Y-106335453D01*
X148112347Y-106389680D01*
X148213352Y-106399999D01*
X148250000Y-106399999D01*
X148750000Y-106399999D01*
X148786640Y-106399999D01*
X148786654Y-106399998D01*
X148887652Y-106389680D01*
X149051300Y-106335453D01*
X149051311Y-106335448D01*
X149198034Y-106244947D01*
X149198038Y-106244944D01*
X149319944Y-106123038D01*
X149319947Y-106123034D01*
X149410448Y-105976311D01*
X149410453Y-105976300D01*
X149464680Y-105812652D01*
X149474999Y-105711654D01*
X149475000Y-105711641D01*
X149475000Y-105612500D01*
X148750000Y-105612500D01*
X148750000Y-106399999D01*
X148250000Y-106399999D01*
X148250000Y-105612500D01*
X148105000Y-105612500D01*
X148091319Y-105626181D01*
X148029996Y-105659666D01*
X148003638Y-105662500D01*
X147250000Y-105662500D01*
X146750000Y-105662500D01*
X146750000Y-105536500D01*
X146769685Y-105469461D01*
X146822489Y-105423706D01*
X146874000Y-105412500D01*
X147000000Y-105412500D01*
X147000000Y-105286500D01*
X147019685Y-105219461D01*
X147072489Y-105173706D01*
X147124000Y-105162500D01*
X147395000Y-105162500D01*
X147408681Y-105148819D01*
X147470004Y-105115334D01*
X147496362Y-105112500D01*
X149474999Y-105112500D01*
X149474999Y-105013360D01*
X149474998Y-105013345D01*
X149464680Y-104912347D01*
X149410453Y-104748699D01*
X149410448Y-104748688D01*
X149319947Y-104601965D01*
X149319944Y-104601961D01*
X149306017Y-104588034D01*
X149272532Y-104526711D01*
X149277516Y-104457019D01*
X149306017Y-104412672D01*
X149320340Y-104398350D01*
X149410908Y-104251516D01*
X149465174Y-104087753D01*
X149475500Y-103986677D01*
X149475499Y-103288324D01*
X149465174Y-103187247D01*
X149410908Y-103023484D01*
X149320340Y-102876650D01*
X149198350Y-102754660D01*
X149051516Y-102664092D01*
X148887753Y-102609826D01*
X148887751Y-102609825D01*
X148786678Y-102599500D01*
X148213330Y-102599500D01*
X148213312Y-102599501D01*
X148112247Y-102609825D01*
X147948484Y-102664092D01*
X147948481Y-102664093D01*
X147815097Y-102746366D01*
X147747704Y-102764806D01*
X147684903Y-102746366D01*
X147551518Y-102664093D01*
X147551513Y-102664091D01*
X147497781Y-102646286D01*
X147387753Y-102609826D01*
X147387751Y-102609825D01*
X147286684Y-102599500D01*
X147286677Y-102599500D01*
X147166259Y-102599500D01*
X147147077Y-102593867D01*
X147127100Y-102593154D01*
X147114240Y-102584225D01*
X147099220Y-102579815D01*
X147086130Y-102564708D01*
X147069707Y-102553306D01*
X147055498Y-102529357D01*
X147053465Y-102527011D01*
X147051698Y-102522952D01*
X147007527Y-102416313D01*
X147000058Y-102346844D01*
X147023713Y-102293374D01*
X147082371Y-102216930D01*
X147087875Y-102209757D01*
X147153701Y-102095743D01*
X147204200Y-101973829D01*
X147238275Y-101846662D01*
X147255500Y-101715826D01*
X147255500Y-101413389D01*
X148899500Y-101413389D01*
X148899500Y-101586610D01*
X148919965Y-101715826D01*
X148926598Y-101757701D01*
X148980127Y-101922445D01*
X149058768Y-102076788D01*
X149160586Y-102216928D01*
X149283072Y-102339414D01*
X149423212Y-102441232D01*
X149577555Y-102519873D01*
X149742299Y-102573402D01*
X149913389Y-102600500D01*
X149913390Y-102600500D01*
X150086610Y-102600500D01*
X150086611Y-102600500D01*
X150257701Y-102573402D01*
X150422445Y-102519873D01*
X150576788Y-102441232D01*
X150716928Y-102339414D01*
X150839414Y-102216928D01*
X150941232Y-102076788D01*
X151019873Y-101922445D01*
X151073402Y-101757701D01*
X151100500Y-101586611D01*
X151100500Y-101413389D01*
X151073402Y-101242299D01*
X151019873Y-101077555D01*
X150941232Y-100923212D01*
X150839414Y-100783072D01*
X150716928Y-100660586D01*
X150576788Y-100558768D01*
X150422445Y-100480127D01*
X150257701Y-100426598D01*
X150257699Y-100426597D01*
X150257698Y-100426597D01*
X150126271Y-100405781D01*
X150086611Y-100399500D01*
X149913389Y-100399500D01*
X149873728Y-100405781D01*
X149742302Y-100426597D01*
X149577552Y-100480128D01*
X149423211Y-100558768D01*
X149343256Y-100616859D01*
X149283072Y-100660586D01*
X149283070Y-100660588D01*
X149283069Y-100660588D01*
X149160588Y-100783069D01*
X149160588Y-100783070D01*
X149160586Y-100783072D01*
X149116859Y-100843256D01*
X149058768Y-100923211D01*
X148980128Y-101077552D01*
X148926597Y-101242302D01*
X148899500Y-101413389D01*
X147255500Y-101413389D01*
X147255500Y-101150000D01*
X147250355Y-101078060D01*
X147239396Y-101040740D01*
X147235636Y-100988158D01*
X147255500Y-100850000D01*
X147255500Y-100284174D01*
X147238275Y-100153338D01*
X147204200Y-100026171D01*
X147153701Y-99904257D01*
X147153698Y-99904252D01*
X147153697Y-99904249D01*
X147153696Y-99904248D01*
X147087879Y-99790250D01*
X147087875Y-99790243D01*
X147007541Y-99685551D01*
X146914449Y-99592459D01*
X146914444Y-99592455D01*
X146809767Y-99512132D01*
X146809749Y-99512120D01*
X146695753Y-99446304D01*
X146695741Y-99446298D01*
X146677042Y-99438552D01*
X146622641Y-99394709D01*
X146600579Y-99328413D01*
X146600500Y-99323993D01*
X146600500Y-96874900D01*
X146620185Y-96807861D01*
X146659401Y-96769363D01*
X146698350Y-96745340D01*
X146820340Y-96623350D01*
X146910908Y-96476516D01*
X146965174Y-96312753D01*
X146975500Y-96211677D01*
X146975499Y-95613324D01*
X146965174Y-95512247D01*
X146910908Y-95348484D01*
X146820340Y-95201650D01*
X146706371Y-95087681D01*
X146672886Y-95026358D01*
X146677870Y-94956666D01*
X146706371Y-94912319D01*
X146820340Y-94798350D01*
X146910908Y-94651516D01*
X146965174Y-94487753D01*
X146972771Y-94413389D01*
X148899500Y-94413389D01*
X148899500Y-94586611D01*
X148926598Y-94757701D01*
X148980127Y-94922445D01*
X149058768Y-95076788D01*
X149160586Y-95216928D01*
X149283072Y-95339414D01*
X149423212Y-95441232D01*
X149577555Y-95519873D01*
X149742299Y-95573402D01*
X149913389Y-95600500D01*
X149913390Y-95600500D01*
X150086610Y-95600500D01*
X150086611Y-95600500D01*
X150257701Y-95573402D01*
X150422445Y-95519873D01*
X150576788Y-95441232D01*
X150716928Y-95339414D01*
X150839414Y-95216928D01*
X150941232Y-95076788D01*
X151019873Y-94922445D01*
X151073402Y-94757701D01*
X151100500Y-94586611D01*
X151100500Y-94413389D01*
X151073402Y-94242299D01*
X151019873Y-94077555D01*
X150941232Y-93923212D01*
X150839414Y-93783072D01*
X150716928Y-93660586D01*
X150576788Y-93558768D01*
X150422447Y-93480128D01*
X150422446Y-93480127D01*
X150422445Y-93480127D01*
X150257701Y-93426598D01*
X150257699Y-93426597D01*
X150257698Y-93426597D01*
X150126271Y-93405781D01*
X150086611Y-93399500D01*
X149913389Y-93399500D01*
X149873728Y-93405781D01*
X149742302Y-93426597D01*
X149742299Y-93426598D01*
X149581498Y-93478846D01*
X149577552Y-93480128D01*
X149423211Y-93558768D01*
X149395976Y-93578556D01*
X149283072Y-93660586D01*
X149283070Y-93660588D01*
X149283069Y-93660588D01*
X149160588Y-93783069D01*
X149160588Y-93783070D01*
X149160586Y-93783072D01*
X149156777Y-93788315D01*
X149058768Y-93923211D01*
X148980128Y-94077552D01*
X148926597Y-94242302D01*
X148903732Y-94386669D01*
X148899500Y-94413389D01*
X146972771Y-94413389D01*
X146975500Y-94386677D01*
X146975499Y-93867519D01*
X146995183Y-93800481D01*
X146996398Y-93798628D01*
X147009394Y-93779179D01*
X147069737Y-93633497D01*
X147100500Y-93478842D01*
X147100500Y-93321158D01*
X147100500Y-93321155D01*
X147100499Y-93321153D01*
X147087273Y-93254661D01*
X147069737Y-93166503D01*
X147068738Y-93164091D01*
X147009397Y-93020827D01*
X147009390Y-93020814D01*
X146921789Y-92889711D01*
X146921786Y-92889707D01*
X146810292Y-92778213D01*
X146810288Y-92778210D01*
X146679185Y-92690609D01*
X146679172Y-92690602D01*
X146533501Y-92630264D01*
X146533489Y-92630261D01*
X146378845Y-92599500D01*
X146378842Y-92599500D01*
X146221158Y-92599500D01*
X146221155Y-92599500D01*
X146066510Y-92630261D01*
X146066498Y-92630264D01*
X145920827Y-92690602D01*
X145920814Y-92690609D01*
X145789711Y-92778210D01*
X145789707Y-92778213D01*
X145678213Y-92889707D01*
X145678210Y-92889711D01*
X145590609Y-93020814D01*
X145590604Y-93020824D01*
X145566139Y-93079888D01*
X145522297Y-93134292D01*
X145490585Y-93150140D01*
X145448485Y-93164091D01*
X145301648Y-93254661D01*
X145179661Y-93376648D01*
X145089093Y-93523481D01*
X145089092Y-93523484D01*
X145034826Y-93687247D01*
X145034826Y-93687248D01*
X145034825Y-93687248D01*
X145024500Y-93788315D01*
X145024500Y-94386669D01*
X145024501Y-94386687D01*
X145034825Y-94487752D01*
X145067584Y-94586610D01*
X145089092Y-94651516D01*
X145154587Y-94757701D01*
X145179661Y-94798351D01*
X145293629Y-94912319D01*
X145327114Y-94973642D01*
X145322130Y-95043334D01*
X145293629Y-95087681D01*
X145179661Y-95201648D01*
X145089093Y-95348481D01*
X145089092Y-95348484D01*
X145034826Y-95512247D01*
X145034826Y-95512248D01*
X145034825Y-95512248D01*
X145024500Y-95613315D01*
X145024500Y-96211669D01*
X145024501Y-96211687D01*
X145034825Y-96312752D01*
X145071109Y-96422249D01*
X145089092Y-96476516D01*
X145179660Y-96623350D01*
X145301650Y-96745340D01*
X145340597Y-96769362D01*
X145387320Y-96821307D01*
X145399500Y-96874900D01*
X145399500Y-99323993D01*
X145379815Y-99391032D01*
X145327011Y-99436787D01*
X145322958Y-99438552D01*
X145304258Y-99446298D01*
X145304246Y-99446304D01*
X145190250Y-99512120D01*
X145190232Y-99512132D01*
X145085555Y-99592455D01*
X145085545Y-99592464D01*
X144992464Y-99685545D01*
X144992455Y-99685555D01*
X144912132Y-99790232D01*
X144912120Y-99790250D01*
X144846303Y-99904248D01*
X144846302Y-99904249D01*
X144795800Y-100026170D01*
X144761724Y-100153341D01*
X144744500Y-100284166D01*
X144744500Y-100850002D01*
X144749644Y-100921939D01*
X144760603Y-100959262D01*
X144764363Y-101011841D01*
X144744500Y-101149998D01*
X144744500Y-101715833D01*
X144761724Y-101846658D01*
X144761725Y-101846662D01*
X144795800Y-101973829D01*
X144838447Y-102076788D01*
X144846302Y-102095750D01*
X144846303Y-102095751D01*
X144912120Y-102209749D01*
X144912132Y-102209767D01*
X144976287Y-102293374D01*
X144992459Y-102314449D01*
X145085551Y-102407541D01*
X145085555Y-102407544D01*
X145092049Y-102412527D01*
X145133252Y-102468955D01*
X145137406Y-102538701D01*
X145103193Y-102599621D01*
X145055567Y-102628608D01*
X144948484Y-102664092D01*
X144948481Y-102664093D01*
X144801648Y-102754661D01*
X144679661Y-102876648D01*
X144589093Y-103023481D01*
X144589092Y-103023484D01*
X144534826Y-103187247D01*
X144534826Y-103187248D01*
X144534825Y-103187248D01*
X144524500Y-103288315D01*
X143505627Y-103288315D01*
X143535050Y-103247817D01*
X143544705Y-103228870D01*
X143575784Y-103167871D01*
X143631557Y-103058412D01*
X143697246Y-102856243D01*
X143730500Y-102646287D01*
X143730500Y-102433713D01*
X143697246Y-102223757D01*
X143631557Y-102021588D01*
X143535051Y-101832184D01*
X143535049Y-101832181D01*
X143535048Y-101832179D01*
X143410109Y-101660213D01*
X143259786Y-101509890D01*
X143087820Y-101384951D01*
X143087115Y-101384591D01*
X143079054Y-101380485D01*
X143028259Y-101332512D01*
X143011463Y-101264692D01*
X143033999Y-101198556D01*
X143079054Y-101159515D01*
X143087816Y-101155051D01*
X143193786Y-101078060D01*
X143259786Y-101030109D01*
X143259788Y-101030106D01*
X143259792Y-101030104D01*
X143410104Y-100879792D01*
X143410106Y-100879788D01*
X143410109Y-100879786D01*
X143535048Y-100707820D01*
X143535047Y-100707820D01*
X143535051Y-100707816D01*
X143631557Y-100518412D01*
X143697246Y-100316243D01*
X143730500Y-100106287D01*
X143730500Y-99893713D01*
X143697246Y-99683757D01*
X143631557Y-99481588D01*
X143535051Y-99292184D01*
X143535049Y-99292181D01*
X143535048Y-99292179D01*
X143410109Y-99120213D01*
X143259786Y-98969890D01*
X143087820Y-98844951D01*
X143087115Y-98844591D01*
X143079054Y-98840485D01*
X143028259Y-98792512D01*
X143011463Y-98724692D01*
X143033999Y-98658556D01*
X143079054Y-98619515D01*
X143087816Y-98615051D01*
X143109789Y-98599086D01*
X143259786Y-98490109D01*
X143259788Y-98490106D01*
X143259792Y-98490104D01*
X143410104Y-98339792D01*
X143410106Y-98339788D01*
X143410109Y-98339786D01*
X143535048Y-98167820D01*
X143535047Y-98167820D01*
X143535051Y-98167816D01*
X143631557Y-97978412D01*
X143697246Y-97776243D01*
X143730500Y-97566287D01*
X143730500Y-97353713D01*
X143697246Y-97143757D01*
X143631557Y-96941588D01*
X143535051Y-96752184D01*
X143535049Y-96752181D01*
X143535048Y-96752179D01*
X143410109Y-96580213D01*
X143259786Y-96429890D01*
X143087820Y-96304951D01*
X143087115Y-96304591D01*
X143079054Y-96300485D01*
X143028259Y-96252512D01*
X143011463Y-96184692D01*
X143033999Y-96118556D01*
X143079054Y-96079515D01*
X143087816Y-96075051D01*
X143109789Y-96059086D01*
X143259786Y-95950109D01*
X143259788Y-95950106D01*
X143259792Y-95950104D01*
X143410104Y-95799792D01*
X143410106Y-95799788D01*
X143410109Y-95799786D01*
X143535048Y-95627820D01*
X143535047Y-95627820D01*
X143535051Y-95627816D01*
X143631557Y-95438412D01*
X143697246Y-95236243D01*
X143730500Y-95026287D01*
X143730500Y-94813713D01*
X143697246Y-94603757D01*
X143631557Y-94401588D01*
X143535051Y-94212184D01*
X143535049Y-94212181D01*
X143535048Y-94212179D01*
X143410109Y-94040213D01*
X143259786Y-93889890D01*
X143087820Y-93764951D01*
X143087115Y-93764591D01*
X143079054Y-93760485D01*
X143028259Y-93712512D01*
X143011463Y-93644692D01*
X143033999Y-93578556D01*
X143079054Y-93539515D01*
X143087816Y-93535051D01*
X143165182Y-93478842D01*
X143259786Y-93410109D01*
X143259788Y-93410106D01*
X143259792Y-93410104D01*
X143410104Y-93259792D01*
X143410106Y-93259788D01*
X143410109Y-93259786D01*
X143535048Y-93087820D01*
X143535047Y-93087820D01*
X143535051Y-93087816D01*
X143631557Y-92898412D01*
X143697246Y-92696243D01*
X143730500Y-92486287D01*
X143730500Y-92273713D01*
X156269500Y-92273713D01*
X156269500Y-92486287D01*
X156277726Y-92538226D01*
X156301861Y-92690609D01*
X156302754Y-92696243D01*
X156306514Y-92707816D01*
X156368444Y-92898414D01*
X156464951Y-93087820D01*
X156589890Y-93259786D01*
X156740213Y-93410109D01*
X156912182Y-93535050D01*
X156920946Y-93539516D01*
X156971742Y-93587491D01*
X156988536Y-93655312D01*
X156965998Y-93721447D01*
X156920946Y-93760484D01*
X156912182Y-93764949D01*
X156740213Y-93889890D01*
X156589890Y-94040213D01*
X156464951Y-94212179D01*
X156368444Y-94401585D01*
X156302753Y-94603760D01*
X156269500Y-94813713D01*
X156269500Y-95026286D01*
X156299694Y-95216928D01*
X156302754Y-95236243D01*
X156339223Y-95348484D01*
X156368444Y-95438414D01*
X156464951Y-95627820D01*
X156589890Y-95799786D01*
X156740213Y-95950109D01*
X156912182Y-96075050D01*
X156920946Y-96079516D01*
X156971742Y-96127491D01*
X156988536Y-96195312D01*
X156965998Y-96261447D01*
X156920946Y-96300484D01*
X156912182Y-96304949D01*
X156740213Y-96429890D01*
X156589890Y-96580213D01*
X156464951Y-96752179D01*
X156368444Y-96941585D01*
X156302753Y-97143760D01*
X156269500Y-97353713D01*
X156269500Y-97566286D01*
X156302753Y-97776239D01*
X156368444Y-97978414D01*
X156464951Y-98167820D01*
X156589890Y-98339786D01*
X156740213Y-98490109D01*
X156912182Y-98615050D01*
X156920946Y-98619516D01*
X156971742Y-98667491D01*
X156988536Y-98735312D01*
X156965998Y-98801447D01*
X156920946Y-98840484D01*
X156912182Y-98844949D01*
X156740213Y-98969890D01*
X156589890Y-99120213D01*
X156464951Y-99292179D01*
X156368444Y-99481585D01*
X156302753Y-99683760D01*
X156269500Y-99893713D01*
X156269500Y-100106286D01*
X156297675Y-100284180D01*
X156302754Y-100316243D01*
X156356003Y-100480127D01*
X156368444Y-100518414D01*
X156464951Y-100707820D01*
X156589890Y-100879786D01*
X156740213Y-101030109D01*
X156912182Y-101155050D01*
X156920946Y-101159516D01*
X156971742Y-101207491D01*
X156988536Y-101275312D01*
X156965998Y-101341447D01*
X156920946Y-101380484D01*
X156912182Y-101384949D01*
X156740213Y-101509890D01*
X156589890Y-101660213D01*
X156464951Y-101832179D01*
X156368444Y-102021585D01*
X156302753Y-102223760D01*
X156283259Y-102346844D01*
X156269500Y-102433713D01*
X156269500Y-102646287D01*
X156302754Y-102856243D01*
X156357093Y-103023481D01*
X156368444Y-103058414D01*
X156464951Y-103247820D01*
X156589890Y-103419786D01*
X156740213Y-103570109D01*
X156912182Y-103695050D01*
X156920946Y-103699516D01*
X156971742Y-103747491D01*
X156988536Y-103815312D01*
X156965998Y-103881447D01*
X156920946Y-103920484D01*
X156912182Y-103924949D01*
X156740213Y-104049890D01*
X156589890Y-104200213D01*
X156464951Y-104372179D01*
X156368444Y-104561585D01*
X156302753Y-104763760D01*
X156269500Y-104973713D01*
X156269500Y-105186286D01*
X156302735Y-105396127D01*
X156302754Y-105396243D01*
X156348326Y-105536500D01*
X156368444Y-105598414D01*
X156464951Y-105787820D01*
X156589890Y-105959786D01*
X156703430Y-106073326D01*
X156736915Y-106134649D01*
X156731931Y-106204341D01*
X156690059Y-106260274D01*
X156659083Y-106277189D01*
X156527669Y-106326203D01*
X156527664Y-106326206D01*
X156412455Y-106412452D01*
X156412452Y-106412455D01*
X156326206Y-106527664D01*
X156326202Y-106527671D01*
X156275908Y-106662517D01*
X156269501Y-106722116D01*
X156269501Y-106722123D01*
X156269500Y-106722135D01*
X156269500Y-108517870D01*
X156269501Y-108517876D01*
X156275908Y-108577483D01*
X156326202Y-108712328D01*
X156326206Y-108712335D01*
X156412452Y-108827544D01*
X156412455Y-108827547D01*
X156527664Y-108913793D01*
X156527671Y-108913797D01*
X156662517Y-108964091D01*
X156662516Y-108964091D01*
X156669444Y-108964835D01*
X156722127Y-108970500D01*
X158517872Y-108970499D01*
X158577483Y-108964091D01*
X158712331Y-108913796D01*
X158827546Y-108827546D01*
X158913796Y-108712331D01*
X158964091Y-108577483D01*
X158970500Y-108517873D01*
X158970499Y-106722128D01*
X158964091Y-106662517D01*
X158953267Y-106633497D01*
X158913797Y-106527671D01*
X158913793Y-106527664D01*
X158827547Y-106412455D01*
X158827544Y-106412452D01*
X158712335Y-106326206D01*
X158712328Y-106326202D01*
X158580917Y-106277189D01*
X158524983Y-106235318D01*
X158500566Y-106169853D01*
X158515418Y-106101580D01*
X158536563Y-106073332D01*
X158650104Y-105959792D01*
X158775051Y-105787816D01*
X158871557Y-105598412D01*
X158937246Y-105396243D01*
X158970500Y-105186287D01*
X158970500Y-104973713D01*
X158937246Y-104763757D01*
X158871557Y-104561588D01*
X158775051Y-104372184D01*
X158775049Y-104372181D01*
X158775048Y-104372179D01*
X158650109Y-104200213D01*
X158499786Y-104049890D01*
X158327820Y-103924951D01*
X158319600Y-103920763D01*
X158319054Y-103920485D01*
X158268259Y-103872512D01*
X158251463Y-103804692D01*
X158273999Y-103738556D01*
X158319054Y-103699515D01*
X158327816Y-103695051D01*
X158349789Y-103679086D01*
X158499786Y-103570109D01*
X158499788Y-103570106D01*
X158499792Y-103570104D01*
X158650104Y-103419792D01*
X158650106Y-103419788D01*
X158650109Y-103419786D01*
X158745627Y-103288315D01*
X159524500Y-103288315D01*
X159524500Y-103886669D01*
X159524501Y-103886687D01*
X159534825Y-103987752D01*
X159589092Y-104151515D01*
X159589093Y-104151518D01*
X159679661Y-104298351D01*
X159793629Y-104412319D01*
X159827114Y-104473642D01*
X159822130Y-104543334D01*
X159793629Y-104587681D01*
X159679661Y-104701648D01*
X159589093Y-104848481D01*
X159589091Y-104848486D01*
X159567930Y-104912347D01*
X159534826Y-105012247D01*
X159534826Y-105012248D01*
X159534825Y-105012248D01*
X159524500Y-105113315D01*
X159524500Y-105711669D01*
X159524501Y-105711687D01*
X159534825Y-105812752D01*
X159571109Y-105922249D01*
X159589020Y-105976300D01*
X159589092Y-105976515D01*
X159589093Y-105976518D01*
X159679661Y-106123351D01*
X159682159Y-106125849D01*
X159683325Y-106127985D01*
X159684138Y-106129013D01*
X159683962Y-106129151D01*
X159715644Y-106187172D01*
X159716096Y-106237720D01*
X159699500Y-106321159D01*
X159699500Y-106478846D01*
X159730261Y-106633489D01*
X159730264Y-106633501D01*
X159790602Y-106779172D01*
X159790609Y-106779185D01*
X159878210Y-106910288D01*
X159878213Y-106910292D01*
X159989707Y-107021786D01*
X159989711Y-107021789D01*
X160120814Y-107109390D01*
X160120827Y-107109397D01*
X160266498Y-107169735D01*
X160266503Y-107169737D01*
X160421153Y-107200499D01*
X160421156Y-107200500D01*
X160421158Y-107200500D01*
X160578844Y-107200500D01*
X160578845Y-107200499D01*
X160733497Y-107169737D01*
X160853059Y-107120213D01*
X160879172Y-107109397D01*
X160879172Y-107109396D01*
X160879179Y-107109394D01*
X161010289Y-107021789D01*
X161121789Y-106910289D01*
X161209394Y-106779179D01*
X161269737Y-106633497D01*
X161300500Y-106478842D01*
X161300500Y-106458065D01*
X161320185Y-106391026D01*
X161372989Y-106345271D01*
X161442147Y-106335327D01*
X161463504Y-106340359D01*
X161612347Y-106389680D01*
X161713352Y-106399999D01*
X161750000Y-106399999D01*
X161750000Y-105662500D01*
X162250000Y-105662500D01*
X162250000Y-106399999D01*
X162286640Y-106399999D01*
X162286654Y-106399998D01*
X162387652Y-106389680D01*
X162551300Y-106335453D01*
X162551307Y-106335450D01*
X162684902Y-106253047D01*
X162752295Y-106234606D01*
X162815098Y-106253047D01*
X162948692Y-106335450D01*
X162948699Y-106335453D01*
X163112347Y-106389680D01*
X163213352Y-106399999D01*
X163250000Y-106399999D01*
X163750000Y-106399999D01*
X163786640Y-106399999D01*
X163786654Y-106399998D01*
X163887652Y-106389680D01*
X164051300Y-106335453D01*
X164051311Y-106335448D01*
X164198034Y-106244947D01*
X164198038Y-106244944D01*
X164319944Y-106123038D01*
X164319947Y-106123034D01*
X164410448Y-105976311D01*
X164410453Y-105976300D01*
X164464680Y-105812652D01*
X164474999Y-105711654D01*
X164475000Y-105711641D01*
X164475000Y-105612500D01*
X163750000Y-105612500D01*
X163750000Y-106399999D01*
X163250000Y-106399999D01*
X163250000Y-105612500D01*
X163105000Y-105612500D01*
X163091319Y-105626181D01*
X163029996Y-105659666D01*
X163003638Y-105662500D01*
X162250000Y-105662500D01*
X161750000Y-105662500D01*
X161750000Y-105536500D01*
X161769685Y-105469461D01*
X161822489Y-105423706D01*
X161874000Y-105412500D01*
X162000000Y-105412500D01*
X162000000Y-105286500D01*
X162019685Y-105219461D01*
X162072489Y-105173706D01*
X162124000Y-105162500D01*
X162395000Y-105162500D01*
X162408681Y-105148819D01*
X162470004Y-105115334D01*
X162496362Y-105112500D01*
X164474999Y-105112500D01*
X164474999Y-105013360D01*
X164474998Y-105013345D01*
X164464680Y-104912347D01*
X164410453Y-104748699D01*
X164410448Y-104748688D01*
X164319947Y-104601965D01*
X164319944Y-104601961D01*
X164306017Y-104588034D01*
X164272532Y-104526711D01*
X164277516Y-104457019D01*
X164306017Y-104412672D01*
X164320340Y-104398350D01*
X164410908Y-104251516D01*
X164465174Y-104087753D01*
X164475500Y-103986677D01*
X164475499Y-103288324D01*
X164465174Y-103187247D01*
X164410908Y-103023484D01*
X164320340Y-102876650D01*
X164198350Y-102754660D01*
X164051516Y-102664092D01*
X163887753Y-102609826D01*
X163887751Y-102609825D01*
X163786678Y-102599500D01*
X163213330Y-102599500D01*
X163213312Y-102599501D01*
X163112247Y-102609825D01*
X162948484Y-102664092D01*
X162948481Y-102664093D01*
X162815097Y-102746366D01*
X162747704Y-102764806D01*
X162684903Y-102746366D01*
X162551518Y-102664093D01*
X162551513Y-102664091D01*
X162497781Y-102646286D01*
X162387753Y-102609826D01*
X162387751Y-102609825D01*
X162286684Y-102599500D01*
X162286677Y-102599500D01*
X162166259Y-102599500D01*
X162147077Y-102593867D01*
X162127100Y-102593154D01*
X162114240Y-102584225D01*
X162099220Y-102579815D01*
X162086130Y-102564708D01*
X162069707Y-102553306D01*
X162055498Y-102529357D01*
X162053465Y-102527011D01*
X162051698Y-102522952D01*
X162007527Y-102416313D01*
X162000058Y-102346844D01*
X162023713Y-102293374D01*
X162082371Y-102216930D01*
X162087875Y-102209757D01*
X162153701Y-102095743D01*
X162204200Y-101973829D01*
X162238275Y-101846662D01*
X162255500Y-101715826D01*
X162255500Y-101413389D01*
X163899500Y-101413389D01*
X163899500Y-101586610D01*
X163919965Y-101715826D01*
X163926598Y-101757701D01*
X163980127Y-101922445D01*
X164058768Y-102076788D01*
X164160586Y-102216928D01*
X164283072Y-102339414D01*
X164423212Y-102441232D01*
X164577555Y-102519873D01*
X164742299Y-102573402D01*
X164913389Y-102600500D01*
X164913390Y-102600500D01*
X165086610Y-102600500D01*
X165086611Y-102600500D01*
X165257701Y-102573402D01*
X165422445Y-102519873D01*
X165576788Y-102441232D01*
X165716928Y-102339414D01*
X165839414Y-102216928D01*
X165941232Y-102076788D01*
X166019873Y-101922445D01*
X166073402Y-101757701D01*
X166100500Y-101586611D01*
X166100500Y-101413389D01*
X166073402Y-101242299D01*
X166019873Y-101077555D01*
X165941232Y-100923212D01*
X165839414Y-100783072D01*
X165716928Y-100660586D01*
X165576788Y-100558768D01*
X165422445Y-100480127D01*
X165257701Y-100426598D01*
X165257699Y-100426597D01*
X165257698Y-100426597D01*
X165126271Y-100405781D01*
X165086611Y-100399500D01*
X164913389Y-100399500D01*
X164873728Y-100405781D01*
X164742302Y-100426597D01*
X164577552Y-100480128D01*
X164423211Y-100558768D01*
X164343256Y-100616859D01*
X164283072Y-100660586D01*
X164283070Y-100660588D01*
X164283069Y-100660588D01*
X164160588Y-100783069D01*
X164160588Y-100783070D01*
X164160586Y-100783072D01*
X164116859Y-100843256D01*
X164058768Y-100923211D01*
X163980128Y-101077552D01*
X163926597Y-101242302D01*
X163899500Y-101413389D01*
X162255500Y-101413389D01*
X162255500Y-101150000D01*
X162250355Y-101078060D01*
X162239396Y-101040740D01*
X162235636Y-100988158D01*
X162255500Y-100850000D01*
X162255500Y-100284174D01*
X162238275Y-100153338D01*
X162204200Y-100026171D01*
X162153701Y-99904257D01*
X162153698Y-99904252D01*
X162153697Y-99904249D01*
X162153696Y-99904248D01*
X162087879Y-99790250D01*
X162087875Y-99790243D01*
X162007541Y-99685551D01*
X161914449Y-99592459D01*
X161914444Y-99592455D01*
X161809767Y-99512132D01*
X161809749Y-99512120D01*
X161695753Y-99446304D01*
X161695741Y-99446298D01*
X161677042Y-99438552D01*
X161622641Y-99394709D01*
X161600579Y-99328413D01*
X161600500Y-99323993D01*
X161600500Y-96874900D01*
X161620185Y-96807861D01*
X161659401Y-96769363D01*
X161698350Y-96745340D01*
X161820340Y-96623350D01*
X161910908Y-96476516D01*
X161965174Y-96312753D01*
X161975500Y-96211677D01*
X161975499Y-95613324D01*
X161965174Y-95512247D01*
X161910908Y-95348484D01*
X161820340Y-95201650D01*
X161706371Y-95087681D01*
X161672886Y-95026358D01*
X161677870Y-94956666D01*
X161706371Y-94912319D01*
X161820340Y-94798350D01*
X161910908Y-94651516D01*
X161965174Y-94487753D01*
X161972771Y-94413389D01*
X163899500Y-94413389D01*
X163899500Y-94586611D01*
X163926598Y-94757701D01*
X163980127Y-94922445D01*
X164058768Y-95076788D01*
X164160586Y-95216928D01*
X164283072Y-95339414D01*
X164423212Y-95441232D01*
X164577555Y-95519873D01*
X164742299Y-95573402D01*
X164913389Y-95600500D01*
X164913390Y-95600500D01*
X165086610Y-95600500D01*
X165086611Y-95600500D01*
X165257701Y-95573402D01*
X165422445Y-95519873D01*
X165576788Y-95441232D01*
X165716928Y-95339414D01*
X165839414Y-95216928D01*
X165941232Y-95076788D01*
X166019873Y-94922445D01*
X166073402Y-94757701D01*
X166100500Y-94586611D01*
X166100500Y-94413389D01*
X166073402Y-94242299D01*
X166019873Y-94077555D01*
X165941232Y-93923212D01*
X165839414Y-93783072D01*
X165716928Y-93660586D01*
X165576788Y-93558768D01*
X165422447Y-93480128D01*
X165422446Y-93480127D01*
X165422445Y-93480127D01*
X165257701Y-93426598D01*
X165257699Y-93426597D01*
X165257698Y-93426597D01*
X165126271Y-93405781D01*
X165086611Y-93399500D01*
X164913389Y-93399500D01*
X164873728Y-93405781D01*
X164742302Y-93426597D01*
X164742299Y-93426598D01*
X164581498Y-93478846D01*
X164577552Y-93480128D01*
X164423211Y-93558768D01*
X164395976Y-93578556D01*
X164283072Y-93660586D01*
X164283070Y-93660588D01*
X164283069Y-93660588D01*
X164160588Y-93783069D01*
X164160588Y-93783070D01*
X164160586Y-93783072D01*
X164156777Y-93788315D01*
X164058768Y-93923211D01*
X163980128Y-94077552D01*
X163926597Y-94242302D01*
X163903732Y-94386669D01*
X163899500Y-94413389D01*
X161972771Y-94413389D01*
X161975500Y-94386677D01*
X161975499Y-93867519D01*
X161995183Y-93800481D01*
X161996398Y-93798628D01*
X162009394Y-93779179D01*
X162069737Y-93633497D01*
X162100500Y-93478842D01*
X162100500Y-93321158D01*
X162100500Y-93321155D01*
X162100499Y-93321153D01*
X162087273Y-93254661D01*
X162069737Y-93166503D01*
X162068738Y-93164091D01*
X162009397Y-93020827D01*
X162009390Y-93020814D01*
X161921789Y-92889711D01*
X161921786Y-92889707D01*
X161810292Y-92778213D01*
X161810288Y-92778210D01*
X161679185Y-92690609D01*
X161679172Y-92690602D01*
X161533501Y-92630264D01*
X161533489Y-92630261D01*
X161378845Y-92599500D01*
X161378842Y-92599500D01*
X161221158Y-92599500D01*
X161221155Y-92599500D01*
X161066510Y-92630261D01*
X161066498Y-92630264D01*
X160920827Y-92690602D01*
X160920814Y-92690609D01*
X160789711Y-92778210D01*
X160789707Y-92778213D01*
X160678213Y-92889707D01*
X160678210Y-92889711D01*
X160590609Y-93020814D01*
X160590604Y-93020824D01*
X160566139Y-93079888D01*
X160522297Y-93134292D01*
X160490585Y-93150140D01*
X160448485Y-93164091D01*
X160301648Y-93254661D01*
X160179661Y-93376648D01*
X160089093Y-93523481D01*
X160089092Y-93523484D01*
X160034826Y-93687247D01*
X160034826Y-93687248D01*
X160034825Y-93687248D01*
X160024500Y-93788315D01*
X160024500Y-94386669D01*
X160024501Y-94386687D01*
X160034825Y-94487752D01*
X160067584Y-94586610D01*
X160089092Y-94651516D01*
X160154587Y-94757701D01*
X160179661Y-94798351D01*
X160293629Y-94912319D01*
X160327114Y-94973642D01*
X160322130Y-95043334D01*
X160293629Y-95087681D01*
X160179661Y-95201648D01*
X160089093Y-95348481D01*
X160089092Y-95348484D01*
X160034826Y-95512247D01*
X160034826Y-95512248D01*
X160034825Y-95512248D01*
X160024500Y-95613315D01*
X160024500Y-96211669D01*
X160024501Y-96211687D01*
X160034825Y-96312752D01*
X160071109Y-96422249D01*
X160089092Y-96476516D01*
X160179660Y-96623350D01*
X160301650Y-96745340D01*
X160340597Y-96769362D01*
X160387320Y-96821307D01*
X160399500Y-96874900D01*
X160399500Y-99323993D01*
X160379815Y-99391032D01*
X160327011Y-99436787D01*
X160322958Y-99438552D01*
X160304258Y-99446298D01*
X160304246Y-99446304D01*
X160190250Y-99512120D01*
X160190232Y-99512132D01*
X160085555Y-99592455D01*
X160085545Y-99592464D01*
X159992464Y-99685545D01*
X159992455Y-99685555D01*
X159912132Y-99790232D01*
X159912120Y-99790250D01*
X159846303Y-99904248D01*
X159846302Y-99904249D01*
X159795800Y-100026170D01*
X159761724Y-100153341D01*
X159744500Y-100284166D01*
X159744500Y-100850002D01*
X159749644Y-100921939D01*
X159760603Y-100959262D01*
X159764363Y-101011841D01*
X159744500Y-101149998D01*
X159744500Y-101715833D01*
X159761724Y-101846658D01*
X159761725Y-101846662D01*
X159795800Y-101973829D01*
X159838447Y-102076788D01*
X159846302Y-102095750D01*
X159846303Y-102095751D01*
X159912120Y-102209749D01*
X159912132Y-102209767D01*
X159976287Y-102293374D01*
X159992459Y-102314449D01*
X160085551Y-102407541D01*
X160085555Y-102407544D01*
X160092049Y-102412527D01*
X160133252Y-102468955D01*
X160137406Y-102538701D01*
X160103193Y-102599621D01*
X160055567Y-102628608D01*
X159948484Y-102664092D01*
X159948481Y-102664093D01*
X159801648Y-102754661D01*
X159679661Y-102876648D01*
X159589093Y-103023481D01*
X159589092Y-103023484D01*
X159534826Y-103187247D01*
X159534826Y-103187248D01*
X159534825Y-103187248D01*
X159524500Y-103288315D01*
X158745627Y-103288315D01*
X158775050Y-103247817D01*
X158784705Y-103228870D01*
X158815784Y-103167871D01*
X158871557Y-103058412D01*
X158937246Y-102856243D01*
X158970500Y-102646287D01*
X158970500Y-102433713D01*
X158937246Y-102223757D01*
X158871557Y-102021588D01*
X158775051Y-101832184D01*
X158775049Y-101832181D01*
X158775048Y-101832179D01*
X158650109Y-101660213D01*
X158499786Y-101509890D01*
X158327820Y-101384951D01*
X158327115Y-101384591D01*
X158319054Y-101380485D01*
X158268259Y-101332512D01*
X158251463Y-101264692D01*
X158273999Y-101198556D01*
X158319054Y-101159515D01*
X158327816Y-101155051D01*
X158433786Y-101078060D01*
X158499786Y-101030109D01*
X158499788Y-101030106D01*
X158499792Y-101030104D01*
X158650104Y-100879792D01*
X158650106Y-100879788D01*
X158650109Y-100879786D01*
X158775048Y-100707820D01*
X158775047Y-100707820D01*
X158775051Y-100707816D01*
X158871557Y-100518412D01*
X158937246Y-100316243D01*
X158970500Y-100106287D01*
X158970500Y-99893713D01*
X158937246Y-99683757D01*
X158871557Y-99481588D01*
X158775051Y-99292184D01*
X158775049Y-99292181D01*
X158775048Y-99292179D01*
X158650109Y-99120213D01*
X158499786Y-98969890D01*
X158327820Y-98844951D01*
X158327115Y-98844591D01*
X158319054Y-98840485D01*
X158268259Y-98792512D01*
X158251463Y-98724692D01*
X158273999Y-98658556D01*
X158319054Y-98619515D01*
X158327816Y-98615051D01*
X158349789Y-98599086D01*
X158499786Y-98490109D01*
X158499788Y-98490106D01*
X158499792Y-98490104D01*
X158650104Y-98339792D01*
X158650106Y-98339788D01*
X158650109Y-98339786D01*
X158775048Y-98167820D01*
X158775047Y-98167820D01*
X158775051Y-98167816D01*
X158871557Y-97978412D01*
X158937246Y-97776243D01*
X158970500Y-97566287D01*
X158970500Y-97353713D01*
X158937246Y-97143757D01*
X158871557Y-96941588D01*
X158775051Y-96752184D01*
X158775049Y-96752181D01*
X158775048Y-96752179D01*
X158650109Y-96580213D01*
X158499786Y-96429890D01*
X158327820Y-96304951D01*
X158327115Y-96304591D01*
X158319054Y-96300485D01*
X158268259Y-96252512D01*
X158251463Y-96184692D01*
X158273999Y-96118556D01*
X158319054Y-96079515D01*
X158327816Y-96075051D01*
X158349789Y-96059086D01*
X158499786Y-95950109D01*
X158499788Y-95950106D01*
X158499792Y-95950104D01*
X158650104Y-95799792D01*
X158650106Y-95799788D01*
X158650109Y-95799786D01*
X158775048Y-95627820D01*
X158775047Y-95627820D01*
X158775051Y-95627816D01*
X158871557Y-95438412D01*
X158937246Y-95236243D01*
X158970500Y-95026287D01*
X158970500Y-94813713D01*
X158937246Y-94603757D01*
X158871557Y-94401588D01*
X158775051Y-94212184D01*
X158775049Y-94212181D01*
X158775048Y-94212179D01*
X158650109Y-94040213D01*
X158499786Y-93889890D01*
X158327820Y-93764951D01*
X158327115Y-93764591D01*
X158319054Y-93760485D01*
X158268259Y-93712512D01*
X158251463Y-93644692D01*
X158273999Y-93578556D01*
X158319054Y-93539515D01*
X158327816Y-93535051D01*
X158405182Y-93478842D01*
X158499786Y-93410109D01*
X158499788Y-93410106D01*
X158499792Y-93410104D01*
X158650104Y-93259792D01*
X158650106Y-93259788D01*
X158650109Y-93259786D01*
X158775048Y-93087820D01*
X158775047Y-93087820D01*
X158775051Y-93087816D01*
X158871557Y-92898412D01*
X158937246Y-92696243D01*
X158970500Y-92486287D01*
X158970500Y-92273713D01*
X158937246Y-92063757D01*
X158871557Y-91861588D01*
X158775051Y-91672184D01*
X158775049Y-91672181D01*
X158775048Y-91672179D01*
X158650109Y-91500213D01*
X158499786Y-91349890D01*
X158327820Y-91224951D01*
X158138414Y-91128444D01*
X158138413Y-91128443D01*
X158138412Y-91128443D01*
X157936243Y-91062754D01*
X157936241Y-91062753D01*
X157936240Y-91062753D01*
X157774957Y-91037208D01*
X157726287Y-91029500D01*
X157513713Y-91029500D01*
X157465042Y-91037208D01*
X157303760Y-91062753D01*
X157101585Y-91128444D01*
X156912179Y-91224951D01*
X156740213Y-91349890D01*
X156589890Y-91500213D01*
X156464951Y-91672179D01*
X156368444Y-91861585D01*
X156302753Y-92063760D01*
X156273344Y-92249443D01*
X156269500Y-92273713D01*
X143730500Y-92273713D01*
X143697246Y-92063757D01*
X143631557Y-91861588D01*
X143535051Y-91672184D01*
X143535049Y-91672181D01*
X143535048Y-91672179D01*
X143410109Y-91500213D01*
X143259786Y-91349890D01*
X143087820Y-91224951D01*
X142898414Y-91128444D01*
X142898413Y-91128443D01*
X142898412Y-91128443D01*
X142696243Y-91062754D01*
X142696241Y-91062753D01*
X142696240Y-91062753D01*
X142534957Y-91037208D01*
X142486287Y-91029500D01*
X142273713Y-91029500D01*
X142225042Y-91037208D01*
X142063760Y-91062753D01*
X141861585Y-91128444D01*
X141672179Y-91224951D01*
X141500213Y-91349890D01*
X141349890Y-91500213D01*
X141224951Y-91672179D01*
X141128444Y-91861585D01*
X141062753Y-92063760D01*
X141033344Y-92249443D01*
X141029500Y-92273713D01*
X128323982Y-92273713D01*
X128350500Y-92106287D01*
X128350500Y-91893713D01*
X128317246Y-91683757D01*
X128251557Y-91481588D01*
X128155051Y-91292184D01*
X128155049Y-91292181D01*
X128155048Y-91292179D01*
X128030109Y-91120213D01*
X127879786Y-90969890D01*
X127707820Y-90844951D01*
X127518414Y-90748444D01*
X127518413Y-90748443D01*
X127518412Y-90748443D01*
X127499907Y-90742430D01*
X127442232Y-90702994D01*
X127415034Y-90638635D01*
X127426949Y-90569789D01*
X127474193Y-90518313D01*
X127538226Y-90500500D01*
X172461774Y-90500500D01*
X172528813Y-90520185D01*
G37*
%TD.AperFunction*%
%TD*%
M02*
