%TF.GenerationSoftware,KiCad,Pcbnew,9.0.3*%
%TF.CreationDate,2026-02-10T09:27:50-05:00*%
%TF.ProjectId,home energy monitor,686f6d65-2065-46e6-9572-6779206d6f6e,0.1*%
%TF.SameCoordinates,Original*%
%TF.FileFunction,Copper,L1,Top*%
%TF.FilePolarity,Positive*%
%FSLAX46Y46*%
G04 Gerber Fmt 4.6, Leading zero omitted, Abs format (unit mm)*
G04 Created by KiCad (PCBNEW 9.0.3) date 2026-02-10 09:27:50*
%MOMM*%
%LPD*%
G01*
G04 APERTURE LIST*
%TA.AperFunction,ComponentPad*%
%ADD10R,1.700000X1.700000*%
%TD*%
%TA.AperFunction,ComponentPad*%
%ADD11C,1.700000*%
%TD*%
%TA.AperFunction,SMDPad,CuDef*%
%ADD12R,2.800000X2.800000*%
%TD*%
%TA.AperFunction,SMDPad,CuDef*%
%ADD13R,2.800000X2.200000*%
%TD*%
%TA.AperFunction,ViaPad*%
%ADD14C,0.600000*%
%TD*%
%TA.AperFunction,Conductor*%
%ADD15C,0.200000*%
%TD*%
G04 APERTURE END LIST*
D10*
%TO.P,J4,1,Pin_1*%
%TO.N,/ADC1*%
X157620000Y-107620000D03*
D11*
%TO.P,J4,2,Pin_2*%
%TO.N,/ADC2*%
X157620000Y-105080000D03*
%TO.P,J4,3,Pin_3*%
%TO.N,/ADC3*%
X157620000Y-102540000D03*
%TO.P,J4,4,Pin_4*%
%TO.N,unconnected-(J4-Pin_4-Pad4)*%
X157620000Y-100000000D03*
%TO.P,J4,5,Pin_5*%
%TO.N,unconnected-(J4-Pin_5-Pad5)*%
X157620000Y-97460000D03*
%TO.P,J4,6,Pin_6*%
%TO.N,unconnected-(J4-Pin_6-Pad6)*%
X157620000Y-94920000D03*
%TO.P,J4,7,Pin_7*%
%TO.N,unconnected-(J4-Pin_7-Pad7)*%
X157620000Y-92380000D03*
%TD*%
%TO.P,J5,7,Pin_7*%
%TO.N,unconnected-(J5-Pin_7-Pad7)*%
X142380000Y-92380000D03*
%TO.P,J5,6,Pin_6*%
%TO.N,unconnected-(J5-Pin_6-Pad6)*%
X142380000Y-94920000D03*
%TO.P,J5,5,Pin_5*%
%TO.N,unconnected-(J5-Pin_5-Pad5)*%
X142380000Y-97460000D03*
%TO.P,J5,4,Pin_4*%
%TO.N,unconnected-(J5-Pin_4-Pad4)*%
X142380000Y-100000000D03*
%TO.P,J5,3,Pin_3*%
%TO.N,VCC*%
X142380000Y-102540000D03*
%TO.P,J5,2,Pin_2*%
%TO.N,GND*%
X142380000Y-105080000D03*
D10*
%TO.P,J5,1,Pin_1*%
%TO.N,unconnected-(J5-Pin_1-Pad1)*%
X142380000Y-107620000D03*
%TD*%
D12*
%TO.P,CT3,T*%
%TO.N,Net-(JP3-A)*%
X161300000Y-102800000D03*
D13*
%TO.P,CT3,S*%
%TO.N,/ADC3*%
X161300000Y-93400000D03*
%TO.P,CT3,R*%
%TO.N,unconnected-(CT3-PadR)*%
X168700000Y-95400000D03*
%TD*%
D12*
%TO.P,CT2,T*%
%TO.N,Net-(JP2-A)*%
X146300000Y-102800000D03*
D13*
%TO.P,CT2,S*%
%TO.N,/ADC2*%
X146300000Y-93400000D03*
%TO.P,CT2,R*%
%TO.N,unconnected-(CT2-PadR)*%
X153700000Y-95400000D03*
%TD*%
D12*
%TO.P,CT1,T*%
%TO.N,Net-(JP1-A)*%
X131300000Y-102800000D03*
D13*
%TO.P,CT1,S*%
%TO.N,/ADC1*%
X131300000Y-93400000D03*
%TO.P,CT1,R*%
%TO.N,unconnected-(CT1-PadR)*%
X138700000Y-95400000D03*
%TD*%
D14*
%TO.N,/ADC3*%
X161300000Y-93400000D03*
%TO.N,VCC*%
X160500000Y-106400000D03*
X145500000Y-106400000D03*
X130500000Y-106400000D03*
%TO.N,Net-(JP3-A)*%
X161300000Y-102800000D03*
%TO.N,/ADC2*%
X146300000Y-93400000D03*
%TO.N,Net-(JP2-A)*%
X146300000Y-102800000D03*
%TO.N,Net-(JP1-A)*%
X131300000Y-102800000D03*
%TO.N,/ADC1*%
X131300000Y-93400000D03*
%TD*%
D15*
%TO.N,/ADC3*%
X161300000Y-95700000D02*
X161300000Y-93400000D01*
X159400000Y-97600000D02*
X161300000Y-95700000D01*
X159400000Y-100760000D02*
X159400000Y-97600000D01*
X157620000Y-102540000D02*
X159400000Y-100760000D01*
%TO.N,/ADC2*%
X146300000Y-96800000D02*
X146300000Y-93400000D01*
X151900000Y-99000000D02*
X150900000Y-98000000D01*
X151900000Y-104200000D02*
X151900000Y-99000000D01*
X150900000Y-98000000D02*
X147500000Y-98000000D01*
X152780000Y-105080000D02*
X151900000Y-104200000D01*
X157620000Y-105080000D02*
X152780000Y-105080000D01*
X147500000Y-98000000D02*
X146300000Y-96800000D01*
%TO.N,/ADC1*%
X131300000Y-97100000D02*
X131300000Y-93400000D01*
X138100000Y-98100000D02*
X132300000Y-98100000D01*
X132300000Y-98100000D02*
X131300000Y-97100000D01*
X139400000Y-99400000D02*
X138100000Y-98100000D01*
X140731000Y-106231000D02*
X139400000Y-104900000D01*
X139400000Y-104900000D02*
X139400000Y-99400000D01*
X143293000Y-106231000D02*
X140731000Y-106231000D01*
X144682000Y-107620000D02*
X143293000Y-106231000D01*
X157620000Y-107620000D02*
X144682000Y-107620000D01*
%TD*%
%TA.AperFunction,Conductor*%
%TO.N,VCC*%
G36*
X172528813Y-90520185D02*
G01*
X172574568Y-90572989D01*
X172584512Y-90642147D01*
X172555487Y-90705703D01*
X172500093Y-90742430D01*
X172481588Y-90748443D01*
X172481585Y-90748444D01*
X172292179Y-90844951D01*
X172120213Y-90969890D01*
X171969890Y-91120213D01*
X171844951Y-91292179D01*
X171748444Y-91481585D01*
X171682753Y-91683760D01*
X171649500Y-91893713D01*
X171649500Y-92106286D01*
X171669000Y-92229408D01*
X171682754Y-92316243D01*
X171734075Y-92474193D01*
X171748444Y-92518414D01*
X171844951Y-92707820D01*
X171969890Y-92879786D01*
X172120213Y-93030109D01*
X172292179Y-93155048D01*
X172292181Y-93155049D01*
X172292184Y-93155051D01*
X172481588Y-93251557D01*
X172683757Y-93317246D01*
X172893713Y-93350500D01*
X172893714Y-93350500D01*
X173106286Y-93350500D01*
X173106287Y-93350500D01*
X173316243Y-93317246D01*
X173518412Y-93251557D01*
X173707816Y-93155051D01*
X173729789Y-93139086D01*
X173879786Y-93030109D01*
X173879788Y-93030106D01*
X173879792Y-93030104D01*
X174030104Y-92879792D01*
X174030106Y-92879788D01*
X174030109Y-92879786D01*
X174155048Y-92707820D01*
X174155047Y-92707820D01*
X174155051Y-92707816D01*
X174251557Y-92518412D01*
X174257569Y-92499907D01*
X174297006Y-92442232D01*
X174361365Y-92415034D01*
X174430211Y-92426949D01*
X174481687Y-92474193D01*
X174499500Y-92538226D01*
X174499500Y-107461773D01*
X174479815Y-107528812D01*
X174427011Y-107574567D01*
X174357853Y-107584511D01*
X174294297Y-107555486D01*
X174257570Y-107500094D01*
X174251557Y-107481588D01*
X174155051Y-107292184D01*
X174155049Y-107292181D01*
X174155048Y-107292179D01*
X174030109Y-107120213D01*
X173879786Y-106969890D01*
X173707820Y-106844951D01*
X173518414Y-106748444D01*
X173518413Y-106748443D01*
X173518412Y-106748443D01*
X173316243Y-106682754D01*
X173316241Y-106682753D01*
X173316240Y-106682753D01*
X173154957Y-106657208D01*
X173106287Y-106649500D01*
X172893713Y-106649500D01*
X172845042Y-106657208D01*
X172683760Y-106682753D01*
X172481585Y-106748444D01*
X172292179Y-106844951D01*
X172120213Y-106969890D01*
X171969890Y-107120213D01*
X171844951Y-107292179D01*
X171748444Y-107481585D01*
X171682753Y-107683760D01*
X171649500Y-107893713D01*
X171649500Y-108106286D01*
X171670707Y-108240185D01*
X171682754Y-108316243D01*
X171726718Y-108451551D01*
X171748444Y-108518414D01*
X171844951Y-108707820D01*
X171969890Y-108879786D01*
X172120213Y-109030109D01*
X172292179Y-109155048D01*
X172292181Y-109155049D01*
X172292184Y-109155051D01*
X172481588Y-109251557D01*
X172500092Y-109257569D01*
X172557768Y-109297006D01*
X172584966Y-109361365D01*
X172573051Y-109430211D01*
X172525807Y-109481687D01*
X172461774Y-109499500D01*
X127538226Y-109499500D01*
X127471187Y-109479815D01*
X127425432Y-109427011D01*
X127415488Y-109357853D01*
X127444513Y-109294297D01*
X127499906Y-109257569D01*
X127518412Y-109251557D01*
X127707816Y-109155051D01*
X127737828Y-109133246D01*
X127879786Y-109030109D01*
X127879788Y-109030106D01*
X127879792Y-109030104D01*
X128030104Y-108879792D01*
X128030106Y-108879788D01*
X128030109Y-108879786D01*
X128155048Y-108707820D01*
X128155047Y-108707820D01*
X128155051Y-108707816D01*
X128251557Y-108518412D01*
X128317246Y-108316243D01*
X128350500Y-108106287D01*
X128350500Y-107893713D01*
X128317246Y-107683757D01*
X128251557Y-107481588D01*
X128155051Y-107292184D01*
X128155049Y-107292181D01*
X128155048Y-107292179D01*
X128030109Y-107120213D01*
X127879786Y-106969890D01*
X127707820Y-106844951D01*
X127518414Y-106748444D01*
X127518413Y-106748443D01*
X127518412Y-106748443D01*
X127316243Y-106682754D01*
X127316241Y-106682753D01*
X127316240Y-106682753D01*
X127154957Y-106657208D01*
X127106287Y-106649500D01*
X126893713Y-106649500D01*
X126845042Y-106657208D01*
X126683760Y-106682753D01*
X126481585Y-106748444D01*
X126292179Y-106844951D01*
X126120213Y-106969890D01*
X125969890Y-107120213D01*
X125844951Y-107292179D01*
X125748445Y-107481582D01*
X125748443Y-107481587D01*
X125748443Y-107481588D01*
X125742429Y-107500094D01*
X125702992Y-107557768D01*
X125638633Y-107584965D01*
X125569787Y-107573050D01*
X125518312Y-107525805D01*
X125500500Y-107461773D01*
X125500500Y-101352135D01*
X129399500Y-101352135D01*
X129399500Y-104247870D01*
X129399501Y-104247876D01*
X129405908Y-104307483D01*
X129456202Y-104442328D01*
X129456206Y-104442335D01*
X129542452Y-104557544D01*
X129542455Y-104557547D01*
X129657664Y-104643793D01*
X129657671Y-104643797D01*
X129792517Y-104694091D01*
X129792516Y-104694091D01*
X129799444Y-104694835D01*
X129852127Y-104700500D01*
X132747872Y-104700499D01*
X132807483Y-104694091D01*
X132942331Y-104643796D01*
X133057546Y-104557546D01*
X133143796Y-104442331D01*
X133194091Y-104307483D01*
X133200500Y-104247873D01*
X133200499Y-101413389D01*
X133899500Y-101413389D01*
X133899500Y-101586610D01*
X133925180Y-101748752D01*
X133926598Y-101757701D01*
X133980127Y-101922445D01*
X134058768Y-102076788D01*
X134160586Y-102216928D01*
X134283072Y-102339414D01*
X134423212Y-102441232D01*
X134577555Y-102519873D01*
X134742299Y-102573402D01*
X134913389Y-102600500D01*
X134913390Y-102600500D01*
X135086610Y-102600500D01*
X135086611Y-102600500D01*
X135257701Y-102573402D01*
X135422445Y-102519873D01*
X135576788Y-102441232D01*
X135716928Y-102339414D01*
X135839414Y-102216928D01*
X135941232Y-102076788D01*
X136019873Y-101922445D01*
X136073402Y-101757701D01*
X136100500Y-101586611D01*
X136100500Y-101413389D01*
X136073402Y-101242299D01*
X136019873Y-101077555D01*
X135941232Y-100923212D01*
X135839414Y-100783072D01*
X135716928Y-100660586D01*
X135576788Y-100558768D01*
X135422445Y-100480127D01*
X135257701Y-100426598D01*
X135257699Y-100426597D01*
X135257698Y-100426597D01*
X135126271Y-100405781D01*
X135086611Y-100399500D01*
X134913389Y-100399500D01*
X134873728Y-100405781D01*
X134742302Y-100426597D01*
X134577552Y-100480128D01*
X134423211Y-100558768D01*
X134343256Y-100616859D01*
X134283072Y-100660586D01*
X134283070Y-100660588D01*
X134283069Y-100660588D01*
X134160588Y-100783069D01*
X134160588Y-100783070D01*
X134160586Y-100783072D01*
X134128662Y-100827011D01*
X134058768Y-100923211D01*
X133980128Y-101077552D01*
X133926597Y-101242302D01*
X133899500Y-101413389D01*
X133200499Y-101413389D01*
X133200499Y-101352128D01*
X133194091Y-101292517D01*
X133192571Y-101288443D01*
X133143797Y-101157671D01*
X133143793Y-101157664D01*
X133057547Y-101042455D01*
X133057544Y-101042452D01*
X132942335Y-100956206D01*
X132942328Y-100956202D01*
X132807482Y-100905908D01*
X132807483Y-100905908D01*
X132747883Y-100899501D01*
X132747881Y-100899500D01*
X132747873Y-100899500D01*
X132747864Y-100899500D01*
X129852129Y-100899500D01*
X129852123Y-100899501D01*
X129792516Y-100905908D01*
X129657671Y-100956202D01*
X129657664Y-100956206D01*
X129542455Y-101042452D01*
X129542452Y-101042455D01*
X129456206Y-101157664D01*
X129456202Y-101157671D01*
X129405908Y-101292517D01*
X129399675Y-101350500D01*
X129399501Y-101352123D01*
X129399500Y-101352135D01*
X125500500Y-101352135D01*
X125500500Y-92538226D01*
X125520185Y-92471187D01*
X125572989Y-92425432D01*
X125642147Y-92415488D01*
X125705703Y-92444513D01*
X125742431Y-92499908D01*
X125748444Y-92518414D01*
X125844951Y-92707820D01*
X125969890Y-92879786D01*
X126120213Y-93030109D01*
X126292179Y-93155048D01*
X126292181Y-93155049D01*
X126292184Y-93155051D01*
X126481588Y-93251557D01*
X126683757Y-93317246D01*
X126893713Y-93350500D01*
X126893714Y-93350500D01*
X127106286Y-93350500D01*
X127106287Y-93350500D01*
X127316243Y-93317246D01*
X127518412Y-93251557D01*
X127707816Y-93155051D01*
X127729789Y-93139086D01*
X127879786Y-93030109D01*
X127879788Y-93030106D01*
X127879792Y-93030104D01*
X128030104Y-92879792D01*
X128030106Y-92879788D01*
X128030109Y-92879786D01*
X128155048Y-92707820D01*
X128155047Y-92707820D01*
X128155051Y-92707816D01*
X128251557Y-92518412D01*
X128317246Y-92316243D01*
X128327400Y-92252135D01*
X129399500Y-92252135D01*
X129399500Y-94547870D01*
X129399501Y-94547876D01*
X129405908Y-94607483D01*
X129456202Y-94742328D01*
X129456206Y-94742335D01*
X129542452Y-94857544D01*
X129542455Y-94857547D01*
X129657664Y-94943793D01*
X129657671Y-94943797D01*
X129792517Y-94994091D01*
X129792516Y-94994091D01*
X129799444Y-94994835D01*
X129852127Y-95000500D01*
X130575500Y-95000499D01*
X130642539Y-95020183D01*
X130688294Y-95072987D01*
X130699500Y-95124499D01*
X130699500Y-97013330D01*
X130699499Y-97013348D01*
X130699499Y-97179054D01*
X130699498Y-97179054D01*
X130740424Y-97331789D01*
X130740425Y-97331790D01*
X130761455Y-97368214D01*
X130761456Y-97368216D01*
X130819475Y-97468709D01*
X130819481Y-97468717D01*
X130938349Y-97587585D01*
X130938354Y-97587589D01*
X131931284Y-98580520D01*
X131931286Y-98580521D01*
X131931290Y-98580524D01*
X132068209Y-98659573D01*
X132068216Y-98659577D01*
X132220943Y-98700501D01*
X132220945Y-98700501D01*
X132386654Y-98700501D01*
X132386670Y-98700500D01*
X137799903Y-98700500D01*
X137866942Y-98720185D01*
X137887584Y-98736819D01*
X138763181Y-99612416D01*
X138796666Y-99673739D01*
X138799500Y-99700097D01*
X138799500Y-104813330D01*
X138799499Y-104813348D01*
X138799499Y-104979054D01*
X138799498Y-104979054D01*
X138840423Y-105131786D01*
X138856167Y-105159053D01*
X138856168Y-105159058D01*
X138856170Y-105159058D01*
X138919479Y-105268714D01*
X138919481Y-105268717D01*
X139038349Y-105387585D01*
X139038355Y-105387590D01*
X140246139Y-106595374D01*
X140246149Y-106595385D01*
X140250479Y-106599715D01*
X140250480Y-106599716D01*
X140362284Y-106711520D01*
X140426240Y-106748444D01*
X140449095Y-106761639D01*
X140449097Y-106761641D01*
X140499213Y-106790576D01*
X140499215Y-106790577D01*
X140651942Y-106831500D01*
X140651943Y-106831500D01*
X140905500Y-106831500D01*
X140972539Y-106851185D01*
X141018294Y-106903989D01*
X141029500Y-106955500D01*
X141029500Y-108517870D01*
X141029501Y-108517876D01*
X141035908Y-108577483D01*
X141086202Y-108712328D01*
X141086206Y-108712335D01*
X141172452Y-108827544D01*
X141172455Y-108827547D01*
X141287664Y-108913793D01*
X141287671Y-108913797D01*
X141422517Y-108964091D01*
X141422516Y-108964091D01*
X141429444Y-108964835D01*
X141482127Y-108970500D01*
X143277872Y-108970499D01*
X143337483Y-108964091D01*
X143472331Y-108913796D01*
X143587546Y-108827546D01*
X143673796Y-108712331D01*
X143724091Y-108577483D01*
X143730500Y-108517873D01*
X143730499Y-107817095D01*
X143750183Y-107750058D01*
X143802987Y-107704303D01*
X143872146Y-107694359D01*
X143935702Y-107723384D01*
X143942180Y-107729416D01*
X144313284Y-108100520D01*
X144313286Y-108100521D01*
X144313290Y-108100524D01*
X144401155Y-108151252D01*
X144450216Y-108179577D01*
X144602943Y-108220501D01*
X144602945Y-108220501D01*
X144768654Y-108220501D01*
X144768670Y-108220500D01*
X156145501Y-108220500D01*
X156212540Y-108240185D01*
X156258295Y-108292989D01*
X156269501Y-108344500D01*
X156269501Y-108517876D01*
X156275908Y-108577483D01*
X156326202Y-108712328D01*
X156326206Y-108712335D01*
X156412452Y-108827544D01*
X156412455Y-108827547D01*
X156527664Y-108913793D01*
X156527671Y-108913797D01*
X156662517Y-108964091D01*
X156662516Y-108964091D01*
X156669444Y-108964835D01*
X156722127Y-108970500D01*
X158517872Y-108970499D01*
X158577483Y-108964091D01*
X158712331Y-108913796D01*
X158827546Y-108827546D01*
X158913796Y-108712331D01*
X158964091Y-108577483D01*
X158970500Y-108517873D01*
X158970499Y-106722128D01*
X158964091Y-106662517D01*
X158939052Y-106595385D01*
X158913797Y-106527671D01*
X158913793Y-106527664D01*
X158827547Y-106412455D01*
X158827544Y-106412452D01*
X158712335Y-106326206D01*
X158712328Y-106326202D01*
X158580917Y-106277189D01*
X158524983Y-106235318D01*
X158500566Y-106169853D01*
X158515418Y-106101580D01*
X158536563Y-106073332D01*
X158650104Y-105959792D01*
X158775051Y-105787816D01*
X158871557Y-105598412D01*
X158937246Y-105396243D01*
X158970500Y-105186287D01*
X158970500Y-104973713D01*
X158937246Y-104763757D01*
X158871557Y-104561588D01*
X158775051Y-104372184D01*
X158775049Y-104372181D01*
X158775048Y-104372179D01*
X158650109Y-104200213D01*
X158499786Y-104049890D01*
X158327820Y-103924951D01*
X158327115Y-103924591D01*
X158319054Y-103920485D01*
X158268259Y-103872512D01*
X158251463Y-103804692D01*
X158273999Y-103738556D01*
X158319054Y-103699515D01*
X158327816Y-103695051D01*
X158382572Y-103655269D01*
X158499786Y-103570109D01*
X158499788Y-103570106D01*
X158499792Y-103570104D01*
X158650104Y-103419792D01*
X158650106Y-103419788D01*
X158650109Y-103419786D01*
X158775048Y-103247820D01*
X158775047Y-103247820D01*
X158775051Y-103247816D01*
X158871557Y-103058412D01*
X158937246Y-102856243D01*
X158970500Y-102646287D01*
X158970500Y-102433713D01*
X158937246Y-102223757D01*
X158923506Y-102181473D01*
X158921512Y-102111635D01*
X158953755Y-102055478D01*
X159187821Y-101821412D01*
X159249142Y-101787929D01*
X159318834Y-101792913D01*
X159374767Y-101834785D01*
X159399184Y-101900249D01*
X159399500Y-101909095D01*
X159399500Y-104247870D01*
X159399501Y-104247876D01*
X159405908Y-104307483D01*
X159456202Y-104442328D01*
X159456206Y-104442335D01*
X159542452Y-104557544D01*
X159542455Y-104557547D01*
X159657664Y-104643793D01*
X159657671Y-104643797D01*
X159792517Y-104694091D01*
X159792516Y-104694091D01*
X159799444Y-104694835D01*
X159852127Y-104700500D01*
X162747872Y-104700499D01*
X162807483Y-104694091D01*
X162942331Y-104643796D01*
X163057546Y-104557546D01*
X163143796Y-104442331D01*
X163194091Y-104307483D01*
X163200500Y-104247873D01*
X163200499Y-101413389D01*
X163899500Y-101413389D01*
X163899500Y-101586610D01*
X163925180Y-101748752D01*
X163926598Y-101757701D01*
X163980127Y-101922445D01*
X164058768Y-102076788D01*
X164160586Y-102216928D01*
X164283072Y-102339414D01*
X164423212Y-102441232D01*
X164577555Y-102519873D01*
X164742299Y-102573402D01*
X164913389Y-102600500D01*
X164913390Y-102600500D01*
X165086610Y-102600500D01*
X165086611Y-102600500D01*
X165257701Y-102573402D01*
X165422445Y-102519873D01*
X165576788Y-102441232D01*
X165716928Y-102339414D01*
X165839414Y-102216928D01*
X165941232Y-102076788D01*
X166019873Y-101922445D01*
X166073402Y-101757701D01*
X166100500Y-101586611D01*
X166100500Y-101413389D01*
X166073402Y-101242299D01*
X166019873Y-101077555D01*
X165941232Y-100923212D01*
X165839414Y-100783072D01*
X165716928Y-100660586D01*
X165576788Y-100558768D01*
X165422445Y-100480127D01*
X165257701Y-100426598D01*
X165257699Y-100426597D01*
X165257698Y-100426597D01*
X165126271Y-100405781D01*
X165086611Y-100399500D01*
X164913389Y-100399500D01*
X164873728Y-100405781D01*
X164742302Y-100426597D01*
X164577552Y-100480128D01*
X164423211Y-100558768D01*
X164343256Y-100616859D01*
X164283072Y-100660586D01*
X164283070Y-100660588D01*
X164283069Y-100660588D01*
X164160588Y-100783069D01*
X164160588Y-100783070D01*
X164160586Y-100783072D01*
X164128662Y-100827011D01*
X164058768Y-100923211D01*
X163980128Y-101077552D01*
X163926597Y-101242302D01*
X163899500Y-101413389D01*
X163200499Y-101413389D01*
X163200499Y-101352128D01*
X163194091Y-101292517D01*
X163192571Y-101288443D01*
X163143797Y-101157671D01*
X163143793Y-101157664D01*
X163057547Y-101042455D01*
X163057544Y-101042452D01*
X162942335Y-100956206D01*
X162942328Y-100956202D01*
X162807482Y-100905908D01*
X162807483Y-100905908D01*
X162747883Y-100899501D01*
X162747881Y-100899500D01*
X162747873Y-100899500D01*
X162747865Y-100899500D01*
X160124500Y-100899500D01*
X160057461Y-100879815D01*
X160011706Y-100827011D01*
X160000500Y-100775500D01*
X160000500Y-97900097D01*
X160020185Y-97833058D01*
X160036819Y-97812416D01*
X160855144Y-96994091D01*
X161780520Y-96068716D01*
X161859577Y-95931784D01*
X161900501Y-95779057D01*
X161900501Y-95620942D01*
X161900501Y-95613347D01*
X161900500Y-95613329D01*
X161900500Y-95124499D01*
X161920185Y-95057460D01*
X161972989Y-95011705D01*
X162024500Y-95000499D01*
X162747871Y-95000499D01*
X162747872Y-95000499D01*
X162807483Y-94994091D01*
X162942331Y-94943796D01*
X163057546Y-94857546D01*
X163143796Y-94742331D01*
X163194091Y-94607483D01*
X163200500Y-94547873D01*
X163200500Y-94413389D01*
X163899500Y-94413389D01*
X163899500Y-94586610D01*
X163924163Y-94742331D01*
X163926598Y-94757701D01*
X163980127Y-94922445D01*
X164058768Y-95076788D01*
X164160586Y-95216928D01*
X164283072Y-95339414D01*
X164423212Y-95441232D01*
X164577555Y-95519873D01*
X164742299Y-95573402D01*
X164913389Y-95600500D01*
X164913390Y-95600500D01*
X165086610Y-95600500D01*
X165086611Y-95600500D01*
X165257701Y-95573402D01*
X165422445Y-95519873D01*
X165576788Y-95441232D01*
X165716928Y-95339414D01*
X165839414Y-95216928D01*
X165941232Y-95076788D01*
X166019873Y-94922445D01*
X166073402Y-94757701D01*
X166100500Y-94586611D01*
X166100500Y-94413389D01*
X166074960Y-94252135D01*
X166799500Y-94252135D01*
X166799500Y-96547870D01*
X166799501Y-96547876D01*
X166805908Y-96607483D01*
X166856202Y-96742328D01*
X166856206Y-96742335D01*
X166942452Y-96857544D01*
X166942455Y-96857547D01*
X167057664Y-96943793D01*
X167057671Y-96943797D01*
X167192517Y-96994091D01*
X167192516Y-96994091D01*
X167199444Y-96994835D01*
X167252127Y-97000500D01*
X170147872Y-97000499D01*
X170207483Y-96994091D01*
X170342331Y-96943796D01*
X170457546Y-96857546D01*
X170543796Y-96742331D01*
X170594091Y-96607483D01*
X170600500Y-96547873D01*
X170600499Y-94252128D01*
X170594091Y-94192517D01*
X170543796Y-94057669D01*
X170543795Y-94057668D01*
X170543793Y-94057664D01*
X170457547Y-93942455D01*
X170457544Y-93942452D01*
X170342335Y-93856206D01*
X170342328Y-93856202D01*
X170207482Y-93805908D01*
X170207483Y-93805908D01*
X170147883Y-93799501D01*
X170147881Y-93799500D01*
X170147873Y-93799500D01*
X170147864Y-93799500D01*
X167252129Y-93799500D01*
X167252123Y-93799501D01*
X167192516Y-93805908D01*
X167057671Y-93856202D01*
X167057664Y-93856206D01*
X166942455Y-93942452D01*
X166942452Y-93942455D01*
X166856206Y-94057664D01*
X166856202Y-94057671D01*
X166805908Y-94192517D01*
X166800556Y-94242301D01*
X166799501Y-94252123D01*
X166799500Y-94252135D01*
X166074960Y-94252135D01*
X166073402Y-94242299D01*
X166019873Y-94077555D01*
X165941232Y-93923212D01*
X165839414Y-93783072D01*
X165716928Y-93660586D01*
X165576788Y-93558768D01*
X165422447Y-93480128D01*
X165422446Y-93480127D01*
X165422445Y-93480127D01*
X165257701Y-93426598D01*
X165257699Y-93426597D01*
X165257698Y-93426597D01*
X165126271Y-93405781D01*
X165086611Y-93399500D01*
X164913389Y-93399500D01*
X164873728Y-93405781D01*
X164742302Y-93426597D01*
X164577552Y-93480128D01*
X164423211Y-93558768D01*
X164395976Y-93578556D01*
X164283072Y-93660586D01*
X164283070Y-93660588D01*
X164283069Y-93660588D01*
X164160588Y-93783069D01*
X164160588Y-93783070D01*
X164160586Y-93783072D01*
X164148650Y-93799501D01*
X164058768Y-93923211D01*
X163980128Y-94077552D01*
X163926597Y-94242302D01*
X163899500Y-94413389D01*
X163200500Y-94413389D01*
X163200499Y-93399500D01*
X163200499Y-92252129D01*
X163200498Y-92252123D01*
X163200497Y-92252116D01*
X163194091Y-92192517D01*
X163161929Y-92106287D01*
X163143797Y-92057671D01*
X163143793Y-92057664D01*
X163057547Y-91942455D01*
X163057544Y-91942452D01*
X162942335Y-91856206D01*
X162942328Y-91856202D01*
X162807482Y-91805908D01*
X162807483Y-91805908D01*
X162747883Y-91799501D01*
X162747881Y-91799500D01*
X162747873Y-91799500D01*
X162747864Y-91799500D01*
X159852129Y-91799500D01*
X159852123Y-91799501D01*
X159792516Y-91805908D01*
X159657671Y-91856202D01*
X159657664Y-91856206D01*
X159542455Y-91942452D01*
X159542452Y-91942455D01*
X159456206Y-92057664D01*
X159456202Y-92057671D01*
X159405908Y-92192517D01*
X159399501Y-92252116D01*
X159399501Y-92252123D01*
X159399500Y-92252135D01*
X159399500Y-94547870D01*
X159399501Y-94547876D01*
X159405908Y-94607483D01*
X159456202Y-94742328D01*
X159456206Y-94742335D01*
X159542452Y-94857544D01*
X159542455Y-94857547D01*
X159657664Y-94943793D01*
X159657671Y-94943797D01*
X159792517Y-94994091D01*
X159792516Y-94994091D01*
X159799444Y-94994835D01*
X159852127Y-95000500D01*
X160575500Y-95000499D01*
X160642539Y-95020183D01*
X160688294Y-95072987D01*
X160699500Y-95124499D01*
X160699500Y-95399902D01*
X160679815Y-95466941D01*
X160663181Y-95487583D01*
X159097436Y-97053327D01*
X159036113Y-97086812D01*
X158966421Y-97081828D01*
X158910488Y-97039956D01*
X158891824Y-97003964D01*
X158871557Y-96941588D01*
X158775051Y-96752184D01*
X158775049Y-96752181D01*
X158775048Y-96752179D01*
X158650109Y-96580213D01*
X158499786Y-96429890D01*
X158327820Y-96304951D01*
X158327115Y-96304591D01*
X158319054Y-96300485D01*
X158268259Y-96252512D01*
X158251463Y-96184692D01*
X158273999Y-96118556D01*
X158319054Y-96079515D01*
X158327816Y-96075051D01*
X158349789Y-96059086D01*
X158499786Y-95950109D01*
X158499788Y-95950106D01*
X158499792Y-95950104D01*
X158650104Y-95799792D01*
X158650106Y-95799788D01*
X158650109Y-95799786D01*
X158775048Y-95627820D01*
X158775047Y-95627820D01*
X158775051Y-95627816D01*
X158871557Y-95438412D01*
X158937246Y-95236243D01*
X158970500Y-95026287D01*
X158970500Y-94813713D01*
X158937246Y-94603757D01*
X158871557Y-94401588D01*
X158775051Y-94212184D01*
X158775049Y-94212181D01*
X158775048Y-94212179D01*
X158650109Y-94040213D01*
X158499786Y-93889890D01*
X158327820Y-93764951D01*
X158327115Y-93764591D01*
X158319054Y-93760485D01*
X158268259Y-93712512D01*
X158251463Y-93644692D01*
X158273999Y-93578556D01*
X158319054Y-93539515D01*
X158327816Y-93535051D01*
X158403413Y-93480127D01*
X158499786Y-93410109D01*
X158499788Y-93410106D01*
X158499792Y-93410104D01*
X158650104Y-93259792D01*
X158650106Y-93259788D01*
X158650109Y-93259786D01*
X158775048Y-93087820D01*
X158775047Y-93087820D01*
X158775051Y-93087816D01*
X158871557Y-92898412D01*
X158937246Y-92696243D01*
X158970500Y-92486287D01*
X158970500Y-92273713D01*
X158937246Y-92063757D01*
X158871557Y-91861588D01*
X158775051Y-91672184D01*
X158775049Y-91672181D01*
X158775048Y-91672179D01*
X158650109Y-91500213D01*
X158499786Y-91349890D01*
X158327820Y-91224951D01*
X158138414Y-91128444D01*
X158138413Y-91128443D01*
X158138412Y-91128443D01*
X157936243Y-91062754D01*
X157936241Y-91062753D01*
X157936240Y-91062753D01*
X157774957Y-91037208D01*
X157726287Y-91029500D01*
X157513713Y-91029500D01*
X157465042Y-91037208D01*
X157303760Y-91062753D01*
X157101585Y-91128444D01*
X156912179Y-91224951D01*
X156740213Y-91349890D01*
X156589890Y-91500213D01*
X156464951Y-91672179D01*
X156368444Y-91861585D01*
X156302753Y-92063760D01*
X156272919Y-92252127D01*
X156269500Y-92273713D01*
X156269500Y-92486287D01*
X156302754Y-92696243D01*
X156306514Y-92707816D01*
X156368444Y-92898414D01*
X156464951Y-93087820D01*
X156589890Y-93259786D01*
X156740213Y-93410109D01*
X156912182Y-93535050D01*
X156920946Y-93539516D01*
X156971742Y-93587491D01*
X156988536Y-93655312D01*
X156965998Y-93721447D01*
X156920946Y-93760484D01*
X156912182Y-93764949D01*
X156740213Y-93889890D01*
X156589890Y-94040213D01*
X156464951Y-94212179D01*
X156368444Y-94401585D01*
X156302753Y-94603760D01*
X156269500Y-94813713D01*
X156269500Y-95026286D01*
X156299694Y-95216928D01*
X156302754Y-95236243D01*
X156355930Y-95399902D01*
X156368444Y-95438414D01*
X156464951Y-95627820D01*
X156589890Y-95799786D01*
X156740213Y-95950109D01*
X156912182Y-96075050D01*
X156920946Y-96079516D01*
X156971742Y-96127491D01*
X156988536Y-96195312D01*
X156965998Y-96261447D01*
X156920946Y-96300484D01*
X156912182Y-96304949D01*
X156740213Y-96429890D01*
X156589890Y-96580213D01*
X156464951Y-96752179D01*
X156368444Y-96941585D01*
X156302753Y-97143760D01*
X156279974Y-97287585D01*
X156269500Y-97353713D01*
X156269500Y-97566287D01*
X156272873Y-97587585D01*
X156296752Y-97738352D01*
X156302754Y-97776243D01*
X156326308Y-97848735D01*
X156368444Y-97978414D01*
X156464951Y-98167820D01*
X156589890Y-98339786D01*
X156740213Y-98490109D01*
X156912182Y-98615050D01*
X156920946Y-98619516D01*
X156971742Y-98667491D01*
X156988536Y-98735312D01*
X156965998Y-98801447D01*
X156920946Y-98840484D01*
X156912182Y-98844949D01*
X156740213Y-98969890D01*
X156589890Y-99120213D01*
X156464951Y-99292179D01*
X156368444Y-99481585D01*
X156302753Y-99683760D01*
X156269500Y-99893713D01*
X156269500Y-100106287D01*
X156302754Y-100316243D01*
X156356003Y-100480127D01*
X156368444Y-100518414D01*
X156464951Y-100707820D01*
X156589890Y-100879786D01*
X156740213Y-101030109D01*
X156912182Y-101155050D01*
X156920946Y-101159516D01*
X156971742Y-101207491D01*
X156988536Y-101275312D01*
X156965998Y-101341447D01*
X156920946Y-101380484D01*
X156912182Y-101384949D01*
X156740213Y-101509890D01*
X156589890Y-101660213D01*
X156464951Y-101832179D01*
X156368444Y-102021585D01*
X156302753Y-102223760D01*
X156269500Y-102433713D01*
X156269500Y-102646286D01*
X156302753Y-102856239D01*
X156368444Y-103058414D01*
X156464951Y-103247820D01*
X156589890Y-103419786D01*
X156740213Y-103570109D01*
X156912182Y-103695050D01*
X156920946Y-103699516D01*
X156971742Y-103747491D01*
X156988536Y-103815312D01*
X156965998Y-103881447D01*
X156920946Y-103920484D01*
X156912182Y-103924949D01*
X156740213Y-104049890D01*
X156589890Y-104200213D01*
X156464948Y-104372184D01*
X156464947Y-104372185D01*
X156444765Y-104411795D01*
X156396791Y-104462591D01*
X156334281Y-104479500D01*
X153080097Y-104479500D01*
X153013058Y-104459815D01*
X152992416Y-104443181D01*
X152536819Y-103987584D01*
X152503334Y-103926261D01*
X152500500Y-103899903D01*
X152500500Y-99089060D01*
X152500501Y-99089047D01*
X152500501Y-98920944D01*
X152500501Y-98920943D01*
X152459577Y-98768216D01*
X152396855Y-98659577D01*
X152380524Y-98631290D01*
X152380518Y-98631282D01*
X151387590Y-97638355D01*
X151387588Y-97638352D01*
X151268717Y-97519481D01*
X151268709Y-97519475D01*
X151180789Y-97468715D01*
X151180788Y-97468715D01*
X151160077Y-97456757D01*
X151131785Y-97440423D01*
X150979057Y-97399499D01*
X150820943Y-97399499D01*
X150813347Y-97399499D01*
X150813331Y-97399500D01*
X147800097Y-97399500D01*
X147733058Y-97379815D01*
X147712416Y-97363181D01*
X146936819Y-96587584D01*
X146903334Y-96526261D01*
X146900500Y-96499903D01*
X146900500Y-95124499D01*
X146920185Y-95057460D01*
X146972989Y-95011705D01*
X147024500Y-95000499D01*
X147747871Y-95000499D01*
X147747872Y-95000499D01*
X147807483Y-94994091D01*
X147942331Y-94943796D01*
X148057546Y-94857546D01*
X148143796Y-94742331D01*
X148194091Y-94607483D01*
X148200500Y-94547873D01*
X148200500Y-94413389D01*
X148899500Y-94413389D01*
X148899500Y-94586610D01*
X148924163Y-94742331D01*
X148926598Y-94757701D01*
X148980127Y-94922445D01*
X149058768Y-95076788D01*
X149160586Y-95216928D01*
X149283072Y-95339414D01*
X149423212Y-95441232D01*
X149577555Y-95519873D01*
X149742299Y-95573402D01*
X149913389Y-95600500D01*
X149913390Y-95600500D01*
X150086610Y-95600500D01*
X150086611Y-95600500D01*
X150257701Y-95573402D01*
X150422445Y-95519873D01*
X150576788Y-95441232D01*
X150716928Y-95339414D01*
X150839414Y-95216928D01*
X150941232Y-95076788D01*
X151019873Y-94922445D01*
X151073402Y-94757701D01*
X151100500Y-94586611D01*
X151100500Y-94413389D01*
X151074960Y-94252135D01*
X151799500Y-94252135D01*
X151799500Y-96547870D01*
X151799501Y-96547876D01*
X151805908Y-96607483D01*
X151856202Y-96742328D01*
X151856206Y-96742335D01*
X151942452Y-96857544D01*
X151942455Y-96857547D01*
X152057664Y-96943793D01*
X152057671Y-96943797D01*
X152192517Y-96994091D01*
X152192516Y-96994091D01*
X152199444Y-96994835D01*
X152252127Y-97000500D01*
X155147872Y-97000499D01*
X155207483Y-96994091D01*
X155342331Y-96943796D01*
X155457546Y-96857546D01*
X155543796Y-96742331D01*
X155594091Y-96607483D01*
X155600500Y-96547873D01*
X155600499Y-94252128D01*
X155594091Y-94192517D01*
X155543796Y-94057669D01*
X155543795Y-94057668D01*
X155543793Y-94057664D01*
X155457547Y-93942455D01*
X155457544Y-93942452D01*
X155342335Y-93856206D01*
X155342328Y-93856202D01*
X155207482Y-93805908D01*
X155207483Y-93805908D01*
X155147883Y-93799501D01*
X155147881Y-93799500D01*
X155147873Y-93799500D01*
X155147864Y-93799500D01*
X152252129Y-93799500D01*
X152252123Y-93799501D01*
X152192516Y-93805908D01*
X152057671Y-93856202D01*
X152057664Y-93856206D01*
X151942455Y-93942452D01*
X151942452Y-93942455D01*
X151856206Y-94057664D01*
X151856202Y-94057671D01*
X151805908Y-94192517D01*
X151800556Y-94242301D01*
X151799501Y-94252123D01*
X151799500Y-94252135D01*
X151074960Y-94252135D01*
X151073402Y-94242299D01*
X151019873Y-94077555D01*
X150941232Y-93923212D01*
X150839414Y-93783072D01*
X150716928Y-93660586D01*
X150576788Y-93558768D01*
X150422447Y-93480128D01*
X150422446Y-93480127D01*
X150422445Y-93480127D01*
X150257701Y-93426598D01*
X150257699Y-93426597D01*
X150257698Y-93426597D01*
X150126271Y-93405781D01*
X150086611Y-93399500D01*
X149913389Y-93399500D01*
X149873728Y-93405781D01*
X149742302Y-93426597D01*
X149577552Y-93480128D01*
X149423211Y-93558768D01*
X149395976Y-93578556D01*
X149283072Y-93660586D01*
X149283070Y-93660588D01*
X149283069Y-93660588D01*
X149160588Y-93783069D01*
X149160588Y-93783070D01*
X149160586Y-93783072D01*
X149148650Y-93799501D01*
X149058768Y-93923211D01*
X148980128Y-94077552D01*
X148926597Y-94242302D01*
X148899500Y-94413389D01*
X148200500Y-94413389D01*
X148200499Y-93399500D01*
X148200499Y-92252129D01*
X148200498Y-92252123D01*
X148200497Y-92252116D01*
X148194091Y-92192517D01*
X148161929Y-92106287D01*
X148143797Y-92057671D01*
X148143793Y-92057664D01*
X148057547Y-91942455D01*
X148057544Y-91942452D01*
X147942335Y-91856206D01*
X147942328Y-91856202D01*
X147807482Y-91805908D01*
X147807483Y-91805908D01*
X147747883Y-91799501D01*
X147747881Y-91799500D01*
X147747873Y-91799500D01*
X147747864Y-91799500D01*
X144852129Y-91799500D01*
X144852123Y-91799501D01*
X144792516Y-91805908D01*
X144657671Y-91856202D01*
X144657664Y-91856206D01*
X144542455Y-91942452D01*
X144542452Y-91942455D01*
X144456206Y-92057664D01*
X144456202Y-92057671D01*
X144405908Y-92192517D01*
X144399501Y-92252116D01*
X144399501Y-92252123D01*
X144399500Y-92252135D01*
X144399500Y-94547870D01*
X144399501Y-94547876D01*
X144405908Y-94607483D01*
X144456202Y-94742328D01*
X144456206Y-94742335D01*
X144542452Y-94857544D01*
X144542455Y-94857547D01*
X144657664Y-94943793D01*
X144657671Y-94943797D01*
X144792517Y-94994091D01*
X144792516Y-94994091D01*
X144799444Y-94994835D01*
X144852127Y-95000500D01*
X145575500Y-95000499D01*
X145642539Y-95020183D01*
X145688294Y-95072987D01*
X145699500Y-95124499D01*
X145699500Y-96713330D01*
X145699499Y-96713348D01*
X145699499Y-96879054D01*
X145699498Y-96879054D01*
X145740423Y-97031785D01*
X145769358Y-97081900D01*
X145769359Y-97081904D01*
X145769360Y-97081904D01*
X145819479Y-97168714D01*
X145819481Y-97168717D01*
X145938349Y-97287585D01*
X145938355Y-97287590D01*
X147015139Y-98364374D01*
X147015149Y-98364385D01*
X147019479Y-98368715D01*
X147019480Y-98368716D01*
X147131284Y-98480520D01*
X147218095Y-98530639D01*
X147218097Y-98530641D01*
X147268213Y-98559576D01*
X147268215Y-98559577D01*
X147420942Y-98600500D01*
X147420943Y-98600500D01*
X150599903Y-98600500D01*
X150666942Y-98620185D01*
X150687584Y-98636819D01*
X151263181Y-99212416D01*
X151296666Y-99273739D01*
X151299500Y-99300097D01*
X151299500Y-101155253D01*
X151279815Y-101222292D01*
X151227011Y-101268047D01*
X151157853Y-101277991D01*
X151094297Y-101248966D01*
X151057569Y-101193571D01*
X151055074Y-101185891D01*
X151019873Y-101077555D01*
X150941232Y-100923212D01*
X150839414Y-100783072D01*
X150716928Y-100660586D01*
X150576788Y-100558768D01*
X150422445Y-100480127D01*
X150257701Y-100426598D01*
X150257699Y-100426597D01*
X150257698Y-100426597D01*
X150126271Y-100405781D01*
X150086611Y-100399500D01*
X149913389Y-100399500D01*
X149873728Y-100405781D01*
X149742302Y-100426597D01*
X149577552Y-100480128D01*
X149423211Y-100558768D01*
X149343256Y-100616859D01*
X149283072Y-100660586D01*
X149283070Y-100660588D01*
X149283069Y-100660588D01*
X149160588Y-100783069D01*
X149160588Y-100783070D01*
X149160586Y-100783072D01*
X149128662Y-100827011D01*
X149058768Y-100923211D01*
X148980128Y-101077552D01*
X148926597Y-101242302D01*
X148899500Y-101413389D01*
X148899500Y-101586610D01*
X148925180Y-101748752D01*
X148926598Y-101757701D01*
X148980127Y-101922445D01*
X149058768Y-102076788D01*
X149160586Y-102216928D01*
X149283072Y-102339414D01*
X149423212Y-102441232D01*
X149577555Y-102519873D01*
X149742299Y-102573402D01*
X149913389Y-102600500D01*
X149913390Y-102600500D01*
X150086610Y-102600500D01*
X150086611Y-102600500D01*
X150257701Y-102573402D01*
X150422445Y-102519873D01*
X150576788Y-102441232D01*
X150716928Y-102339414D01*
X150839414Y-102216928D01*
X150941232Y-102076788D01*
X151019873Y-101922445D01*
X151057569Y-101806426D01*
X151097007Y-101748752D01*
X151161365Y-101721554D01*
X151230212Y-101733469D01*
X151281687Y-101780713D01*
X151299500Y-101844746D01*
X151299500Y-104113330D01*
X151299499Y-104113348D01*
X151299499Y-104279054D01*
X151299498Y-104279054D01*
X151340423Y-104431784D01*
X151340424Y-104431787D01*
X151346448Y-104442220D01*
X151346449Y-104442222D01*
X151419477Y-104568712D01*
X151419481Y-104568717D01*
X151538348Y-104687584D01*
X151538355Y-104687590D01*
X152295139Y-105444374D01*
X152295149Y-105444385D01*
X152299479Y-105448715D01*
X152299480Y-105448716D01*
X152411284Y-105560520D01*
X152476917Y-105598412D01*
X152498095Y-105610639D01*
X152498097Y-105610641D01*
X152527601Y-105627675D01*
X152548215Y-105639577D01*
X152700943Y-105680501D01*
X152700946Y-105680501D01*
X152866653Y-105680501D01*
X152866669Y-105680500D01*
X156334281Y-105680500D01*
X156401320Y-105700185D01*
X156444765Y-105748205D01*
X156464947Y-105787814D01*
X156464948Y-105787815D01*
X156589890Y-105959786D01*
X156703430Y-106073326D01*
X156736915Y-106134649D01*
X156731931Y-106204341D01*
X156690059Y-106260274D01*
X156659083Y-106277189D01*
X156527669Y-106326203D01*
X156527664Y-106326206D01*
X156412455Y-106412452D01*
X156412452Y-106412455D01*
X156326206Y-106527664D01*
X156326202Y-106527671D01*
X156275908Y-106662517D01*
X156270640Y-106711520D01*
X156269501Y-106722123D01*
X156269500Y-106722135D01*
X156269500Y-106895500D01*
X156249815Y-106962539D01*
X156197011Y-107008294D01*
X156145500Y-107019500D01*
X144982098Y-107019500D01*
X144915059Y-106999815D01*
X144894417Y-106983181D01*
X143780752Y-105869517D01*
X143773521Y-105862286D01*
X143773520Y-105862284D01*
X143661716Y-105750480D01*
X143660665Y-105749873D01*
X143654116Y-105743348D01*
X143641005Y-105719443D01*
X143624935Y-105697422D01*
X143624450Y-105689257D01*
X143620518Y-105682087D01*
X143622412Y-105654891D01*
X143620798Y-105627675D01*
X143625139Y-105615739D01*
X143625373Y-105612386D01*
X143627298Y-105609804D01*
X143629787Y-105602961D01*
X143629690Y-105602921D01*
X143630609Y-105600700D01*
X143631155Y-105599201D01*
X143631162Y-105599186D01*
X143631557Y-105598412D01*
X143697246Y-105396243D01*
X143730500Y-105186287D01*
X143730500Y-104973713D01*
X143697246Y-104763757D01*
X143631557Y-104561588D01*
X143535051Y-104372184D01*
X143535049Y-104372181D01*
X143535048Y-104372179D01*
X143410109Y-104200213D01*
X143259786Y-104049890D01*
X143087817Y-103924949D01*
X143078504Y-103920204D01*
X143027707Y-103872230D01*
X143010912Y-103804409D01*
X143033449Y-103738274D01*
X143078507Y-103699232D01*
X143087555Y-103694622D01*
X143141716Y-103655270D01*
X143141717Y-103655270D01*
X142509408Y-103022962D01*
X142572993Y-103005925D01*
X142687007Y-102940099D01*
X142780099Y-102847007D01*
X142845925Y-102732993D01*
X142862962Y-102669408D01*
X143495270Y-103301717D01*
X143495270Y-103301716D01*
X143534622Y-103247554D01*
X143631095Y-103058217D01*
X143696757Y-102856130D01*
X143696757Y-102856127D01*
X143730000Y-102646246D01*
X143730000Y-102433753D01*
X143696757Y-102223872D01*
X143696757Y-102223869D01*
X143631095Y-102021782D01*
X143534624Y-101832449D01*
X143495270Y-101778282D01*
X143495269Y-101778282D01*
X142862962Y-102410590D01*
X142845925Y-102347007D01*
X142780099Y-102232993D01*
X142687007Y-102139901D01*
X142572993Y-102074075D01*
X142509409Y-102057037D01*
X143141020Y-101425424D01*
X143064198Y-101372219D01*
X143047974Y-101352135D01*
X144399500Y-101352135D01*
X144399500Y-104247870D01*
X144399501Y-104247876D01*
X144405908Y-104307483D01*
X144456202Y-104442328D01*
X144456206Y-104442335D01*
X144542452Y-104557544D01*
X144542455Y-104557547D01*
X144657664Y-104643793D01*
X144657671Y-104643797D01*
X144792517Y-104694091D01*
X144792516Y-104694091D01*
X144799444Y-104694835D01*
X144852127Y-104700500D01*
X147747872Y-104700499D01*
X147807483Y-104694091D01*
X147942331Y-104643796D01*
X148057546Y-104557546D01*
X148143796Y-104442331D01*
X148194091Y-104307483D01*
X148200500Y-104247873D01*
X148200499Y-101352128D01*
X148194091Y-101292517D01*
X148192571Y-101288443D01*
X148143797Y-101157671D01*
X148143793Y-101157664D01*
X148057547Y-101042455D01*
X148057544Y-101042452D01*
X147942335Y-100956206D01*
X147942328Y-100956202D01*
X147807482Y-100905908D01*
X147807483Y-100905908D01*
X147747883Y-100899501D01*
X147747881Y-100899500D01*
X147747873Y-100899500D01*
X147747864Y-100899500D01*
X144852129Y-100899500D01*
X144852123Y-100899501D01*
X144792516Y-100905908D01*
X144657671Y-100956202D01*
X144657664Y-100956206D01*
X144542455Y-101042452D01*
X144542452Y-101042455D01*
X144456206Y-101157664D01*
X144456202Y-101157671D01*
X144405908Y-101292517D01*
X144399675Y-101350500D01*
X144399501Y-101352123D01*
X144399500Y-101352135D01*
X143047974Y-101352135D01*
X143047280Y-101351276D01*
X143027706Y-101332788D01*
X143025654Y-101324504D01*
X143020293Y-101317867D01*
X143017383Y-101291099D01*
X143010912Y-101264966D01*
X143013664Y-101256890D01*
X143012742Y-101248407D01*
X143024765Y-101224316D01*
X143033451Y-101198832D01*
X143040558Y-101192673D01*
X143043944Y-101185891D01*
X143058123Y-101177455D01*
X143078508Y-101159793D01*
X143087816Y-101155051D01*
X143194485Y-101077552D01*
X143259786Y-101030109D01*
X143259788Y-101030106D01*
X143259792Y-101030104D01*
X143410104Y-100879792D01*
X143410106Y-100879788D01*
X143410109Y-100879786D01*
X143535048Y-100707820D01*
X143535047Y-100707820D01*
X143535051Y-100707816D01*
X143631557Y-100518412D01*
X143697246Y-100316243D01*
X143730500Y-100106287D01*
X143730500Y-99893713D01*
X143697246Y-99683757D01*
X143631557Y-99481588D01*
X143535051Y-99292184D01*
X143535049Y-99292181D01*
X143535048Y-99292179D01*
X143410109Y-99120213D01*
X143259786Y-98969890D01*
X143087820Y-98844951D01*
X143087115Y-98844591D01*
X143079054Y-98840485D01*
X143028259Y-98792512D01*
X143011463Y-98724692D01*
X143033999Y-98658556D01*
X143079054Y-98619515D01*
X143087816Y-98615051D01*
X143164170Y-98559577D01*
X143259786Y-98490109D01*
X143259788Y-98490106D01*
X143259792Y-98490104D01*
X143410104Y-98339792D01*
X143410106Y-98339788D01*
X143410109Y-98339786D01*
X143535048Y-98167820D01*
X143535047Y-98167820D01*
X143535051Y-98167816D01*
X143631557Y-97978412D01*
X143697246Y-97776243D01*
X143730500Y-97566287D01*
X143730500Y-97353713D01*
X143697246Y-97143757D01*
X143631557Y-96941588D01*
X143535051Y-96752184D01*
X143535049Y-96752181D01*
X143535048Y-96752179D01*
X143410109Y-96580213D01*
X143259786Y-96429890D01*
X143087820Y-96304951D01*
X143087115Y-96304591D01*
X143079054Y-96300485D01*
X143028259Y-96252512D01*
X143011463Y-96184692D01*
X143033999Y-96118556D01*
X143079054Y-96079515D01*
X143087816Y-96075051D01*
X143109789Y-96059086D01*
X143259786Y-95950109D01*
X143259788Y-95950106D01*
X143259792Y-95950104D01*
X143410104Y-95799792D01*
X143410106Y-95799788D01*
X143410109Y-95799786D01*
X143535048Y-95627820D01*
X143535047Y-95627820D01*
X143535051Y-95627816D01*
X143631557Y-95438412D01*
X143697246Y-95236243D01*
X143730500Y-95026287D01*
X143730500Y-94813713D01*
X143697246Y-94603757D01*
X143631557Y-94401588D01*
X143535051Y-94212184D01*
X143535049Y-94212181D01*
X143535048Y-94212179D01*
X143410109Y-94040213D01*
X143259786Y-93889890D01*
X143087820Y-93764951D01*
X143087115Y-93764591D01*
X143079054Y-93760485D01*
X143028259Y-93712512D01*
X143011463Y-93644692D01*
X143033999Y-93578556D01*
X143079054Y-93539515D01*
X143087816Y-93535051D01*
X143163413Y-93480127D01*
X143259786Y-93410109D01*
X143259788Y-93410106D01*
X143259792Y-93410104D01*
X143410104Y-93259792D01*
X143410106Y-93259788D01*
X143410109Y-93259786D01*
X143535048Y-93087820D01*
X143535047Y-93087820D01*
X143535051Y-93087816D01*
X143631557Y-92898412D01*
X143697246Y-92696243D01*
X143730500Y-92486287D01*
X143730500Y-92273713D01*
X143697246Y-92063757D01*
X143631557Y-91861588D01*
X143535051Y-91672184D01*
X143535049Y-91672181D01*
X143535048Y-91672179D01*
X143410109Y-91500213D01*
X143259786Y-91349890D01*
X143087820Y-91224951D01*
X142898414Y-91128444D01*
X142898413Y-91128443D01*
X142898412Y-91128443D01*
X142696243Y-91062754D01*
X142696241Y-91062753D01*
X142696240Y-91062753D01*
X142534957Y-91037208D01*
X142486287Y-91029500D01*
X142273713Y-91029500D01*
X142225042Y-91037208D01*
X142063760Y-91062753D01*
X141861585Y-91128444D01*
X141672179Y-91224951D01*
X141500213Y-91349890D01*
X141349890Y-91500213D01*
X141224951Y-91672179D01*
X141128444Y-91861585D01*
X141062753Y-92063760D01*
X141032919Y-92252127D01*
X141029500Y-92273713D01*
X141029500Y-92486287D01*
X141062754Y-92696243D01*
X141066514Y-92707816D01*
X141128444Y-92898414D01*
X141224951Y-93087820D01*
X141349890Y-93259786D01*
X141500213Y-93410109D01*
X141672182Y-93535050D01*
X141680946Y-93539516D01*
X141731742Y-93587491D01*
X141748536Y-93655312D01*
X141725998Y-93721447D01*
X141680946Y-93760484D01*
X141672182Y-93764949D01*
X141500213Y-93889890D01*
X141349890Y-94040213D01*
X141224951Y-94212179D01*
X141128444Y-94401585D01*
X141062753Y-94603760D01*
X141029500Y-94813713D01*
X141029500Y-95026286D01*
X141059694Y-95216928D01*
X141062754Y-95236243D01*
X141115930Y-95399902D01*
X141128444Y-95438414D01*
X141224951Y-95627820D01*
X141349890Y-95799786D01*
X141500213Y-95950109D01*
X141672182Y-96075050D01*
X141680946Y-96079516D01*
X141731742Y-96127491D01*
X141748536Y-96195312D01*
X141725998Y-96261447D01*
X141680946Y-96300484D01*
X141672182Y-96304949D01*
X141500213Y-96429890D01*
X141349890Y-96580213D01*
X141224951Y-96752179D01*
X141128444Y-96941585D01*
X141062753Y-97143760D01*
X141039974Y-97287585D01*
X141029500Y-97353713D01*
X141029500Y-97566287D01*
X141032873Y-97587585D01*
X141056752Y-97738352D01*
X141062754Y-97776243D01*
X141086308Y-97848735D01*
X141128444Y-97978414D01*
X141224951Y-98167820D01*
X141349890Y-98339786D01*
X141500213Y-98490109D01*
X141672182Y-98615050D01*
X141680946Y-98619516D01*
X141731742Y-98667491D01*
X141748536Y-98735312D01*
X141725998Y-98801447D01*
X141680946Y-98840484D01*
X141672182Y-98844949D01*
X141500213Y-98969890D01*
X141349890Y-99120213D01*
X141224951Y-99292179D01*
X141128444Y-99481585D01*
X141062753Y-99683760D01*
X141029500Y-99893713D01*
X141029500Y-100106287D01*
X141062754Y-100316243D01*
X141116003Y-100480127D01*
X141128444Y-100518414D01*
X141224951Y-100707820D01*
X141349890Y-100879786D01*
X141500213Y-101030109D01*
X141672179Y-101155048D01*
X141672181Y-101155049D01*
X141672184Y-101155051D01*
X141681493Y-101159794D01*
X141732290Y-101207766D01*
X141749087Y-101275587D01*
X141726552Y-101341722D01*
X141681505Y-101380760D01*
X141672446Y-101385376D01*
X141672440Y-101385380D01*
X141618282Y-101424727D01*
X141618282Y-101424728D01*
X142250591Y-102057037D01*
X142187007Y-102074075D01*
X142072993Y-102139901D01*
X141979901Y-102232993D01*
X141914075Y-102347007D01*
X141897037Y-102410590D01*
X141264728Y-101778282D01*
X141264727Y-101778282D01*
X141225380Y-101832439D01*
X141128904Y-102021782D01*
X141063242Y-102223869D01*
X141063242Y-102223872D01*
X141030000Y-102433753D01*
X141030000Y-102646246D01*
X141063242Y-102856127D01*
X141063242Y-102856130D01*
X141128904Y-103058217D01*
X141225375Y-103247550D01*
X141264728Y-103301716D01*
X141897037Y-102669408D01*
X141914075Y-102732993D01*
X141979901Y-102847007D01*
X142072993Y-102940099D01*
X142187007Y-103005925D01*
X142250590Y-103022962D01*
X141618282Y-103655269D01*
X141618282Y-103655270D01*
X141672452Y-103694626D01*
X141672451Y-103694626D01*
X141681495Y-103699234D01*
X141732292Y-103747208D01*
X141749087Y-103815029D01*
X141726550Y-103881164D01*
X141681499Y-103920202D01*
X141672182Y-103924949D01*
X141500213Y-104049890D01*
X141349890Y-104200213D01*
X141224951Y-104372179D01*
X141128444Y-104561585D01*
X141062753Y-104763760D01*
X141029500Y-104973713D01*
X141029500Y-105186287D01*
X141029499Y-105186287D01*
X141062761Y-105396294D01*
X141053806Y-105465587D01*
X141008810Y-105519039D01*
X140942058Y-105539678D01*
X140874745Y-105520953D01*
X140852607Y-105503372D01*
X140036819Y-104687584D01*
X140003334Y-104626261D01*
X140000500Y-104599903D01*
X140000500Y-99489060D01*
X140000501Y-99489047D01*
X140000501Y-99320944D01*
X139992795Y-99292184D01*
X139959577Y-99168216D01*
X139913877Y-99089060D01*
X139880524Y-99031290D01*
X139880518Y-99031282D01*
X138587590Y-97738355D01*
X138587588Y-97738352D01*
X138468717Y-97619481D01*
X138468709Y-97619475D01*
X138363167Y-97558541D01*
X138363164Y-97558540D01*
X138331787Y-97540424D01*
X138331786Y-97540423D01*
X138331785Y-97540423D01*
X138179057Y-97499499D01*
X138020943Y-97499499D01*
X138013347Y-97499499D01*
X138013331Y-97499500D01*
X132600098Y-97499500D01*
X132533059Y-97479815D01*
X132512417Y-97463181D01*
X131936819Y-96887583D01*
X131903334Y-96826260D01*
X131900500Y-96799902D01*
X131900500Y-95124499D01*
X131920185Y-95057460D01*
X131972989Y-95011705D01*
X132024500Y-95000499D01*
X132747871Y-95000499D01*
X132747872Y-95000499D01*
X132807483Y-94994091D01*
X132942331Y-94943796D01*
X133057546Y-94857546D01*
X133143796Y-94742331D01*
X133194091Y-94607483D01*
X133200500Y-94547873D01*
X133200500Y-94413389D01*
X133899500Y-94413389D01*
X133899500Y-94586610D01*
X133924163Y-94742331D01*
X133926598Y-94757701D01*
X133980127Y-94922445D01*
X134058768Y-95076788D01*
X134160586Y-95216928D01*
X134283072Y-95339414D01*
X134423212Y-95441232D01*
X134577555Y-95519873D01*
X134742299Y-95573402D01*
X134913389Y-95600500D01*
X134913390Y-95600500D01*
X135086610Y-95600500D01*
X135086611Y-95600500D01*
X135257701Y-95573402D01*
X135422445Y-95519873D01*
X135576788Y-95441232D01*
X135716928Y-95339414D01*
X135839414Y-95216928D01*
X135941232Y-95076788D01*
X136019873Y-94922445D01*
X136073402Y-94757701D01*
X136100500Y-94586611D01*
X136100500Y-94413389D01*
X136074960Y-94252135D01*
X136799500Y-94252135D01*
X136799500Y-96547870D01*
X136799501Y-96547876D01*
X136805908Y-96607483D01*
X136856202Y-96742328D01*
X136856206Y-96742335D01*
X136942452Y-96857544D01*
X136942455Y-96857547D01*
X137057664Y-96943793D01*
X137057671Y-96943797D01*
X137192517Y-96994091D01*
X137192516Y-96994091D01*
X137199444Y-96994835D01*
X137252127Y-97000500D01*
X140147872Y-97000499D01*
X140207483Y-96994091D01*
X140342331Y-96943796D01*
X140457546Y-96857546D01*
X140543796Y-96742331D01*
X140594091Y-96607483D01*
X140600500Y-96547873D01*
X140600499Y-94252128D01*
X140594091Y-94192517D01*
X140543796Y-94057669D01*
X140543795Y-94057668D01*
X140543793Y-94057664D01*
X140457547Y-93942455D01*
X140457544Y-93942452D01*
X140342335Y-93856206D01*
X140342328Y-93856202D01*
X140207482Y-93805908D01*
X140207483Y-93805908D01*
X140147883Y-93799501D01*
X140147881Y-93799500D01*
X140147873Y-93799500D01*
X140147864Y-93799500D01*
X137252129Y-93799500D01*
X137252123Y-93799501D01*
X137192516Y-93805908D01*
X137057671Y-93856202D01*
X137057664Y-93856206D01*
X136942455Y-93942452D01*
X136942452Y-93942455D01*
X136856206Y-94057664D01*
X136856202Y-94057671D01*
X136805908Y-94192517D01*
X136800556Y-94242301D01*
X136799501Y-94252123D01*
X136799500Y-94252135D01*
X136074960Y-94252135D01*
X136073402Y-94242299D01*
X136019873Y-94077555D01*
X135941232Y-93923212D01*
X135839414Y-93783072D01*
X135716928Y-93660586D01*
X135576788Y-93558768D01*
X135422447Y-93480128D01*
X135422446Y-93480127D01*
X135422445Y-93480127D01*
X135257701Y-93426598D01*
X135257699Y-93426597D01*
X135257698Y-93426597D01*
X135126271Y-93405781D01*
X135086611Y-93399500D01*
X134913389Y-93399500D01*
X134873728Y-93405781D01*
X134742302Y-93426597D01*
X134577552Y-93480128D01*
X134423211Y-93558768D01*
X134395976Y-93578556D01*
X134283072Y-93660586D01*
X134283070Y-93660588D01*
X134283069Y-93660588D01*
X134160588Y-93783069D01*
X134160588Y-93783070D01*
X134160586Y-93783072D01*
X134148650Y-93799501D01*
X134058768Y-93923211D01*
X133980128Y-94077552D01*
X133926597Y-94242302D01*
X133899500Y-94413389D01*
X133200500Y-94413389D01*
X133200499Y-93399500D01*
X133200499Y-92268841D01*
X133200499Y-92252129D01*
X133200498Y-92252123D01*
X133200497Y-92252116D01*
X133194091Y-92192517D01*
X133161929Y-92106287D01*
X133143797Y-92057671D01*
X133143793Y-92057664D01*
X133057547Y-91942455D01*
X133057544Y-91942452D01*
X132942335Y-91856206D01*
X132942328Y-91856202D01*
X132807482Y-91805908D01*
X132807483Y-91805908D01*
X132747883Y-91799501D01*
X132747881Y-91799500D01*
X132747873Y-91799500D01*
X132747864Y-91799500D01*
X129852129Y-91799500D01*
X129852123Y-91799501D01*
X129792516Y-91805908D01*
X129657671Y-91856202D01*
X129657664Y-91856206D01*
X129542455Y-91942452D01*
X129542452Y-91942455D01*
X129456206Y-92057664D01*
X129456202Y-92057671D01*
X129405908Y-92192517D01*
X129399501Y-92252116D01*
X129399501Y-92252123D01*
X129399500Y-92252135D01*
X128327400Y-92252135D01*
X128350500Y-92106287D01*
X128350500Y-91893713D01*
X128317246Y-91683757D01*
X128251557Y-91481588D01*
X128155051Y-91292184D01*
X128155049Y-91292181D01*
X128155048Y-91292179D01*
X128030109Y-91120213D01*
X127879786Y-90969890D01*
X127707820Y-90844951D01*
X127518414Y-90748444D01*
X127518413Y-90748443D01*
X127518412Y-90748443D01*
X127499907Y-90742430D01*
X127442232Y-90702994D01*
X127415034Y-90638635D01*
X127426949Y-90569789D01*
X127474193Y-90518313D01*
X127538226Y-90500500D01*
X172461774Y-90500500D01*
X172528813Y-90520185D01*
G37*
%TD.AperFunction*%
%TD*%
M02*
