%TF.GenerationSoftware,KiCad,Pcbnew,9.0.3*%
%TF.CreationDate,2026-05-23T15:46:17-04:00*%
%TF.ProjectId,home energy monitor,686f6d65-2065-46e6-9572-6779206d6f6e,0.1*%
%TF.SameCoordinates,Original*%
%TF.FileFunction,Legend,Top*%
%TF.FilePolarity,Positive*%
%FSLAX46Y46*%
G04 Gerber Fmt 4.6, Leading zero omitted, Abs format (unit mm)*
G04 Created by KiCad (PCBNEW 9.0.3) date 2026-05-23 15:46:17*
%MOMM*%
%LPD*%
G01*
G04 APERTURE LIST*
%ADD10C,0.150000*%
%ADD11C,0.120000*%
%ADD12C,0.000000*%
G04 APERTURE END LIST*
D10*
G36*
X171575000Y-104117200D02*
G01*
X171575000Y-104294765D01*
X171085232Y-104294765D01*
X171053458Y-104299588D01*
X171032292Y-104312533D01*
X171019104Y-104333566D01*
X171014157Y-104365839D01*
X171014157Y-104686225D01*
X170836531Y-104686225D01*
X170836531Y-104365839D01*
X170842332Y-104312595D01*
X170860467Y-104256907D01*
X170892219Y-104203968D01*
X170913594Y-104180370D01*
X170939357Y-104159576D01*
X170968673Y-104142529D01*
X171003227Y-104128802D01*
X171040866Y-104120239D01*
X171085232Y-104117200D01*
X171575000Y-104117200D01*
G37*
G36*
X171575000Y-104757971D02*
G01*
X171575000Y-104935536D01*
X170524389Y-104935536D01*
X170524389Y-104757971D01*
X171575000Y-104757971D01*
G37*
G36*
X171370045Y-103154189D02*
G01*
X171407998Y-103162760D01*
X171442819Y-103176489D01*
X171472173Y-103193474D01*
X171497937Y-103214267D01*
X171519312Y-103237865D01*
X171551125Y-103290866D01*
X171569199Y-103346858D01*
X171575000Y-103400470D01*
X171575000Y-103720855D01*
X171571937Y-103758347D01*
X171562055Y-103801455D01*
X171544993Y-103843345D01*
X171519373Y-103882422D01*
X171485756Y-103916132D01*
X171442131Y-103944582D01*
X171391127Y-103962861D01*
X171325689Y-103969494D01*
X171085232Y-103969494D01*
X171020338Y-103962875D01*
X170969460Y-103944582D01*
X170925835Y-103916132D01*
X170892219Y-103882422D01*
X170866565Y-103843339D01*
X170849537Y-103801455D01*
X170839607Y-103758345D01*
X170836531Y-103720855D01*
X170836531Y-103400470D01*
X171014157Y-103400470D01*
X171014157Y-103719512D01*
X171019076Y-103751845D01*
X171032292Y-103773428D01*
X171053521Y-103786886D01*
X171085232Y-103791869D01*
X171325689Y-103791869D01*
X171357407Y-103786902D01*
X171378934Y-103773428D01*
X171392382Y-103751816D01*
X171397374Y-103719512D01*
X171397374Y-103400470D01*
X171392330Y-103367639D01*
X171378934Y-103346492D01*
X171357470Y-103333531D01*
X171325689Y-103328723D01*
X171086575Y-103328723D01*
X171053157Y-103333792D01*
X171031926Y-103347164D01*
X171018967Y-103368635D01*
X171014157Y-103400470D01*
X170836531Y-103400470D01*
X170843064Y-103335506D01*
X170861139Y-103284332D01*
X170889386Y-103240535D01*
X170922993Y-103207151D01*
X170961990Y-103181702D01*
X171003899Y-103164470D01*
X171047101Y-103154323D01*
X171085232Y-103151159D01*
X171325689Y-103151159D01*
X171370045Y-103154189D01*
G37*
G36*
X171575000Y-102340761D02*
G01*
X171575000Y-102518387D01*
X171085232Y-102518387D01*
X171053521Y-102523369D01*
X171032292Y-102536827D01*
X171019103Y-102558503D01*
X171014157Y-102591476D01*
X171014157Y-102822347D01*
X171575000Y-102822347D01*
X171575000Y-102999972D01*
X170924642Y-102999972D01*
X170890204Y-102993134D01*
X170862177Y-102974022D01*
X170843370Y-102945384D01*
X170836531Y-102910518D01*
X170836531Y-102590133D01*
X170839635Y-102552757D01*
X170849537Y-102510876D01*
X170866229Y-102469910D01*
X170891181Y-102430276D01*
X170836531Y-102430276D01*
X170836531Y-102189819D01*
X170842332Y-102136513D01*
X170860467Y-102080825D01*
X170892219Y-102027886D01*
X170913594Y-102004288D01*
X170939357Y-101983495D01*
X170968669Y-101966495D01*
X171003227Y-101952781D01*
X171040869Y-101944173D01*
X171085232Y-101941119D01*
X171575000Y-101941119D01*
X171575000Y-102118744D01*
X171085232Y-102118744D01*
X171053429Y-102123495D01*
X171032292Y-102136208D01*
X171019142Y-102157020D01*
X171014157Y-102189819D01*
X171014157Y-102349676D01*
X171047795Y-102343056D01*
X171085232Y-102340761D01*
X171575000Y-102340761D01*
G37*
G36*
X171081079Y-100983320D02*
G01*
X171118500Y-100986417D01*
X171160703Y-100996326D01*
X171201635Y-101013183D01*
X171239959Y-101038336D01*
X171273020Y-101071207D01*
X171301081Y-101114173D01*
X171319162Y-101164281D01*
X171325689Y-101227868D01*
X171325689Y-101548254D01*
X171156917Y-101548254D01*
X171156917Y-101227868D01*
X171151083Y-101195039D01*
X171134752Y-101171876D01*
X171110221Y-101157114D01*
X171079736Y-101152031D01*
X171048074Y-101157821D01*
X171025087Y-101174257D01*
X171010316Y-101198591D01*
X171005303Y-101227868D01*
X171005303Y-101548254D01*
X171011149Y-101581089D01*
X171027529Y-101604308D01*
X171052004Y-101619020D01*
X171082484Y-101624091D01*
X171330451Y-101624091D01*
X171362700Y-101618286D01*
X171385772Y-101601926D01*
X171400487Y-101577400D01*
X171405556Y-101546911D01*
X171405556Y-101227868D01*
X171575000Y-101227868D01*
X171575000Y-101548254D01*
X171571919Y-101585630D01*
X171562055Y-101627877D01*
X171545164Y-101668815D01*
X171520045Y-101707134D01*
X171487135Y-101740201D01*
X171444207Y-101768256D01*
X171394051Y-101786292D01*
X171330451Y-101792802D01*
X171081079Y-101792802D01*
X171043711Y-101789721D01*
X171001517Y-101779857D01*
X170960589Y-101762964D01*
X170922322Y-101737847D01*
X170889205Y-101704932D01*
X170861139Y-101662010D01*
X170843056Y-101611850D01*
X170836531Y-101548254D01*
X170836531Y-101227868D01*
X170839627Y-101190502D01*
X170849537Y-101148306D01*
X170866397Y-101107384D01*
X170891547Y-101069111D01*
X170924423Y-101036001D01*
X170967384Y-101007928D01*
X171017492Y-100989847D01*
X171081079Y-100983320D01*
G37*
G36*
X171081079Y-99613606D02*
G01*
X171118500Y-99616703D01*
X171160703Y-99626612D01*
X171201635Y-99643469D01*
X171239959Y-99668622D01*
X171273020Y-99701493D01*
X171301081Y-99744459D01*
X171319162Y-99794567D01*
X171325689Y-99858155D01*
X171325689Y-100178540D01*
X171156917Y-100178540D01*
X171156917Y-99858155D01*
X171151083Y-99825325D01*
X171134752Y-99802162D01*
X171110221Y-99787401D01*
X171079736Y-99782317D01*
X171048074Y-99788107D01*
X171025087Y-99804543D01*
X171010316Y-99828877D01*
X171005303Y-99858155D01*
X171005303Y-100178540D01*
X171011149Y-100211375D01*
X171027529Y-100234594D01*
X171052004Y-100249306D01*
X171082484Y-100254377D01*
X171330451Y-100254377D01*
X171362700Y-100248572D01*
X171385772Y-100232212D01*
X171400487Y-100207687D01*
X171405556Y-100177197D01*
X171405556Y-99858155D01*
X171575000Y-99858155D01*
X171575000Y-100178540D01*
X171571919Y-100215916D01*
X171562055Y-100258163D01*
X171545164Y-100299101D01*
X171520045Y-100337420D01*
X171487135Y-100370487D01*
X171444207Y-100398542D01*
X171394051Y-100416578D01*
X171330451Y-100423088D01*
X171081079Y-100423088D01*
X171043711Y-100420007D01*
X171001517Y-100410143D01*
X170960589Y-100393250D01*
X170922322Y-100368134D01*
X170889205Y-100335218D01*
X170861139Y-100292296D01*
X170843056Y-100242136D01*
X170836531Y-100178540D01*
X170836531Y-99858155D01*
X170839627Y-99820788D01*
X170849537Y-99778592D01*
X170866397Y-99737671D01*
X170891547Y-99699397D01*
X170924423Y-99666287D01*
X170967384Y-99638214D01*
X171017492Y-99620133D01*
X171081079Y-99613606D01*
G37*
G36*
X171575000Y-98675225D02*
G01*
X171575000Y-98852851D01*
X171165099Y-98852851D01*
X171131523Y-98855951D01*
X171102634Y-98864819D01*
X171076781Y-98879034D01*
X171055190Y-98897303D01*
X171037736Y-98919448D01*
X171024781Y-98945419D01*
X171016865Y-98973900D01*
X171014157Y-99005197D01*
X171014157Y-99315996D01*
X171575000Y-99315996D01*
X171575000Y-99493622D01*
X170924642Y-99493622D01*
X170890204Y-99486783D01*
X170862177Y-99467671D01*
X170843370Y-99439034D01*
X170836531Y-99404168D01*
X170836531Y-99003854D01*
X170844042Y-98933146D01*
X170853790Y-98896332D01*
X170868344Y-98859384D01*
X170887201Y-98823847D01*
X170910720Y-98789714D01*
X170938812Y-98758678D01*
X170972880Y-98730974D01*
X171011615Y-98708276D01*
X171057205Y-98690307D01*
X171106848Y-98679171D01*
X171165099Y-98675225D01*
X171575000Y-98675225D01*
G37*
G36*
X171081079Y-97725121D02*
G01*
X171118500Y-97728218D01*
X171160703Y-97738127D01*
X171201635Y-97754984D01*
X171239959Y-97780136D01*
X171273020Y-97813007D01*
X171301081Y-97855974D01*
X171319162Y-97906082D01*
X171325689Y-97969669D01*
X171325689Y-98290054D01*
X171156917Y-98290054D01*
X171156917Y-97969669D01*
X171151083Y-97936839D01*
X171134752Y-97913676D01*
X171110221Y-97898915D01*
X171079736Y-97893831D01*
X171048074Y-97899622D01*
X171025087Y-97916058D01*
X171010316Y-97940391D01*
X171005303Y-97969669D01*
X171005303Y-98290054D01*
X171011149Y-98322889D01*
X171027529Y-98346108D01*
X171052004Y-98360820D01*
X171082484Y-98365892D01*
X171330451Y-98365892D01*
X171362700Y-98360086D01*
X171385772Y-98343727D01*
X171400487Y-98319201D01*
X171405556Y-98288711D01*
X171405556Y-97969669D01*
X171575000Y-97969669D01*
X171575000Y-98290054D01*
X171571919Y-98327430D01*
X171562055Y-98369678D01*
X171545164Y-98410616D01*
X171520045Y-98448934D01*
X171487135Y-98482002D01*
X171444207Y-98510056D01*
X171394051Y-98528093D01*
X171330451Y-98534603D01*
X171081079Y-98534603D01*
X171043711Y-98531521D01*
X171001517Y-98521658D01*
X170960589Y-98504764D01*
X170922322Y-98479648D01*
X170889205Y-98446733D01*
X170861139Y-98403810D01*
X170843056Y-98353650D01*
X170836531Y-98290054D01*
X170836531Y-97969669D01*
X170839627Y-97932302D01*
X170849537Y-97890107D01*
X170866397Y-97849185D01*
X170891547Y-97810911D01*
X170924423Y-97777801D01*
X170967384Y-97749728D01*
X171017492Y-97731647D01*
X171081079Y-97725121D01*
G37*
G36*
X171014157Y-96958931D02*
G01*
X171014157Y-97358512D01*
X171019103Y-97391485D01*
X171032292Y-97413162D01*
X171053521Y-97426619D01*
X171085232Y-97431602D01*
X171575000Y-97431602D01*
X171575000Y-97609227D01*
X171085232Y-97609227D01*
X171040866Y-97606189D01*
X171003227Y-97597626D01*
X170968695Y-97583831D01*
X170939357Y-97566546D01*
X170913576Y-97545459D01*
X170892219Y-97521789D01*
X170860467Y-97468849D01*
X170842332Y-97412856D01*
X170836531Y-97359917D01*
X170836531Y-96958931D01*
X171014157Y-96958931D01*
G37*
G36*
X171646074Y-96041738D02*
G01*
X171690423Y-96044770D01*
X171728323Y-96053339D01*
X171763197Y-96067071D01*
X171792559Y-96084053D01*
X171818322Y-96104847D01*
X171839698Y-96128444D01*
X171871449Y-96181445D01*
X171889584Y-96237438D01*
X171895385Y-96291049D01*
X171895385Y-96611434D01*
X171717759Y-96611434D01*
X171717759Y-96291049D01*
X171712716Y-96258218D01*
X171699319Y-96237071D01*
X171677855Y-96224110D01*
X171646074Y-96219302D01*
X171085232Y-96219302D01*
X171053458Y-96224126D01*
X171032292Y-96237071D01*
X171019128Y-96258188D01*
X171014157Y-96291049D01*
X171014157Y-96611434D01*
X171019415Y-96641366D01*
X171034307Y-96663336D01*
X171056777Y-96677543D01*
X171085232Y-96682448D01*
X171325689Y-96682448D01*
X171357407Y-96677481D01*
X171378934Y-96664008D01*
X171392382Y-96642395D01*
X171397374Y-96610091D01*
X171397374Y-96291049D01*
X171575000Y-96291049D01*
X171575000Y-96611434D01*
X171569199Y-96664740D01*
X171551125Y-96720367D01*
X171519312Y-96773306D01*
X171497940Y-96796916D01*
X171472173Y-96817759D01*
X171442819Y-96834743D01*
X171407998Y-96848472D01*
X171370045Y-96857043D01*
X171325689Y-96860074D01*
X171085232Y-96860074D01*
X171031926Y-96854273D01*
X170976238Y-96836199D01*
X170923299Y-96804447D01*
X170899701Y-96783072D01*
X170878907Y-96757308D01*
X170861901Y-96727954D01*
X170848194Y-96693439D01*
X170839586Y-96655796D01*
X170836531Y-96611434D01*
X170836531Y-96291049D01*
X170842332Y-96237438D01*
X170860467Y-96181445D01*
X170892219Y-96128444D01*
X170913594Y-96104847D01*
X170939357Y-96084053D01*
X170968669Y-96067053D01*
X171003227Y-96053339D01*
X171040866Y-96044777D01*
X171085232Y-96041738D01*
X171646074Y-96041738D01*
G37*
G36*
X171646074Y-95064583D02*
G01*
X171690423Y-95067615D01*
X171728323Y-95076185D01*
X171763197Y-95089917D01*
X171792559Y-95106898D01*
X171818322Y-95127692D01*
X171839698Y-95151290D01*
X171871449Y-95204290D01*
X171889584Y-95259978D01*
X171895385Y-95313223D01*
X171895385Y-95633608D01*
X171717759Y-95633608D01*
X171717759Y-95313223D01*
X171712740Y-95280978D01*
X171699319Y-95259917D01*
X171677855Y-95246956D01*
X171646074Y-95242148D01*
X170836531Y-95242148D01*
X170836531Y-95064583D01*
X171646074Y-95064583D01*
G37*
G36*
X171575000Y-95313223D02*
G01*
X171575000Y-95633608D01*
X171571901Y-95672253D01*
X171562055Y-95715246D01*
X171545029Y-95756885D01*
X171519373Y-95796213D01*
X171485720Y-95830105D01*
X171442131Y-95858373D01*
X171391152Y-95876378D01*
X171325689Y-95882919D01*
X170836531Y-95882919D01*
X170836531Y-95705293D01*
X171325689Y-95705293D01*
X171357407Y-95700327D01*
X171378934Y-95686853D01*
X171392355Y-95665147D01*
X171397374Y-95632204D01*
X171397374Y-95313223D01*
X171575000Y-95313223D01*
G37*
G36*
X173255000Y-103975723D02*
G01*
X173255000Y-104153349D01*
X172765232Y-104153349D01*
X172733521Y-104158331D01*
X172712292Y-104171789D01*
X172699103Y-104193466D01*
X172694157Y-104226438D01*
X172694157Y-104457309D01*
X173255000Y-104457309D01*
X173255000Y-104634935D01*
X172604642Y-104634935D01*
X172570204Y-104628096D01*
X172542177Y-104608984D01*
X172523370Y-104580346D01*
X172516531Y-104545481D01*
X172516531Y-104225095D01*
X172519635Y-104187719D01*
X172529537Y-104145838D01*
X172546229Y-104104872D01*
X172571181Y-104065238D01*
X172516531Y-104065238D01*
X172516531Y-103824781D01*
X172522332Y-103771475D01*
X172540467Y-103715788D01*
X172572219Y-103662848D01*
X172593594Y-103639251D01*
X172619357Y-103618457D01*
X172648669Y-103601457D01*
X172683227Y-103587743D01*
X172720869Y-103579135D01*
X172765232Y-103576081D01*
X173255000Y-103576081D01*
X173255000Y-103753706D01*
X172765232Y-103753706D01*
X172733429Y-103758457D01*
X172712292Y-103771170D01*
X172699142Y-103791982D01*
X172694157Y-103824781D01*
X172694157Y-103984638D01*
X172727795Y-103978018D01*
X172765232Y-103975723D01*
X173255000Y-103975723D01*
G37*
G36*
X173050045Y-102612459D02*
G01*
X173087998Y-102621030D01*
X173122819Y-102634759D01*
X173152173Y-102651744D01*
X173177937Y-102672537D01*
X173199312Y-102696135D01*
X173231125Y-102749136D01*
X173249199Y-102805128D01*
X173255000Y-102858740D01*
X173255000Y-103179125D01*
X173251937Y-103216617D01*
X173242055Y-103259725D01*
X173224993Y-103301615D01*
X173199373Y-103340692D01*
X173165756Y-103374402D01*
X173122131Y-103402852D01*
X173071127Y-103421131D01*
X173005689Y-103427764D01*
X172765232Y-103427764D01*
X172700338Y-103421145D01*
X172649460Y-103402852D01*
X172605835Y-103374402D01*
X172572219Y-103340692D01*
X172546565Y-103301609D01*
X172529537Y-103259725D01*
X172519607Y-103216615D01*
X172516531Y-103179125D01*
X172516531Y-102858740D01*
X172694157Y-102858740D01*
X172694157Y-103177782D01*
X172699076Y-103210115D01*
X172712292Y-103231698D01*
X172733521Y-103245156D01*
X172765232Y-103250139D01*
X173005689Y-103250139D01*
X173037407Y-103245172D01*
X173058934Y-103231698D01*
X173072382Y-103210086D01*
X173077374Y-103177782D01*
X173077374Y-102858740D01*
X173072330Y-102825909D01*
X173058934Y-102804762D01*
X173037470Y-102791801D01*
X173005689Y-102786993D01*
X172766575Y-102786993D01*
X172733157Y-102792062D01*
X172711926Y-102805434D01*
X172698967Y-102826905D01*
X172694157Y-102858740D01*
X172516531Y-102858740D01*
X172523064Y-102793776D01*
X172541139Y-102742602D01*
X172569386Y-102698805D01*
X172602993Y-102665421D01*
X172641990Y-102639972D01*
X172683899Y-102622740D01*
X172727101Y-102612593D01*
X172765232Y-102609429D01*
X173005689Y-102609429D01*
X173050045Y-102612459D01*
G37*
G36*
X173255000Y-101639846D02*
G01*
X173255000Y-101817471D01*
X172845099Y-101817471D01*
X172811523Y-101820571D01*
X172782634Y-101829439D01*
X172756781Y-101843655D01*
X172735190Y-101861923D01*
X172717736Y-101884069D01*
X172704781Y-101910039D01*
X172696865Y-101938520D01*
X172694157Y-101969818D01*
X172694157Y-102280617D01*
X173255000Y-102280617D01*
X173255000Y-102458242D01*
X172604642Y-102458242D01*
X172570204Y-102451404D01*
X172542177Y-102432292D01*
X172523370Y-102403654D01*
X172516531Y-102368788D01*
X172516531Y-101968474D01*
X172524042Y-101897766D01*
X172533790Y-101860953D01*
X172548344Y-101824005D01*
X172567201Y-101788468D01*
X172590720Y-101754334D01*
X172618812Y-101723298D01*
X172652880Y-101695594D01*
X172691615Y-101672897D01*
X172737205Y-101654928D01*
X172786848Y-101643791D01*
X172845099Y-101639846D01*
X173255000Y-101639846D01*
G37*
G36*
X172364918Y-101303890D02*
G01*
X172364918Y-101481454D01*
X172204389Y-101481454D01*
X172204389Y-101303890D01*
X172364918Y-101303890D01*
G37*
G36*
X173255000Y-101303890D02*
G01*
X173255000Y-101481454D01*
X172516531Y-101481454D01*
X172516531Y-101303890D01*
X173255000Y-101303890D01*
G37*
G36*
X172694157Y-100462961D02*
G01*
X172694157Y-100773089D01*
X173255000Y-100773089D01*
X173255000Y-100952729D01*
X172694157Y-100952729D01*
X172694157Y-101183661D01*
X172516531Y-101183661D01*
X172516531Y-100952729D01*
X172275403Y-100952729D01*
X172275403Y-100773089D01*
X172516531Y-100773089D01*
X172516531Y-100462961D01*
X172694157Y-100462961D01*
G37*
G36*
X173050045Y-99548677D02*
G01*
X173087998Y-99557248D01*
X173122819Y-99570977D01*
X173152173Y-99587961D01*
X173177937Y-99608755D01*
X173199312Y-99632353D01*
X173231125Y-99685353D01*
X173249199Y-99741346D01*
X173255000Y-99794957D01*
X173255000Y-100115343D01*
X173251937Y-100152835D01*
X173242055Y-100195943D01*
X173224993Y-100237833D01*
X173199373Y-100276910D01*
X173165756Y-100310619D01*
X173122131Y-100339069D01*
X173071127Y-100357349D01*
X173005689Y-100363982D01*
X172765232Y-100363982D01*
X172700338Y-100357362D01*
X172649460Y-100339069D01*
X172605835Y-100310619D01*
X172572219Y-100276910D01*
X172546565Y-100237827D01*
X172529537Y-100195943D01*
X172519607Y-100152833D01*
X172516531Y-100115343D01*
X172516531Y-99794957D01*
X172694157Y-99794957D01*
X172694157Y-100114000D01*
X172699076Y-100146333D01*
X172712292Y-100167916D01*
X172733521Y-100181374D01*
X172765232Y-100186356D01*
X173005689Y-100186356D01*
X173037407Y-100181390D01*
X173058934Y-100167916D01*
X173072382Y-100146304D01*
X173077374Y-100114000D01*
X173077374Y-99794957D01*
X173072330Y-99762127D01*
X173058934Y-99740980D01*
X173037470Y-99728019D01*
X173005689Y-99723211D01*
X172766575Y-99723211D01*
X172733157Y-99728279D01*
X172711926Y-99741651D01*
X172698967Y-99763123D01*
X172694157Y-99794957D01*
X172516531Y-99794957D01*
X172523064Y-99729993D01*
X172541139Y-99678820D01*
X172569386Y-99635022D01*
X172602993Y-99601639D01*
X172641990Y-99576190D01*
X172683899Y-99558958D01*
X172727101Y-99548811D01*
X172765232Y-99545646D01*
X173005689Y-99545646D01*
X173050045Y-99548677D01*
G37*
G36*
X172694157Y-98748255D02*
G01*
X172694157Y-99147836D01*
X172699103Y-99180809D01*
X172712292Y-99202485D01*
X172733521Y-99215943D01*
X172765232Y-99220926D01*
X173255000Y-99220926D01*
X173255000Y-99398551D01*
X172765232Y-99398551D01*
X172720866Y-99395512D01*
X172683227Y-99386950D01*
X172648695Y-99373154D01*
X172619357Y-99355870D01*
X172593576Y-99334783D01*
X172572219Y-99311112D01*
X172540467Y-99258173D01*
X172522332Y-99202180D01*
X172516531Y-99149240D01*
X172516531Y-98748255D01*
X172694157Y-98748255D01*
G37*
G36*
X172516531Y-97305695D02*
G01*
X172609327Y-97338270D01*
X172700996Y-97376098D01*
X172789915Y-97419496D01*
X172874164Y-97468666D01*
X172953612Y-97524131D01*
X173026510Y-97585475D01*
X173091866Y-97653605D01*
X173147411Y-97728235D01*
X173192668Y-97809542D01*
X173227339Y-97898351D01*
X173243234Y-97960203D01*
X173252999Y-98026400D01*
X173256343Y-98097470D01*
X173249565Y-98132335D01*
X173230758Y-98160973D01*
X173202732Y-98180085D01*
X173168232Y-98186923D01*
X172516531Y-98186923D01*
X172516531Y-98009298D01*
X173071939Y-98009298D01*
X173064963Y-97945855D01*
X173043913Y-97884673D01*
X173011660Y-97826960D01*
X172969785Y-97771589D01*
X172920852Y-97720576D01*
X172864944Y-97672914D01*
X172805142Y-97629758D01*
X172744410Y-97591948D01*
X172682370Y-97558670D01*
X172623143Y-97531498D01*
X172564795Y-97509017D01*
X172516531Y-97494251D01*
X172516531Y-97305695D01*
G37*
G36*
X172653551Y-96363406D02*
G01*
X172678464Y-96388991D01*
X172998850Y-96868562D01*
X173011123Y-96892436D01*
X173014542Y-96917716D01*
X173011991Y-96939016D01*
X173004284Y-96959420D01*
X172991847Y-96977288D01*
X172974914Y-96991477D01*
X172942491Y-97005154D01*
X172908297Y-97005521D01*
X172876912Y-96992881D01*
X172851938Y-96967602D01*
X172531552Y-96486688D01*
X172517936Y-96454265D01*
X172517936Y-96420071D01*
X172530942Y-96388686D01*
X172555488Y-96363712D01*
X172587972Y-96350034D01*
X172622105Y-96350034D01*
X172653551Y-96363406D01*
G37*
G36*
X172904132Y-96111480D02*
G01*
X172958855Y-96122949D01*
X173010738Y-96141549D01*
X173058262Y-96166302D01*
X173101750Y-96196920D01*
X173140266Y-96232553D01*
X173173820Y-96272621D01*
X173202060Y-96316206D01*
X173224625Y-96362997D01*
X173241322Y-96412927D01*
X173251577Y-96464634D01*
X173255000Y-96517401D01*
X173255000Y-96837787D01*
X173251565Y-96891190D01*
X173241322Y-96942995D01*
X173224628Y-96992872D01*
X173202060Y-97039654D01*
X173173823Y-97083251D01*
X173140266Y-97123368D01*
X173101739Y-97158888D01*
X173058262Y-97189252D01*
X173010761Y-97213737D01*
X172958855Y-97232300D01*
X172904132Y-97243770D01*
X172845099Y-97247688D01*
X172685303Y-97247688D01*
X172625922Y-97243804D01*
X172571053Y-97232454D01*
X172520012Y-97213860D01*
X172449680Y-97174053D01*
X172390563Y-97123368D01*
X172342304Y-97062448D01*
X172305811Y-96992515D01*
X172283016Y-96916825D01*
X172275403Y-96837787D01*
X172275403Y-96517401D01*
X172453028Y-96517401D01*
X172453028Y-96837787D01*
X172456527Y-96881515D01*
X172468415Y-96924188D01*
X172488045Y-96963862D01*
X172514822Y-96998682D01*
X172548175Y-97027653D01*
X172588644Y-97050584D01*
X172633802Y-97065054D01*
X172685303Y-97070062D01*
X172845099Y-97070062D01*
X172896576Y-97065137D01*
X172941453Y-97050950D01*
X172981629Y-97028355D01*
X173014909Y-96999720D01*
X173041717Y-96965222D01*
X173061681Y-96925592D01*
X173073772Y-96882720D01*
X173077374Y-96837787D01*
X173077374Y-96517401D01*
X173072881Y-96466527D01*
X173059972Y-96422147D01*
X173039031Y-96382262D01*
X173011856Y-96349362D01*
X172978377Y-96322913D01*
X172938400Y-96302956D01*
X172894269Y-96290738D01*
X172845099Y-96286531D01*
X172685303Y-96286531D01*
X172634420Y-96291442D01*
X172589682Y-96305643D01*
X172549435Y-96328126D01*
X172515921Y-96356568D01*
X172488786Y-96390749D01*
X172468782Y-96430024D01*
X172456651Y-96472576D01*
X172453028Y-96517401D01*
X172275403Y-96517401D01*
X172278825Y-96464634D01*
X172289080Y-96412927D01*
X172305791Y-96363000D01*
X172328403Y-96316206D01*
X172356608Y-96272628D01*
X172390197Y-96232553D01*
X172428713Y-96196920D01*
X172472201Y-96166302D01*
X172519673Y-96141552D01*
X172571547Y-96122949D01*
X172626270Y-96111480D01*
X172685303Y-96107562D01*
X172845099Y-96107562D01*
X172904132Y-96111480D01*
G37*
G36*
X173165484Y-95811173D02*
G01*
X173199984Y-95818378D01*
X173228011Y-95837490D01*
X173246817Y-95865517D01*
X173253656Y-95899345D01*
X173246817Y-95933844D01*
X173228011Y-95961810D01*
X173199984Y-95980617D01*
X173165484Y-95987456D01*
X173131718Y-95980617D01*
X173103691Y-95961810D01*
X173084579Y-95933844D01*
X173077374Y-95899345D01*
X173084579Y-95865517D01*
X173103691Y-95837490D01*
X173131718Y-95818378D01*
X173165484Y-95811173D01*
G37*
G36*
X173255000Y-95390709D02*
G01*
X173255000Y-95569007D01*
X172453028Y-95569007D01*
X172453028Y-95729535D01*
X172275403Y-95729535D01*
X172275403Y-95390709D01*
X173255000Y-95390709D01*
G37*
X144690476Y-109454819D02*
X145214285Y-108788152D01*
X144690476Y-108788152D02*
X145214285Y-109454819D01*
X145595238Y-109454819D02*
X145595238Y-108788152D01*
X145595238Y-108454819D02*
X145547619Y-108502438D01*
X145547619Y-108502438D02*
X145595238Y-108550057D01*
X145595238Y-108550057D02*
X145642857Y-108502438D01*
X145642857Y-108502438D02*
X145595238Y-108454819D01*
X145595238Y-108454819D02*
X145595238Y-108550057D01*
X146499999Y-109454819D02*
X146499999Y-108931009D01*
X146499999Y-108931009D02*
X146452380Y-108835771D01*
X146452380Y-108835771D02*
X146357142Y-108788152D01*
X146357142Y-108788152D02*
X146166666Y-108788152D01*
X146166666Y-108788152D02*
X146071428Y-108835771D01*
X146499999Y-109407200D02*
X146404761Y-109454819D01*
X146404761Y-109454819D02*
X146166666Y-109454819D01*
X146166666Y-109454819D02*
X146071428Y-109407200D01*
X146071428Y-109407200D02*
X146023809Y-109311961D01*
X146023809Y-109311961D02*
X146023809Y-109216723D01*
X146023809Y-109216723D02*
X146071428Y-109121485D01*
X146071428Y-109121485D02*
X146166666Y-109073866D01*
X146166666Y-109073866D02*
X146404761Y-109073866D01*
X146404761Y-109073866D02*
X146499999Y-109026247D01*
X147119047Y-109454819D02*
X147023809Y-109407200D01*
X147023809Y-109407200D02*
X146976190Y-109359580D01*
X146976190Y-109359580D02*
X146928571Y-109264342D01*
X146928571Y-109264342D02*
X146928571Y-108978628D01*
X146928571Y-108978628D02*
X146976190Y-108883390D01*
X146976190Y-108883390D02*
X147023809Y-108835771D01*
X147023809Y-108835771D02*
X147119047Y-108788152D01*
X147119047Y-108788152D02*
X147261904Y-108788152D01*
X147261904Y-108788152D02*
X147357142Y-108835771D01*
X147357142Y-108835771D02*
X147404761Y-108883390D01*
X147404761Y-108883390D02*
X147452380Y-108978628D01*
X147452380Y-108978628D02*
X147452380Y-109264342D01*
X147452380Y-109264342D02*
X147404761Y-109359580D01*
X147404761Y-109359580D02*
X147357142Y-109407200D01*
X147357142Y-109407200D02*
X147261904Y-109454819D01*
X147261904Y-109454819D02*
X147119047Y-109454819D01*
X149023809Y-109407200D02*
X148928571Y-109454819D01*
X148928571Y-109454819D02*
X148738095Y-109454819D01*
X148738095Y-109454819D02*
X148642857Y-109407200D01*
X148642857Y-109407200D02*
X148595238Y-109311961D01*
X148595238Y-109311961D02*
X148595238Y-108931009D01*
X148595238Y-108931009D02*
X148642857Y-108835771D01*
X148642857Y-108835771D02*
X148738095Y-108788152D01*
X148738095Y-108788152D02*
X148928571Y-108788152D01*
X148928571Y-108788152D02*
X149023809Y-108835771D01*
X149023809Y-108835771D02*
X149071428Y-108931009D01*
X149071428Y-108931009D02*
X149071428Y-109026247D01*
X149071428Y-109026247D02*
X148595238Y-109121485D01*
X149452381Y-109407200D02*
X149547619Y-109454819D01*
X149547619Y-109454819D02*
X149738095Y-109454819D01*
X149738095Y-109454819D02*
X149833333Y-109407200D01*
X149833333Y-109407200D02*
X149880952Y-109311961D01*
X149880952Y-109311961D02*
X149880952Y-109264342D01*
X149880952Y-109264342D02*
X149833333Y-109169104D01*
X149833333Y-109169104D02*
X149738095Y-109121485D01*
X149738095Y-109121485D02*
X149595238Y-109121485D01*
X149595238Y-109121485D02*
X149500000Y-109073866D01*
X149500000Y-109073866D02*
X149452381Y-108978628D01*
X149452381Y-108978628D02*
X149452381Y-108931009D01*
X149452381Y-108931009D02*
X149500000Y-108835771D01*
X149500000Y-108835771D02*
X149595238Y-108788152D01*
X149595238Y-108788152D02*
X149738095Y-108788152D01*
X149738095Y-108788152D02*
X149833333Y-108835771D01*
X150309524Y-108788152D02*
X150309524Y-109788152D01*
X150309524Y-108835771D02*
X150404762Y-108788152D01*
X150404762Y-108788152D02*
X150595238Y-108788152D01*
X150595238Y-108788152D02*
X150690476Y-108835771D01*
X150690476Y-108835771D02*
X150738095Y-108883390D01*
X150738095Y-108883390D02*
X150785714Y-108978628D01*
X150785714Y-108978628D02*
X150785714Y-109264342D01*
X150785714Y-109264342D02*
X150738095Y-109359580D01*
X150738095Y-109359580D02*
X150690476Y-109407200D01*
X150690476Y-109407200D02*
X150595238Y-109454819D01*
X150595238Y-109454819D02*
X150404762Y-109454819D01*
X150404762Y-109454819D02*
X150309524Y-109407200D01*
X151119048Y-108454819D02*
X151738095Y-108454819D01*
X151738095Y-108454819D02*
X151404762Y-108835771D01*
X151404762Y-108835771D02*
X151547619Y-108835771D01*
X151547619Y-108835771D02*
X151642857Y-108883390D01*
X151642857Y-108883390D02*
X151690476Y-108931009D01*
X151690476Y-108931009D02*
X151738095Y-109026247D01*
X151738095Y-109026247D02*
X151738095Y-109264342D01*
X151738095Y-109264342D02*
X151690476Y-109359580D01*
X151690476Y-109359580D02*
X151642857Y-109407200D01*
X151642857Y-109407200D02*
X151547619Y-109454819D01*
X151547619Y-109454819D02*
X151261905Y-109454819D01*
X151261905Y-109454819D02*
X151166667Y-109407200D01*
X151166667Y-109407200D02*
X151119048Y-109359580D01*
X152119048Y-108550057D02*
X152166667Y-108502438D01*
X152166667Y-108502438D02*
X152261905Y-108454819D01*
X152261905Y-108454819D02*
X152500000Y-108454819D01*
X152500000Y-108454819D02*
X152595238Y-108502438D01*
X152595238Y-108502438D02*
X152642857Y-108550057D01*
X152642857Y-108550057D02*
X152690476Y-108645295D01*
X152690476Y-108645295D02*
X152690476Y-108740533D01*
X152690476Y-108740533D02*
X152642857Y-108883390D01*
X152642857Y-108883390D02*
X152071429Y-109454819D01*
X152071429Y-109454819D02*
X152690476Y-109454819D01*
X154309524Y-109407200D02*
X154214286Y-109454819D01*
X154214286Y-109454819D02*
X154023810Y-109454819D01*
X154023810Y-109454819D02*
X153928572Y-109407200D01*
X153928572Y-109407200D02*
X153880953Y-109359580D01*
X153880953Y-109359580D02*
X153833334Y-109264342D01*
X153833334Y-109264342D02*
X153833334Y-108978628D01*
X153833334Y-108978628D02*
X153880953Y-108883390D01*
X153880953Y-108883390D02*
X153928572Y-108835771D01*
X153928572Y-108835771D02*
X154023810Y-108788152D01*
X154023810Y-108788152D02*
X154214286Y-108788152D01*
X154214286Y-108788152D02*
X154309524Y-108835771D01*
X154642858Y-108454819D02*
X155261905Y-108454819D01*
X155261905Y-108454819D02*
X154928572Y-108835771D01*
X154928572Y-108835771D02*
X155071429Y-108835771D01*
X155071429Y-108835771D02*
X155166667Y-108883390D01*
X155166667Y-108883390D02*
X155214286Y-108931009D01*
X155214286Y-108931009D02*
X155261905Y-109026247D01*
X155261905Y-109026247D02*
X155261905Y-109264342D01*
X155261905Y-109264342D02*
X155214286Y-109359580D01*
X155214286Y-109359580D02*
X155166667Y-109407200D01*
X155166667Y-109407200D02*
X155071429Y-109454819D01*
X155071429Y-109454819D02*
X154785715Y-109454819D01*
X154785715Y-109454819D02*
X154690477Y-109407200D01*
X154690477Y-109407200D02*
X154642858Y-109359580D01*
X139691666Y-106974819D02*
X139691666Y-107689104D01*
X139691666Y-107689104D02*
X139644047Y-107831961D01*
X139644047Y-107831961D02*
X139548809Y-107927200D01*
X139548809Y-107927200D02*
X139405952Y-107974819D01*
X139405952Y-107974819D02*
X139310714Y-107974819D01*
X140644047Y-106974819D02*
X140167857Y-106974819D01*
X140167857Y-106974819D02*
X140120238Y-107451009D01*
X140120238Y-107451009D02*
X140167857Y-107403390D01*
X140167857Y-107403390D02*
X140263095Y-107355771D01*
X140263095Y-107355771D02*
X140501190Y-107355771D01*
X140501190Y-107355771D02*
X140596428Y-107403390D01*
X140596428Y-107403390D02*
X140644047Y-107451009D01*
X140644047Y-107451009D02*
X140691666Y-107546247D01*
X140691666Y-107546247D02*
X140691666Y-107784342D01*
X140691666Y-107784342D02*
X140644047Y-107879580D01*
X140644047Y-107879580D02*
X140596428Y-107927200D01*
X140596428Y-107927200D02*
X140501190Y-107974819D01*
X140501190Y-107974819D02*
X140263095Y-107974819D01*
X140263095Y-107974819D02*
X140167857Y-107927200D01*
X140167857Y-107927200D02*
X140120238Y-107879580D01*
X134452380Y-107359580D02*
X134404761Y-107407200D01*
X134404761Y-107407200D02*
X134261904Y-107454819D01*
X134261904Y-107454819D02*
X134166666Y-107454819D01*
X134166666Y-107454819D02*
X134023809Y-107407200D01*
X134023809Y-107407200D02*
X133928571Y-107311961D01*
X133928571Y-107311961D02*
X133880952Y-107216723D01*
X133880952Y-107216723D02*
X133833333Y-107026247D01*
X133833333Y-107026247D02*
X133833333Y-106883390D01*
X133833333Y-106883390D02*
X133880952Y-106692914D01*
X133880952Y-106692914D02*
X133928571Y-106597676D01*
X133928571Y-106597676D02*
X134023809Y-106502438D01*
X134023809Y-106502438D02*
X134166666Y-106454819D01*
X134166666Y-106454819D02*
X134261904Y-106454819D01*
X134261904Y-106454819D02*
X134404761Y-106502438D01*
X134404761Y-106502438D02*
X134452380Y-106550057D01*
X134738095Y-106454819D02*
X135309523Y-106454819D01*
X135023809Y-107454819D02*
X135023809Y-106454819D01*
X136166666Y-107454819D02*
X135595238Y-107454819D01*
X135880952Y-107454819D02*
X135880952Y-106454819D01*
X135880952Y-106454819D02*
X135785714Y-106597676D01*
X135785714Y-106597676D02*
X135690476Y-106692914D01*
X135690476Y-106692914D02*
X135595238Y-106740533D01*
X164452380Y-107359580D02*
X164404761Y-107407200D01*
X164404761Y-107407200D02*
X164261904Y-107454819D01*
X164261904Y-107454819D02*
X164166666Y-107454819D01*
X164166666Y-107454819D02*
X164023809Y-107407200D01*
X164023809Y-107407200D02*
X163928571Y-107311961D01*
X163928571Y-107311961D02*
X163880952Y-107216723D01*
X163880952Y-107216723D02*
X163833333Y-107026247D01*
X163833333Y-107026247D02*
X163833333Y-106883390D01*
X163833333Y-106883390D02*
X163880952Y-106692914D01*
X163880952Y-106692914D02*
X163928571Y-106597676D01*
X163928571Y-106597676D02*
X164023809Y-106502438D01*
X164023809Y-106502438D02*
X164166666Y-106454819D01*
X164166666Y-106454819D02*
X164261904Y-106454819D01*
X164261904Y-106454819D02*
X164404761Y-106502438D01*
X164404761Y-106502438D02*
X164452380Y-106550057D01*
X164738095Y-106454819D02*
X165309523Y-106454819D01*
X165023809Y-107454819D02*
X165023809Y-106454819D01*
X165547619Y-106454819D02*
X166166666Y-106454819D01*
X166166666Y-106454819D02*
X165833333Y-106835771D01*
X165833333Y-106835771D02*
X165976190Y-106835771D01*
X165976190Y-106835771D02*
X166071428Y-106883390D01*
X166071428Y-106883390D02*
X166119047Y-106931009D01*
X166119047Y-106931009D02*
X166166666Y-107026247D01*
X166166666Y-107026247D02*
X166166666Y-107264342D01*
X166166666Y-107264342D02*
X166119047Y-107359580D01*
X166119047Y-107359580D02*
X166071428Y-107407200D01*
X166071428Y-107407200D02*
X165976190Y-107454819D01*
X165976190Y-107454819D02*
X165690476Y-107454819D01*
X165690476Y-107454819D02*
X165595238Y-107407200D01*
X165595238Y-107407200D02*
X165547619Y-107359580D01*
X149452380Y-107359580D02*
X149404761Y-107407200D01*
X149404761Y-107407200D02*
X149261904Y-107454819D01*
X149261904Y-107454819D02*
X149166666Y-107454819D01*
X149166666Y-107454819D02*
X149023809Y-107407200D01*
X149023809Y-107407200D02*
X148928571Y-107311961D01*
X148928571Y-107311961D02*
X148880952Y-107216723D01*
X148880952Y-107216723D02*
X148833333Y-107026247D01*
X148833333Y-107026247D02*
X148833333Y-106883390D01*
X148833333Y-106883390D02*
X148880952Y-106692914D01*
X148880952Y-106692914D02*
X148928571Y-106597676D01*
X148928571Y-106597676D02*
X149023809Y-106502438D01*
X149023809Y-106502438D02*
X149166666Y-106454819D01*
X149166666Y-106454819D02*
X149261904Y-106454819D01*
X149261904Y-106454819D02*
X149404761Y-106502438D01*
X149404761Y-106502438D02*
X149452380Y-106550057D01*
X149738095Y-106454819D02*
X150309523Y-106454819D01*
X150023809Y-107454819D02*
X150023809Y-106454819D01*
X150595238Y-106550057D02*
X150642857Y-106502438D01*
X150642857Y-106502438D02*
X150738095Y-106454819D01*
X150738095Y-106454819D02*
X150976190Y-106454819D01*
X150976190Y-106454819D02*
X151071428Y-106502438D01*
X151071428Y-106502438D02*
X151119047Y-106550057D01*
X151119047Y-106550057D02*
X151166666Y-106645295D01*
X151166666Y-106645295D02*
X151166666Y-106740533D01*
X151166666Y-106740533D02*
X151119047Y-106883390D01*
X151119047Y-106883390D02*
X150547619Y-107454819D01*
X150547619Y-107454819D02*
X151166666Y-107454819D01*
X159691666Y-106974819D02*
X159691666Y-107689104D01*
X159691666Y-107689104D02*
X159644047Y-107831961D01*
X159644047Y-107831961D02*
X159548809Y-107927200D01*
X159548809Y-107927200D02*
X159405952Y-107974819D01*
X159405952Y-107974819D02*
X159310714Y-107974819D01*
X160596428Y-107308152D02*
X160596428Y-107974819D01*
X160358333Y-106927200D02*
X160120238Y-107641485D01*
X160120238Y-107641485D02*
X160739285Y-107641485D01*
D11*
%TO.C,J5*%
X141050000Y-106350000D02*
X141050000Y-91050000D01*
X141050000Y-108950000D02*
X141050000Y-107620000D01*
X142380000Y-108950000D02*
X141050000Y-108950000D01*
X143710000Y-91050000D02*
X141050000Y-91050000D01*
X143710000Y-106350000D02*
X141050000Y-106350000D01*
X143710000Y-106350000D02*
X143710000Y-91050000D01*
%TO.C,CT1*%
X131900000Y-90900000D02*
X132400000Y-90900000D01*
X131900000Y-92100000D02*
X129900000Y-92100000D01*
X131900000Y-92100000D02*
X131900000Y-90900000D01*
X131900000Y-94700000D02*
X129900000Y-94700000D01*
X131900000Y-101200000D02*
X131900000Y-94700000D01*
X131900000Y-105600000D02*
X131900000Y-104400000D01*
X132400000Y-88400000D02*
X137600000Y-88400000D01*
X132400000Y-90900000D02*
X132400000Y-88400000D01*
X137600000Y-88400000D02*
X137600000Y-90900000D01*
X137600000Y-90900000D02*
X138100000Y-90900000D01*
X138100000Y-90900000D02*
X138100000Y-94100000D01*
X138100000Y-96700000D02*
X138100000Y-105600000D01*
X138100000Y-105600000D02*
X131900000Y-105600000D01*
%TO.C,CT3*%
X161900000Y-90900000D02*
X162400000Y-90900000D01*
X161900000Y-92100000D02*
X159900000Y-92100000D01*
X161900000Y-92100000D02*
X161900000Y-90900000D01*
X161900000Y-94700000D02*
X159900000Y-94700000D01*
X161900000Y-101200000D02*
X161900000Y-94700000D01*
X161900000Y-105600000D02*
X161900000Y-104400000D01*
X162400000Y-88400000D02*
X167600000Y-88400000D01*
X162400000Y-90900000D02*
X162400000Y-88400000D01*
X167600000Y-88400000D02*
X167600000Y-90900000D01*
X167600000Y-90900000D02*
X168100000Y-90900000D01*
X168100000Y-90900000D02*
X168100000Y-94100000D01*
X168100000Y-96700000D02*
X168100000Y-105600000D01*
X168100000Y-105600000D02*
X161900000Y-105600000D01*
%TO.C,CT2*%
X146900000Y-90900000D02*
X147400000Y-90900000D01*
X146900000Y-92100000D02*
X144900000Y-92100000D01*
X146900000Y-92100000D02*
X146900000Y-90900000D01*
X146900000Y-94700000D02*
X144900000Y-94700000D01*
X146900000Y-101200000D02*
X146900000Y-94700000D01*
X146900000Y-105600000D02*
X146900000Y-104400000D01*
X147400000Y-88400000D02*
X152600000Y-88400000D01*
X147400000Y-90900000D02*
X147400000Y-88400000D01*
X152600000Y-88400000D02*
X152600000Y-90900000D01*
X152600000Y-90900000D02*
X153100000Y-90900000D01*
X153100000Y-90900000D02*
X153100000Y-94100000D01*
X153100000Y-96700000D02*
X153100000Y-105600000D01*
X153100000Y-105600000D02*
X146900000Y-105600000D01*
%TO.C,J4*%
X156290000Y-106350000D02*
X156290000Y-91050000D01*
X156290000Y-108950000D02*
X156290000Y-107620000D01*
X157620000Y-108950000D02*
X156290000Y-108950000D01*
X158950000Y-91050000D02*
X156290000Y-91050000D01*
X158950000Y-106350000D02*
X156290000Y-106350000D01*
X158950000Y-106350000D02*
X158950000Y-91050000D01*
D12*
%TO.C,G\u002A\u002A\u002A*%
G36*
X128328035Y-101002771D02*
G01*
X128205355Y-101002771D01*
X128205355Y-100869424D01*
X128328035Y-100869424D01*
X128328035Y-101002771D01*
G37*
G36*
X128946767Y-101002771D02*
G01*
X128424045Y-101002771D01*
X128424045Y-100869424D01*
X128946767Y-100869424D01*
X128946767Y-101002771D01*
G37*
G36*
X127386603Y-99970663D02*
G01*
X127778644Y-99970663D01*
X127778644Y-100106677D01*
X127386603Y-100106677D01*
X127386603Y-100266694D01*
X127255922Y-100266694D01*
X127255922Y-100106677D01*
X127087905Y-100106677D01*
X127087905Y-99970663D01*
X127255922Y-99970663D01*
X127255922Y-99754640D01*
X127386603Y-99754640D01*
X127386603Y-99970663D01*
G37*
G36*
X127859986Y-100340035D02*
G01*
X127878654Y-100346296D01*
X127902069Y-100355489D01*
X127921883Y-100366452D01*
X127939776Y-100380197D01*
X127948424Y-100388326D01*
X127959356Y-100399932D01*
X127967788Y-100410963D01*
X127975283Y-100423625D01*
X127979805Y-100432560D01*
X127984173Y-100441672D01*
X127987858Y-100449926D01*
X127990917Y-100457864D01*
X127993410Y-100466025D01*
X127995395Y-100474950D01*
X127996930Y-100485177D01*
X127998072Y-100497249D01*
X127998881Y-100511705D01*
X127999415Y-100529084D01*
X127999731Y-100549928D01*
X127999889Y-100574777D01*
X127999946Y-100604170D01*
X127999954Y-100619398D01*
X128000000Y-100744078D01*
X127866653Y-100744078D01*
X127866643Y-100620731D01*
X127866630Y-100591768D01*
X127866585Y-100567656D01*
X127866488Y-100547912D01*
X127866322Y-100532052D01*
X127866067Y-100519594D01*
X127865706Y-100510054D01*
X127865221Y-100502951D01*
X127864592Y-100497799D01*
X127863801Y-100494117D01*
X127862830Y-100491422D01*
X127861660Y-100489230D01*
X127861624Y-100489171D01*
X127860113Y-100486540D01*
X127858772Y-100484192D01*
X127857304Y-100482112D01*
X127855413Y-100480283D01*
X127852803Y-100478689D01*
X127849179Y-100477314D01*
X127844243Y-100476143D01*
X127837701Y-100475158D01*
X127829255Y-100474343D01*
X127818610Y-100473684D01*
X127805470Y-100473162D01*
X127789538Y-100472764D01*
X127770519Y-100472471D01*
X127748117Y-100472269D01*
X127722035Y-100472141D01*
X127691978Y-100472071D01*
X127657649Y-100472042D01*
X127618752Y-100472040D01*
X127574991Y-100472047D01*
X127546883Y-100472049D01*
X127255922Y-100472049D01*
X127255922Y-100338549D01*
X127859986Y-100340035D01*
G37*
G36*
X127778330Y-100632733D02*
G01*
X127778219Y-100658080D01*
X127778027Y-100682172D01*
X127777765Y-100704401D01*
X127777444Y-100724162D01*
X127777076Y-100740847D01*
X127776670Y-100753852D01*
X127776238Y-100762568D01*
X127775915Y-100765864D01*
X127768228Y-100797375D01*
X127756397Y-100825888D01*
X127740604Y-100851148D01*
X127721029Y-100872897D01*
X127697851Y-100890881D01*
X127681300Y-100900252D01*
X127674794Y-100903411D01*
X127668631Y-100906157D01*
X127662404Y-100908520D01*
X127655702Y-100910526D01*
X127648118Y-100912207D01*
X127639243Y-100913591D01*
X127628668Y-100914705D01*
X127615984Y-100915581D01*
X127600782Y-100916246D01*
X127582654Y-100916729D01*
X127561191Y-100917059D01*
X127535983Y-100917265D01*
X127506623Y-100917376D01*
X127472702Y-100917421D01*
X127438374Y-100917429D01*
X127255922Y-100917429D01*
X127255922Y-100784082D01*
X127435275Y-100784078D01*
X127471724Y-100784080D01*
X127503226Y-100784067D01*
X127530165Y-100784007D01*
X127552927Y-100783867D01*
X127571897Y-100783617D01*
X127587461Y-100783223D01*
X127600006Y-100782654D01*
X127609915Y-100781878D01*
X127617576Y-100780863D01*
X127623373Y-100779577D01*
X127627692Y-100777987D01*
X127630919Y-100776063D01*
X127633439Y-100773771D01*
X127635638Y-100771081D01*
X127637902Y-100767959D01*
X127638440Y-100767221D01*
X127639731Y-100765310D01*
X127640807Y-100763088D01*
X127641692Y-100760075D01*
X127642409Y-100755790D01*
X127642981Y-100749755D01*
X127643430Y-100741488D01*
X127643779Y-100730510D01*
X127644052Y-100716340D01*
X127644272Y-100698499D01*
X127644461Y-100676505D01*
X127644643Y-100649881D01*
X127644731Y-100635874D01*
X127645498Y-100512053D01*
X127778644Y-100512053D01*
X127778330Y-100632733D01*
G37*
G36*
X128719633Y-98250558D02*
G01*
X128749760Y-98259822D01*
X128759092Y-98263780D01*
X128787438Y-98279447D01*
X128812469Y-98299009D01*
X128833874Y-98321985D01*
X128851344Y-98347891D01*
X128864569Y-98376245D01*
X128873239Y-98406564D01*
X128877046Y-98438365D01*
X128877195Y-98447837D01*
X128876703Y-98461299D01*
X128875562Y-98474930D01*
X128873989Y-98486360D01*
X128873427Y-98489174D01*
X128863973Y-98519843D01*
X128849983Y-98548474D01*
X128831907Y-98574499D01*
X128810198Y-98597349D01*
X128785304Y-98616456D01*
X128762652Y-98629014D01*
X128738061Y-98638835D01*
X128713864Y-98644805D01*
X128688272Y-98647268D01*
X128673593Y-98647122D01*
X128668153Y-98647068D01*
X128646287Y-98645408D01*
X128627776Y-98642318D01*
X128610728Y-98637325D01*
X128593250Y-98629954D01*
X128586419Y-98626592D01*
X128559209Y-98609970D01*
X128535293Y-98589643D01*
X128514963Y-98566161D01*
X128498510Y-98540073D01*
X128486225Y-98511929D01*
X128478401Y-98482278D01*
X128475328Y-98451668D01*
X128475675Y-98446129D01*
X128585053Y-98446129D01*
X128586885Y-98465737D01*
X128592883Y-98484766D01*
X128603127Y-98502479D01*
X128617694Y-98518140D01*
X128619394Y-98519567D01*
X128635014Y-98529210D01*
X128653558Y-98535530D01*
X128673593Y-98538279D01*
X128693682Y-98537207D01*
X128705591Y-98534498D01*
X128722828Y-98526679D01*
X128738721Y-98514693D01*
X128752097Y-98499704D01*
X128761787Y-98482878D01*
X128764299Y-98476116D01*
X128767384Y-98459872D01*
X128767671Y-98441577D01*
X128765235Y-98423674D01*
X128762422Y-98413933D01*
X128757511Y-98403260D01*
X128750441Y-98393169D01*
X128740062Y-98382000D01*
X128730815Y-98373312D01*
X128723115Y-98367512D01*
X128715064Y-98363420D01*
X128704760Y-98359853D01*
X128704089Y-98359649D01*
X128683065Y-98355404D01*
X128663190Y-98356072D01*
X128643358Y-98361742D01*
X128635688Y-98365186D01*
X128617848Y-98376639D01*
X128603787Y-98391197D01*
X128593582Y-98408122D01*
X128587312Y-98426679D01*
X128585053Y-98446129D01*
X128475675Y-98446129D01*
X128477255Y-98420947D01*
X128484350Y-98389399D01*
X128495773Y-98360315D01*
X128511079Y-98333943D01*
X128529819Y-98310535D01*
X128551548Y-98290337D01*
X128575817Y-98273601D01*
X128602181Y-98260575D01*
X128630191Y-98251508D01*
X128659401Y-98246650D01*
X128689364Y-98246250D01*
X128719633Y-98250558D01*
G37*
G36*
X128501209Y-100260173D02*
G01*
X128517303Y-100265176D01*
X128517911Y-100265475D01*
X128521184Y-100268035D01*
X128527905Y-100274074D01*
X128537764Y-100283288D01*
X128550447Y-100295374D01*
X128565641Y-100310030D01*
X128583035Y-100326951D01*
X128602315Y-100345836D01*
X128623170Y-100366380D01*
X128645285Y-100388282D01*
X128668349Y-100411239D01*
X128670071Y-100412957D01*
X128813419Y-100556039D01*
X128813419Y-100264027D01*
X128946767Y-100264027D01*
X128946526Y-100494051D01*
X128946461Y-100529915D01*
X128946345Y-100564077D01*
X128946182Y-100596161D01*
X128945977Y-100625786D01*
X128945733Y-100652575D01*
X128945455Y-100676149D01*
X128945148Y-100696129D01*
X128944815Y-100712136D01*
X128944461Y-100723791D01*
X128944089Y-100730717D01*
X128943862Y-100732437D01*
X128936657Y-100748537D01*
X128925666Y-100761981D01*
X128911810Y-100772310D01*
X128896007Y-100779066D01*
X128879176Y-100781788D01*
X128862237Y-100780019D01*
X128854005Y-100777303D01*
X128850263Y-100774805D01*
X128843497Y-100769129D01*
X128833621Y-100760193D01*
X128820551Y-100747916D01*
X128804203Y-100732217D01*
X128784493Y-100713016D01*
X128761335Y-100690231D01*
X128734646Y-100663781D01*
X128704341Y-100633585D01*
X128701374Y-100630621D01*
X128678497Y-100607792D01*
X128656702Y-100586093D01*
X128636285Y-100565814D01*
X128617541Y-100547246D01*
X128600766Y-100530681D01*
X128586254Y-100516409D01*
X128574300Y-100504721D01*
X128565200Y-100495908D01*
X128559249Y-100490260D01*
X128556742Y-100488069D01*
X128556693Y-100488051D01*
X128556322Y-100490637D01*
X128555973Y-100498071D01*
X128555655Y-100509867D01*
X128555372Y-100525539D01*
X128555132Y-100544602D01*
X128554942Y-100566569D01*
X128554808Y-100590954D01*
X128554736Y-100617272D01*
X128554725Y-100632066D01*
X128554725Y-100776081D01*
X128424045Y-100776081D01*
X128424045Y-100542232D01*
X128424047Y-100501574D01*
X128424058Y-100465905D01*
X128424086Y-100434880D01*
X128424138Y-100408153D01*
X128424223Y-100385378D01*
X128424349Y-100366212D01*
X128424522Y-100350308D01*
X128424752Y-100337321D01*
X128425046Y-100326906D01*
X128425411Y-100318717D01*
X128425856Y-100312411D01*
X128426388Y-100307640D01*
X128427016Y-100304061D01*
X128427746Y-100301327D01*
X128428587Y-100299094D01*
X128429548Y-100297016D01*
X128429613Y-100296880D01*
X128439281Y-100282543D01*
X128452315Y-100271333D01*
X128467674Y-100263622D01*
X128484319Y-100259778D01*
X128501209Y-100260173D01*
G37*
G36*
X128794817Y-101082954D02*
G01*
X128816071Y-101086563D01*
X128836643Y-101093131D01*
X128853423Y-101100541D01*
X128874143Y-101113220D01*
X128893538Y-101130117D01*
X128910522Y-101150121D01*
X128924011Y-101172122D01*
X128924673Y-101173456D01*
X128928489Y-101181193D01*
X128931798Y-101188017D01*
X128934637Y-101194354D01*
X128937044Y-101200631D01*
X128939058Y-101207272D01*
X128940717Y-101214703D01*
X128942059Y-101223351D01*
X128943122Y-101233641D01*
X128943944Y-101245999D01*
X128944562Y-101260850D01*
X128945016Y-101278621D01*
X128945343Y-101299737D01*
X128945581Y-101324623D01*
X128945769Y-101353706D01*
X128945944Y-101387412D01*
X128946073Y-101412814D01*
X128947036Y-101597501D01*
X128813419Y-101597501D01*
X128813361Y-101422149D01*
X128813344Y-101387201D01*
X128813310Y-101357182D01*
X128813247Y-101331686D01*
X128813146Y-101310309D01*
X128812993Y-101292645D01*
X128812777Y-101278289D01*
X128812488Y-101266835D01*
X128812114Y-101257880D01*
X128811643Y-101251017D01*
X128811064Y-101245842D01*
X128810366Y-101241949D01*
X128809537Y-101238933D01*
X128808566Y-101236388D01*
X128808106Y-101235347D01*
X128800839Y-101225212D01*
X128790447Y-101218265D01*
X128778059Y-101214475D01*
X128764802Y-101213813D01*
X128751804Y-101216246D01*
X128740192Y-101221744D01*
X128731096Y-101230277D01*
X128727013Y-101237568D01*
X128725950Y-101240819D01*
X128725076Y-101245101D01*
X128724372Y-101250919D01*
X128723821Y-101258781D01*
X128723405Y-101269193D01*
X128723108Y-101282660D01*
X128722911Y-101299691D01*
X128722797Y-101320790D01*
X128722748Y-101346464D01*
X128722743Y-101361103D01*
X128722727Y-101388961D01*
X128722665Y-101412052D01*
X128722533Y-101430946D01*
X128722309Y-101446209D01*
X128721972Y-101458409D01*
X128721497Y-101468115D01*
X128720864Y-101475894D01*
X128720048Y-101482314D01*
X128719029Y-101487943D01*
X128717782Y-101493349D01*
X128717448Y-101494670D01*
X128708405Y-101520032D01*
X128695337Y-101542462D01*
X128678800Y-101561757D01*
X128659354Y-101577713D01*
X128637555Y-101590126D01*
X128613962Y-101598791D01*
X128589133Y-101603507D01*
X128563626Y-101604067D01*
X128537998Y-101600269D01*
X128512808Y-101591908D01*
X128488613Y-101578782D01*
X128488134Y-101578463D01*
X128467494Y-101561533D01*
X128450611Y-101540819D01*
X128437490Y-101516325D01*
X128429568Y-101493524D01*
X128428439Y-101489274D01*
X128427475Y-101485008D01*
X128426663Y-101480286D01*
X128425990Y-101474670D01*
X128425444Y-101467720D01*
X128425010Y-101458997D01*
X128424676Y-101448062D01*
X128424430Y-101434475D01*
X128424257Y-101417797D01*
X128424146Y-101397589D01*
X128424082Y-101373412D01*
X128424052Y-101344827D01*
X128424045Y-101311394D01*
X128424045Y-101141453D01*
X128554725Y-101141453D01*
X128554991Y-101298136D01*
X128555070Y-101326737D01*
X128555205Y-101353876D01*
X128555388Y-101379063D01*
X128555613Y-101401804D01*
X128555875Y-101421606D01*
X128556166Y-101437978D01*
X128556480Y-101450426D01*
X128556811Y-101458458D01*
X128557106Y-101461462D01*
X128561370Y-101467836D01*
X128568842Y-101471360D01*
X128577878Y-101471399D01*
X128580728Y-101470607D01*
X128588062Y-101468031D01*
X128589610Y-101346746D01*
X128590013Y-101317115D01*
X128590415Y-101292314D01*
X128590838Y-101271840D01*
X128591304Y-101255191D01*
X128591836Y-101241862D01*
X128592455Y-101231351D01*
X128593183Y-101223153D01*
X128594043Y-101216767D01*
X128595056Y-101211689D01*
X128595633Y-101209460D01*
X128605929Y-101181786D01*
X128620436Y-101156546D01*
X128638660Y-101134349D01*
X128660107Y-101115802D01*
X128682739Y-101102252D01*
X128705634Y-101092366D01*
X128727081Y-101085992D01*
X128749167Y-101082646D01*
X128770748Y-101081821D01*
X128794817Y-101082954D01*
G37*
G36*
X127543047Y-101012121D02*
G01*
X127568059Y-101012213D01*
X127588900Y-101012449D01*
X127606149Y-101012897D01*
X127620390Y-101013624D01*
X127632202Y-101014699D01*
X127642167Y-101016189D01*
X127650866Y-101018163D01*
X127658880Y-101020687D01*
X127666790Y-101023830D01*
X127675177Y-101027659D01*
X127684236Y-101032053D01*
X127709557Y-101047341D01*
X127731378Y-101066597D01*
X127749532Y-101089628D01*
X127763852Y-101116238D01*
X127769962Y-101132118D01*
X127777146Y-101153454D01*
X127777668Y-101289468D01*
X127777727Y-101316345D01*
X127777701Y-101341947D01*
X127777596Y-101365712D01*
X127777417Y-101387077D01*
X127777171Y-101405479D01*
X127776864Y-101420356D01*
X127776503Y-101431145D01*
X127776094Y-101437282D01*
X127776002Y-101437935D01*
X127767965Y-101469884D01*
X127755639Y-101498687D01*
X127739039Y-101524317D01*
X127728309Y-101536820D01*
X127710632Y-101553377D01*
X127691763Y-101566355D01*
X127670020Y-101576832D01*
X127659939Y-101580636D01*
X127638629Y-101588166D01*
X127037233Y-101589632D01*
X127037233Y-101456152D01*
X127615171Y-101456152D01*
X127623988Y-101450152D01*
X127631474Y-101444058D01*
X127637915Y-101437238D01*
X127638384Y-101436624D01*
X127639681Y-101434735D01*
X127640763Y-101432559D01*
X127641653Y-101429618D01*
X127642375Y-101425436D01*
X127642950Y-101419536D01*
X127643402Y-101411441D01*
X127643752Y-101400674D01*
X127644025Y-101386757D01*
X127644242Y-101369214D01*
X127644426Y-101347568D01*
X127644601Y-101321342D01*
X127644706Y-101303834D01*
X127644869Y-101274616D01*
X127644972Y-101250240D01*
X127644998Y-101230214D01*
X127644931Y-101214046D01*
X127644757Y-101201243D01*
X127644459Y-101191313D01*
X127644022Y-101183765D01*
X127643431Y-101178107D01*
X127642669Y-101173846D01*
X127641721Y-101170491D01*
X127640571Y-101167549D01*
X127640364Y-101167074D01*
X127635206Y-101158312D01*
X127627871Y-101152223D01*
X127623248Y-101149754D01*
X127619997Y-101148248D01*
X127616721Y-101147032D01*
X127612851Y-101146080D01*
X127607817Y-101145366D01*
X127601051Y-101144864D01*
X127591983Y-101144548D01*
X127580043Y-101144392D01*
X127564662Y-101144370D01*
X127545271Y-101144456D01*
X127521301Y-101144624D01*
X127512437Y-101144692D01*
X127486848Y-101144899D01*
X127466048Y-101145108D01*
X127449490Y-101145351D01*
X127436629Y-101145662D01*
X127426919Y-101146073D01*
X127419813Y-101146616D01*
X127414767Y-101147325D01*
X127411235Y-101148232D01*
X127408671Y-101149370D01*
X127406529Y-101150771D01*
X127406130Y-101151066D01*
X127399548Y-101157350D01*
X127393662Y-101165086D01*
X127393270Y-101165734D01*
X127392006Y-101168090D01*
X127390954Y-101170810D01*
X127390089Y-101174387D01*
X127389390Y-101179314D01*
X127388833Y-101186084D01*
X127388393Y-101195190D01*
X127388050Y-101207125D01*
X127387777Y-101222383D01*
X127387554Y-101241456D01*
X127387356Y-101264838D01*
X127387159Y-101293021D01*
X127387143Y-101295469D01*
X127386350Y-101416148D01*
X127255922Y-101416148D01*
X127255922Y-101289895D01*
X127255935Y-101260359D01*
X127255987Y-101235631D01*
X127256096Y-101215185D01*
X127256281Y-101198496D01*
X127256560Y-101185036D01*
X127256954Y-101174282D01*
X127257480Y-101165706D01*
X127258157Y-101158783D01*
X127259005Y-101152987D01*
X127260042Y-101147791D01*
X127261172Y-101143115D01*
X127270980Y-101114692D01*
X127285120Y-101088362D01*
X127303021Y-101065144D01*
X127307864Y-101060097D01*
X127325694Y-101044403D01*
X127344673Y-101032186D01*
X127366437Y-101022478D01*
X127378602Y-101018349D01*
X127383566Y-101016838D01*
X127388242Y-101015594D01*
X127393185Y-101014589D01*
X127398948Y-101013798D01*
X127406086Y-101013196D01*
X127415151Y-101012757D01*
X127426698Y-101012455D01*
X127441280Y-101012264D01*
X127459451Y-101012160D01*
X127481766Y-101012116D01*
X127508777Y-101012106D01*
X127513283Y-101012106D01*
X127543047Y-101012121D01*
G37*
G36*
X127470518Y-99128406D02*
G01*
X127491226Y-99134429D01*
X127517375Y-99146143D01*
X127541138Y-99162000D01*
X127561873Y-99181371D01*
X127578943Y-99203631D01*
X127591709Y-99228153D01*
X127594563Y-99235740D01*
X127597011Y-99243515D01*
X127599067Y-99251753D01*
X127600763Y-99260974D01*
X127602132Y-99271702D01*
X127603206Y-99284459D01*
X127604017Y-99299766D01*
X127604598Y-99318146D01*
X127604982Y-99340121D01*
X127605201Y-99366214D01*
X127605287Y-99396946D01*
X127605292Y-99408130D01*
X127605292Y-99525283D01*
X127477279Y-99525283D01*
X127477279Y-99405185D01*
X127477273Y-99375260D01*
X127477215Y-99350189D01*
X127477048Y-99329490D01*
X127476714Y-99312682D01*
X127476156Y-99299285D01*
X127475315Y-99288818D01*
X127474133Y-99280800D01*
X127472553Y-99274750D01*
X127470517Y-99270188D01*
X127467967Y-99266632D01*
X127464845Y-99263603D01*
X127461094Y-99260618D01*
X127459768Y-99259607D01*
X127454021Y-99255633D01*
X127448592Y-99253321D01*
X127441719Y-99252233D01*
X127431642Y-99251927D01*
X127429010Y-99251921D01*
X127414658Y-99252709D01*
X127404183Y-99255539D01*
X127396298Y-99261111D01*
X127389718Y-99270125D01*
X127387269Y-99274645D01*
X127385864Y-99277485D01*
X127384697Y-99280342D01*
X127383748Y-99283712D01*
X127382993Y-99288093D01*
X127382411Y-99293984D01*
X127381980Y-99301880D01*
X127381678Y-99312281D01*
X127381483Y-99325684D01*
X127381373Y-99342586D01*
X127381325Y-99363485D01*
X127381319Y-99388878D01*
X127381327Y-99409169D01*
X127381353Y-99438139D01*
X127381414Y-99462270D01*
X127381527Y-99482057D01*
X127381711Y-99497994D01*
X127381986Y-99510578D01*
X127382369Y-99520301D01*
X127382879Y-99527660D01*
X127383535Y-99533149D01*
X127384355Y-99537263D01*
X127385358Y-99540496D01*
X127386351Y-99542882D01*
X127391676Y-99551443D01*
X127398632Y-99558916D01*
X127400293Y-99560217D01*
X127409272Y-99566621D01*
X127514760Y-99567374D01*
X127620249Y-99568127D01*
X127629439Y-99562018D01*
X127636343Y-99555761D01*
X127642776Y-99547294D01*
X127644630Y-99544032D01*
X127646053Y-99541118D01*
X127647232Y-99538188D01*
X127648188Y-99534737D01*
X127648946Y-99530258D01*
X127649528Y-99524244D01*
X127649958Y-99516189D01*
X127650258Y-99505587D01*
X127650453Y-99491932D01*
X127650564Y-99474715D01*
X127650615Y-99453433D01*
X127650630Y-99427577D01*
X127650630Y-99293259D01*
X127778644Y-99293259D01*
X127778311Y-99412605D01*
X127778198Y-99437858D01*
X127778009Y-99461894D01*
X127777754Y-99484095D01*
X127777444Y-99503845D01*
X127777090Y-99520527D01*
X127776703Y-99533524D01*
X127776293Y-99542220D01*
X127776009Y-99545348D01*
X127769137Y-99575503D01*
X127757952Y-99603130D01*
X127742800Y-99627855D01*
X127724025Y-99649302D01*
X127701973Y-99667100D01*
X127676990Y-99680873D01*
X127649420Y-99690247D01*
X127640385Y-99692204D01*
X127633950Y-99693253D01*
X127626548Y-99694092D01*
X127617615Y-99694734D01*
X127606585Y-99695192D01*
X127592896Y-99695480D01*
X127575983Y-99695611D01*
X127555281Y-99695597D01*
X127530226Y-99695453D01*
X127508663Y-99695270D01*
X127479875Y-99694989D01*
X127455819Y-99694680D01*
X127435894Y-99694268D01*
X127419498Y-99693680D01*
X127406030Y-99692841D01*
X127394888Y-99691679D01*
X127385470Y-99690118D01*
X127377176Y-99688086D01*
X127369403Y-99685508D01*
X127361550Y-99682311D01*
X127353016Y-99678421D01*
X127346599Y-99675381D01*
X127329404Y-99665130D01*
X127311989Y-99651089D01*
X127295688Y-99634572D01*
X127281833Y-99616893D01*
X127273860Y-99603683D01*
X127270120Y-99596353D01*
X127266942Y-99589614D01*
X127264281Y-99582975D01*
X127262091Y-99575944D01*
X127260325Y-99568030D01*
X127258939Y-99558742D01*
X127257886Y-99547588D01*
X127257120Y-99534077D01*
X127256597Y-99517717D01*
X127256270Y-99498017D01*
X127256093Y-99474486D01*
X127256021Y-99446631D01*
X127256007Y-99413962D01*
X127256008Y-99411938D01*
X127256020Y-99380904D01*
X127256066Y-99354712D01*
X127256160Y-99332870D01*
X127256320Y-99314883D01*
X127256561Y-99300262D01*
X127256899Y-99288512D01*
X127257351Y-99279142D01*
X127257932Y-99271659D01*
X127258658Y-99265571D01*
X127259546Y-99260385D01*
X127260612Y-99255609D01*
X127261188Y-99253332D01*
X127270223Y-99226132D01*
X127282535Y-99202411D01*
X127298780Y-99181000D01*
X127306352Y-99172994D01*
X127329159Y-99153804D01*
X127354401Y-99139189D01*
X127381619Y-99129246D01*
X127410351Y-99124070D01*
X127440137Y-99123758D01*
X127470518Y-99128406D01*
G37*
G36*
X128638640Y-99621791D02*
G01*
X128659349Y-99627814D01*
X128685498Y-99639529D01*
X128709260Y-99655385D01*
X128729996Y-99674757D01*
X128747066Y-99697016D01*
X128759831Y-99721538D01*
X128762686Y-99729125D01*
X128765134Y-99736900D01*
X128767190Y-99745138D01*
X128768886Y-99754359D01*
X128770255Y-99765087D01*
X128771328Y-99777844D01*
X128772140Y-99793151D01*
X128772721Y-99811531D01*
X128773105Y-99833506D01*
X128773324Y-99859599D01*
X128773410Y-99890331D01*
X128773415Y-99901515D01*
X128773415Y-100018668D01*
X128645402Y-100018668D01*
X128645402Y-99898570D01*
X128645395Y-99868645D01*
X128645338Y-99843574D01*
X128645171Y-99822875D01*
X128644837Y-99806067D01*
X128644278Y-99792670D01*
X128643437Y-99782203D01*
X128642256Y-99774185D01*
X128640676Y-99768135D01*
X128638640Y-99763573D01*
X128636090Y-99760017D01*
X128632968Y-99756988D01*
X128629216Y-99754003D01*
X128627890Y-99752992D01*
X128622144Y-99749018D01*
X128616714Y-99746706D01*
X128609842Y-99745618D01*
X128599765Y-99745312D01*
X128597133Y-99745306D01*
X128582781Y-99746094D01*
X128572305Y-99748924D01*
X128564421Y-99754496D01*
X128557841Y-99763511D01*
X128555392Y-99768030D01*
X128553987Y-99770870D01*
X128552820Y-99773727D01*
X128551870Y-99777097D01*
X128551115Y-99781479D01*
X128550534Y-99787369D01*
X128550103Y-99795265D01*
X128549800Y-99805666D01*
X128549605Y-99819069D01*
X128549495Y-99835971D01*
X128549448Y-99856870D01*
X128549442Y-99882264D01*
X128549450Y-99902554D01*
X128549476Y-99931524D01*
X128549536Y-99955655D01*
X128549649Y-99975442D01*
X128549834Y-99991380D01*
X128550108Y-100003963D01*
X128550491Y-100013686D01*
X128551001Y-100021045D01*
X128551657Y-100026534D01*
X128552478Y-100030648D01*
X128553481Y-100033881D01*
X128554473Y-100036267D01*
X128559798Y-100044828D01*
X128566755Y-100052301D01*
X128568416Y-100053602D01*
X128577394Y-100060006D01*
X128788372Y-100061512D01*
X128797562Y-100055404D01*
X128804466Y-100049146D01*
X128810899Y-100040679D01*
X128812752Y-100037417D01*
X128814176Y-100034503D01*
X128815354Y-100031573D01*
X128816311Y-100028122D01*
X128817069Y-100023643D01*
X128817651Y-100017629D01*
X128818081Y-100009575D01*
X128818381Y-99998973D01*
X128818575Y-99985317D01*
X128818686Y-99968101D01*
X128818738Y-99946818D01*
X128818752Y-99920962D01*
X128818753Y-99906091D01*
X128818753Y-99786644D01*
X128946767Y-99786644D01*
X128946453Y-99907323D01*
X128946342Y-99932671D01*
X128946150Y-99956763D01*
X128945888Y-99978992D01*
X128945567Y-99998752D01*
X128945198Y-100015438D01*
X128944793Y-100028442D01*
X128944361Y-100037159D01*
X128944038Y-100040455D01*
X128936364Y-100071624D01*
X128924450Y-100099748D01*
X128908439Y-100124630D01*
X128888475Y-100146074D01*
X128864704Y-100163881D01*
X128846464Y-100173801D01*
X128838257Y-100177479D01*
X128830191Y-100180546D01*
X128821712Y-100183049D01*
X128812265Y-100185037D01*
X128801296Y-100186559D01*
X128788251Y-100187663D01*
X128772575Y-100188398D01*
X128753715Y-100188812D01*
X128731114Y-100188954D01*
X128704220Y-100188872D01*
X128676786Y-100188655D01*
X128647998Y-100188374D01*
X128623942Y-100188065D01*
X128604017Y-100187653D01*
X128587621Y-100187065D01*
X128574153Y-100186226D01*
X128563010Y-100185064D01*
X128553593Y-100183503D01*
X128545298Y-100181471D01*
X128537526Y-100178893D01*
X128529673Y-100175696D01*
X128521139Y-100171806D01*
X128514721Y-100168766D01*
X128497526Y-100158515D01*
X128480112Y-100144474D01*
X128463811Y-100127958D01*
X128449956Y-100110278D01*
X128441982Y-100097068D01*
X128438243Y-100089738D01*
X128435065Y-100082999D01*
X128432404Y-100076360D01*
X128430213Y-100069329D01*
X128428448Y-100061416D01*
X128427061Y-100052128D01*
X128426008Y-100040974D01*
X128425243Y-100027462D01*
X128424720Y-100011102D01*
X128424392Y-99991402D01*
X128424216Y-99967871D01*
X128424143Y-99940016D01*
X128424130Y-99907347D01*
X128424130Y-99905323D01*
X128424143Y-99874289D01*
X128424188Y-99848098D01*
X128424283Y-99826255D01*
X128424443Y-99808269D01*
X128424684Y-99793647D01*
X128425022Y-99781897D01*
X128425473Y-99772527D01*
X128426054Y-99765044D01*
X128426781Y-99758956D01*
X128427669Y-99753770D01*
X128428734Y-99748994D01*
X128429310Y-99746717D01*
X128438345Y-99719517D01*
X128450657Y-99695796D01*
X128466902Y-99674385D01*
X128474475Y-99666379D01*
X128497282Y-99647189D01*
X128522524Y-99632574D01*
X128549741Y-99622631D01*
X128578473Y-99617455D01*
X128608260Y-99617143D01*
X128638640Y-99621791D01*
G37*
G36*
X128504720Y-98971239D02*
G01*
X128551779Y-98971362D01*
X128593819Y-98971469D01*
X128631157Y-98971575D01*
X128664108Y-98971698D01*
X128692988Y-98971856D01*
X128718112Y-98972065D01*
X128739796Y-98972344D01*
X128758356Y-98972710D01*
X128774106Y-98973181D01*
X128787364Y-98973772D01*
X128798444Y-98974503D01*
X128807662Y-98975390D01*
X128815333Y-98976451D01*
X128821774Y-98977704D01*
X128827300Y-98979164D01*
X128832226Y-98980851D01*
X128836869Y-98982782D01*
X128841543Y-98984973D01*
X128846564Y-98987442D01*
X128852249Y-98990208D01*
X128852714Y-98990429D01*
X128873475Y-99002900D01*
X128892921Y-99019566D01*
X128909937Y-99039293D01*
X128923411Y-99060946D01*
X128924872Y-99063901D01*
X128929185Y-99072912D01*
X128932834Y-99080827D01*
X128935875Y-99088173D01*
X128938367Y-99095477D01*
X128940368Y-99103264D01*
X128941935Y-99112062D01*
X128943126Y-99122397D01*
X128943999Y-99134796D01*
X128944612Y-99149785D01*
X128945021Y-99167891D01*
X128945286Y-99189640D01*
X128945464Y-99215559D01*
X128945612Y-99246175D01*
X128945645Y-99253254D01*
X128945728Y-99280038D01*
X128945726Y-99305578D01*
X128945645Y-99329305D01*
X128945491Y-99350647D01*
X128945269Y-99369034D01*
X128944985Y-99383894D01*
X128944644Y-99394657D01*
X128944252Y-99400751D01*
X128944182Y-99401270D01*
X128940425Y-99420238D01*
X128935132Y-99436990D01*
X128927385Y-99454295D01*
X128925177Y-99458609D01*
X128909824Y-99482400D01*
X128890329Y-99503120D01*
X128867118Y-99520453D01*
X128840616Y-99534082D01*
X128811250Y-99543692D01*
X128810344Y-99543911D01*
X128804281Y-99545275D01*
X128798187Y-99546387D01*
X128791458Y-99547272D01*
X128783485Y-99547956D01*
X128773663Y-99548464D01*
X128761386Y-99548823D01*
X128746045Y-99549056D01*
X128727035Y-99549191D01*
X128703749Y-99549253D01*
X128683293Y-99549267D01*
X128655246Y-99549235D01*
X128631960Y-99549116D01*
X128612865Y-99548890D01*
X128597389Y-99548539D01*
X128584961Y-99548042D01*
X128575008Y-99547382D01*
X128566961Y-99546537D01*
X128560246Y-99545490D01*
X128557985Y-99545047D01*
X128530206Y-99536677D01*
X128504771Y-99523731D01*
X128482070Y-99506598D01*
X128462496Y-99485666D01*
X128446440Y-99461324D01*
X128434295Y-99433960D01*
X128429360Y-99417512D01*
X128428119Y-99412288D01*
X128427087Y-99406990D01*
X128426245Y-99401091D01*
X128425573Y-99394062D01*
X128425053Y-99385376D01*
X128424665Y-99374503D01*
X128424390Y-99360916D01*
X128424210Y-99344086D01*
X128424105Y-99323486D01*
X128424057Y-99298587D01*
X128424045Y-99270163D01*
X128424045Y-99143910D01*
X128554475Y-99143910D01*
X128555267Y-99265922D01*
X128555468Y-99296035D01*
X128555686Y-99321284D01*
X128555984Y-99342139D01*
X128556422Y-99359069D01*
X128557062Y-99372544D01*
X128557965Y-99383035D01*
X128559193Y-99391009D01*
X128560807Y-99396938D01*
X128562869Y-99401291D01*
X128565439Y-99404538D01*
X128568580Y-99407149D01*
X128572352Y-99409592D01*
X128574190Y-99410712D01*
X128576628Y-99412048D01*
X128579485Y-99413134D01*
X128583304Y-99413996D01*
X128588629Y-99414659D01*
X128596001Y-99415150D01*
X128605964Y-99415495D01*
X128619061Y-99415718D01*
X128635834Y-99415846D01*
X128656827Y-99415904D01*
X128682583Y-99415918D01*
X128684072Y-99415918D01*
X128710094Y-99415905D01*
X128731325Y-99415850D01*
X128748307Y-99415726D01*
X128761585Y-99415508D01*
X128771699Y-99415170D01*
X128779194Y-99414687D01*
X128784611Y-99414033D01*
X128788495Y-99413182D01*
X128791387Y-99412109D01*
X128793831Y-99410788D01*
X128793939Y-99410722D01*
X128797937Y-99408316D01*
X128801301Y-99406080D01*
X128804086Y-99403558D01*
X128806346Y-99400295D01*
X128808136Y-99395836D01*
X128809510Y-99389725D01*
X128810523Y-99381507D01*
X128811230Y-99370727D01*
X128811686Y-99356929D01*
X128811944Y-99339658D01*
X128812061Y-99318459D01*
X128812090Y-99292877D01*
X128812086Y-99262455D01*
X128812086Y-99259568D01*
X128812080Y-99229723D01*
X128812051Y-99204746D01*
X128811981Y-99184175D01*
X128811850Y-99167543D01*
X128811640Y-99154387D01*
X128811333Y-99144241D01*
X128810911Y-99136641D01*
X128810354Y-99131122D01*
X128809644Y-99127220D01*
X128808763Y-99124470D01*
X128807692Y-99122407D01*
X128806562Y-99120769D01*
X128800243Y-99114306D01*
X128792408Y-99108846D01*
X128791894Y-99108577D01*
X128790196Y-99107840D01*
X128787955Y-99107185D01*
X128784868Y-99106606D01*
X128780631Y-99106100D01*
X128774939Y-99105661D01*
X128767488Y-99105285D01*
X128757976Y-99104966D01*
X128746097Y-99104700D01*
X128731549Y-99104483D01*
X128714026Y-99104309D01*
X128693226Y-99104174D01*
X128668843Y-99104073D01*
X128640575Y-99104001D01*
X128608118Y-99103953D01*
X128571167Y-99103925D01*
X128529418Y-99103912D01*
X128494052Y-99103910D01*
X128205355Y-99103905D01*
X128205355Y-98970404D01*
X128504720Y-98971239D01*
G37*
G36*
X125832037Y-98616662D02*
G01*
X125873586Y-98622001D01*
X125914372Y-98632163D01*
X125953995Y-98647075D01*
X125992056Y-98666665D01*
X126028154Y-98690858D01*
X126058942Y-98716796D01*
X126076478Y-98733200D01*
X126278266Y-98733200D01*
X126315896Y-98733204D01*
X126348565Y-98733221D01*
X126376644Y-98733262D01*
X126400507Y-98733335D01*
X126420527Y-98733450D01*
X126437074Y-98733615D01*
X126450522Y-98733840D01*
X126461244Y-98734135D01*
X126469611Y-98734508D01*
X126475997Y-98734968D01*
X126480773Y-98735526D01*
X126484313Y-98736189D01*
X126486988Y-98736968D01*
X126489171Y-98737872D01*
X126490357Y-98738456D01*
X126502777Y-98747380D01*
X126512882Y-98759601D01*
X126519242Y-98773346D01*
X126519610Y-98774707D01*
X126520199Y-98779743D01*
X126520719Y-98789545D01*
X126521170Y-98803589D01*
X126521554Y-98821351D01*
X126521871Y-98842307D01*
X126522122Y-98865934D01*
X126522307Y-98891708D01*
X126522428Y-98919105D01*
X126522486Y-98947602D01*
X126522480Y-98976674D01*
X126522413Y-99005799D01*
X126522284Y-99034452D01*
X126522095Y-99062109D01*
X126521847Y-99088248D01*
X126521540Y-99112344D01*
X126521174Y-99133873D01*
X126520752Y-99152312D01*
X126520273Y-99167137D01*
X126519739Y-99177824D01*
X126519150Y-99183850D01*
X126518973Y-99184638D01*
X126512222Y-99198508D01*
X126501791Y-99210653D01*
X126490496Y-99218591D01*
X126488416Y-99219584D01*
X126486090Y-99220445D01*
X126483146Y-99221184D01*
X126479210Y-99221810D01*
X126473911Y-99222333D01*
X126466875Y-99222761D01*
X126457729Y-99223104D01*
X126446102Y-99223372D01*
X126431620Y-99223574D01*
X126413910Y-99223718D01*
X126392600Y-99223816D01*
X126367317Y-99223875D01*
X126337688Y-99223906D01*
X126303341Y-99223917D01*
X126278266Y-99223918D01*
X126076478Y-99223918D01*
X126058942Y-99240322D01*
X126024635Y-99268904D01*
X125987713Y-99293028D01*
X125948560Y-99312503D01*
X125907560Y-99327142D01*
X125865098Y-99336756D01*
X125861109Y-99337384D01*
X125818578Y-99341219D01*
X125796506Y-99340544D01*
X125776409Y-99339929D01*
X125735004Y-99333724D01*
X125694762Y-99322814D01*
X125656085Y-99307408D01*
X125619372Y-99287714D01*
X125585026Y-99263944D01*
X125553446Y-99236305D01*
X125525032Y-99205007D01*
X125500187Y-99170261D01*
X125482953Y-99139733D01*
X125475518Y-99123223D01*
X125467925Y-99103386D01*
X125460831Y-99082166D01*
X125454893Y-99061508D01*
X125451252Y-99045875D01*
X125448784Y-99028912D01*
X125447197Y-99008281D01*
X125446851Y-98997163D01*
X125555149Y-98997163D01*
X125560132Y-99032093D01*
X125570012Y-99065894D01*
X125584698Y-99098148D01*
X125604096Y-99128437D01*
X125628114Y-99156344D01*
X125630350Y-99158578D01*
X125655203Y-99180550D01*
X125680977Y-99197993D01*
X125708940Y-99211704D01*
X125724395Y-99217495D01*
X125749486Y-99225028D01*
X125772756Y-99229573D01*
X125796506Y-99231452D01*
X125821105Y-99231087D01*
X125857719Y-99226873D01*
X125892061Y-99217886D01*
X125924281Y-99204056D01*
X125954527Y-99185313D01*
X125982952Y-99161585D01*
X125995373Y-99149066D01*
X126001035Y-99142855D01*
X126005815Y-99137466D01*
X126010112Y-99132840D01*
X126014327Y-99128919D01*
X126018860Y-99125642D01*
X126024111Y-99122952D01*
X126030481Y-99120788D01*
X126038370Y-99119092D01*
X126048178Y-99117803D01*
X126060305Y-99116864D01*
X126075152Y-99116215D01*
X126093118Y-99115796D01*
X126114605Y-99115548D01*
X126140012Y-99115412D01*
X126169739Y-99115330D01*
X126204187Y-99115241D01*
X126224481Y-99115171D01*
X126413167Y-99114435D01*
X126413167Y-98842683D01*
X126224481Y-98841947D01*
X126187370Y-98841831D01*
X126155192Y-98841752D01*
X126127547Y-98841652D01*
X126104034Y-98841471D01*
X126084253Y-98841150D01*
X126067804Y-98840630D01*
X126054287Y-98839852D01*
X126043300Y-98838756D01*
X126034445Y-98837283D01*
X126027320Y-98835374D01*
X126021527Y-98832970D01*
X126016663Y-98830011D01*
X126012329Y-98826439D01*
X126008126Y-98822194D01*
X126003651Y-98817216D01*
X125998506Y-98811447D01*
X125995373Y-98808051D01*
X125967731Y-98782023D01*
X125938336Y-98761011D01*
X125907036Y-98744945D01*
X125873683Y-98733755D01*
X125838125Y-98727368D01*
X125821105Y-98726030D01*
X125794834Y-98725716D01*
X125771188Y-98727765D01*
X125747868Y-98732502D01*
X125724395Y-98739623D01*
X125694833Y-98751741D01*
X125668105Y-98767188D01*
X125642943Y-98786760D01*
X125630350Y-98798540D01*
X125606153Y-98825613D01*
X125586905Y-98854257D01*
X125572355Y-98884855D01*
X125570516Y-98889765D01*
X125560248Y-98925582D01*
X125555156Y-98961520D01*
X125555149Y-98997163D01*
X125446851Y-98997163D01*
X125446491Y-98985576D01*
X125446666Y-98962391D01*
X125447721Y-98940318D01*
X125449658Y-98920951D01*
X125451252Y-98911242D01*
X125462412Y-98868498D01*
X125478293Y-98827940D01*
X125498634Y-98789892D01*
X125523175Y-98754676D01*
X125551654Y-98722616D01*
X125583810Y-98694036D01*
X125619384Y-98669257D01*
X125658113Y-98648605D01*
X125666207Y-98645001D01*
X125706810Y-98630316D01*
X125748249Y-98620746D01*
X125790125Y-98616219D01*
X125832037Y-98616662D01*
G37*
G36*
X125832037Y-99638103D02*
G01*
X125873586Y-99643441D01*
X125914372Y-99653604D01*
X125953995Y-99668516D01*
X125992056Y-99688105D01*
X126028154Y-99712299D01*
X126058942Y-99738236D01*
X126076478Y-99754640D01*
X126278266Y-99754640D01*
X126315896Y-99754644D01*
X126348565Y-99754662D01*
X126376644Y-99754703D01*
X126400507Y-99754776D01*
X126420527Y-99754890D01*
X126437074Y-99755055D01*
X126450522Y-99755281D01*
X126461244Y-99755575D01*
X126469611Y-99755948D01*
X126475997Y-99756409D01*
X126480773Y-99756966D01*
X126484313Y-99757630D01*
X126486988Y-99758409D01*
X126489171Y-99759313D01*
X126490357Y-99759897D01*
X126502777Y-99768820D01*
X126512882Y-99781041D01*
X126519242Y-99794786D01*
X126519610Y-99796147D01*
X126520199Y-99801184D01*
X126520719Y-99810986D01*
X126521170Y-99825029D01*
X126521554Y-99842791D01*
X126521871Y-99863748D01*
X126522122Y-99887375D01*
X126522307Y-99913148D01*
X126522428Y-99940546D01*
X126522486Y-99969042D01*
X126522480Y-99998115D01*
X126522413Y-100027239D01*
X126522284Y-100055892D01*
X126522095Y-100083550D01*
X126521847Y-100109688D01*
X126521540Y-100133784D01*
X126521174Y-100155313D01*
X126520752Y-100173752D01*
X126520273Y-100188577D01*
X126519739Y-100199265D01*
X126519150Y-100205291D01*
X126518973Y-100206079D01*
X126512222Y-100219949D01*
X126501791Y-100232093D01*
X126490496Y-100240031D01*
X126488416Y-100241024D01*
X126486090Y-100241886D01*
X126483146Y-100242625D01*
X126479210Y-100243251D01*
X126473911Y-100243773D01*
X126466875Y-100244201D01*
X126457729Y-100244545D01*
X126446102Y-100244813D01*
X126431620Y-100245014D01*
X126413910Y-100245159D01*
X126392600Y-100245256D01*
X126367317Y-100245316D01*
X126337688Y-100245346D01*
X126303341Y-100245357D01*
X126278266Y-100245359D01*
X126076478Y-100245359D01*
X126058942Y-100261763D01*
X126024635Y-100290345D01*
X125987713Y-100314468D01*
X125948560Y-100333943D01*
X125907560Y-100348582D01*
X125865098Y-100358196D01*
X125861109Y-100358825D01*
X125818578Y-100362660D01*
X125796506Y-100361985D01*
X125776409Y-100361370D01*
X125735004Y-100355165D01*
X125694762Y-100344255D01*
X125656085Y-100328848D01*
X125619372Y-100309155D01*
X125585026Y-100285384D01*
X125553446Y-100257745D01*
X125525032Y-100226448D01*
X125500187Y-100191701D01*
X125482953Y-100161174D01*
X125475518Y-100144664D01*
X125467925Y-100124826D01*
X125460831Y-100103606D01*
X125454893Y-100082948D01*
X125451252Y-100067316D01*
X125448784Y-100050352D01*
X125447197Y-100029722D01*
X125446851Y-100018603D01*
X125555149Y-100018603D01*
X125560132Y-100053534D01*
X125570012Y-100087335D01*
X125584698Y-100119588D01*
X125604096Y-100149877D01*
X125628114Y-100177785D01*
X125630350Y-100180018D01*
X125655203Y-100201990D01*
X125680977Y-100219434D01*
X125708940Y-100233144D01*
X125724395Y-100238935D01*
X125749486Y-100246469D01*
X125772756Y-100251014D01*
X125796506Y-100252892D01*
X125821105Y-100252528D01*
X125857719Y-100248313D01*
X125892061Y-100239327D01*
X125924281Y-100225497D01*
X125954527Y-100206753D01*
X125982952Y-100183026D01*
X125995373Y-100170507D01*
X126001035Y-100164295D01*
X126005815Y-100158906D01*
X126010112Y-100154281D01*
X126014327Y-100150359D01*
X126018860Y-100147083D01*
X126024111Y-100144392D01*
X126030481Y-100142229D01*
X126038370Y-100140532D01*
X126048178Y-100139244D01*
X126060305Y-100138305D01*
X126075152Y-100137655D01*
X126093118Y-100137236D01*
X126114605Y-100136989D01*
X126140012Y-100136853D01*
X126169739Y-100136770D01*
X126204187Y-100136681D01*
X126224481Y-100136612D01*
X126413167Y-100135876D01*
X126413167Y-99864123D01*
X126224481Y-99863387D01*
X126187370Y-99863271D01*
X126155192Y-99863193D01*
X126127547Y-99863092D01*
X126104034Y-99862912D01*
X126084253Y-99862591D01*
X126067804Y-99862071D01*
X126054287Y-99861292D01*
X126043300Y-99860196D01*
X126034445Y-99858723D01*
X126027320Y-99856814D01*
X126021527Y-99854410D01*
X126016663Y-99851452D01*
X126012329Y-99847879D01*
X126008126Y-99843634D01*
X126003651Y-99838657D01*
X125998506Y-99832888D01*
X125995373Y-99829492D01*
X125967731Y-99803464D01*
X125938336Y-99782452D01*
X125907036Y-99766386D01*
X125873683Y-99755195D01*
X125838125Y-99748809D01*
X125821105Y-99747471D01*
X125794834Y-99747156D01*
X125771188Y-99749206D01*
X125747868Y-99753943D01*
X125724395Y-99761064D01*
X125694833Y-99773182D01*
X125668105Y-99788629D01*
X125642943Y-99808200D01*
X125630350Y-99819981D01*
X125606153Y-99847054D01*
X125586905Y-99875698D01*
X125572355Y-99906295D01*
X125570516Y-99911206D01*
X125560248Y-99947022D01*
X125555156Y-99982960D01*
X125555149Y-100018603D01*
X125446851Y-100018603D01*
X125446491Y-100007017D01*
X125446666Y-99983831D01*
X125447721Y-99961758D01*
X125449658Y-99942391D01*
X125451252Y-99932683D01*
X125462412Y-99889939D01*
X125478293Y-99849381D01*
X125498634Y-99811333D01*
X125523175Y-99776117D01*
X125551654Y-99744057D01*
X125583810Y-99715476D01*
X125619384Y-99690698D01*
X125658113Y-99670045D01*
X125666207Y-99666441D01*
X125706810Y-99651756D01*
X125748249Y-99642187D01*
X125790125Y-99637660D01*
X125832037Y-99638103D01*
G37*
G36*
X125832037Y-100659543D02*
G01*
X125873586Y-100664882D01*
X125914372Y-100675044D01*
X125953995Y-100689956D01*
X125992056Y-100709546D01*
X126028154Y-100733739D01*
X126058942Y-100759677D01*
X126076478Y-100776081D01*
X126278266Y-100776081D01*
X126315896Y-100776085D01*
X126348565Y-100776102D01*
X126376644Y-100776143D01*
X126400507Y-100776216D01*
X126420527Y-100776331D01*
X126437074Y-100776496D01*
X126450522Y-100776721D01*
X126461244Y-100777016D01*
X126469611Y-100777389D01*
X126475997Y-100777849D01*
X126480773Y-100778407D01*
X126484313Y-100779071D01*
X126486988Y-100779850D01*
X126489171Y-100780753D01*
X126490357Y-100781337D01*
X126502777Y-100790261D01*
X126512882Y-100802482D01*
X126519242Y-100816227D01*
X126519610Y-100817588D01*
X126520199Y-100822624D01*
X126520719Y-100832426D01*
X126521170Y-100846470D01*
X126521554Y-100864232D01*
X126521871Y-100885188D01*
X126522122Y-100908815D01*
X126522307Y-100934589D01*
X126522428Y-100961986D01*
X126522486Y-100990483D01*
X126522480Y-101019555D01*
X126522413Y-101048680D01*
X126522284Y-101077333D01*
X126522095Y-101104990D01*
X126521847Y-101131129D01*
X126521540Y-101155225D01*
X126521174Y-101176754D01*
X126520752Y-101195193D01*
X126520273Y-101210018D01*
X126519739Y-101220705D01*
X126519150Y-101226731D01*
X126518973Y-101227519D01*
X126512222Y-101241389D01*
X126501791Y-101253534D01*
X126490496Y-101261472D01*
X126488416Y-101262465D01*
X126486090Y-101263326D01*
X126483146Y-101264065D01*
X126479210Y-101264691D01*
X126473911Y-101265214D01*
X126466875Y-101265642D01*
X126457729Y-101265985D01*
X126446102Y-101266253D01*
X126431620Y-101266455D01*
X126413910Y-101266600D01*
X126392600Y-101266697D01*
X126367317Y-101266756D01*
X126337688Y-101266787D01*
X126303341Y-101266798D01*
X126278266Y-101266799D01*
X126076478Y-101266799D01*
X126058942Y-101283203D01*
X126024635Y-101311786D01*
X125987713Y-101335909D01*
X125948560Y-101355384D01*
X125907560Y-101370023D01*
X125865098Y-101379637D01*
X125861109Y-101380266D01*
X125818578Y-101384100D01*
X125796506Y-101383425D01*
X125776409Y-101382810D01*
X125735004Y-101376606D01*
X125694762Y-101365695D01*
X125656085Y-101350289D01*
X125619372Y-101330595D01*
X125585026Y-101306825D01*
X125553446Y-101279186D01*
X125525032Y-101247888D01*
X125500187Y-101213142D01*
X125482953Y-101182615D01*
X125475518Y-101166104D01*
X125467925Y-101146267D01*
X125460831Y-101125047D01*
X125454893Y-101104389D01*
X125451252Y-101088757D01*
X125448784Y-101071793D01*
X125447197Y-101051162D01*
X125446851Y-101040044D01*
X125555149Y-101040044D01*
X125560132Y-101074975D01*
X125570012Y-101108775D01*
X125584698Y-101141029D01*
X125604096Y-101171318D01*
X125628114Y-101199225D01*
X125630350Y-101201459D01*
X125655203Y-101223431D01*
X125680977Y-101240874D01*
X125708940Y-101254585D01*
X125724395Y-101260376D01*
X125749486Y-101267910D01*
X125772756Y-101272454D01*
X125796506Y-101274333D01*
X125821105Y-101273969D01*
X125857719Y-101269754D01*
X125892061Y-101260767D01*
X125924281Y-101246937D01*
X125954527Y-101228194D01*
X125982952Y-101204466D01*
X125995373Y-101191948D01*
X126001035Y-101185736D01*
X126005815Y-101180347D01*
X126010112Y-101175721D01*
X126014327Y-101171800D01*
X126018860Y-101168523D01*
X126024111Y-101165833D01*
X126030481Y-101163669D01*
X126038370Y-101161973D01*
X126048178Y-101160684D01*
X126060305Y-101159745D01*
X126075152Y-101159096D01*
X126093118Y-101158677D01*
X126114605Y-101158429D01*
X126140012Y-101158294D01*
X126169739Y-101158211D01*
X126204187Y-101158122D01*
X126224481Y-101158052D01*
X126413167Y-101157316D01*
X126413167Y-100885564D01*
X126224481Y-100884828D01*
X126187370Y-100884712D01*
X126155192Y-100884633D01*
X126127547Y-100884533D01*
X126104034Y-100884352D01*
X126084253Y-100884031D01*
X126067804Y-100883511D01*
X126054287Y-100882733D01*
X126043300Y-100881637D01*
X126034445Y-100880164D01*
X126027320Y-100878255D01*
X126021527Y-100875851D01*
X126016663Y-100872892D01*
X126012329Y-100869320D01*
X126008126Y-100865075D01*
X126003651Y-100860097D01*
X125998506Y-100854329D01*
X125995373Y-100850933D01*
X125967731Y-100824904D01*
X125938336Y-100803893D01*
X125907036Y-100787827D01*
X125873683Y-100776636D01*
X125838125Y-100770250D01*
X125821105Y-100768912D01*
X125794834Y-100768597D01*
X125771188Y-100770646D01*
X125747868Y-100775383D01*
X125724395Y-100782504D01*
X125694833Y-100794622D01*
X125668105Y-100810069D01*
X125642943Y-100829641D01*
X125630350Y-100841421D01*
X125606153Y-100868494D01*
X125586905Y-100897138D01*
X125572355Y-100927736D01*
X125570516Y-100932647D01*
X125560248Y-100968463D01*
X125555156Y-101004401D01*
X125555149Y-101040044D01*
X125446851Y-101040044D01*
X125446491Y-101028457D01*
X125446666Y-101005272D01*
X125447721Y-100983199D01*
X125449658Y-100963832D01*
X125451252Y-100954124D01*
X125462412Y-100911379D01*
X125478293Y-100870822D01*
X125498634Y-100832773D01*
X125523175Y-100797557D01*
X125551654Y-100765498D01*
X125583810Y-100736917D01*
X125619384Y-100712139D01*
X125658113Y-100691486D01*
X125666207Y-100687882D01*
X125706810Y-100673197D01*
X125748249Y-100663627D01*
X125790125Y-100659101D01*
X125832037Y-100659543D01*
G37*
G36*
X130223275Y-98617100D02*
G01*
X130264230Y-98623158D01*
X130303894Y-98633801D01*
X130341919Y-98648782D01*
X130377954Y-98667854D01*
X130411651Y-98690769D01*
X130442659Y-98717280D01*
X130470630Y-98747139D01*
X130495215Y-98780099D01*
X130516063Y-98815911D01*
X130532825Y-98854329D01*
X130545153Y-98895105D01*
X130548338Y-98909804D01*
X130549988Y-98920892D01*
X130551444Y-98935537D01*
X130552642Y-98952339D01*
X130553516Y-98969900D01*
X130554002Y-98986819D01*
X130554035Y-99001696D01*
X130553549Y-99013132D01*
X130553266Y-99015896D01*
X130545151Y-99060263D01*
X130532407Y-99102530D01*
X130515205Y-99142373D01*
X130493718Y-99179473D01*
X130468117Y-99213506D01*
X130438573Y-99244153D01*
X130425220Y-99255779D01*
X130389384Y-99282115D01*
X130351721Y-99303605D01*
X130312607Y-99320261D01*
X130272417Y-99332094D01*
X130231525Y-99339116D01*
X130205167Y-99340538D01*
X130190308Y-99341340D01*
X130149139Y-99338778D01*
X130108395Y-99331441D01*
X130068451Y-99319342D01*
X130029680Y-99302492D01*
X129992460Y-99280904D01*
X129957165Y-99254589D01*
X129941059Y-99240322D01*
X129923523Y-99223918D01*
X129721735Y-99223918D01*
X129684105Y-99223914D01*
X129651436Y-99223897D01*
X129623357Y-99223856D01*
X129599494Y-99223783D01*
X129579474Y-99223668D01*
X129562927Y-99223503D01*
X129549479Y-99223278D01*
X129538757Y-99222983D01*
X129530390Y-99222610D01*
X129524004Y-99222150D01*
X129519228Y-99221592D01*
X129515688Y-99220928D01*
X129513013Y-99220149D01*
X129510830Y-99219246D01*
X129509644Y-99218662D01*
X129497224Y-99209738D01*
X129487119Y-99197517D01*
X129480759Y-99183772D01*
X129480391Y-99182411D01*
X129479820Y-99177443D01*
X129479308Y-99167672D01*
X129478856Y-99153628D01*
X129478463Y-99135841D01*
X129478131Y-99114842D01*
X129477858Y-99091162D01*
X129477645Y-99065329D01*
X129477492Y-99037876D01*
X129477399Y-99009331D01*
X129477366Y-98980226D01*
X129477392Y-98951091D01*
X129477479Y-98922455D01*
X129477625Y-98894850D01*
X129477831Y-98868806D01*
X129478097Y-98844853D01*
X129478130Y-98842683D01*
X129586834Y-98842683D01*
X129586834Y-99114435D01*
X129775520Y-99115171D01*
X129812631Y-99115287D01*
X129844809Y-99115366D01*
X129872454Y-99115466D01*
X129895967Y-99115647D01*
X129915748Y-99115968D01*
X129932197Y-99116488D01*
X129945714Y-99117266D01*
X129956701Y-99118362D01*
X129965556Y-99119835D01*
X129972681Y-99121744D01*
X129978474Y-99124148D01*
X129983338Y-99127107D01*
X129987672Y-99130679D01*
X129991875Y-99134924D01*
X129996350Y-99139902D01*
X130001495Y-99145670D01*
X130004628Y-99149066D01*
X130032270Y-99175095D01*
X130061665Y-99196106D01*
X130092965Y-99212172D01*
X130126318Y-99223363D01*
X130161876Y-99229749D01*
X130178896Y-99231087D01*
X130205167Y-99231402D01*
X130228813Y-99229353D01*
X130252133Y-99224616D01*
X130275606Y-99217495D01*
X130305168Y-99205377D01*
X130331896Y-99189930D01*
X130357058Y-99170358D01*
X130369651Y-99158578D01*
X130394094Y-99130847D01*
X130413953Y-99100632D01*
X130429096Y-99068335D01*
X130439396Y-99034357D01*
X130444723Y-98999102D01*
X130444946Y-98962971D01*
X130441611Y-98935100D01*
X130432926Y-98899646D01*
X130419635Y-98866787D01*
X130401618Y-98836293D01*
X130378751Y-98807934D01*
X130369651Y-98798540D01*
X130344798Y-98776568D01*
X130319024Y-98759125D01*
X130291061Y-98745414D01*
X130275606Y-98739623D01*
X130250515Y-98732089D01*
X130227245Y-98727545D01*
X130203495Y-98725666D01*
X130178896Y-98726030D01*
X130142282Y-98730245D01*
X130107940Y-98739232D01*
X130075720Y-98753062D01*
X130045474Y-98771805D01*
X130017049Y-98795533D01*
X130004628Y-98808051D01*
X129998966Y-98814263D01*
X129994186Y-98819652D01*
X129989889Y-98824278D01*
X129985674Y-98828199D01*
X129981141Y-98831476D01*
X129975889Y-98834166D01*
X129969520Y-98836330D01*
X129961631Y-98838026D01*
X129951823Y-98839315D01*
X129939696Y-98840254D01*
X129924849Y-98840903D01*
X129906883Y-98841322D01*
X129885396Y-98841570D01*
X129859989Y-98841705D01*
X129830262Y-98841788D01*
X129795814Y-98841877D01*
X129775520Y-98841947D01*
X129586834Y-98842683D01*
X129478130Y-98842683D01*
X129478422Y-98823521D01*
X129478808Y-98805341D01*
X129479253Y-98790843D01*
X129479758Y-98780557D01*
X129480323Y-98775014D01*
X129480391Y-98774707D01*
X129486307Y-98760908D01*
X129496109Y-98748459D01*
X129508366Y-98739135D01*
X129509644Y-98738456D01*
X129511712Y-98737476D01*
X129514057Y-98736626D01*
X129517050Y-98735897D01*
X129521064Y-98735279D01*
X129526472Y-98734763D01*
X129533646Y-98734341D01*
X129542958Y-98734002D01*
X129554781Y-98733738D01*
X129569488Y-98733539D01*
X129587450Y-98733396D01*
X129609040Y-98733300D01*
X129634631Y-98733242D01*
X129664596Y-98733212D01*
X129699306Y-98733201D01*
X129721735Y-98733200D01*
X129923523Y-98733200D01*
X129941059Y-98716796D01*
X129975365Y-98688213D01*
X130012288Y-98664090D01*
X130051441Y-98644615D01*
X130092441Y-98629976D01*
X130134903Y-98620362D01*
X130138892Y-98619733D01*
X130181379Y-98615877D01*
X130223275Y-98617100D01*
G37*
G36*
X130223275Y-99638541D02*
G01*
X130264230Y-99644598D01*
X130303894Y-99655241D01*
X130341919Y-99670223D01*
X130377954Y-99689295D01*
X130411651Y-99712210D01*
X130442659Y-99738721D01*
X130470630Y-99768580D01*
X130495215Y-99801539D01*
X130516063Y-99837352D01*
X130532825Y-99875770D01*
X130545153Y-99916546D01*
X130548338Y-99931244D01*
X130549988Y-99942332D01*
X130551444Y-99956977D01*
X130552642Y-99973780D01*
X130553516Y-99991340D01*
X130554002Y-100008259D01*
X130554035Y-100023137D01*
X130553549Y-100034573D01*
X130553266Y-100037337D01*
X130545151Y-100081704D01*
X130532407Y-100123970D01*
X130515205Y-100163814D01*
X130493718Y-100200913D01*
X130468117Y-100234947D01*
X130438573Y-100265593D01*
X130425220Y-100277220D01*
X130389384Y-100303556D01*
X130351721Y-100325046D01*
X130312607Y-100341701D01*
X130272417Y-100353534D01*
X130231525Y-100360557D01*
X130205167Y-100361979D01*
X130190308Y-100362781D01*
X130149139Y-100360219D01*
X130108395Y-100352882D01*
X130068451Y-100340783D01*
X130029680Y-100323933D01*
X129992460Y-100302345D01*
X129957165Y-100276030D01*
X129941059Y-100261763D01*
X129923523Y-100245359D01*
X129721735Y-100245359D01*
X129684105Y-100245355D01*
X129651436Y-100245337D01*
X129623357Y-100245296D01*
X129599494Y-100245223D01*
X129579474Y-100245109D01*
X129562927Y-100244944D01*
X129549479Y-100244718D01*
X129538757Y-100244424D01*
X129530390Y-100244051D01*
X129524004Y-100243590D01*
X129519228Y-100243033D01*
X129515688Y-100242369D01*
X129513013Y-100241590D01*
X129510830Y-100240686D01*
X129509644Y-100240102D01*
X129497224Y-100231179D01*
X129487119Y-100218958D01*
X129480759Y-100205213D01*
X129480391Y-100203852D01*
X129479820Y-100198884D01*
X129479308Y-100189112D01*
X129478856Y-100175068D01*
X129478463Y-100157282D01*
X129478131Y-100136283D01*
X129477858Y-100112602D01*
X129477645Y-100086770D01*
X129477492Y-100059316D01*
X129477399Y-100030772D01*
X129477366Y-100001667D01*
X129477392Y-99972531D01*
X129477479Y-99943896D01*
X129477625Y-99916291D01*
X129477831Y-99890247D01*
X129478097Y-99866293D01*
X129478130Y-99864123D01*
X129586834Y-99864123D01*
X129586834Y-100135876D01*
X129775520Y-100136612D01*
X129812631Y-100136728D01*
X129844809Y-100136806D01*
X129872454Y-100136907D01*
X129895967Y-100137087D01*
X129915748Y-100137408D01*
X129932197Y-100137928D01*
X129945714Y-100138707D01*
X129956701Y-100139803D01*
X129965556Y-100141276D01*
X129972681Y-100143185D01*
X129978474Y-100145589D01*
X129983338Y-100148547D01*
X129987672Y-100152120D01*
X129991875Y-100156365D01*
X129996350Y-100161342D01*
X130001495Y-100167111D01*
X130004628Y-100170507D01*
X130032270Y-100196535D01*
X130061665Y-100217547D01*
X130092965Y-100233613D01*
X130126318Y-100244804D01*
X130161876Y-100251190D01*
X130178896Y-100252528D01*
X130205167Y-100252843D01*
X130228813Y-100250793D01*
X130252133Y-100246056D01*
X130275606Y-100238935D01*
X130305168Y-100226817D01*
X130331896Y-100211370D01*
X130357058Y-100191799D01*
X130369651Y-100180018D01*
X130394094Y-100152288D01*
X130413953Y-100122073D01*
X130429096Y-100089775D01*
X130439396Y-100055798D01*
X130444723Y-100020542D01*
X130444946Y-99984411D01*
X130441611Y-99956540D01*
X130432926Y-99921087D01*
X130419635Y-99888228D01*
X130401618Y-99857734D01*
X130378751Y-99829374D01*
X130369651Y-99819981D01*
X130344798Y-99798009D01*
X130319024Y-99780565D01*
X130291061Y-99766855D01*
X130275606Y-99761064D01*
X130250515Y-99753530D01*
X130227245Y-99748985D01*
X130203495Y-99747107D01*
X130178896Y-99747471D01*
X130142282Y-99751686D01*
X130107940Y-99760672D01*
X130075720Y-99774502D01*
X130045474Y-99793246D01*
X130017049Y-99816973D01*
X130004628Y-99829492D01*
X129998966Y-99835704D01*
X129994186Y-99841093D01*
X129989889Y-99845718D01*
X129985674Y-99849640D01*
X129981141Y-99852916D01*
X129975889Y-99855607D01*
X129969520Y-99857770D01*
X129961631Y-99859467D01*
X129951823Y-99860755D01*
X129939696Y-99861694D01*
X129924849Y-99862344D01*
X129906883Y-99862763D01*
X129885396Y-99863011D01*
X129859989Y-99863146D01*
X129830262Y-99863229D01*
X129795814Y-99863318D01*
X129775520Y-99863387D01*
X129586834Y-99864123D01*
X129478130Y-99864123D01*
X129478422Y-99844962D01*
X129478808Y-99826782D01*
X129479253Y-99812284D01*
X129479758Y-99801998D01*
X129480323Y-99796455D01*
X129480391Y-99796147D01*
X129486307Y-99782348D01*
X129496109Y-99769900D01*
X129508366Y-99760575D01*
X129509644Y-99759897D01*
X129511712Y-99758917D01*
X129514057Y-99758067D01*
X129517050Y-99757337D01*
X129521064Y-99756719D01*
X129526472Y-99756204D01*
X129533646Y-99755781D01*
X129542958Y-99755442D01*
X129554781Y-99755178D01*
X129569488Y-99754979D01*
X129587450Y-99754836D01*
X129609040Y-99754740D01*
X129634631Y-99754682D01*
X129664596Y-99754652D01*
X129699306Y-99754641D01*
X129721735Y-99754640D01*
X129923523Y-99754640D01*
X129941059Y-99738236D01*
X129975365Y-99709654D01*
X130012288Y-99685531D01*
X130051441Y-99666056D01*
X130092441Y-99651417D01*
X130134903Y-99641803D01*
X130138892Y-99641174D01*
X130181379Y-99637317D01*
X130223275Y-99638541D01*
G37*
G36*
X130223275Y-100659982D02*
G01*
X130264230Y-100666039D01*
X130303894Y-100676682D01*
X130341919Y-100691663D01*
X130377954Y-100710735D01*
X130411651Y-100733650D01*
X130442659Y-100760161D01*
X130470630Y-100790020D01*
X130495215Y-100822980D01*
X130516063Y-100858792D01*
X130532825Y-100897210D01*
X130545153Y-100937986D01*
X130548338Y-100952685D01*
X130549988Y-100963773D01*
X130551444Y-100978418D01*
X130552642Y-100995220D01*
X130553516Y-101012781D01*
X130554002Y-101029700D01*
X130554035Y-101044577D01*
X130553549Y-101056014D01*
X130553266Y-101058777D01*
X130545151Y-101103144D01*
X130532407Y-101145411D01*
X130515205Y-101185254D01*
X130493718Y-101222354D01*
X130468117Y-101256387D01*
X130438573Y-101287034D01*
X130425220Y-101298660D01*
X130389384Y-101324997D01*
X130351721Y-101346486D01*
X130312607Y-101363142D01*
X130272417Y-101374975D01*
X130231525Y-101381997D01*
X130205167Y-101383420D01*
X130190308Y-101384222D01*
X130149139Y-101381659D01*
X130108395Y-101374323D01*
X130068451Y-101362223D01*
X130029680Y-101345374D01*
X129992460Y-101323785D01*
X129957165Y-101297470D01*
X129941059Y-101283203D01*
X129923523Y-101266799D01*
X129721735Y-101266799D01*
X129684105Y-101266795D01*
X129651436Y-101266778D01*
X129623357Y-101266737D01*
X129599494Y-101266664D01*
X129579474Y-101266549D01*
X129562927Y-101266384D01*
X129549479Y-101266159D01*
X129538757Y-101265864D01*
X129530390Y-101265491D01*
X129524004Y-101265031D01*
X129519228Y-101264473D01*
X129515688Y-101263810D01*
X129513013Y-101263031D01*
X129510830Y-101262127D01*
X129509644Y-101261543D01*
X129497224Y-101252619D01*
X129487119Y-101240398D01*
X129480759Y-101226653D01*
X129480391Y-101225292D01*
X129479820Y-101220324D01*
X129479308Y-101210553D01*
X129478856Y-101196509D01*
X129478463Y-101178722D01*
X129478131Y-101157724D01*
X129477858Y-101134043D01*
X129477645Y-101108210D01*
X129477492Y-101080757D01*
X129477399Y-101052212D01*
X129477366Y-101023107D01*
X129477392Y-100993972D01*
X129477479Y-100965336D01*
X129477625Y-100937731D01*
X129477831Y-100911687D01*
X129478097Y-100887734D01*
X129478130Y-100885564D01*
X129586834Y-100885564D01*
X129586834Y-101157316D01*
X129775520Y-101158052D01*
X129812631Y-101158168D01*
X129844809Y-101158247D01*
X129872454Y-101158347D01*
X129895967Y-101158528D01*
X129915748Y-101158849D01*
X129932197Y-101159369D01*
X129945714Y-101160147D01*
X129956701Y-101161243D01*
X129965556Y-101162716D01*
X129972681Y-101164625D01*
X129978474Y-101167029D01*
X129983338Y-101169988D01*
X129987672Y-101173560D01*
X129991875Y-101177805D01*
X129996350Y-101182783D01*
X130001495Y-101188552D01*
X130004628Y-101191948D01*
X130032270Y-101217976D01*
X130061665Y-101238988D01*
X130092965Y-101255054D01*
X130126318Y-101266244D01*
X130161876Y-101272631D01*
X130178896Y-101273969D01*
X130205167Y-101274283D01*
X130228813Y-101272234D01*
X130252133Y-101267497D01*
X130275606Y-101260376D01*
X130305168Y-101248258D01*
X130331896Y-101232811D01*
X130357058Y-101213239D01*
X130369651Y-101201459D01*
X130394094Y-101173729D01*
X130413953Y-101143513D01*
X130429096Y-101111216D01*
X130439396Y-101077238D01*
X130444723Y-101041983D01*
X130444946Y-101005852D01*
X130441611Y-100977981D01*
X130432926Y-100942527D01*
X130419635Y-100909669D01*
X130401618Y-100879175D01*
X130378751Y-100850815D01*
X130369651Y-100841421D01*
X130344798Y-100819449D01*
X130319024Y-100802006D01*
X130291061Y-100788295D01*
X130275606Y-100782504D01*
X130250515Y-100774971D01*
X130227245Y-100770426D01*
X130203495Y-100768547D01*
X130178896Y-100768912D01*
X130142282Y-100773126D01*
X130107940Y-100782113D01*
X130075720Y-100795943D01*
X130045474Y-100814686D01*
X130017049Y-100838414D01*
X130004628Y-100850933D01*
X129998966Y-100857144D01*
X129994186Y-100862533D01*
X129989889Y-100867159D01*
X129985674Y-100871080D01*
X129981141Y-100874357D01*
X129975889Y-100877047D01*
X129969520Y-100879211D01*
X129961631Y-100880907D01*
X129951823Y-100882196D01*
X129939696Y-100883135D01*
X129924849Y-100883784D01*
X129906883Y-100884203D01*
X129885396Y-100884451D01*
X129859989Y-100884587D01*
X129830262Y-100884669D01*
X129795814Y-100884758D01*
X129775520Y-100884828D01*
X129586834Y-100885564D01*
X129478130Y-100885564D01*
X129478422Y-100866402D01*
X129478808Y-100848222D01*
X129479253Y-100833724D01*
X129479758Y-100823438D01*
X129480323Y-100817895D01*
X129480391Y-100817588D01*
X129486307Y-100803789D01*
X129496109Y-100791340D01*
X129508366Y-100782016D01*
X129509644Y-100781337D01*
X129511712Y-100780357D01*
X129514057Y-100779507D01*
X129517050Y-100778778D01*
X129521064Y-100778160D01*
X129526472Y-100777644D01*
X129533646Y-100777222D01*
X129542958Y-100776883D01*
X129554781Y-100776619D01*
X129569488Y-100776420D01*
X129587450Y-100776277D01*
X129609040Y-100776181D01*
X129634631Y-100776123D01*
X129664596Y-100776093D01*
X129699306Y-100776082D01*
X129721735Y-100776081D01*
X129923523Y-100776081D01*
X129941059Y-100759677D01*
X129975365Y-100731095D01*
X130012288Y-100706971D01*
X130051441Y-100687496D01*
X130092441Y-100672857D01*
X130134903Y-100663243D01*
X130138892Y-100662615D01*
X130181379Y-100658758D01*
X130223275Y-100659982D01*
G37*
G36*
X129062451Y-97897809D02*
G01*
X129097343Y-97909311D01*
X129129472Y-97925154D01*
X129158536Y-97944994D01*
X129184235Y-97968483D01*
X129206268Y-97995276D01*
X129224336Y-98025028D01*
X129238137Y-98057392D01*
X129247372Y-98092022D01*
X129250673Y-98114491D01*
X129250830Y-98118681D01*
X129250981Y-98128038D01*
X129251127Y-98142396D01*
X129251268Y-98161590D01*
X129251404Y-98185454D01*
X129251535Y-98213821D01*
X129251661Y-98246526D01*
X129251782Y-98283403D01*
X129251897Y-98324287D01*
X129252008Y-98369010D01*
X129252113Y-98417408D01*
X129252213Y-98469315D01*
X129252309Y-98524564D01*
X129252399Y-98582990D01*
X129252484Y-98644426D01*
X129252564Y-98708708D01*
X129252639Y-98775669D01*
X129252709Y-98845143D01*
X129252774Y-98916965D01*
X129252834Y-98990968D01*
X129252888Y-99066986D01*
X129252938Y-99144855D01*
X129252983Y-99224407D01*
X129253023Y-99305477D01*
X129253058Y-99387900D01*
X129253087Y-99471508D01*
X129253112Y-99556137D01*
X129253132Y-99641621D01*
X129253147Y-99727793D01*
X129253157Y-99814488D01*
X129253161Y-99901540D01*
X129253161Y-99988783D01*
X129253156Y-100076051D01*
X129253146Y-100163178D01*
X129253131Y-100249998D01*
X129253112Y-100336347D01*
X129253087Y-100422056D01*
X129253057Y-100506962D01*
X129253023Y-100590897D01*
X129252983Y-100673697D01*
X129252939Y-100755194D01*
X129252889Y-100835224D01*
X129252835Y-100913620D01*
X129252776Y-100990217D01*
X129252712Y-101064848D01*
X129252643Y-101137348D01*
X129252569Y-101207551D01*
X129252491Y-101275291D01*
X129252408Y-101340402D01*
X129252319Y-101402719D01*
X129252226Y-101462074D01*
X129252128Y-101518304D01*
X129252025Y-101571240D01*
X129251918Y-101620719D01*
X129251806Y-101666574D01*
X129251688Y-101708638D01*
X129251566Y-101746747D01*
X129251440Y-101780734D01*
X129251308Y-101810433D01*
X129251172Y-101835679D01*
X129251030Y-101856306D01*
X129250885Y-101872147D01*
X129250734Y-101883037D01*
X129250578Y-101888810D01*
X129250530Y-101889531D01*
X129244347Y-101923813D01*
X129233334Y-101956446D01*
X129217849Y-101987029D01*
X129198249Y-102015156D01*
X129174890Y-102040424D01*
X129148130Y-102062429D01*
X129118325Y-102080767D01*
X129085834Y-102095035D01*
X129062451Y-102102190D01*
X129038776Y-102108221D01*
X128316464Y-102108221D01*
X126961225Y-102108221D01*
X126937550Y-102102190D01*
X126902658Y-102090688D01*
X126870529Y-102074845D01*
X126841465Y-102055005D01*
X126815766Y-102031516D01*
X126793733Y-102004723D01*
X126775665Y-101974971D01*
X126761864Y-101942607D01*
X126752629Y-101907977D01*
X126749328Y-101885508D01*
X126749148Y-101881086D01*
X126748973Y-101871496D01*
X126748805Y-101856905D01*
X126748642Y-101837479D01*
X126748484Y-101813384D01*
X126748333Y-101784788D01*
X126748187Y-101751855D01*
X126748047Y-101714753D01*
X126747912Y-101673648D01*
X126747784Y-101628705D01*
X126747661Y-101580093D01*
X126747543Y-101527976D01*
X126747432Y-101472521D01*
X126747326Y-101413894D01*
X126747225Y-101352262D01*
X126747131Y-101287792D01*
X126747042Y-101220649D01*
X126746959Y-101150999D01*
X126746881Y-101079010D01*
X126746810Y-101004847D01*
X126746744Y-100928677D01*
X126746683Y-100850666D01*
X126746629Y-100770980D01*
X126746580Y-100689786D01*
X126746537Y-100607250D01*
X126746499Y-100523539D01*
X126746468Y-100438819D01*
X126746441Y-100353255D01*
X126746421Y-100267015D01*
X126746406Y-100180265D01*
X126746398Y-100093171D01*
X126746394Y-100005899D01*
X126746396Y-99944723D01*
X126857214Y-99944723D01*
X126857214Y-100120226D01*
X126857215Y-100235236D01*
X126857217Y-100345145D01*
X126857221Y-100450070D01*
X126857226Y-100550128D01*
X126857234Y-100645436D01*
X126857243Y-100736110D01*
X126857256Y-100822266D01*
X126857271Y-100904022D01*
X126857289Y-100981494D01*
X126857311Y-101054799D01*
X126857337Y-101124053D01*
X126857366Y-101189374D01*
X126857400Y-101250878D01*
X126857439Y-101308681D01*
X126857483Y-101362900D01*
X126857532Y-101413652D01*
X126857587Y-101461054D01*
X126857648Y-101505222D01*
X126857715Y-101546272D01*
X126857788Y-101584323D01*
X126857869Y-101619489D01*
X126857956Y-101651889D01*
X126858051Y-101681638D01*
X126858154Y-101708853D01*
X126858264Y-101733651D01*
X126858383Y-101756149D01*
X126858510Y-101776463D01*
X126858647Y-101794710D01*
X126858793Y-101811007D01*
X126858948Y-101825470D01*
X126859113Y-101838216D01*
X126859288Y-101849362D01*
X126859473Y-101859023D01*
X126859670Y-101867318D01*
X126859877Y-101874363D01*
X126860096Y-101880274D01*
X126860326Y-101885168D01*
X126860568Y-101889161D01*
X126860822Y-101892371D01*
X126861089Y-101894914D01*
X126861369Y-101896907D01*
X126861662Y-101898466D01*
X126861968Y-101899708D01*
X126862112Y-101900199D01*
X126872590Y-101925909D01*
X126887210Y-101948283D01*
X126905854Y-101967197D01*
X126928404Y-101982524D01*
X126948212Y-101991748D01*
X126966559Y-101998876D01*
X127987999Y-101999607D01*
X128074731Y-101999662D01*
X128158463Y-101999703D01*
X128239079Y-101999728D01*
X128316464Y-101999739D01*
X128390502Y-101999736D01*
X128461076Y-101999719D01*
X128528071Y-101999687D01*
X128591370Y-101999642D01*
X128650858Y-101999583D01*
X128706419Y-101999510D01*
X128757937Y-101999424D01*
X128805295Y-101999326D01*
X128848379Y-101999214D01*
X128887071Y-101999090D01*
X128921255Y-101998953D01*
X128950817Y-101998804D01*
X128975640Y-101998643D01*
X128995607Y-101998470D01*
X129010604Y-101998285D01*
X129020513Y-101998089D01*
X129025220Y-101997882D01*
X129025441Y-101997854D01*
X129051536Y-101991291D01*
X129075252Y-101980328D01*
X129096127Y-101965428D01*
X129113700Y-101947056D01*
X129127509Y-101925674D01*
X129137093Y-101901745D01*
X129141348Y-101881530D01*
X129141460Y-101878029D01*
X129141570Y-101869329D01*
X129141677Y-101855568D01*
X129141781Y-101836881D01*
X129141883Y-101813405D01*
X129141981Y-101785276D01*
X129142077Y-101752630D01*
X129142170Y-101715604D01*
X129142259Y-101674332D01*
X129142344Y-101628952D01*
X129142426Y-101579600D01*
X129142505Y-101526411D01*
X129142579Y-101469523D01*
X129142650Y-101409070D01*
X129142716Y-101345190D01*
X129142779Y-101278018D01*
X129142837Y-101207690D01*
X129142890Y-101134344D01*
X129142939Y-101058114D01*
X129142983Y-100979137D01*
X129143022Y-100897549D01*
X129143057Y-100813487D01*
X129143086Y-100727086D01*
X129143110Y-100638483D01*
X129143128Y-100547813D01*
X129143142Y-100455214D01*
X129143149Y-100360820D01*
X129143151Y-100264769D01*
X129143147Y-100167196D01*
X129143136Y-100068237D01*
X129143124Y-99989332D01*
X129143102Y-99869374D01*
X129143081Y-99754634D01*
X129143059Y-99644993D01*
X129143036Y-99540336D01*
X129143013Y-99440546D01*
X129142989Y-99345505D01*
X129142963Y-99255096D01*
X129142935Y-99169204D01*
X129142906Y-99087711D01*
X129142874Y-99010500D01*
X129142839Y-98937454D01*
X129142801Y-98868457D01*
X129142759Y-98803391D01*
X129142714Y-98742141D01*
X129142665Y-98684588D01*
X129142611Y-98630616D01*
X129142553Y-98580108D01*
X129142489Y-98532948D01*
X129142420Y-98489018D01*
X129142346Y-98448202D01*
X129142265Y-98410383D01*
X129142178Y-98375444D01*
X129142085Y-98343267D01*
X129141984Y-98313737D01*
X129141877Y-98286737D01*
X129141761Y-98262148D01*
X129141638Y-98239856D01*
X129141506Y-98219742D01*
X129141366Y-98201690D01*
X129141216Y-98185584D01*
X129141058Y-98171305D01*
X129140890Y-98158738D01*
X129140711Y-98147766D01*
X129140523Y-98138271D01*
X129140324Y-98130137D01*
X129140115Y-98123247D01*
X129139894Y-98117484D01*
X129139661Y-98112731D01*
X129139417Y-98108872D01*
X129139160Y-98105789D01*
X129138891Y-98103366D01*
X129138609Y-98101486D01*
X129138314Y-98100032D01*
X129138006Y-98098887D01*
X129137871Y-98098467D01*
X129126586Y-98072598D01*
X129111331Y-98050141D01*
X129092360Y-98031360D01*
X129069930Y-98016516D01*
X129048821Y-98007355D01*
X129030775Y-98001123D01*
X126969226Y-98001123D01*
X126951180Y-98007355D01*
X126926073Y-98018724D01*
X126904220Y-98034212D01*
X126885949Y-98053481D01*
X126871585Y-98076191D01*
X126862112Y-98099800D01*
X126861800Y-98100937D01*
X126861501Y-98102337D01*
X126861215Y-98104118D01*
X126860942Y-98106397D01*
X126860682Y-98109289D01*
X126860434Y-98112912D01*
X126860199Y-98117383D01*
X126859975Y-98122817D01*
X126859762Y-98129332D01*
X126859561Y-98137045D01*
X126859371Y-98146071D01*
X126859191Y-98156528D01*
X126859021Y-98168532D01*
X126858862Y-98182201D01*
X126858712Y-98197650D01*
X126858571Y-98214996D01*
X126858440Y-98234357D01*
X126858317Y-98255848D01*
X126858203Y-98279587D01*
X126858097Y-98305690D01*
X126857998Y-98334273D01*
X126857908Y-98365454D01*
X126857824Y-98399349D01*
X126857748Y-98436074D01*
X126857678Y-98475748D01*
X126857614Y-98518485D01*
X126857557Y-98564403D01*
X126857505Y-98613618D01*
X126857459Y-98666248D01*
X126857418Y-98722408D01*
X126857381Y-98782216D01*
X126857350Y-98845788D01*
X126857322Y-98913241D01*
X126857298Y-98984691D01*
X126857279Y-99060255D01*
X126857262Y-99140050D01*
X126857249Y-99224193D01*
X126857238Y-99312800D01*
X126857229Y-99405988D01*
X126857223Y-99503873D01*
X126857219Y-99606573D01*
X126857216Y-99714203D01*
X126857215Y-99826881D01*
X126857214Y-99944723D01*
X126746396Y-99944723D01*
X126746397Y-99918616D01*
X126746405Y-99831488D01*
X126746419Y-99744682D01*
X126746438Y-99658363D01*
X126746464Y-99572698D01*
X126746495Y-99487854D01*
X126746531Y-99403997D01*
X126746574Y-99321292D01*
X126746622Y-99239908D01*
X126746676Y-99160008D01*
X126746735Y-99081761D01*
X126746800Y-99005333D01*
X126746871Y-98930889D01*
X126746948Y-98858596D01*
X126747030Y-98788621D01*
X126747118Y-98721129D01*
X126747212Y-98656287D01*
X126747312Y-98594262D01*
X126747417Y-98535220D01*
X126747528Y-98479327D01*
X126747644Y-98426749D01*
X126747767Y-98377653D01*
X126747895Y-98332205D01*
X126748028Y-98290571D01*
X126748168Y-98252918D01*
X126748313Y-98219412D01*
X126748464Y-98190220D01*
X126748620Y-98165507D01*
X126748782Y-98145441D01*
X126748950Y-98130187D01*
X126749124Y-98119911D01*
X126749303Y-98114781D01*
X126749328Y-98114491D01*
X126755578Y-98078629D01*
X126766582Y-98044819D01*
X126782039Y-98013406D01*
X126801647Y-97984737D01*
X126825108Y-97959157D01*
X126852120Y-97937013D01*
X126882383Y-97918650D01*
X126915596Y-97904414D01*
X126937550Y-97897809D01*
X126961225Y-97891778D01*
X129038776Y-97891778D01*
X129062451Y-97897809D01*
G37*
%TD*%
M02*
