%TF.GenerationSoftware,KiCad,Pcbnew,9.0.3*%
%TF.CreationDate,2026-02-10T09:27:50-05:00*%
%TF.ProjectId,home energy monitor,686f6d65-2065-46e6-9572-6779206d6f6e,0.1*%
%TF.SameCoordinates,Original*%
%TF.FileFunction,Legend,Bot*%
%TF.FilePolarity,Positive*%
%FSLAX46Y46*%
G04 Gerber Fmt 4.6, Leading zero omitted, Abs format (unit mm)*
G04 Created by KiCad (PCBNEW 9.0.3) date 2026-02-10 09:27:50*
%MOMM*%
%LPD*%
G01*
G04 APERTURE LIST*
%ADD10C,0.050000*%
%ADD11C,0.150000*%
%ADD12C,0.120000*%
G04 APERTURE END LIST*
D10*
X168423737Y-93666668D02*
X167923737Y-93666668D01*
X168090404Y-93833335D02*
X168090404Y-94023811D01*
X168423737Y-93904763D02*
X167995166Y-93904763D01*
X167995166Y-93904763D02*
X167947547Y-93928573D01*
X167947547Y-93928573D02*
X167923737Y-93976192D01*
X167923737Y-93976192D02*
X167923737Y-94023811D01*
X168399928Y-94785715D02*
X168423737Y-94738096D01*
X168423737Y-94738096D02*
X168423737Y-94642858D01*
X168423737Y-94642858D02*
X168399928Y-94595239D01*
X168399928Y-94595239D02*
X168376118Y-94571429D01*
X168376118Y-94571429D02*
X168328499Y-94547620D01*
X168328499Y-94547620D02*
X168185642Y-94547620D01*
X168185642Y-94547620D02*
X168138023Y-94571429D01*
X168138023Y-94571429D02*
X168114213Y-94595239D01*
X168114213Y-94595239D02*
X168090404Y-94642858D01*
X168090404Y-94642858D02*
X168090404Y-94738096D01*
X168090404Y-94738096D02*
X168114213Y-94785715D01*
X168423737Y-95071429D02*
X168399928Y-95023810D01*
X168399928Y-95023810D02*
X168376118Y-95000000D01*
X168376118Y-95000000D02*
X168328499Y-94976191D01*
X168328499Y-94976191D02*
X168185642Y-94976191D01*
X168185642Y-94976191D02*
X168138023Y-95000000D01*
X168138023Y-95000000D02*
X168114213Y-95023810D01*
X168114213Y-95023810D02*
X168090404Y-95071429D01*
X168090404Y-95071429D02*
X168090404Y-95142857D01*
X168090404Y-95142857D02*
X168114213Y-95190476D01*
X168114213Y-95190476D02*
X168138023Y-95214286D01*
X168138023Y-95214286D02*
X168185642Y-95238095D01*
X168185642Y-95238095D02*
X168328499Y-95238095D01*
X168328499Y-95238095D02*
X168376118Y-95214286D01*
X168376118Y-95214286D02*
X168399928Y-95190476D01*
X168399928Y-95190476D02*
X168423737Y-95142857D01*
X168423737Y-95142857D02*
X168423737Y-95071429D01*
X168090404Y-95452381D02*
X168423737Y-95452381D01*
X168138023Y-95452381D02*
X168114213Y-95476191D01*
X168114213Y-95476191D02*
X168090404Y-95523810D01*
X168090404Y-95523810D02*
X168090404Y-95595238D01*
X168090404Y-95595238D02*
X168114213Y-95642857D01*
X168114213Y-95642857D02*
X168161832Y-95666667D01*
X168161832Y-95666667D02*
X168423737Y-95666667D01*
X168090404Y-95904762D02*
X168423737Y-95904762D01*
X168138023Y-95904762D02*
X168114213Y-95928572D01*
X168114213Y-95928572D02*
X168090404Y-95976191D01*
X168090404Y-95976191D02*
X168090404Y-96047619D01*
X168090404Y-96047619D02*
X168114213Y-96095238D01*
X168114213Y-96095238D02*
X168161832Y-96119048D01*
X168161832Y-96119048D02*
X168423737Y-96119048D01*
X168399928Y-96547619D02*
X168423737Y-96500000D01*
X168423737Y-96500000D02*
X168423737Y-96404762D01*
X168423737Y-96404762D02*
X168399928Y-96357143D01*
X168399928Y-96357143D02*
X168352308Y-96333334D01*
X168352308Y-96333334D02*
X168161832Y-96333334D01*
X168161832Y-96333334D02*
X168114213Y-96357143D01*
X168114213Y-96357143D02*
X168090404Y-96404762D01*
X168090404Y-96404762D02*
X168090404Y-96500000D01*
X168090404Y-96500000D02*
X168114213Y-96547619D01*
X168114213Y-96547619D02*
X168161832Y-96571429D01*
X168161832Y-96571429D02*
X168209451Y-96571429D01*
X168209451Y-96571429D02*
X168257070Y-96333334D01*
X168399928Y-97000000D02*
X168423737Y-96952381D01*
X168423737Y-96952381D02*
X168423737Y-96857143D01*
X168423737Y-96857143D02*
X168399928Y-96809524D01*
X168399928Y-96809524D02*
X168376118Y-96785714D01*
X168376118Y-96785714D02*
X168328499Y-96761905D01*
X168328499Y-96761905D02*
X168185642Y-96761905D01*
X168185642Y-96761905D02*
X168138023Y-96785714D01*
X168138023Y-96785714D02*
X168114213Y-96809524D01*
X168114213Y-96809524D02*
X168090404Y-96857143D01*
X168090404Y-96857143D02*
X168090404Y-96952381D01*
X168090404Y-96952381D02*
X168114213Y-97000000D01*
X168090404Y-97142857D02*
X168090404Y-97333333D01*
X167923737Y-97214285D02*
X168352308Y-97214285D01*
X168352308Y-97214285D02*
X168399928Y-97238095D01*
X168399928Y-97238095D02*
X168423737Y-97285714D01*
X168423737Y-97285714D02*
X168423737Y-97333333D01*
X168399928Y-97690475D02*
X168423737Y-97642856D01*
X168423737Y-97642856D02*
X168423737Y-97547618D01*
X168423737Y-97547618D02*
X168399928Y-97499999D01*
X168399928Y-97499999D02*
X168352308Y-97476190D01*
X168352308Y-97476190D02*
X168161832Y-97476190D01*
X168161832Y-97476190D02*
X168114213Y-97499999D01*
X168114213Y-97499999D02*
X168090404Y-97547618D01*
X168090404Y-97547618D02*
X168090404Y-97642856D01*
X168090404Y-97642856D02*
X168114213Y-97690475D01*
X168114213Y-97690475D02*
X168161832Y-97714285D01*
X168161832Y-97714285D02*
X168209451Y-97714285D01*
X168209451Y-97714285D02*
X168257070Y-97476190D01*
X168423737Y-98142856D02*
X167923737Y-98142856D01*
X168399928Y-98142856D02*
X168423737Y-98095237D01*
X168423737Y-98095237D02*
X168423737Y-97999999D01*
X168423737Y-97999999D02*
X168399928Y-97952380D01*
X168399928Y-97952380D02*
X168376118Y-97928570D01*
X168376118Y-97928570D02*
X168328499Y-97904761D01*
X168328499Y-97904761D02*
X168185642Y-97904761D01*
X168185642Y-97904761D02*
X168138023Y-97928570D01*
X168138023Y-97928570D02*
X168114213Y-97952380D01*
X168114213Y-97952380D02*
X168090404Y-97999999D01*
X168090404Y-97999999D02*
X168090404Y-98095237D01*
X168090404Y-98095237D02*
X168114213Y-98142856D01*
X168399928Y-98976189D02*
X168423737Y-98928570D01*
X168423737Y-98928570D02*
X168423737Y-98833332D01*
X168423737Y-98833332D02*
X168399928Y-98785713D01*
X168399928Y-98785713D02*
X168376118Y-98761903D01*
X168376118Y-98761903D02*
X168328499Y-98738094D01*
X168328499Y-98738094D02*
X168185642Y-98738094D01*
X168185642Y-98738094D02*
X168138023Y-98761903D01*
X168138023Y-98761903D02*
X168114213Y-98785713D01*
X168114213Y-98785713D02*
X168090404Y-98833332D01*
X168090404Y-98833332D02*
X168090404Y-98928570D01*
X168090404Y-98928570D02*
X168114213Y-98976189D01*
X168090404Y-99404760D02*
X168423737Y-99404760D01*
X168090404Y-99190474D02*
X168352308Y-99190474D01*
X168352308Y-99190474D02*
X168399928Y-99214284D01*
X168399928Y-99214284D02*
X168423737Y-99261903D01*
X168423737Y-99261903D02*
X168423737Y-99333331D01*
X168423737Y-99333331D02*
X168399928Y-99380950D01*
X168399928Y-99380950D02*
X168376118Y-99404760D01*
X168423737Y-99642855D02*
X168090404Y-99642855D01*
X168185642Y-99642855D02*
X168138023Y-99666665D01*
X168138023Y-99666665D02*
X168114213Y-99690474D01*
X168114213Y-99690474D02*
X168090404Y-99738093D01*
X168090404Y-99738093D02*
X168090404Y-99785712D01*
X168423737Y-99952379D02*
X168090404Y-99952379D01*
X168185642Y-99952379D02*
X168138023Y-99976189D01*
X168138023Y-99976189D02*
X168114213Y-99999998D01*
X168114213Y-99999998D02*
X168090404Y-100047617D01*
X168090404Y-100047617D02*
X168090404Y-100095236D01*
X168399928Y-100452379D02*
X168423737Y-100404760D01*
X168423737Y-100404760D02*
X168423737Y-100309522D01*
X168423737Y-100309522D02*
X168399928Y-100261903D01*
X168399928Y-100261903D02*
X168352308Y-100238094D01*
X168352308Y-100238094D02*
X168161832Y-100238094D01*
X168161832Y-100238094D02*
X168114213Y-100261903D01*
X168114213Y-100261903D02*
X168090404Y-100309522D01*
X168090404Y-100309522D02*
X168090404Y-100404760D01*
X168090404Y-100404760D02*
X168114213Y-100452379D01*
X168114213Y-100452379D02*
X168161832Y-100476189D01*
X168161832Y-100476189D02*
X168209451Y-100476189D01*
X168209451Y-100476189D02*
X168257070Y-100238094D01*
X168090404Y-100690474D02*
X168423737Y-100690474D01*
X168138023Y-100690474D02*
X168114213Y-100714284D01*
X168114213Y-100714284D02*
X168090404Y-100761903D01*
X168090404Y-100761903D02*
X168090404Y-100833331D01*
X168090404Y-100833331D02*
X168114213Y-100880950D01*
X168114213Y-100880950D02*
X168161832Y-100904760D01*
X168161832Y-100904760D02*
X168423737Y-100904760D01*
X168090404Y-101071427D02*
X168090404Y-101261903D01*
X167923737Y-101142855D02*
X168352308Y-101142855D01*
X168352308Y-101142855D02*
X168399928Y-101166665D01*
X168399928Y-101166665D02*
X168423737Y-101214284D01*
X168423737Y-101214284D02*
X168423737Y-101261903D01*
X168090404Y-101738093D02*
X168090404Y-101928569D01*
X167923737Y-101809521D02*
X168352308Y-101809521D01*
X168352308Y-101809521D02*
X168399928Y-101833331D01*
X168399928Y-101833331D02*
X168423737Y-101880950D01*
X168423737Y-101880950D02*
X168423737Y-101928569D01*
X168423737Y-102095235D02*
X168090404Y-102095235D01*
X168185642Y-102095235D02*
X168138023Y-102119045D01*
X168138023Y-102119045D02*
X168114213Y-102142854D01*
X168114213Y-102142854D02*
X168090404Y-102190473D01*
X168090404Y-102190473D02*
X168090404Y-102238092D01*
X168423737Y-102619045D02*
X168161832Y-102619045D01*
X168161832Y-102619045D02*
X168114213Y-102595235D01*
X168114213Y-102595235D02*
X168090404Y-102547616D01*
X168090404Y-102547616D02*
X168090404Y-102452378D01*
X168090404Y-102452378D02*
X168114213Y-102404759D01*
X168399928Y-102619045D02*
X168423737Y-102571426D01*
X168423737Y-102571426D02*
X168423737Y-102452378D01*
X168423737Y-102452378D02*
X168399928Y-102404759D01*
X168399928Y-102404759D02*
X168352308Y-102380950D01*
X168352308Y-102380950D02*
X168304689Y-102380950D01*
X168304689Y-102380950D02*
X168257070Y-102404759D01*
X168257070Y-102404759D02*
X168233261Y-102452378D01*
X168233261Y-102452378D02*
X168233261Y-102571426D01*
X168233261Y-102571426D02*
X168209451Y-102619045D01*
X168090404Y-102857140D02*
X168423737Y-102857140D01*
X168138023Y-102857140D02*
X168114213Y-102880950D01*
X168114213Y-102880950D02*
X168090404Y-102928569D01*
X168090404Y-102928569D02*
X168090404Y-102999997D01*
X168090404Y-102999997D02*
X168114213Y-103047616D01*
X168114213Y-103047616D02*
X168161832Y-103071426D01*
X168161832Y-103071426D02*
X168423737Y-103071426D01*
X168399928Y-103285712D02*
X168423737Y-103333331D01*
X168423737Y-103333331D02*
X168423737Y-103428569D01*
X168423737Y-103428569D02*
X168399928Y-103476188D01*
X168399928Y-103476188D02*
X168352308Y-103499997D01*
X168352308Y-103499997D02*
X168328499Y-103499997D01*
X168328499Y-103499997D02*
X168280880Y-103476188D01*
X168280880Y-103476188D02*
X168257070Y-103428569D01*
X168257070Y-103428569D02*
X168257070Y-103357140D01*
X168257070Y-103357140D02*
X168233261Y-103309521D01*
X168233261Y-103309521D02*
X168185642Y-103285712D01*
X168185642Y-103285712D02*
X168161832Y-103285712D01*
X168161832Y-103285712D02*
X168114213Y-103309521D01*
X168114213Y-103309521D02*
X168090404Y-103357140D01*
X168090404Y-103357140D02*
X168090404Y-103428569D01*
X168090404Y-103428569D02*
X168114213Y-103476188D01*
X168090404Y-103642855D02*
X168090404Y-103833331D01*
X168423737Y-103714283D02*
X167995166Y-103714283D01*
X167995166Y-103714283D02*
X167947547Y-103738093D01*
X167947547Y-103738093D02*
X167923737Y-103785712D01*
X167923737Y-103785712D02*
X167923737Y-103833331D01*
X168423737Y-104071426D02*
X168399928Y-104023807D01*
X168399928Y-104023807D02*
X168376118Y-103999997D01*
X168376118Y-103999997D02*
X168328499Y-103976188D01*
X168328499Y-103976188D02*
X168185642Y-103976188D01*
X168185642Y-103976188D02*
X168138023Y-103999997D01*
X168138023Y-103999997D02*
X168114213Y-104023807D01*
X168114213Y-104023807D02*
X168090404Y-104071426D01*
X168090404Y-104071426D02*
X168090404Y-104142854D01*
X168090404Y-104142854D02*
X168114213Y-104190473D01*
X168114213Y-104190473D02*
X168138023Y-104214283D01*
X168138023Y-104214283D02*
X168185642Y-104238092D01*
X168185642Y-104238092D02*
X168328499Y-104238092D01*
X168328499Y-104238092D02*
X168376118Y-104214283D01*
X168376118Y-104214283D02*
X168399928Y-104190473D01*
X168399928Y-104190473D02*
X168423737Y-104142854D01*
X168423737Y-104142854D02*
X168423737Y-104071426D01*
X168423737Y-104452378D02*
X168090404Y-104452378D01*
X168185642Y-104452378D02*
X168138023Y-104476188D01*
X168138023Y-104476188D02*
X168114213Y-104499997D01*
X168114213Y-104499997D02*
X168090404Y-104547616D01*
X168090404Y-104547616D02*
X168090404Y-104595235D01*
X168423737Y-104761902D02*
X168090404Y-104761902D01*
X168138023Y-104761902D02*
X168114213Y-104785712D01*
X168114213Y-104785712D02*
X168090404Y-104833331D01*
X168090404Y-104833331D02*
X168090404Y-104904759D01*
X168090404Y-104904759D02*
X168114213Y-104952378D01*
X168114213Y-104952378D02*
X168161832Y-104976188D01*
X168161832Y-104976188D02*
X168423737Y-104976188D01*
X168161832Y-104976188D02*
X168114213Y-104999997D01*
X168114213Y-104999997D02*
X168090404Y-105047616D01*
X168090404Y-105047616D02*
X168090404Y-105119045D01*
X168090404Y-105119045D02*
X168114213Y-105166664D01*
X168114213Y-105166664D02*
X168161832Y-105190474D01*
X168161832Y-105190474D02*
X168423737Y-105190474D01*
X168399928Y-105619045D02*
X168423737Y-105571426D01*
X168423737Y-105571426D02*
X168423737Y-105476188D01*
X168423737Y-105476188D02*
X168399928Y-105428569D01*
X168399928Y-105428569D02*
X168352308Y-105404760D01*
X168352308Y-105404760D02*
X168161832Y-105404760D01*
X168161832Y-105404760D02*
X168114213Y-105428569D01*
X168114213Y-105428569D02*
X168090404Y-105476188D01*
X168090404Y-105476188D02*
X168090404Y-105571426D01*
X168090404Y-105571426D02*
X168114213Y-105619045D01*
X168114213Y-105619045D02*
X168161832Y-105642855D01*
X168161832Y-105642855D02*
X168209451Y-105642855D01*
X168209451Y-105642855D02*
X168257070Y-105404760D01*
X168423737Y-105857140D02*
X168090404Y-105857140D01*
X168185642Y-105857140D02*
X168138023Y-105880950D01*
X168138023Y-105880950D02*
X168114213Y-105904759D01*
X168114213Y-105904759D02*
X168090404Y-105952378D01*
X168090404Y-105952378D02*
X168090404Y-105999997D01*
X168399928Y-106142855D02*
X168423737Y-106190474D01*
X168423737Y-106190474D02*
X168423737Y-106285712D01*
X168423737Y-106285712D02*
X168399928Y-106333331D01*
X168399928Y-106333331D02*
X168352308Y-106357140D01*
X168352308Y-106357140D02*
X168328499Y-106357140D01*
X168328499Y-106357140D02*
X168280880Y-106333331D01*
X168280880Y-106333331D02*
X168257070Y-106285712D01*
X168257070Y-106285712D02*
X168257070Y-106214283D01*
X168257070Y-106214283D02*
X168233261Y-106166664D01*
X168233261Y-106166664D02*
X168185642Y-106142855D01*
X168185642Y-106142855D02*
X168161832Y-106142855D01*
X168161832Y-106142855D02*
X168114213Y-106166664D01*
X168114213Y-106166664D02*
X168090404Y-106214283D01*
X168090404Y-106214283D02*
X168090404Y-106285712D01*
X168090404Y-106285712D02*
X168114213Y-106333331D01*
X169228709Y-92904763D02*
X168728709Y-92904763D01*
X169204900Y-92904763D02*
X169228709Y-92857144D01*
X169228709Y-92857144D02*
X169228709Y-92761906D01*
X169228709Y-92761906D02*
X169204900Y-92714287D01*
X169204900Y-92714287D02*
X169181090Y-92690477D01*
X169181090Y-92690477D02*
X169133471Y-92666668D01*
X169133471Y-92666668D02*
X168990614Y-92666668D01*
X168990614Y-92666668D02*
X168942995Y-92690477D01*
X168942995Y-92690477D02*
X168919185Y-92714287D01*
X168919185Y-92714287D02*
X168895376Y-92761906D01*
X168895376Y-92761906D02*
X168895376Y-92857144D01*
X168895376Y-92857144D02*
X168919185Y-92904763D01*
X169228709Y-93214287D02*
X169204900Y-93166668D01*
X169204900Y-93166668D02*
X169181090Y-93142858D01*
X169181090Y-93142858D02*
X169133471Y-93119049D01*
X169133471Y-93119049D02*
X168990614Y-93119049D01*
X168990614Y-93119049D02*
X168942995Y-93142858D01*
X168942995Y-93142858D02*
X168919185Y-93166668D01*
X168919185Y-93166668D02*
X168895376Y-93214287D01*
X168895376Y-93214287D02*
X168895376Y-93285715D01*
X168895376Y-93285715D02*
X168919185Y-93333334D01*
X168919185Y-93333334D02*
X168942995Y-93357144D01*
X168942995Y-93357144D02*
X168990614Y-93380953D01*
X168990614Y-93380953D02*
X169133471Y-93380953D01*
X169133471Y-93380953D02*
X169181090Y-93357144D01*
X169181090Y-93357144D02*
X169204900Y-93333334D01*
X169204900Y-93333334D02*
X169228709Y-93285715D01*
X169228709Y-93285715D02*
X169228709Y-93214287D01*
X169228709Y-93976191D02*
X168728709Y-93976191D01*
X168728709Y-93976191D02*
X169228709Y-94261905D01*
X169228709Y-94261905D02*
X168728709Y-94261905D01*
X168728709Y-94595239D02*
X168728709Y-94690477D01*
X168728709Y-94690477D02*
X168752519Y-94738096D01*
X168752519Y-94738096D02*
X168800138Y-94785715D01*
X168800138Y-94785715D02*
X168895376Y-94809525D01*
X168895376Y-94809525D02*
X169062042Y-94809525D01*
X169062042Y-94809525D02*
X169157280Y-94785715D01*
X169157280Y-94785715D02*
X169204900Y-94738096D01*
X169204900Y-94738096D02*
X169228709Y-94690477D01*
X169228709Y-94690477D02*
X169228709Y-94595239D01*
X169228709Y-94595239D02*
X169204900Y-94547620D01*
X169204900Y-94547620D02*
X169157280Y-94500001D01*
X169157280Y-94500001D02*
X169062042Y-94476192D01*
X169062042Y-94476192D02*
X168895376Y-94476192D01*
X168895376Y-94476192D02*
X168800138Y-94500001D01*
X168800138Y-94500001D02*
X168752519Y-94547620D01*
X168752519Y-94547620D02*
X168728709Y-94595239D01*
X168728709Y-94952383D02*
X168728709Y-95238097D01*
X169228709Y-95095240D02*
X168728709Y-95095240D01*
X169228709Y-95785715D02*
X168728709Y-95785715D01*
X169228709Y-96000001D02*
X168966804Y-96000001D01*
X168966804Y-96000001D02*
X168919185Y-95976191D01*
X168919185Y-95976191D02*
X168895376Y-95928572D01*
X168895376Y-95928572D02*
X168895376Y-95857144D01*
X168895376Y-95857144D02*
X168919185Y-95809525D01*
X168919185Y-95809525D02*
X168942995Y-95785715D01*
X169228709Y-96452382D02*
X168966804Y-96452382D01*
X168966804Y-96452382D02*
X168919185Y-96428572D01*
X168919185Y-96428572D02*
X168895376Y-96380953D01*
X168895376Y-96380953D02*
X168895376Y-96285715D01*
X168895376Y-96285715D02*
X168919185Y-96238096D01*
X169204900Y-96452382D02*
X169228709Y-96404763D01*
X169228709Y-96404763D02*
X169228709Y-96285715D01*
X169228709Y-96285715D02*
X169204900Y-96238096D01*
X169204900Y-96238096D02*
X169157280Y-96214287D01*
X169157280Y-96214287D02*
X169109661Y-96214287D01*
X169109661Y-96214287D02*
X169062042Y-96238096D01*
X169062042Y-96238096D02*
X169038233Y-96285715D01*
X169038233Y-96285715D02*
X169038233Y-96404763D01*
X169038233Y-96404763D02*
X169014423Y-96452382D01*
X168895376Y-96642858D02*
X169228709Y-96761906D01*
X169228709Y-96761906D02*
X168895376Y-96880953D01*
X169204900Y-97261905D02*
X169228709Y-97214286D01*
X169228709Y-97214286D02*
X169228709Y-97119048D01*
X169228709Y-97119048D02*
X169204900Y-97071429D01*
X169204900Y-97071429D02*
X169157280Y-97047620D01*
X169157280Y-97047620D02*
X168966804Y-97047620D01*
X168966804Y-97047620D02*
X168919185Y-97071429D01*
X168919185Y-97071429D02*
X168895376Y-97119048D01*
X168895376Y-97119048D02*
X168895376Y-97214286D01*
X168895376Y-97214286D02*
X168919185Y-97261905D01*
X168919185Y-97261905D02*
X168966804Y-97285715D01*
X168966804Y-97285715D02*
X169014423Y-97285715D01*
X169014423Y-97285715D02*
X169062042Y-97047620D01*
X169228709Y-97880952D02*
X168895376Y-97880952D01*
X168728709Y-97880952D02*
X168752519Y-97857143D01*
X168752519Y-97857143D02*
X168776328Y-97880952D01*
X168776328Y-97880952D02*
X168752519Y-97904762D01*
X168752519Y-97904762D02*
X168728709Y-97880952D01*
X168728709Y-97880952D02*
X168776328Y-97880952D01*
X168895376Y-98119047D02*
X169228709Y-98119047D01*
X168942995Y-98119047D02*
X168919185Y-98142857D01*
X168919185Y-98142857D02*
X168895376Y-98190476D01*
X168895376Y-98190476D02*
X168895376Y-98261904D01*
X168895376Y-98261904D02*
X168919185Y-98309523D01*
X168919185Y-98309523D02*
X168966804Y-98333333D01*
X168966804Y-98333333D02*
X169228709Y-98333333D01*
X168895376Y-98500000D02*
X168895376Y-98690476D01*
X168728709Y-98571428D02*
X169157280Y-98571428D01*
X169157280Y-98571428D02*
X169204900Y-98595238D01*
X169204900Y-98595238D02*
X169228709Y-98642857D01*
X169228709Y-98642857D02*
X169228709Y-98690476D01*
X169204900Y-99047618D02*
X169228709Y-98999999D01*
X169228709Y-98999999D02*
X169228709Y-98904761D01*
X169228709Y-98904761D02*
X169204900Y-98857142D01*
X169204900Y-98857142D02*
X169157280Y-98833333D01*
X169157280Y-98833333D02*
X168966804Y-98833333D01*
X168966804Y-98833333D02*
X168919185Y-98857142D01*
X168919185Y-98857142D02*
X168895376Y-98904761D01*
X168895376Y-98904761D02*
X168895376Y-98999999D01*
X168895376Y-98999999D02*
X168919185Y-99047618D01*
X168919185Y-99047618D02*
X168966804Y-99071428D01*
X168966804Y-99071428D02*
X169014423Y-99071428D01*
X169014423Y-99071428D02*
X169062042Y-98833333D01*
X169228709Y-99285713D02*
X168895376Y-99285713D01*
X168990614Y-99285713D02*
X168942995Y-99309523D01*
X168942995Y-99309523D02*
X168919185Y-99333332D01*
X168919185Y-99333332D02*
X168895376Y-99380951D01*
X168895376Y-99380951D02*
X168895376Y-99428570D01*
X168895376Y-99595237D02*
X169228709Y-99595237D01*
X168942995Y-99595237D02*
X168919185Y-99619047D01*
X168919185Y-99619047D02*
X168895376Y-99666666D01*
X168895376Y-99666666D02*
X168895376Y-99738094D01*
X168895376Y-99738094D02*
X168919185Y-99785713D01*
X168919185Y-99785713D02*
X168966804Y-99809523D01*
X168966804Y-99809523D02*
X169228709Y-99809523D01*
X169228709Y-100261904D02*
X168966804Y-100261904D01*
X168966804Y-100261904D02*
X168919185Y-100238094D01*
X168919185Y-100238094D02*
X168895376Y-100190475D01*
X168895376Y-100190475D02*
X168895376Y-100095237D01*
X168895376Y-100095237D02*
X168919185Y-100047618D01*
X169204900Y-100261904D02*
X169228709Y-100214285D01*
X169228709Y-100214285D02*
X169228709Y-100095237D01*
X169228709Y-100095237D02*
X169204900Y-100047618D01*
X169204900Y-100047618D02*
X169157280Y-100023809D01*
X169157280Y-100023809D02*
X169109661Y-100023809D01*
X169109661Y-100023809D02*
X169062042Y-100047618D01*
X169062042Y-100047618D02*
X169038233Y-100095237D01*
X169038233Y-100095237D02*
X169038233Y-100214285D01*
X169038233Y-100214285D02*
X169014423Y-100261904D01*
X169228709Y-100571428D02*
X169204900Y-100523809D01*
X169204900Y-100523809D02*
X169157280Y-100499999D01*
X169157280Y-100499999D02*
X168728709Y-100499999D01*
X169228709Y-101142856D02*
X168728709Y-101142856D01*
X168919185Y-101142856D02*
X168895376Y-101190475D01*
X168895376Y-101190475D02*
X168895376Y-101285713D01*
X168895376Y-101285713D02*
X168919185Y-101333332D01*
X168919185Y-101333332D02*
X168942995Y-101357142D01*
X168942995Y-101357142D02*
X168990614Y-101380951D01*
X168990614Y-101380951D02*
X169133471Y-101380951D01*
X169133471Y-101380951D02*
X169181090Y-101357142D01*
X169181090Y-101357142D02*
X169204900Y-101333332D01*
X169204900Y-101333332D02*
X169228709Y-101285713D01*
X169228709Y-101285713D02*
X169228709Y-101190475D01*
X169228709Y-101190475D02*
X169204900Y-101142856D01*
X168895376Y-101809523D02*
X169228709Y-101809523D01*
X168895376Y-101595237D02*
X169157280Y-101595237D01*
X169157280Y-101595237D02*
X169204900Y-101619047D01*
X169204900Y-101619047D02*
X169228709Y-101666666D01*
X169228709Y-101666666D02*
X169228709Y-101738094D01*
X169228709Y-101738094D02*
X169204900Y-101785713D01*
X169204900Y-101785713D02*
X169181090Y-101809523D01*
X169228709Y-102047618D02*
X168895376Y-102047618D01*
X168990614Y-102047618D02*
X168942995Y-102071428D01*
X168942995Y-102071428D02*
X168919185Y-102095237D01*
X168919185Y-102095237D02*
X168895376Y-102142856D01*
X168895376Y-102142856D02*
X168895376Y-102190475D01*
X169228709Y-102571428D02*
X168728709Y-102571428D01*
X169204900Y-102571428D02*
X169228709Y-102523809D01*
X169228709Y-102523809D02*
X169228709Y-102428571D01*
X169228709Y-102428571D02*
X169204900Y-102380952D01*
X169204900Y-102380952D02*
X169181090Y-102357142D01*
X169181090Y-102357142D02*
X169133471Y-102333333D01*
X169133471Y-102333333D02*
X168990614Y-102333333D01*
X168990614Y-102333333D02*
X168942995Y-102357142D01*
X168942995Y-102357142D02*
X168919185Y-102380952D01*
X168919185Y-102380952D02*
X168895376Y-102428571D01*
X168895376Y-102428571D02*
X168895376Y-102523809D01*
X168895376Y-102523809D02*
X168919185Y-102571428D01*
X169204900Y-102999999D02*
X169228709Y-102952380D01*
X169228709Y-102952380D02*
X169228709Y-102857142D01*
X169228709Y-102857142D02*
X169204900Y-102809523D01*
X169204900Y-102809523D02*
X169157280Y-102785714D01*
X169157280Y-102785714D02*
X168966804Y-102785714D01*
X168966804Y-102785714D02*
X168919185Y-102809523D01*
X168919185Y-102809523D02*
X168895376Y-102857142D01*
X168895376Y-102857142D02*
X168895376Y-102952380D01*
X168895376Y-102952380D02*
X168919185Y-102999999D01*
X168919185Y-102999999D02*
X168966804Y-103023809D01*
X168966804Y-103023809D02*
X169014423Y-103023809D01*
X169014423Y-103023809D02*
X169062042Y-102785714D01*
X168895376Y-103238094D02*
X169228709Y-103238094D01*
X168942995Y-103238094D02*
X168919185Y-103261904D01*
X168919185Y-103261904D02*
X168895376Y-103309523D01*
X168895376Y-103309523D02*
X168895376Y-103380951D01*
X168895376Y-103380951D02*
X168919185Y-103428570D01*
X168919185Y-103428570D02*
X168966804Y-103452380D01*
X168966804Y-103452380D02*
X169228709Y-103452380D01*
X169228709Y-104071427D02*
X168895376Y-104071427D01*
X168990614Y-104071427D02*
X168942995Y-104095237D01*
X168942995Y-104095237D02*
X168919185Y-104119046D01*
X168919185Y-104119046D02*
X168895376Y-104166665D01*
X168895376Y-104166665D02*
X168895376Y-104214284D01*
X169204900Y-104571427D02*
X169228709Y-104523808D01*
X169228709Y-104523808D02*
X169228709Y-104428570D01*
X169228709Y-104428570D02*
X169204900Y-104380951D01*
X169204900Y-104380951D02*
X169157280Y-104357142D01*
X169157280Y-104357142D02*
X168966804Y-104357142D01*
X168966804Y-104357142D02*
X168919185Y-104380951D01*
X168919185Y-104380951D02*
X168895376Y-104428570D01*
X168895376Y-104428570D02*
X168895376Y-104523808D01*
X168895376Y-104523808D02*
X168919185Y-104571427D01*
X168919185Y-104571427D02*
X168966804Y-104595237D01*
X168966804Y-104595237D02*
X169014423Y-104595237D01*
X169014423Y-104595237D02*
X169062042Y-104357142D01*
X169204900Y-104785713D02*
X169228709Y-104833332D01*
X169228709Y-104833332D02*
X169228709Y-104928570D01*
X169228709Y-104928570D02*
X169204900Y-104976189D01*
X169204900Y-104976189D02*
X169157280Y-104999998D01*
X169157280Y-104999998D02*
X169133471Y-104999998D01*
X169133471Y-104999998D02*
X169085852Y-104976189D01*
X169085852Y-104976189D02*
X169062042Y-104928570D01*
X169062042Y-104928570D02*
X169062042Y-104857141D01*
X169062042Y-104857141D02*
X169038233Y-104809522D01*
X169038233Y-104809522D02*
X168990614Y-104785713D01*
X168990614Y-104785713D02*
X168966804Y-104785713D01*
X168966804Y-104785713D02*
X168919185Y-104809522D01*
X168919185Y-104809522D02*
X168895376Y-104857141D01*
X168895376Y-104857141D02*
X168895376Y-104928570D01*
X168895376Y-104928570D02*
X168919185Y-104976189D01*
X169228709Y-105214284D02*
X168895376Y-105214284D01*
X168728709Y-105214284D02*
X168752519Y-105190475D01*
X168752519Y-105190475D02*
X168776328Y-105214284D01*
X168776328Y-105214284D02*
X168752519Y-105238094D01*
X168752519Y-105238094D02*
X168728709Y-105214284D01*
X168728709Y-105214284D02*
X168776328Y-105214284D01*
X169204900Y-105428570D02*
X169228709Y-105476189D01*
X169228709Y-105476189D02*
X169228709Y-105571427D01*
X169228709Y-105571427D02*
X169204900Y-105619046D01*
X169204900Y-105619046D02*
X169157280Y-105642855D01*
X169157280Y-105642855D02*
X169133471Y-105642855D01*
X169133471Y-105642855D02*
X169085852Y-105619046D01*
X169085852Y-105619046D02*
X169062042Y-105571427D01*
X169062042Y-105571427D02*
X169062042Y-105499998D01*
X169062042Y-105499998D02*
X169038233Y-105452379D01*
X169038233Y-105452379D02*
X168990614Y-105428570D01*
X168990614Y-105428570D02*
X168966804Y-105428570D01*
X168966804Y-105428570D02*
X168919185Y-105452379D01*
X168919185Y-105452379D02*
X168895376Y-105499998D01*
X168895376Y-105499998D02*
X168895376Y-105571427D01*
X168895376Y-105571427D02*
X168919185Y-105619046D01*
X168895376Y-105785713D02*
X168895376Y-105976189D01*
X168728709Y-105857141D02*
X169157280Y-105857141D01*
X169157280Y-105857141D02*
X169204900Y-105880951D01*
X169204900Y-105880951D02*
X169228709Y-105928570D01*
X169228709Y-105928570D02*
X169228709Y-105976189D01*
X169228709Y-106214284D02*
X169204900Y-106166665D01*
X169204900Y-106166665D02*
X169181090Y-106142855D01*
X169181090Y-106142855D02*
X169133471Y-106119046D01*
X169133471Y-106119046D02*
X168990614Y-106119046D01*
X168990614Y-106119046D02*
X168942995Y-106142855D01*
X168942995Y-106142855D02*
X168919185Y-106166665D01*
X168919185Y-106166665D02*
X168895376Y-106214284D01*
X168895376Y-106214284D02*
X168895376Y-106285712D01*
X168895376Y-106285712D02*
X168919185Y-106333331D01*
X168919185Y-106333331D02*
X168942995Y-106357141D01*
X168942995Y-106357141D02*
X168990614Y-106380950D01*
X168990614Y-106380950D02*
X169133471Y-106380950D01*
X169133471Y-106380950D02*
X169181090Y-106357141D01*
X169181090Y-106357141D02*
X169204900Y-106333331D01*
X169204900Y-106333331D02*
X169228709Y-106285712D01*
X169228709Y-106285712D02*
X169228709Y-106214284D01*
X169228709Y-106595236D02*
X168895376Y-106595236D01*
X168990614Y-106595236D02*
X168942995Y-106619046D01*
X168942995Y-106619046D02*
X168919185Y-106642855D01*
X168919185Y-106642855D02*
X168895376Y-106690474D01*
X168895376Y-106690474D02*
X168895376Y-106738093D01*
X169204900Y-106880951D02*
X169228709Y-106928570D01*
X169228709Y-106928570D02*
X169228709Y-107023808D01*
X169228709Y-107023808D02*
X169204900Y-107071427D01*
X169204900Y-107071427D02*
X169157280Y-107095236D01*
X169157280Y-107095236D02*
X169133471Y-107095236D01*
X169133471Y-107095236D02*
X169085852Y-107071427D01*
X169085852Y-107071427D02*
X169062042Y-107023808D01*
X169062042Y-107023808D02*
X169062042Y-106952379D01*
X169062042Y-106952379D02*
X169038233Y-106904760D01*
X169038233Y-106904760D02*
X168990614Y-106880951D01*
X168990614Y-106880951D02*
X168966804Y-106880951D01*
X168966804Y-106880951D02*
X168919185Y-106904760D01*
X168919185Y-106904760D02*
X168895376Y-106952379D01*
X168895376Y-106952379D02*
X168895376Y-107023808D01*
X168895376Y-107023808D02*
X168919185Y-107071427D01*
X169204900Y-107333332D02*
X169228709Y-107333332D01*
X169228709Y-107333332D02*
X169276328Y-107309522D01*
X169276328Y-107309522D02*
X169300138Y-107285713D01*
X170033681Y-91464288D02*
X169533681Y-91464288D01*
X169724157Y-91464288D02*
X169700348Y-91511907D01*
X169700348Y-91511907D02*
X169700348Y-91607145D01*
X169700348Y-91607145D02*
X169724157Y-91654764D01*
X169724157Y-91654764D02*
X169747967Y-91678574D01*
X169747967Y-91678574D02*
X169795586Y-91702383D01*
X169795586Y-91702383D02*
X169938443Y-91702383D01*
X169938443Y-91702383D02*
X169986062Y-91678574D01*
X169986062Y-91678574D02*
X170009872Y-91654764D01*
X170009872Y-91654764D02*
X170033681Y-91607145D01*
X170033681Y-91607145D02*
X170033681Y-91511907D01*
X170033681Y-91511907D02*
X170009872Y-91464288D01*
X170033681Y-91916669D02*
X169700348Y-91916669D01*
X169795586Y-91916669D02*
X169747967Y-91940479D01*
X169747967Y-91940479D02*
X169724157Y-91964288D01*
X169724157Y-91964288D02*
X169700348Y-92011907D01*
X169700348Y-92011907D02*
X169700348Y-92059526D01*
X170033681Y-92226193D02*
X169700348Y-92226193D01*
X169533681Y-92226193D02*
X169557491Y-92202384D01*
X169557491Y-92202384D02*
X169581300Y-92226193D01*
X169581300Y-92226193D02*
X169557491Y-92250003D01*
X169557491Y-92250003D02*
X169533681Y-92226193D01*
X169533681Y-92226193D02*
X169581300Y-92226193D01*
X170033681Y-92678574D02*
X169533681Y-92678574D01*
X170009872Y-92678574D02*
X170033681Y-92630955D01*
X170033681Y-92630955D02*
X170033681Y-92535717D01*
X170033681Y-92535717D02*
X170009872Y-92488098D01*
X170009872Y-92488098D02*
X169986062Y-92464288D01*
X169986062Y-92464288D02*
X169938443Y-92440479D01*
X169938443Y-92440479D02*
X169795586Y-92440479D01*
X169795586Y-92440479D02*
X169747967Y-92464288D01*
X169747967Y-92464288D02*
X169724157Y-92488098D01*
X169724157Y-92488098D02*
X169700348Y-92535717D01*
X169700348Y-92535717D02*
X169700348Y-92630955D01*
X169700348Y-92630955D02*
X169724157Y-92678574D01*
X169700348Y-93130955D02*
X170105110Y-93130955D01*
X170105110Y-93130955D02*
X170152729Y-93107145D01*
X170152729Y-93107145D02*
X170176538Y-93083336D01*
X170176538Y-93083336D02*
X170200348Y-93035717D01*
X170200348Y-93035717D02*
X170200348Y-92964288D01*
X170200348Y-92964288D02*
X170176538Y-92916669D01*
X170009872Y-93130955D02*
X170033681Y-93083336D01*
X170033681Y-93083336D02*
X170033681Y-92988098D01*
X170033681Y-92988098D02*
X170009872Y-92940479D01*
X170009872Y-92940479D02*
X169986062Y-92916669D01*
X169986062Y-92916669D02*
X169938443Y-92892860D01*
X169938443Y-92892860D02*
X169795586Y-92892860D01*
X169795586Y-92892860D02*
X169747967Y-92916669D01*
X169747967Y-92916669D02*
X169724157Y-92940479D01*
X169724157Y-92940479D02*
X169700348Y-92988098D01*
X169700348Y-92988098D02*
X169700348Y-93083336D01*
X169700348Y-93083336D02*
X169724157Y-93130955D01*
X170009872Y-93559526D02*
X170033681Y-93511907D01*
X170033681Y-93511907D02*
X170033681Y-93416669D01*
X170033681Y-93416669D02*
X170009872Y-93369050D01*
X170009872Y-93369050D02*
X169962252Y-93345241D01*
X169962252Y-93345241D02*
X169771776Y-93345241D01*
X169771776Y-93345241D02*
X169724157Y-93369050D01*
X169724157Y-93369050D02*
X169700348Y-93416669D01*
X169700348Y-93416669D02*
X169700348Y-93511907D01*
X169700348Y-93511907D02*
X169724157Y-93559526D01*
X169724157Y-93559526D02*
X169771776Y-93583336D01*
X169771776Y-93583336D02*
X169819395Y-93583336D01*
X169819395Y-93583336D02*
X169867014Y-93345241D01*
X169700348Y-94178573D02*
X170128919Y-94178573D01*
X170128919Y-94178573D02*
X170176538Y-94154764D01*
X170176538Y-94154764D02*
X170200348Y-94107145D01*
X170200348Y-94107145D02*
X170200348Y-94083335D01*
X169533681Y-94178573D02*
X169557491Y-94154764D01*
X169557491Y-94154764D02*
X169581300Y-94178573D01*
X169581300Y-94178573D02*
X169557491Y-94202383D01*
X169557491Y-94202383D02*
X169533681Y-94178573D01*
X169533681Y-94178573D02*
X169581300Y-94178573D01*
X169700348Y-94630954D02*
X170033681Y-94630954D01*
X169700348Y-94416668D02*
X169962252Y-94416668D01*
X169962252Y-94416668D02*
X170009872Y-94440478D01*
X170009872Y-94440478D02*
X170033681Y-94488097D01*
X170033681Y-94488097D02*
X170033681Y-94559525D01*
X170033681Y-94559525D02*
X170009872Y-94607144D01*
X170009872Y-94607144D02*
X169986062Y-94630954D01*
X170033681Y-94869049D02*
X169700348Y-94869049D01*
X169747967Y-94869049D02*
X169724157Y-94892859D01*
X169724157Y-94892859D02*
X169700348Y-94940478D01*
X169700348Y-94940478D02*
X169700348Y-95011906D01*
X169700348Y-95011906D02*
X169724157Y-95059525D01*
X169724157Y-95059525D02*
X169771776Y-95083335D01*
X169771776Y-95083335D02*
X170033681Y-95083335D01*
X169771776Y-95083335D02*
X169724157Y-95107144D01*
X169724157Y-95107144D02*
X169700348Y-95154763D01*
X169700348Y-95154763D02*
X169700348Y-95226192D01*
X169700348Y-95226192D02*
X169724157Y-95273811D01*
X169724157Y-95273811D02*
X169771776Y-95297621D01*
X169771776Y-95297621D02*
X170033681Y-95297621D01*
X169700348Y-95535716D02*
X170200348Y-95535716D01*
X169724157Y-95535716D02*
X169700348Y-95583335D01*
X169700348Y-95583335D02*
X169700348Y-95678573D01*
X169700348Y-95678573D02*
X169724157Y-95726192D01*
X169724157Y-95726192D02*
X169747967Y-95750002D01*
X169747967Y-95750002D02*
X169795586Y-95773811D01*
X169795586Y-95773811D02*
X169938443Y-95773811D01*
X169938443Y-95773811D02*
X169986062Y-95750002D01*
X169986062Y-95750002D02*
X170009872Y-95726192D01*
X170009872Y-95726192D02*
X170033681Y-95678573D01*
X170033681Y-95678573D02*
X170033681Y-95583335D01*
X170033681Y-95583335D02*
X170009872Y-95535716D01*
X170009872Y-96178573D02*
X170033681Y-96130954D01*
X170033681Y-96130954D02*
X170033681Y-96035716D01*
X170033681Y-96035716D02*
X170009872Y-95988097D01*
X170009872Y-95988097D02*
X169962252Y-95964288D01*
X169962252Y-95964288D02*
X169771776Y-95964288D01*
X169771776Y-95964288D02*
X169724157Y-95988097D01*
X169724157Y-95988097D02*
X169700348Y-96035716D01*
X169700348Y-96035716D02*
X169700348Y-96130954D01*
X169700348Y-96130954D02*
X169724157Y-96178573D01*
X169724157Y-96178573D02*
X169771776Y-96202383D01*
X169771776Y-96202383D02*
X169819395Y-96202383D01*
X169819395Y-96202383D02*
X169867014Y-95964288D01*
X170033681Y-96416668D02*
X169700348Y-96416668D01*
X169795586Y-96416668D02*
X169747967Y-96440478D01*
X169747967Y-96440478D02*
X169724157Y-96464287D01*
X169724157Y-96464287D02*
X169700348Y-96511906D01*
X169700348Y-96511906D02*
X169700348Y-96559525D01*
X169700348Y-97107144D02*
X170200348Y-97107144D01*
X169724157Y-97107144D02*
X169700348Y-97154763D01*
X169700348Y-97154763D02*
X169700348Y-97250001D01*
X169700348Y-97250001D02*
X169724157Y-97297620D01*
X169724157Y-97297620D02*
X169747967Y-97321430D01*
X169747967Y-97321430D02*
X169795586Y-97345239D01*
X169795586Y-97345239D02*
X169938443Y-97345239D01*
X169938443Y-97345239D02*
X169986062Y-97321430D01*
X169986062Y-97321430D02*
X170009872Y-97297620D01*
X170009872Y-97297620D02*
X170033681Y-97250001D01*
X170033681Y-97250001D02*
X170033681Y-97154763D01*
X170033681Y-97154763D02*
X170009872Y-97107144D01*
X170033681Y-97773811D02*
X169771776Y-97773811D01*
X169771776Y-97773811D02*
X169724157Y-97750001D01*
X169724157Y-97750001D02*
X169700348Y-97702382D01*
X169700348Y-97702382D02*
X169700348Y-97607144D01*
X169700348Y-97607144D02*
X169724157Y-97559525D01*
X170009872Y-97773811D02*
X170033681Y-97726192D01*
X170033681Y-97726192D02*
X170033681Y-97607144D01*
X170033681Y-97607144D02*
X170009872Y-97559525D01*
X170009872Y-97559525D02*
X169962252Y-97535716D01*
X169962252Y-97535716D02*
X169914633Y-97535716D01*
X169914633Y-97535716D02*
X169867014Y-97559525D01*
X169867014Y-97559525D02*
X169843205Y-97607144D01*
X169843205Y-97607144D02*
X169843205Y-97726192D01*
X169843205Y-97726192D02*
X169819395Y-97773811D01*
X170033681Y-98226192D02*
X169533681Y-98226192D01*
X170009872Y-98226192D02*
X170033681Y-98178573D01*
X170033681Y-98178573D02*
X170033681Y-98083335D01*
X170033681Y-98083335D02*
X170009872Y-98035716D01*
X170009872Y-98035716D02*
X169986062Y-98011906D01*
X169986062Y-98011906D02*
X169938443Y-97988097D01*
X169938443Y-97988097D02*
X169795586Y-97988097D01*
X169795586Y-97988097D02*
X169747967Y-98011906D01*
X169747967Y-98011906D02*
X169724157Y-98035716D01*
X169724157Y-98035716D02*
X169700348Y-98083335D01*
X169700348Y-98083335D02*
X169700348Y-98178573D01*
X169700348Y-98178573D02*
X169724157Y-98226192D01*
X170009872Y-98440478D02*
X170033681Y-98488097D01*
X170033681Y-98488097D02*
X170033681Y-98583335D01*
X170033681Y-98583335D02*
X170009872Y-98630954D01*
X170009872Y-98630954D02*
X169962252Y-98654763D01*
X169962252Y-98654763D02*
X169938443Y-98654763D01*
X169938443Y-98654763D02*
X169890824Y-98630954D01*
X169890824Y-98630954D02*
X169867014Y-98583335D01*
X169867014Y-98583335D02*
X169867014Y-98511906D01*
X169867014Y-98511906D02*
X169843205Y-98464287D01*
X169843205Y-98464287D02*
X169795586Y-98440478D01*
X169795586Y-98440478D02*
X169771776Y-98440478D01*
X169771776Y-98440478D02*
X169724157Y-98464287D01*
X169724157Y-98464287D02*
X169700348Y-98511906D01*
X169700348Y-98511906D02*
X169700348Y-98583335D01*
X169700348Y-98583335D02*
X169724157Y-98630954D01*
X170033681Y-99464287D02*
X169771776Y-99464287D01*
X169771776Y-99464287D02*
X169724157Y-99440477D01*
X169724157Y-99440477D02*
X169700348Y-99392858D01*
X169700348Y-99392858D02*
X169700348Y-99297620D01*
X169700348Y-99297620D02*
X169724157Y-99250001D01*
X170009872Y-99464287D02*
X170033681Y-99416668D01*
X170033681Y-99416668D02*
X170033681Y-99297620D01*
X170033681Y-99297620D02*
X170009872Y-99250001D01*
X170009872Y-99250001D02*
X169962252Y-99226192D01*
X169962252Y-99226192D02*
X169914633Y-99226192D01*
X169914633Y-99226192D02*
X169867014Y-99250001D01*
X169867014Y-99250001D02*
X169843205Y-99297620D01*
X169843205Y-99297620D02*
X169843205Y-99416668D01*
X169843205Y-99416668D02*
X169819395Y-99464287D01*
X169700348Y-99702382D02*
X170033681Y-99702382D01*
X169747967Y-99702382D02*
X169724157Y-99726192D01*
X169724157Y-99726192D02*
X169700348Y-99773811D01*
X169700348Y-99773811D02*
X169700348Y-99845239D01*
X169700348Y-99845239D02*
X169724157Y-99892858D01*
X169724157Y-99892858D02*
X169771776Y-99916668D01*
X169771776Y-99916668D02*
X170033681Y-99916668D01*
X170033681Y-100369049D02*
X169533681Y-100369049D01*
X170009872Y-100369049D02*
X170033681Y-100321430D01*
X170033681Y-100321430D02*
X170033681Y-100226192D01*
X170033681Y-100226192D02*
X170009872Y-100178573D01*
X170009872Y-100178573D02*
X169986062Y-100154763D01*
X169986062Y-100154763D02*
X169938443Y-100130954D01*
X169938443Y-100130954D02*
X169795586Y-100130954D01*
X169795586Y-100130954D02*
X169747967Y-100154763D01*
X169747967Y-100154763D02*
X169724157Y-100178573D01*
X169724157Y-100178573D02*
X169700348Y-100226192D01*
X169700348Y-100226192D02*
X169700348Y-100321430D01*
X169700348Y-100321430D02*
X169724157Y-100369049D01*
X169700348Y-100988096D02*
X170200348Y-100988096D01*
X169724157Y-100988096D02*
X169700348Y-101035715D01*
X169700348Y-101035715D02*
X169700348Y-101130953D01*
X169700348Y-101130953D02*
X169724157Y-101178572D01*
X169724157Y-101178572D02*
X169747967Y-101202382D01*
X169747967Y-101202382D02*
X169795586Y-101226191D01*
X169795586Y-101226191D02*
X169938443Y-101226191D01*
X169938443Y-101226191D02*
X169986062Y-101202382D01*
X169986062Y-101202382D02*
X170009872Y-101178572D01*
X170009872Y-101178572D02*
X170033681Y-101130953D01*
X170033681Y-101130953D02*
X170033681Y-101035715D01*
X170033681Y-101035715D02*
X170009872Y-100988096D01*
X170033681Y-101511906D02*
X170009872Y-101464287D01*
X170009872Y-101464287D02*
X169986062Y-101440477D01*
X169986062Y-101440477D02*
X169938443Y-101416668D01*
X169938443Y-101416668D02*
X169795586Y-101416668D01*
X169795586Y-101416668D02*
X169747967Y-101440477D01*
X169747967Y-101440477D02*
X169724157Y-101464287D01*
X169724157Y-101464287D02*
X169700348Y-101511906D01*
X169700348Y-101511906D02*
X169700348Y-101583334D01*
X169700348Y-101583334D02*
X169724157Y-101630953D01*
X169724157Y-101630953D02*
X169747967Y-101654763D01*
X169747967Y-101654763D02*
X169795586Y-101678572D01*
X169795586Y-101678572D02*
X169938443Y-101678572D01*
X169938443Y-101678572D02*
X169986062Y-101654763D01*
X169986062Y-101654763D02*
X170009872Y-101630953D01*
X170009872Y-101630953D02*
X170033681Y-101583334D01*
X170033681Y-101583334D02*
X170033681Y-101511906D01*
X169700348Y-101892858D02*
X170200348Y-101892858D01*
X169724157Y-101892858D02*
X169700348Y-101940477D01*
X169700348Y-101940477D02*
X169700348Y-102035715D01*
X169700348Y-102035715D02*
X169724157Y-102083334D01*
X169724157Y-102083334D02*
X169747967Y-102107144D01*
X169747967Y-102107144D02*
X169795586Y-102130953D01*
X169795586Y-102130953D02*
X169938443Y-102130953D01*
X169938443Y-102130953D02*
X169986062Y-102107144D01*
X169986062Y-102107144D02*
X170009872Y-102083334D01*
X170009872Y-102083334D02*
X170033681Y-102035715D01*
X170033681Y-102035715D02*
X170033681Y-101940477D01*
X170033681Y-101940477D02*
X170009872Y-101892858D01*
X169700348Y-102559525D02*
X170033681Y-102559525D01*
X169700348Y-102345239D02*
X169962252Y-102345239D01*
X169962252Y-102345239D02*
X170009872Y-102369049D01*
X170009872Y-102369049D02*
X170033681Y-102416668D01*
X170033681Y-102416668D02*
X170033681Y-102488096D01*
X170033681Y-102488096D02*
X170009872Y-102535715D01*
X170009872Y-102535715D02*
X169986062Y-102559525D01*
X170033681Y-102869049D02*
X170009872Y-102821430D01*
X170009872Y-102821430D02*
X169962252Y-102797620D01*
X169962252Y-102797620D02*
X169533681Y-102797620D01*
X170033681Y-103273811D02*
X169771776Y-103273811D01*
X169771776Y-103273811D02*
X169724157Y-103250001D01*
X169724157Y-103250001D02*
X169700348Y-103202382D01*
X169700348Y-103202382D02*
X169700348Y-103107144D01*
X169700348Y-103107144D02*
X169724157Y-103059525D01*
X170009872Y-103273811D02*
X170033681Y-103226192D01*
X170033681Y-103226192D02*
X170033681Y-103107144D01*
X170033681Y-103107144D02*
X170009872Y-103059525D01*
X170009872Y-103059525D02*
X169962252Y-103035716D01*
X169962252Y-103035716D02*
X169914633Y-103035716D01*
X169914633Y-103035716D02*
X169867014Y-103059525D01*
X169867014Y-103059525D02*
X169843205Y-103107144D01*
X169843205Y-103107144D02*
X169843205Y-103226192D01*
X169843205Y-103226192D02*
X169819395Y-103273811D01*
X169700348Y-103440478D02*
X169700348Y-103630954D01*
X169533681Y-103511906D02*
X169962252Y-103511906D01*
X169962252Y-103511906D02*
X170009872Y-103535716D01*
X170009872Y-103535716D02*
X170033681Y-103583335D01*
X170033681Y-103583335D02*
X170033681Y-103630954D01*
X170009872Y-103988096D02*
X170033681Y-103940477D01*
X170033681Y-103940477D02*
X170033681Y-103845239D01*
X170033681Y-103845239D02*
X170009872Y-103797620D01*
X170009872Y-103797620D02*
X169962252Y-103773811D01*
X169962252Y-103773811D02*
X169771776Y-103773811D01*
X169771776Y-103773811D02*
X169724157Y-103797620D01*
X169724157Y-103797620D02*
X169700348Y-103845239D01*
X169700348Y-103845239D02*
X169700348Y-103940477D01*
X169700348Y-103940477D02*
X169724157Y-103988096D01*
X169724157Y-103988096D02*
X169771776Y-104011906D01*
X169771776Y-104011906D02*
X169819395Y-104011906D01*
X169819395Y-104011906D02*
X169867014Y-103773811D01*
X170033681Y-104892857D02*
X169795586Y-104726191D01*
X170033681Y-104607143D02*
X169533681Y-104607143D01*
X169533681Y-104607143D02*
X169533681Y-104797619D01*
X169533681Y-104797619D02*
X169557491Y-104845238D01*
X169557491Y-104845238D02*
X169581300Y-104869048D01*
X169581300Y-104869048D02*
X169628919Y-104892857D01*
X169628919Y-104892857D02*
X169700348Y-104892857D01*
X169700348Y-104892857D02*
X169747967Y-104869048D01*
X169747967Y-104869048D02*
X169771776Y-104845238D01*
X169771776Y-104845238D02*
X169795586Y-104797619D01*
X169795586Y-104797619D02*
X169795586Y-104607143D01*
X170033681Y-105369048D02*
X170033681Y-105083334D01*
X170033681Y-105226191D02*
X169533681Y-105226191D01*
X169533681Y-105226191D02*
X169605110Y-105178572D01*
X169605110Y-105178572D02*
X169652729Y-105130953D01*
X169652729Y-105130953D02*
X169676538Y-105083334D01*
X170009872Y-105607143D02*
X170033681Y-105607143D01*
X170033681Y-105607143D02*
X170081300Y-105583333D01*
X170081300Y-105583333D02*
X170105110Y-105559524D01*
X170033681Y-106488094D02*
X169795586Y-106321428D01*
X170033681Y-106202380D02*
X169533681Y-106202380D01*
X169533681Y-106202380D02*
X169533681Y-106392856D01*
X169533681Y-106392856D02*
X169557491Y-106440475D01*
X169557491Y-106440475D02*
X169581300Y-106464285D01*
X169581300Y-106464285D02*
X169628919Y-106488094D01*
X169628919Y-106488094D02*
X169700348Y-106488094D01*
X169700348Y-106488094D02*
X169747967Y-106464285D01*
X169747967Y-106464285D02*
X169771776Y-106440475D01*
X169771776Y-106440475D02*
X169795586Y-106392856D01*
X169795586Y-106392856D02*
X169795586Y-106202380D01*
X169581300Y-106678571D02*
X169557491Y-106702380D01*
X169557491Y-106702380D02*
X169533681Y-106749999D01*
X169533681Y-106749999D02*
X169533681Y-106869047D01*
X169533681Y-106869047D02*
X169557491Y-106916666D01*
X169557491Y-106916666D02*
X169581300Y-106940475D01*
X169581300Y-106940475D02*
X169628919Y-106964285D01*
X169628919Y-106964285D02*
X169676538Y-106964285D01*
X169676538Y-106964285D02*
X169747967Y-106940475D01*
X169747967Y-106940475D02*
X170033681Y-106654761D01*
X170033681Y-106654761D02*
X170033681Y-106964285D01*
X170009872Y-107202380D02*
X170033681Y-107202380D01*
X170033681Y-107202380D02*
X170081300Y-107178570D01*
X170081300Y-107178570D02*
X170105110Y-107154761D01*
X170033681Y-108083331D02*
X169795586Y-107916665D01*
X170033681Y-107797617D02*
X169533681Y-107797617D01*
X169533681Y-107797617D02*
X169533681Y-107988093D01*
X169533681Y-107988093D02*
X169557491Y-108035712D01*
X169557491Y-108035712D02*
X169581300Y-108059522D01*
X169581300Y-108059522D02*
X169628919Y-108083331D01*
X169628919Y-108083331D02*
X169700348Y-108083331D01*
X169700348Y-108083331D02*
X169747967Y-108059522D01*
X169747967Y-108059522D02*
X169771776Y-108035712D01*
X169771776Y-108035712D02*
X169795586Y-107988093D01*
X169795586Y-107988093D02*
X169795586Y-107797617D01*
X169533681Y-108249998D02*
X169533681Y-108559522D01*
X169533681Y-108559522D02*
X169724157Y-108392855D01*
X169724157Y-108392855D02*
X169724157Y-108464284D01*
X169724157Y-108464284D02*
X169747967Y-108511903D01*
X169747967Y-108511903D02*
X169771776Y-108535712D01*
X169771776Y-108535712D02*
X169819395Y-108559522D01*
X169819395Y-108559522D02*
X169938443Y-108559522D01*
X169938443Y-108559522D02*
X169986062Y-108535712D01*
X169986062Y-108535712D02*
X170009872Y-108511903D01*
X170009872Y-108511903D02*
X170033681Y-108464284D01*
X170033681Y-108464284D02*
X170033681Y-108321427D01*
X170033681Y-108321427D02*
X170009872Y-108273808D01*
X170009872Y-108273808D02*
X169986062Y-108249998D01*
D11*
X166859580Y-104333333D02*
X166907200Y-104285714D01*
X166907200Y-104285714D02*
X166954819Y-104142857D01*
X166954819Y-104142857D02*
X166954819Y-104047619D01*
X166954819Y-104047619D02*
X166907200Y-103904762D01*
X166907200Y-103904762D02*
X166811961Y-103809524D01*
X166811961Y-103809524D02*
X166716723Y-103761905D01*
X166716723Y-103761905D02*
X166526247Y-103714286D01*
X166526247Y-103714286D02*
X166383390Y-103714286D01*
X166383390Y-103714286D02*
X166192914Y-103761905D01*
X166192914Y-103761905D02*
X166097676Y-103809524D01*
X166097676Y-103809524D02*
X166002438Y-103904762D01*
X166002438Y-103904762D02*
X165954819Y-104047619D01*
X165954819Y-104047619D02*
X165954819Y-104142857D01*
X165954819Y-104142857D02*
X166002438Y-104285714D01*
X166002438Y-104285714D02*
X166050057Y-104333333D01*
X165954819Y-104666667D02*
X165954819Y-105285714D01*
X165954819Y-105285714D02*
X166335771Y-104952381D01*
X166335771Y-104952381D02*
X166335771Y-105095238D01*
X166335771Y-105095238D02*
X166383390Y-105190476D01*
X166383390Y-105190476D02*
X166431009Y-105238095D01*
X166431009Y-105238095D02*
X166526247Y-105285714D01*
X166526247Y-105285714D02*
X166764342Y-105285714D01*
X166764342Y-105285714D02*
X166859580Y-105238095D01*
X166859580Y-105238095D02*
X166907200Y-105190476D01*
X166907200Y-105190476D02*
X166954819Y-105095238D01*
X166954819Y-105095238D02*
X166954819Y-104809524D01*
X166954819Y-104809524D02*
X166907200Y-104714286D01*
X166907200Y-104714286D02*
X166859580Y-104666667D01*
X162254819Y-100166666D02*
X162969104Y-100166666D01*
X162969104Y-100166666D02*
X163111961Y-100119047D01*
X163111961Y-100119047D02*
X163207200Y-100023809D01*
X163207200Y-100023809D02*
X163254819Y-99880952D01*
X163254819Y-99880952D02*
X163254819Y-99785714D01*
X163254819Y-100642857D02*
X162254819Y-100642857D01*
X162254819Y-100642857D02*
X162254819Y-101023809D01*
X162254819Y-101023809D02*
X162302438Y-101119047D01*
X162302438Y-101119047D02*
X162350057Y-101166666D01*
X162350057Y-101166666D02*
X162445295Y-101214285D01*
X162445295Y-101214285D02*
X162588152Y-101214285D01*
X162588152Y-101214285D02*
X162683390Y-101166666D01*
X162683390Y-101166666D02*
X162731009Y-101119047D01*
X162731009Y-101119047D02*
X162778628Y-101023809D01*
X162778628Y-101023809D02*
X162778628Y-100642857D01*
X162254819Y-101547619D02*
X162254819Y-102166666D01*
X162254819Y-102166666D02*
X162635771Y-101833333D01*
X162635771Y-101833333D02*
X162635771Y-101976190D01*
X162635771Y-101976190D02*
X162683390Y-102071428D01*
X162683390Y-102071428D02*
X162731009Y-102119047D01*
X162731009Y-102119047D02*
X162826247Y-102166666D01*
X162826247Y-102166666D02*
X163064342Y-102166666D01*
X163064342Y-102166666D02*
X163159580Y-102119047D01*
X163159580Y-102119047D02*
X163207200Y-102071428D01*
X163207200Y-102071428D02*
X163254819Y-101976190D01*
X163254819Y-101976190D02*
X163254819Y-101690476D01*
X163254819Y-101690476D02*
X163207200Y-101595238D01*
X163207200Y-101595238D02*
X163159580Y-101547619D01*
X147254819Y-100166666D02*
X147969104Y-100166666D01*
X147969104Y-100166666D02*
X148111961Y-100119047D01*
X148111961Y-100119047D02*
X148207200Y-100023809D01*
X148207200Y-100023809D02*
X148254819Y-99880952D01*
X148254819Y-99880952D02*
X148254819Y-99785714D01*
X148254819Y-100642857D02*
X147254819Y-100642857D01*
X147254819Y-100642857D02*
X147254819Y-101023809D01*
X147254819Y-101023809D02*
X147302438Y-101119047D01*
X147302438Y-101119047D02*
X147350057Y-101166666D01*
X147350057Y-101166666D02*
X147445295Y-101214285D01*
X147445295Y-101214285D02*
X147588152Y-101214285D01*
X147588152Y-101214285D02*
X147683390Y-101166666D01*
X147683390Y-101166666D02*
X147731009Y-101119047D01*
X147731009Y-101119047D02*
X147778628Y-101023809D01*
X147778628Y-101023809D02*
X147778628Y-100642857D01*
X147350057Y-101595238D02*
X147302438Y-101642857D01*
X147302438Y-101642857D02*
X147254819Y-101738095D01*
X147254819Y-101738095D02*
X147254819Y-101976190D01*
X147254819Y-101976190D02*
X147302438Y-102071428D01*
X147302438Y-102071428D02*
X147350057Y-102119047D01*
X147350057Y-102119047D02*
X147445295Y-102166666D01*
X147445295Y-102166666D02*
X147540533Y-102166666D01*
X147540533Y-102166666D02*
X147683390Y-102119047D01*
X147683390Y-102119047D02*
X148254819Y-101547619D01*
X148254819Y-101547619D02*
X148254819Y-102166666D01*
X132254819Y-100166666D02*
X132969104Y-100166666D01*
X132969104Y-100166666D02*
X133111961Y-100119047D01*
X133111961Y-100119047D02*
X133207200Y-100023809D01*
X133207200Y-100023809D02*
X133254819Y-99880952D01*
X133254819Y-99880952D02*
X133254819Y-99785714D01*
X133254819Y-100642857D02*
X132254819Y-100642857D01*
X132254819Y-100642857D02*
X132254819Y-101023809D01*
X132254819Y-101023809D02*
X132302438Y-101119047D01*
X132302438Y-101119047D02*
X132350057Y-101166666D01*
X132350057Y-101166666D02*
X132445295Y-101214285D01*
X132445295Y-101214285D02*
X132588152Y-101214285D01*
X132588152Y-101214285D02*
X132683390Y-101166666D01*
X132683390Y-101166666D02*
X132731009Y-101119047D01*
X132731009Y-101119047D02*
X132778628Y-101023809D01*
X132778628Y-101023809D02*
X132778628Y-100642857D01*
X133254819Y-102166666D02*
X133254819Y-101595238D01*
X133254819Y-101880952D02*
X132254819Y-101880952D01*
X132254819Y-101880952D02*
X132397676Y-101785714D01*
X132397676Y-101785714D02*
X132492914Y-101690476D01*
X132492914Y-101690476D02*
X132540533Y-101595238D01*
X132954819Y-94833333D02*
X132478628Y-94500000D01*
X132954819Y-94261905D02*
X131954819Y-94261905D01*
X131954819Y-94261905D02*
X131954819Y-94642857D01*
X131954819Y-94642857D02*
X132002438Y-94738095D01*
X132002438Y-94738095D02*
X132050057Y-94785714D01*
X132050057Y-94785714D02*
X132145295Y-94833333D01*
X132145295Y-94833333D02*
X132288152Y-94833333D01*
X132288152Y-94833333D02*
X132383390Y-94785714D01*
X132383390Y-94785714D02*
X132431009Y-94738095D01*
X132431009Y-94738095D02*
X132478628Y-94642857D01*
X132478628Y-94642857D02*
X132478628Y-94261905D01*
X132954819Y-95785714D02*
X132954819Y-95214286D01*
X132954819Y-95500000D02*
X131954819Y-95500000D01*
X131954819Y-95500000D02*
X132097676Y-95404762D01*
X132097676Y-95404762D02*
X132192914Y-95309524D01*
X132192914Y-95309524D02*
X132240533Y-95214286D01*
X165454819Y-104333333D02*
X164978628Y-104000000D01*
X165454819Y-103761905D02*
X164454819Y-103761905D01*
X164454819Y-103761905D02*
X164454819Y-104142857D01*
X164454819Y-104142857D02*
X164502438Y-104238095D01*
X164502438Y-104238095D02*
X164550057Y-104285714D01*
X164550057Y-104285714D02*
X164645295Y-104333333D01*
X164645295Y-104333333D02*
X164788152Y-104333333D01*
X164788152Y-104333333D02*
X164883390Y-104285714D01*
X164883390Y-104285714D02*
X164931009Y-104238095D01*
X164931009Y-104238095D02*
X164978628Y-104142857D01*
X164978628Y-104142857D02*
X164978628Y-103761905D01*
X165454819Y-104809524D02*
X165454819Y-105000000D01*
X165454819Y-105000000D02*
X165407200Y-105095238D01*
X165407200Y-105095238D02*
X165359580Y-105142857D01*
X165359580Y-105142857D02*
X165216723Y-105238095D01*
X165216723Y-105238095D02*
X165026247Y-105285714D01*
X165026247Y-105285714D02*
X164645295Y-105285714D01*
X164645295Y-105285714D02*
X164550057Y-105238095D01*
X164550057Y-105238095D02*
X164502438Y-105190476D01*
X164502438Y-105190476D02*
X164454819Y-105095238D01*
X164454819Y-105095238D02*
X164454819Y-104904762D01*
X164454819Y-104904762D02*
X164502438Y-104809524D01*
X164502438Y-104809524D02*
X164550057Y-104761905D01*
X164550057Y-104761905D02*
X164645295Y-104714286D01*
X164645295Y-104714286D02*
X164883390Y-104714286D01*
X164883390Y-104714286D02*
X164978628Y-104761905D01*
X164978628Y-104761905D02*
X165026247Y-104809524D01*
X165026247Y-104809524D02*
X165073866Y-104904762D01*
X165073866Y-104904762D02*
X165073866Y-105095238D01*
X165073866Y-105095238D02*
X165026247Y-105190476D01*
X165026247Y-105190476D02*
X164978628Y-105238095D01*
X164978628Y-105238095D02*
X164883390Y-105285714D01*
X159454819Y-104333333D02*
X158978628Y-104000000D01*
X159454819Y-103761905D02*
X158454819Y-103761905D01*
X158454819Y-103761905D02*
X158454819Y-104142857D01*
X158454819Y-104142857D02*
X158502438Y-104238095D01*
X158502438Y-104238095D02*
X158550057Y-104285714D01*
X158550057Y-104285714D02*
X158645295Y-104333333D01*
X158645295Y-104333333D02*
X158788152Y-104333333D01*
X158788152Y-104333333D02*
X158883390Y-104285714D01*
X158883390Y-104285714D02*
X158931009Y-104238095D01*
X158931009Y-104238095D02*
X158978628Y-104142857D01*
X158978628Y-104142857D02*
X158978628Y-103761905D01*
X158883390Y-104904762D02*
X158835771Y-104809524D01*
X158835771Y-104809524D02*
X158788152Y-104761905D01*
X158788152Y-104761905D02*
X158692914Y-104714286D01*
X158692914Y-104714286D02*
X158645295Y-104714286D01*
X158645295Y-104714286D02*
X158550057Y-104761905D01*
X158550057Y-104761905D02*
X158502438Y-104809524D01*
X158502438Y-104809524D02*
X158454819Y-104904762D01*
X158454819Y-104904762D02*
X158454819Y-105095238D01*
X158454819Y-105095238D02*
X158502438Y-105190476D01*
X158502438Y-105190476D02*
X158550057Y-105238095D01*
X158550057Y-105238095D02*
X158645295Y-105285714D01*
X158645295Y-105285714D02*
X158692914Y-105285714D01*
X158692914Y-105285714D02*
X158788152Y-105238095D01*
X158788152Y-105238095D02*
X158835771Y-105190476D01*
X158835771Y-105190476D02*
X158883390Y-105095238D01*
X158883390Y-105095238D02*
X158883390Y-104904762D01*
X158883390Y-104904762D02*
X158931009Y-104809524D01*
X158931009Y-104809524D02*
X158978628Y-104761905D01*
X158978628Y-104761905D02*
X159073866Y-104714286D01*
X159073866Y-104714286D02*
X159264342Y-104714286D01*
X159264342Y-104714286D02*
X159359580Y-104761905D01*
X159359580Y-104761905D02*
X159407200Y-104809524D01*
X159407200Y-104809524D02*
X159454819Y-104904762D01*
X159454819Y-104904762D02*
X159454819Y-105095238D01*
X159454819Y-105095238D02*
X159407200Y-105190476D01*
X159407200Y-105190476D02*
X159359580Y-105238095D01*
X159359580Y-105238095D02*
X159264342Y-105285714D01*
X159264342Y-105285714D02*
X159073866Y-105285714D01*
X159073866Y-105285714D02*
X158978628Y-105238095D01*
X158978628Y-105238095D02*
X158931009Y-105190476D01*
X158931009Y-105190476D02*
X158883390Y-105095238D01*
X150454819Y-104333333D02*
X149978628Y-104000000D01*
X150454819Y-103761905D02*
X149454819Y-103761905D01*
X149454819Y-103761905D02*
X149454819Y-104142857D01*
X149454819Y-104142857D02*
X149502438Y-104238095D01*
X149502438Y-104238095D02*
X149550057Y-104285714D01*
X149550057Y-104285714D02*
X149645295Y-104333333D01*
X149645295Y-104333333D02*
X149788152Y-104333333D01*
X149788152Y-104333333D02*
X149883390Y-104285714D01*
X149883390Y-104285714D02*
X149931009Y-104238095D01*
X149931009Y-104238095D02*
X149978628Y-104142857D01*
X149978628Y-104142857D02*
X149978628Y-103761905D01*
X149454819Y-104666667D02*
X149454819Y-105333333D01*
X149454819Y-105333333D02*
X150454819Y-104904762D01*
X144454819Y-104333333D02*
X143978628Y-104000000D01*
X144454819Y-103761905D02*
X143454819Y-103761905D01*
X143454819Y-103761905D02*
X143454819Y-104142857D01*
X143454819Y-104142857D02*
X143502438Y-104238095D01*
X143502438Y-104238095D02*
X143550057Y-104285714D01*
X143550057Y-104285714D02*
X143645295Y-104333333D01*
X143645295Y-104333333D02*
X143788152Y-104333333D01*
X143788152Y-104333333D02*
X143883390Y-104285714D01*
X143883390Y-104285714D02*
X143931009Y-104238095D01*
X143931009Y-104238095D02*
X143978628Y-104142857D01*
X143978628Y-104142857D02*
X143978628Y-103761905D01*
X143454819Y-105190476D02*
X143454819Y-105000000D01*
X143454819Y-105000000D02*
X143502438Y-104904762D01*
X143502438Y-104904762D02*
X143550057Y-104857143D01*
X143550057Y-104857143D02*
X143692914Y-104761905D01*
X143692914Y-104761905D02*
X143883390Y-104714286D01*
X143883390Y-104714286D02*
X144264342Y-104714286D01*
X144264342Y-104714286D02*
X144359580Y-104761905D01*
X144359580Y-104761905D02*
X144407200Y-104809524D01*
X144407200Y-104809524D02*
X144454819Y-104904762D01*
X144454819Y-104904762D02*
X144454819Y-105095238D01*
X144454819Y-105095238D02*
X144407200Y-105190476D01*
X144407200Y-105190476D02*
X144359580Y-105238095D01*
X144359580Y-105238095D02*
X144264342Y-105285714D01*
X144264342Y-105285714D02*
X144026247Y-105285714D01*
X144026247Y-105285714D02*
X143931009Y-105238095D01*
X143931009Y-105238095D02*
X143883390Y-105190476D01*
X143883390Y-105190476D02*
X143835771Y-105095238D01*
X143835771Y-105095238D02*
X143835771Y-104904762D01*
X143835771Y-104904762D02*
X143883390Y-104809524D01*
X143883390Y-104809524D02*
X143931009Y-104761905D01*
X143931009Y-104761905D02*
X144026247Y-104714286D01*
X135454819Y-104333333D02*
X134978628Y-104000000D01*
X135454819Y-103761905D02*
X134454819Y-103761905D01*
X134454819Y-103761905D02*
X134454819Y-104142857D01*
X134454819Y-104142857D02*
X134502438Y-104238095D01*
X134502438Y-104238095D02*
X134550057Y-104285714D01*
X134550057Y-104285714D02*
X134645295Y-104333333D01*
X134645295Y-104333333D02*
X134788152Y-104333333D01*
X134788152Y-104333333D02*
X134883390Y-104285714D01*
X134883390Y-104285714D02*
X134931009Y-104238095D01*
X134931009Y-104238095D02*
X134978628Y-104142857D01*
X134978628Y-104142857D02*
X134978628Y-103761905D01*
X134454819Y-105238095D02*
X134454819Y-104761905D01*
X134454819Y-104761905D02*
X134931009Y-104714286D01*
X134931009Y-104714286D02*
X134883390Y-104761905D01*
X134883390Y-104761905D02*
X134835771Y-104857143D01*
X134835771Y-104857143D02*
X134835771Y-105095238D01*
X134835771Y-105095238D02*
X134883390Y-105190476D01*
X134883390Y-105190476D02*
X134931009Y-105238095D01*
X134931009Y-105238095D02*
X135026247Y-105285714D01*
X135026247Y-105285714D02*
X135264342Y-105285714D01*
X135264342Y-105285714D02*
X135359580Y-105238095D01*
X135359580Y-105238095D02*
X135407200Y-105190476D01*
X135407200Y-105190476D02*
X135454819Y-105095238D01*
X135454819Y-105095238D02*
X135454819Y-104857143D01*
X135454819Y-104857143D02*
X135407200Y-104761905D01*
X135407200Y-104761905D02*
X135359580Y-104714286D01*
X129454819Y-104333333D02*
X128978628Y-104000000D01*
X129454819Y-103761905D02*
X128454819Y-103761905D01*
X128454819Y-103761905D02*
X128454819Y-104142857D01*
X128454819Y-104142857D02*
X128502438Y-104238095D01*
X128502438Y-104238095D02*
X128550057Y-104285714D01*
X128550057Y-104285714D02*
X128645295Y-104333333D01*
X128645295Y-104333333D02*
X128788152Y-104333333D01*
X128788152Y-104333333D02*
X128883390Y-104285714D01*
X128883390Y-104285714D02*
X128931009Y-104238095D01*
X128931009Y-104238095D02*
X128978628Y-104142857D01*
X128978628Y-104142857D02*
X128978628Y-103761905D01*
X128788152Y-105190476D02*
X129454819Y-105190476D01*
X128407200Y-104952381D02*
X129121485Y-104714286D01*
X129121485Y-104714286D02*
X129121485Y-105333333D01*
X163454819Y-94833333D02*
X162978628Y-94500000D01*
X163454819Y-94261905D02*
X162454819Y-94261905D01*
X162454819Y-94261905D02*
X162454819Y-94642857D01*
X162454819Y-94642857D02*
X162502438Y-94738095D01*
X162502438Y-94738095D02*
X162550057Y-94785714D01*
X162550057Y-94785714D02*
X162645295Y-94833333D01*
X162645295Y-94833333D02*
X162788152Y-94833333D01*
X162788152Y-94833333D02*
X162883390Y-94785714D01*
X162883390Y-94785714D02*
X162931009Y-94738095D01*
X162931009Y-94738095D02*
X162978628Y-94642857D01*
X162978628Y-94642857D02*
X162978628Y-94261905D01*
X162454819Y-95166667D02*
X162454819Y-95785714D01*
X162454819Y-95785714D02*
X162835771Y-95452381D01*
X162835771Y-95452381D02*
X162835771Y-95595238D01*
X162835771Y-95595238D02*
X162883390Y-95690476D01*
X162883390Y-95690476D02*
X162931009Y-95738095D01*
X162931009Y-95738095D02*
X163026247Y-95785714D01*
X163026247Y-95785714D02*
X163264342Y-95785714D01*
X163264342Y-95785714D02*
X163359580Y-95738095D01*
X163359580Y-95738095D02*
X163407200Y-95690476D01*
X163407200Y-95690476D02*
X163454819Y-95595238D01*
X163454819Y-95595238D02*
X163454819Y-95309524D01*
X163454819Y-95309524D02*
X163407200Y-95214286D01*
X163407200Y-95214286D02*
X163359580Y-95166667D01*
X148454819Y-94833333D02*
X147978628Y-94500000D01*
X148454819Y-94261905D02*
X147454819Y-94261905D01*
X147454819Y-94261905D02*
X147454819Y-94642857D01*
X147454819Y-94642857D02*
X147502438Y-94738095D01*
X147502438Y-94738095D02*
X147550057Y-94785714D01*
X147550057Y-94785714D02*
X147645295Y-94833333D01*
X147645295Y-94833333D02*
X147788152Y-94833333D01*
X147788152Y-94833333D02*
X147883390Y-94785714D01*
X147883390Y-94785714D02*
X147931009Y-94738095D01*
X147931009Y-94738095D02*
X147978628Y-94642857D01*
X147978628Y-94642857D02*
X147978628Y-94261905D01*
X147550057Y-95214286D02*
X147502438Y-95261905D01*
X147502438Y-95261905D02*
X147454819Y-95357143D01*
X147454819Y-95357143D02*
X147454819Y-95595238D01*
X147454819Y-95595238D02*
X147502438Y-95690476D01*
X147502438Y-95690476D02*
X147550057Y-95738095D01*
X147550057Y-95738095D02*
X147645295Y-95785714D01*
X147645295Y-95785714D02*
X147740533Y-95785714D01*
X147740533Y-95785714D02*
X147883390Y-95738095D01*
X147883390Y-95738095D02*
X148454819Y-95166667D01*
X148454819Y-95166667D02*
X148454819Y-95785714D01*
X151859580Y-104333333D02*
X151907200Y-104285714D01*
X151907200Y-104285714D02*
X151954819Y-104142857D01*
X151954819Y-104142857D02*
X151954819Y-104047619D01*
X151954819Y-104047619D02*
X151907200Y-103904762D01*
X151907200Y-103904762D02*
X151811961Y-103809524D01*
X151811961Y-103809524D02*
X151716723Y-103761905D01*
X151716723Y-103761905D02*
X151526247Y-103714286D01*
X151526247Y-103714286D02*
X151383390Y-103714286D01*
X151383390Y-103714286D02*
X151192914Y-103761905D01*
X151192914Y-103761905D02*
X151097676Y-103809524D01*
X151097676Y-103809524D02*
X151002438Y-103904762D01*
X151002438Y-103904762D02*
X150954819Y-104047619D01*
X150954819Y-104047619D02*
X150954819Y-104142857D01*
X150954819Y-104142857D02*
X151002438Y-104285714D01*
X151002438Y-104285714D02*
X151050057Y-104333333D01*
X151050057Y-104714286D02*
X151002438Y-104761905D01*
X151002438Y-104761905D02*
X150954819Y-104857143D01*
X150954819Y-104857143D02*
X150954819Y-105095238D01*
X150954819Y-105095238D02*
X151002438Y-105190476D01*
X151002438Y-105190476D02*
X151050057Y-105238095D01*
X151050057Y-105238095D02*
X151145295Y-105285714D01*
X151145295Y-105285714D02*
X151240533Y-105285714D01*
X151240533Y-105285714D02*
X151383390Y-105238095D01*
X151383390Y-105238095D02*
X151954819Y-104666667D01*
X151954819Y-104666667D02*
X151954819Y-105285714D01*
X136859580Y-104333333D02*
X136907200Y-104285714D01*
X136907200Y-104285714D02*
X136954819Y-104142857D01*
X136954819Y-104142857D02*
X136954819Y-104047619D01*
X136954819Y-104047619D02*
X136907200Y-103904762D01*
X136907200Y-103904762D02*
X136811961Y-103809524D01*
X136811961Y-103809524D02*
X136716723Y-103761905D01*
X136716723Y-103761905D02*
X136526247Y-103714286D01*
X136526247Y-103714286D02*
X136383390Y-103714286D01*
X136383390Y-103714286D02*
X136192914Y-103761905D01*
X136192914Y-103761905D02*
X136097676Y-103809524D01*
X136097676Y-103809524D02*
X136002438Y-103904762D01*
X136002438Y-103904762D02*
X135954819Y-104047619D01*
X135954819Y-104047619D02*
X135954819Y-104142857D01*
X135954819Y-104142857D02*
X136002438Y-104285714D01*
X136002438Y-104285714D02*
X136050057Y-104333333D01*
X136954819Y-105285714D02*
X136954819Y-104714286D01*
X136954819Y-105000000D02*
X135954819Y-105000000D01*
X135954819Y-105000000D02*
X136097676Y-104904762D01*
X136097676Y-104904762D02*
X136192914Y-104809524D01*
X136192914Y-104809524D02*
X136240533Y-104714286D01*
D12*
%TO.C,C3*%
X162990000Y-104353733D02*
X162990000Y-104646267D01*
X164010000Y-104353733D02*
X164010000Y-104646267D01*
%TO.C,JP3*%
X160000000Y-100300000D02*
G75*
G02*
X160700000Y-99600000I700000J0D01*
G01*
X161300000Y-99600000D02*
G75*
G02*
X162000000Y-100300000I0J-700000D01*
G01*
X160700000Y-102400000D02*
G75*
G02*
X160000000Y-101700000I-1J699999D01*
G01*
X162000000Y-101700000D02*
G75*
G02*
X161300000Y-102400000I-699999J-1D01*
G01*
X161300000Y-99600000D02*
X160700000Y-99600000D01*
X160000000Y-100300000D02*
X160000000Y-101700000D01*
X162000000Y-101700000D02*
X162000000Y-100300000D01*
X160700000Y-102400000D02*
X161300000Y-102400000D01*
%TO.C,JP2*%
X145700000Y-102400000D02*
X146300000Y-102400000D01*
X147000000Y-101700000D02*
X147000000Y-100300000D01*
X145000000Y-100300000D02*
X145000000Y-101700000D01*
X146300000Y-99600000D02*
X145700000Y-99600000D01*
X147000000Y-101700000D02*
G75*
G02*
X146300000Y-102400000I-699999J-1D01*
G01*
X145700000Y-102400000D02*
G75*
G02*
X145000000Y-101700000I-1J699999D01*
G01*
X146300000Y-99600000D02*
G75*
G02*
X147000000Y-100300000I0J-700000D01*
G01*
X145000000Y-100300000D02*
G75*
G02*
X145700000Y-99600000I700000J0D01*
G01*
%TO.C,JP1*%
X130000000Y-100300000D02*
G75*
G02*
X130700000Y-99600000I700000J0D01*
G01*
X131300000Y-99600000D02*
G75*
G02*
X132000000Y-100300000I0J-700000D01*
G01*
X130700000Y-102400000D02*
G75*
G02*
X130000000Y-101700000I-1J699999D01*
G01*
X132000000Y-101700000D02*
G75*
G02*
X131300000Y-102400000I-699999J-1D01*
G01*
X131300000Y-99600000D02*
X130700000Y-99600000D01*
X130000000Y-100300000D02*
X130000000Y-101700000D01*
X132000000Y-101700000D02*
X132000000Y-100300000D01*
X130700000Y-102400000D02*
X131300000Y-102400000D01*
%TO.C,R1*%
X131522500Y-94745276D02*
X131522500Y-95254724D01*
X130477500Y-94745276D02*
X130477500Y-95254724D01*
%TO.C,R9*%
X161477500Y-104245276D02*
X161477500Y-104754724D01*
X162522500Y-104245276D02*
X162522500Y-104754724D01*
%TO.C,R8*%
X159977500Y-104754724D02*
X159977500Y-104245276D01*
X161022500Y-104754724D02*
X161022500Y-104245276D01*
%TO.C,R7*%
X147522500Y-104245276D02*
X147522500Y-104754724D01*
X146477500Y-104245276D02*
X146477500Y-104754724D01*
%TO.C,R6*%
X146022500Y-104754724D02*
X146022500Y-104245276D01*
X144977500Y-104754724D02*
X144977500Y-104245276D01*
%TO.C,R5*%
X132522500Y-104245276D02*
X132522500Y-104754724D01*
X131477500Y-104245276D02*
X131477500Y-104754724D01*
%TO.C,R4*%
X129977500Y-104754724D02*
X129977500Y-104245276D01*
X131022500Y-104754724D02*
X131022500Y-104245276D01*
%TO.C,R3*%
X161522500Y-94745276D02*
X161522500Y-95254724D01*
X160477500Y-94745276D02*
X160477500Y-95254724D01*
%TO.C,R2*%
X146522500Y-94745276D02*
X146522500Y-95254724D01*
X145477500Y-94745276D02*
X145477500Y-95254724D01*
%TO.C,C2*%
X149010000Y-104353733D02*
X149010000Y-104646267D01*
X147990000Y-104353733D02*
X147990000Y-104646267D01*
%TO.C,C1*%
X134010000Y-104353733D02*
X134010000Y-104646267D01*
X132990000Y-104353733D02*
X132990000Y-104646267D01*
%TD*%
M02*
