%TF.GenerationSoftware,KiCad,Pcbnew,9.0.3*%
%TF.CreationDate,2026-05-23T15:46:17-04:00*%
%TF.ProjectId,home energy monitor,686f6d65-2065-46e6-9572-6779206d6f6e,0.1*%
%TF.SameCoordinates,Original*%
%TF.FileFunction,Soldermask,Bot*%
%TF.FilePolarity,Negative*%
%FSLAX46Y46*%
G04 Gerber Fmt 4.6, Leading zero omitted, Abs format (unit mm)*
G04 Created by KiCad (PCBNEW 9.0.3) date 2026-05-23 15:46:17*
%MOMM*%
%LPD*%
G01*
G04 APERTURE LIST*
G04 Aperture macros list*
%AMRoundRect*
0 Rectangle with rounded corners*
0 $1 Rounding radius*
0 $2 $3 $4 $5 $6 $7 $8 $9 X,Y pos of 4 corners*
0 Add a 4 corners polygon primitive as box body*
4,1,4,$2,$3,$4,$5,$6,$7,$8,$9,$2,$3,0*
0 Add four circle primitives for the rounded corners*
1,1,$1+$1,$2,$3*
1,1,$1+$1,$4,$5*
1,1,$1+$1,$6,$7*
1,1,$1+$1,$8,$9*
0 Add four rect primitives between the rounded corners*
20,1,$1+$1,$2,$3,$4,$5,0*
20,1,$1+$1,$4,$5,$6,$7,0*
20,1,$1+$1,$6,$7,$8,$9,0*
20,1,$1+$1,$8,$9,$2,$3,0*%
%AMFreePoly0*
4,1,23,0.000000,0.745722,0.065263,0.745722,0.191342,0.711940,0.304381,0.646677,0.396677,0.554381,0.461940,0.441342,0.495722,0.315263,0.495722,0.250000,0.500000,0.250000,0.500000,-0.250000,0.495722,-0.250000,0.495722,-0.315263,0.461940,-0.441342,0.396677,-0.554381,0.304381,-0.646677,0.191342,-0.711940,0.065263,-0.745722,0.000000,-0.745722,0.000000,-0.750000,-0.550000,-0.750000,
-0.550000,0.750000,0.000000,0.750000,0.000000,0.745722,0.000000,0.745722,$1*%
%AMFreePoly1*
4,1,23,0.550000,-0.750000,0.000000,-0.750000,0.000000,-0.745722,-0.065263,-0.745722,-0.191342,-0.711940,-0.304381,-0.646677,-0.396677,-0.554381,-0.461940,-0.441342,-0.495722,-0.315263,-0.495722,-0.250000,-0.500000,-0.250000,-0.500000,0.250000,-0.495722,0.250000,-0.495722,0.315263,-0.461940,0.441342,-0.396677,0.554381,-0.304381,0.646677,-0.191342,0.711940,-0.065263,0.745722,0.000000,0.745722,
0.000000,0.750000,0.550000,0.750000,0.550000,-0.750000,0.550000,-0.750000,$1*%
%AMFreePoly2*
4,1,23,0.500000,-0.750000,0.000000,-0.750000,0.000000,-0.745722,-0.065263,-0.745722,-0.191342,-0.711940,-0.304381,-0.646677,-0.396677,-0.554381,-0.461940,-0.441342,-0.495722,-0.315263,-0.495722,-0.250000,-0.500000,-0.250000,-0.500000,0.250000,-0.495722,0.250000,-0.495722,0.315263,-0.461940,0.441342,-0.396677,0.554381,-0.304381,0.646677,-0.191342,0.711940,-0.065263,0.745722,0.000000,0.745722,
0.000000,0.750000,0.500000,0.750000,0.500000,-0.750000,0.500000,-0.750000,$1*%
%AMFreePoly3*
4,1,23,0.000000,0.745722,0.065263,0.745722,0.191342,0.711940,0.304381,0.646677,0.396677,0.554381,0.461940,0.441342,0.495722,0.315263,0.495722,0.250000,0.500000,0.250000,0.500000,-0.250000,0.495722,-0.250000,0.495722,-0.315263,0.461940,-0.441342,0.396677,-0.554381,0.304381,-0.646677,0.191342,-0.711940,0.065263,-0.745722,0.000000,-0.745722,0.000000,-0.750000,-0.500000,-0.750000,
-0.500000,0.750000,0.000000,0.750000,0.000000,0.745722,0.000000,0.745722,$1*%
G04 Aperture macros list end*
%ADD10FreePoly0,180.000000*%
%ADD11R,1.000000X1.500000*%
%ADD12FreePoly1,180.000000*%
%ADD13FreePoly1,90.000000*%
%ADD14R,1.500000X1.000000*%
%ADD15FreePoly0,90.000000*%
%ADD16C,2.200000*%
%ADD17R,1.700000X1.700000*%
%ADD18C,1.700000*%
%ADD19FreePoly2,90.000000*%
%ADD20FreePoly3,90.000000*%
%ADD21RoundRect,0.237500X-0.237500X0.300000X-0.237500X-0.300000X0.237500X-0.300000X0.237500X0.300000X0*%
%ADD22RoundRect,0.237500X-0.237500X0.250000X-0.237500X-0.250000X0.237500X-0.250000X0.237500X0.250000X0*%
%ADD23RoundRect,0.237500X0.237500X-0.250000X0.237500X0.250000X-0.237500X0.250000X-0.237500X-0.250000X0*%
G04 APERTURE END LIST*
%TO.C,JP4*%
G36*
X138250000Y-97250000D02*
G01*
X136750000Y-97250000D01*
X136750000Y-98750000D01*
X138250000Y-98750000D01*
X138250000Y-97250000D01*
G37*
%TO.C,JP9*%
G36*
X164250000Y-98750000D02*
G01*
X162750000Y-98750000D01*
X162750000Y-97250000D01*
X164250000Y-97250000D01*
X164250000Y-98750000D01*
G37*
%TO.C,JP8*%
G36*
X168250000Y-97250000D02*
G01*
X166750000Y-97250000D01*
X166750000Y-98750000D01*
X168250000Y-98750000D01*
X168250000Y-97250000D01*
G37*
%TO.C,JP7*%
G36*
X149250000Y-98750000D02*
G01*
X147750000Y-98750000D01*
X147750000Y-97250000D01*
X149250000Y-97250000D01*
X149250000Y-98750000D01*
G37*
%TO.C,JP6*%
G36*
X153250000Y-97250000D02*
G01*
X151750000Y-97250000D01*
X151750000Y-98750000D01*
X153250000Y-98750000D01*
X153250000Y-97250000D01*
G37*
%TO.C,JP5*%
G36*
X134250000Y-98750000D02*
G01*
X132750000Y-98750000D01*
X132750000Y-97250000D01*
X134250000Y-97250000D01*
X134250000Y-98750000D01*
G37*
%TO.C,JP2*%
G36*
X146750000Y-101150000D02*
G01*
X145250000Y-101150000D01*
X145250000Y-100850000D01*
X146750000Y-100850000D01*
X146750000Y-101150000D01*
G37*
%TO.C,JP1*%
G36*
X131750000Y-101150000D02*
G01*
X130250000Y-101150000D01*
X130250000Y-100850000D01*
X131750000Y-100850000D01*
X131750000Y-101150000D01*
G37*
%TO.C,JP3*%
G36*
X161750000Y-101150000D02*
G01*
X160250000Y-101150000D01*
X160250000Y-100850000D01*
X161750000Y-100850000D01*
X161750000Y-101150000D01*
G37*
%TD*%
D10*
%TO.C,JP4*%
X136200000Y-98000000D03*
D11*
X137500000Y-98000000D03*
D12*
X138800000Y-98000000D03*
%TD*%
D13*
%TO.C,JP9*%
X163500000Y-99300000D03*
D14*
X163500000Y-98000000D03*
D15*
X163500000Y-96700000D03*
%TD*%
D10*
%TO.C,JP8*%
X166200000Y-98000000D03*
D11*
X167500000Y-98000000D03*
D12*
X168800000Y-98000000D03*
%TD*%
D13*
%TO.C,JP7*%
X148500000Y-99300000D03*
D14*
X148500000Y-98000000D03*
D15*
X148500000Y-96700000D03*
%TD*%
D12*
%TO.C,JP6*%
X153800000Y-98000000D03*
D11*
X152500000Y-98000000D03*
D10*
X151200000Y-98000000D03*
%TD*%
D13*
%TO.C,JP5*%
X133500000Y-99300000D03*
D14*
X133500000Y-98000000D03*
D15*
X133500000Y-96700000D03*
%TD*%
D16*
%TO.C,REF\u002A\u002A*%
X173000000Y-92000000D03*
%TD*%
D17*
%TO.C,J5*%
X142380000Y-107620000D03*
D18*
X142380000Y-105080000D03*
X142380000Y-102540000D03*
X142380000Y-100000000D03*
X142380000Y-97460000D03*
X142380000Y-94920000D03*
X142380000Y-92380000D03*
%TD*%
D16*
%TO.C,REF\u002A\u002A*%
X127000000Y-108000000D03*
%TD*%
%TO.C,REF\u002A\u002A*%
X173000000Y-108000000D03*
%TD*%
%TO.C,REF\u002A\u002A*%
X127000000Y-92000000D03*
%TD*%
D18*
%TO.C,CT1*%
X135000000Y-94500000D03*
X135000000Y-101500000D03*
%TD*%
%TO.C,CT3*%
X165000000Y-94500000D03*
X165000000Y-101500000D03*
%TD*%
%TO.C,CT2*%
X150000000Y-94500000D03*
X150000000Y-101500000D03*
%TD*%
D17*
%TO.C,J4*%
X157620000Y-107620000D03*
D18*
X157620000Y-105080000D03*
X157620000Y-102540000D03*
X157620000Y-100000000D03*
X157620000Y-97460000D03*
X157620000Y-94920000D03*
X157620000Y-92380000D03*
%TD*%
D19*
%TO.C,JP2*%
X146000000Y-101650000D03*
D20*
X146000000Y-100350000D03*
%TD*%
D21*
%TO.C,C3*%
X163500000Y-103637500D03*
X163500000Y-105362500D03*
%TD*%
D19*
%TO.C,JP1*%
X131000000Y-101650000D03*
D20*
X131000000Y-100350000D03*
%TD*%
D22*
%TO.C,R3*%
X161000000Y-94087500D03*
X161000000Y-95912500D03*
%TD*%
%TO.C,R2*%
X146000000Y-94087500D03*
X146000000Y-95912500D03*
%TD*%
%TO.C,R9*%
X162000000Y-103587500D03*
X162000000Y-105412500D03*
%TD*%
D19*
%TO.C,JP3*%
X161000000Y-101650000D03*
D20*
X161000000Y-100350000D03*
%TD*%
D23*
%TO.C,R4*%
X130500000Y-105412500D03*
X130500000Y-103587500D03*
%TD*%
D21*
%TO.C,C2*%
X148500000Y-103637500D03*
X148500000Y-105362500D03*
%TD*%
%TO.C,C1*%
X133500000Y-103637500D03*
X133500000Y-105362500D03*
%TD*%
D23*
%TO.C,R6*%
X145500000Y-105412500D03*
X145500000Y-103587500D03*
%TD*%
%TO.C,R8*%
X160500000Y-105412500D03*
X160500000Y-103587500D03*
%TD*%
D22*
%TO.C,R1*%
X131000000Y-94087500D03*
X131000000Y-95912500D03*
%TD*%
%TO.C,R7*%
X147000000Y-103587500D03*
X147000000Y-105412500D03*
%TD*%
%TO.C,R5*%
X132000000Y-103587500D03*
X132000000Y-105412500D03*
%TD*%
M02*
