%TF.GenerationSoftware,KiCad,Pcbnew,9.0.3*%
%TF.CreationDate,2026-05-23T15:46:17-04:00*%
%TF.ProjectId,home energy monitor,686f6d65-2065-46e6-9572-6779206d6f6e,0.1*%
%TF.SameCoordinates,Original*%
%TF.FileFunction,AssemblyDrawing,Top*%
%FSLAX46Y46*%
G04 Gerber Fmt 4.6, Leading zero omitted, Abs format (unit mm)*
G04 Created by KiCad (PCBNEW 9.0.3) date 2026-05-23 15:46:17*
%MOMM*%
%LPD*%
G01*
G04 APERTURE LIST*
%ADD10C,0.150000*%
%ADD11C,0.100000*%
G04 APERTURE END LIST*
D10*
X163880952Y-95604819D02*
X163880952Y-94604819D01*
X163880952Y-94604819D02*
X164214285Y-95319104D01*
X164214285Y-95319104D02*
X164547618Y-94604819D01*
X164547618Y-94604819D02*
X164547618Y-95604819D01*
X165166666Y-95604819D02*
X165071428Y-95557200D01*
X165071428Y-95557200D02*
X165023809Y-95509580D01*
X165023809Y-95509580D02*
X164976190Y-95414342D01*
X164976190Y-95414342D02*
X164976190Y-95128628D01*
X164976190Y-95128628D02*
X165023809Y-95033390D01*
X165023809Y-95033390D02*
X165071428Y-94985771D01*
X165071428Y-94985771D02*
X165166666Y-94938152D01*
X165166666Y-94938152D02*
X165309523Y-94938152D01*
X165309523Y-94938152D02*
X165404761Y-94985771D01*
X165404761Y-94985771D02*
X165452380Y-95033390D01*
X165452380Y-95033390D02*
X165499999Y-95128628D01*
X165499999Y-95128628D02*
X165499999Y-95414342D01*
X165499999Y-95414342D02*
X165452380Y-95509580D01*
X165452380Y-95509580D02*
X165404761Y-95557200D01*
X165404761Y-95557200D02*
X165309523Y-95604819D01*
X165309523Y-95604819D02*
X165166666Y-95604819D01*
X166357142Y-94938152D02*
X166357142Y-95604819D01*
X165928571Y-94938152D02*
X165928571Y-95461961D01*
X165928571Y-95461961D02*
X165976190Y-95557200D01*
X165976190Y-95557200D02*
X166071428Y-95604819D01*
X166071428Y-95604819D02*
X166214285Y-95604819D01*
X166214285Y-95604819D02*
X166309523Y-95557200D01*
X166309523Y-95557200D02*
X166357142Y-95509580D01*
X166833333Y-94938152D02*
X166833333Y-95604819D01*
X166833333Y-95033390D02*
X166880952Y-94985771D01*
X166880952Y-94985771D02*
X166976190Y-94938152D01*
X166976190Y-94938152D02*
X167119047Y-94938152D01*
X167119047Y-94938152D02*
X167214285Y-94985771D01*
X167214285Y-94985771D02*
X167261904Y-95081009D01*
X167261904Y-95081009D02*
X167261904Y-95604819D01*
X167595238Y-94938152D02*
X167976190Y-94938152D01*
X167738095Y-94604819D02*
X167738095Y-95461961D01*
X167738095Y-95461961D02*
X167785714Y-95557200D01*
X167785714Y-95557200D02*
X167880952Y-95604819D01*
X167880952Y-95604819D02*
X167976190Y-95604819D01*
X168309524Y-95604819D02*
X168309524Y-94938152D01*
X168309524Y-94604819D02*
X168261905Y-94652438D01*
X168261905Y-94652438D02*
X168309524Y-94700057D01*
X168309524Y-94700057D02*
X168357143Y-94652438D01*
X168357143Y-94652438D02*
X168309524Y-94604819D01*
X168309524Y-94604819D02*
X168309524Y-94700057D01*
X168785714Y-94938152D02*
X168785714Y-95604819D01*
X168785714Y-95033390D02*
X168833333Y-94985771D01*
X168833333Y-94985771D02*
X168928571Y-94938152D01*
X168928571Y-94938152D02*
X169071428Y-94938152D01*
X169071428Y-94938152D02*
X169166666Y-94985771D01*
X169166666Y-94985771D02*
X169214285Y-95081009D01*
X169214285Y-95081009D02*
X169214285Y-95604819D01*
X170119047Y-94938152D02*
X170119047Y-95747676D01*
X170119047Y-95747676D02*
X170071428Y-95842914D01*
X170071428Y-95842914D02*
X170023809Y-95890533D01*
X170023809Y-95890533D02*
X169928571Y-95938152D01*
X169928571Y-95938152D02*
X169785714Y-95938152D01*
X169785714Y-95938152D02*
X169690476Y-95890533D01*
X170119047Y-95557200D02*
X170023809Y-95604819D01*
X170023809Y-95604819D02*
X169833333Y-95604819D01*
X169833333Y-95604819D02*
X169738095Y-95557200D01*
X169738095Y-95557200D02*
X169690476Y-95509580D01*
X169690476Y-95509580D02*
X169642857Y-95414342D01*
X169642857Y-95414342D02*
X169642857Y-95128628D01*
X169642857Y-95128628D02*
X169690476Y-95033390D01*
X169690476Y-95033390D02*
X169738095Y-94985771D01*
X169738095Y-94985771D02*
X169833333Y-94938152D01*
X169833333Y-94938152D02*
X170023809Y-94938152D01*
X170023809Y-94938152D02*
X170119047Y-94985771D01*
X170595238Y-95604819D02*
X170595238Y-94604819D01*
X170595238Y-95081009D02*
X171166666Y-95081009D01*
X171166666Y-95604819D02*
X171166666Y-94604819D01*
X171785714Y-95604819D02*
X171690476Y-95557200D01*
X171690476Y-95557200D02*
X171642857Y-95509580D01*
X171642857Y-95509580D02*
X171595238Y-95414342D01*
X171595238Y-95414342D02*
X171595238Y-95128628D01*
X171595238Y-95128628D02*
X171642857Y-95033390D01*
X171642857Y-95033390D02*
X171690476Y-94985771D01*
X171690476Y-94985771D02*
X171785714Y-94938152D01*
X171785714Y-94938152D02*
X171928571Y-94938152D01*
X171928571Y-94938152D02*
X172023809Y-94985771D01*
X172023809Y-94985771D02*
X172071428Y-95033390D01*
X172071428Y-95033390D02*
X172119047Y-95128628D01*
X172119047Y-95128628D02*
X172119047Y-95414342D01*
X172119047Y-95414342D02*
X172071428Y-95509580D01*
X172071428Y-95509580D02*
X172023809Y-95557200D01*
X172023809Y-95557200D02*
X171928571Y-95604819D01*
X171928571Y-95604819D02*
X171785714Y-95604819D01*
X172690476Y-95604819D02*
X172595238Y-95557200D01*
X172595238Y-95557200D02*
X172547619Y-95461961D01*
X172547619Y-95461961D02*
X172547619Y-94604819D01*
X173452381Y-95557200D02*
X173357143Y-95604819D01*
X173357143Y-95604819D02*
X173166667Y-95604819D01*
X173166667Y-95604819D02*
X173071429Y-95557200D01*
X173071429Y-95557200D02*
X173023810Y-95461961D01*
X173023810Y-95461961D02*
X173023810Y-95081009D01*
X173023810Y-95081009D02*
X173071429Y-94985771D01*
X173071429Y-94985771D02*
X173166667Y-94938152D01*
X173166667Y-94938152D02*
X173357143Y-94938152D01*
X173357143Y-94938152D02*
X173452381Y-94985771D01*
X173452381Y-94985771D02*
X173500000Y-95081009D01*
X173500000Y-95081009D02*
X173500000Y-95176247D01*
X173500000Y-95176247D02*
X173023810Y-95271485D01*
X173690477Y-95700057D02*
X174452381Y-95700057D01*
X174642858Y-94700057D02*
X174690477Y-94652438D01*
X174690477Y-94652438D02*
X174785715Y-94604819D01*
X174785715Y-94604819D02*
X175023810Y-94604819D01*
X175023810Y-94604819D02*
X175119048Y-94652438D01*
X175119048Y-94652438D02*
X175166667Y-94700057D01*
X175166667Y-94700057D02*
X175214286Y-94795295D01*
X175214286Y-94795295D02*
X175214286Y-94890533D01*
X175214286Y-94890533D02*
X175166667Y-95033390D01*
X175166667Y-95033390D02*
X174595239Y-95604819D01*
X174595239Y-95604819D02*
X175214286Y-95604819D01*
X175642858Y-95509580D02*
X175690477Y-95557200D01*
X175690477Y-95557200D02*
X175642858Y-95604819D01*
X175642858Y-95604819D02*
X175595239Y-95557200D01*
X175595239Y-95557200D02*
X175642858Y-95509580D01*
X175642858Y-95509580D02*
X175642858Y-95604819D01*
X176071429Y-94700057D02*
X176119048Y-94652438D01*
X176119048Y-94652438D02*
X176214286Y-94604819D01*
X176214286Y-94604819D02*
X176452381Y-94604819D01*
X176452381Y-94604819D02*
X176547619Y-94652438D01*
X176547619Y-94652438D02*
X176595238Y-94700057D01*
X176595238Y-94700057D02*
X176642857Y-94795295D01*
X176642857Y-94795295D02*
X176642857Y-94890533D01*
X176642857Y-94890533D02*
X176595238Y-95033390D01*
X176595238Y-95033390D02*
X176023810Y-95604819D01*
X176023810Y-95604819D02*
X176642857Y-95604819D01*
X177071429Y-95604819D02*
X177071429Y-94938152D01*
X177071429Y-95033390D02*
X177119048Y-94985771D01*
X177119048Y-94985771D02*
X177214286Y-94938152D01*
X177214286Y-94938152D02*
X177357143Y-94938152D01*
X177357143Y-94938152D02*
X177452381Y-94985771D01*
X177452381Y-94985771D02*
X177500000Y-95081009D01*
X177500000Y-95081009D02*
X177500000Y-95604819D01*
X177500000Y-95081009D02*
X177547619Y-94985771D01*
X177547619Y-94985771D02*
X177642857Y-94938152D01*
X177642857Y-94938152D02*
X177785714Y-94938152D01*
X177785714Y-94938152D02*
X177880953Y-94985771D01*
X177880953Y-94985771D02*
X177928572Y-95081009D01*
X177928572Y-95081009D02*
X177928572Y-95604819D01*
X178404762Y-95604819D02*
X178404762Y-94938152D01*
X178404762Y-95033390D02*
X178452381Y-94985771D01*
X178452381Y-94985771D02*
X178547619Y-94938152D01*
X178547619Y-94938152D02*
X178690476Y-94938152D01*
X178690476Y-94938152D02*
X178785714Y-94985771D01*
X178785714Y-94985771D02*
X178833333Y-95081009D01*
X178833333Y-95081009D02*
X178833333Y-95604819D01*
X178833333Y-95081009D02*
X178880952Y-94985771D01*
X178880952Y-94985771D02*
X178976190Y-94938152D01*
X178976190Y-94938152D02*
X179119047Y-94938152D01*
X179119047Y-94938152D02*
X179214286Y-94985771D01*
X179214286Y-94985771D02*
X179261905Y-95081009D01*
X179261905Y-95081009D02*
X179261905Y-95604819D01*
X179500000Y-95700057D02*
X180261904Y-95700057D01*
X180500000Y-95604819D02*
X180500000Y-94604819D01*
X180500000Y-94604819D02*
X180833333Y-95319104D01*
X180833333Y-95319104D02*
X181166666Y-94604819D01*
X181166666Y-94604819D02*
X181166666Y-95604819D01*
X181595238Y-94700057D02*
X181642857Y-94652438D01*
X181642857Y-94652438D02*
X181738095Y-94604819D01*
X181738095Y-94604819D02*
X181976190Y-94604819D01*
X181976190Y-94604819D02*
X182071428Y-94652438D01*
X182071428Y-94652438D02*
X182119047Y-94700057D01*
X182119047Y-94700057D02*
X182166666Y-94795295D01*
X182166666Y-94795295D02*
X182166666Y-94890533D01*
X182166666Y-94890533D02*
X182119047Y-95033390D01*
X182119047Y-95033390D02*
X181547619Y-95604819D01*
X181547619Y-95604819D02*
X182166666Y-95604819D01*
X171666666Y-92454819D02*
X171333333Y-91978628D01*
X171095238Y-92454819D02*
X171095238Y-91454819D01*
X171095238Y-91454819D02*
X171476190Y-91454819D01*
X171476190Y-91454819D02*
X171571428Y-91502438D01*
X171571428Y-91502438D02*
X171619047Y-91550057D01*
X171619047Y-91550057D02*
X171666666Y-91645295D01*
X171666666Y-91645295D02*
X171666666Y-91788152D01*
X171666666Y-91788152D02*
X171619047Y-91883390D01*
X171619047Y-91883390D02*
X171571428Y-91931009D01*
X171571428Y-91931009D02*
X171476190Y-91978628D01*
X171476190Y-91978628D02*
X171095238Y-91978628D01*
X172095238Y-91931009D02*
X172428571Y-91931009D01*
X172571428Y-92454819D02*
X172095238Y-92454819D01*
X172095238Y-92454819D02*
X172095238Y-91454819D01*
X172095238Y-91454819D02*
X172571428Y-91454819D01*
X173333333Y-91931009D02*
X173000000Y-91931009D01*
X173000000Y-92454819D02*
X173000000Y-91454819D01*
X173000000Y-91454819D02*
X173476190Y-91454819D01*
X174000000Y-91454819D02*
X174000000Y-91692914D01*
X173761905Y-91597676D02*
X174000000Y-91692914D01*
X174000000Y-91692914D02*
X174238095Y-91597676D01*
X173857143Y-91883390D02*
X174000000Y-91692914D01*
X174000000Y-91692914D02*
X174142857Y-91883390D01*
X174761905Y-91454819D02*
X174761905Y-91692914D01*
X174523810Y-91597676D02*
X174761905Y-91692914D01*
X174761905Y-91692914D02*
X175000000Y-91597676D01*
X174619048Y-91883390D02*
X174761905Y-91692914D01*
X174761905Y-91692914D02*
X174904762Y-91883390D01*
X141834819Y-100333333D02*
X142549104Y-100333333D01*
X142549104Y-100333333D02*
X142691961Y-100380952D01*
X142691961Y-100380952D02*
X142787200Y-100476190D01*
X142787200Y-100476190D02*
X142834819Y-100619047D01*
X142834819Y-100619047D02*
X142834819Y-100714285D01*
X141834819Y-99380952D02*
X141834819Y-99857142D01*
X141834819Y-99857142D02*
X142311009Y-99904761D01*
X142311009Y-99904761D02*
X142263390Y-99857142D01*
X142263390Y-99857142D02*
X142215771Y-99761904D01*
X142215771Y-99761904D02*
X142215771Y-99523809D01*
X142215771Y-99523809D02*
X142263390Y-99428571D01*
X142263390Y-99428571D02*
X142311009Y-99380952D01*
X142311009Y-99380952D02*
X142406247Y-99333333D01*
X142406247Y-99333333D02*
X142644342Y-99333333D01*
X142644342Y-99333333D02*
X142739580Y-99380952D01*
X142739580Y-99380952D02*
X142787200Y-99428571D01*
X142787200Y-99428571D02*
X142834819Y-99523809D01*
X142834819Y-99523809D02*
X142834819Y-99761904D01*
X142834819Y-99761904D02*
X142787200Y-99857142D01*
X142787200Y-99857142D02*
X142739580Y-99904761D01*
X117880952Y-111604819D02*
X117880952Y-110604819D01*
X117880952Y-110604819D02*
X118214285Y-111319104D01*
X118214285Y-111319104D02*
X118547618Y-110604819D01*
X118547618Y-110604819D02*
X118547618Y-111604819D01*
X119166666Y-111604819D02*
X119071428Y-111557200D01*
X119071428Y-111557200D02*
X119023809Y-111509580D01*
X119023809Y-111509580D02*
X118976190Y-111414342D01*
X118976190Y-111414342D02*
X118976190Y-111128628D01*
X118976190Y-111128628D02*
X119023809Y-111033390D01*
X119023809Y-111033390D02*
X119071428Y-110985771D01*
X119071428Y-110985771D02*
X119166666Y-110938152D01*
X119166666Y-110938152D02*
X119309523Y-110938152D01*
X119309523Y-110938152D02*
X119404761Y-110985771D01*
X119404761Y-110985771D02*
X119452380Y-111033390D01*
X119452380Y-111033390D02*
X119499999Y-111128628D01*
X119499999Y-111128628D02*
X119499999Y-111414342D01*
X119499999Y-111414342D02*
X119452380Y-111509580D01*
X119452380Y-111509580D02*
X119404761Y-111557200D01*
X119404761Y-111557200D02*
X119309523Y-111604819D01*
X119309523Y-111604819D02*
X119166666Y-111604819D01*
X120357142Y-110938152D02*
X120357142Y-111604819D01*
X119928571Y-110938152D02*
X119928571Y-111461961D01*
X119928571Y-111461961D02*
X119976190Y-111557200D01*
X119976190Y-111557200D02*
X120071428Y-111604819D01*
X120071428Y-111604819D02*
X120214285Y-111604819D01*
X120214285Y-111604819D02*
X120309523Y-111557200D01*
X120309523Y-111557200D02*
X120357142Y-111509580D01*
X120833333Y-110938152D02*
X120833333Y-111604819D01*
X120833333Y-111033390D02*
X120880952Y-110985771D01*
X120880952Y-110985771D02*
X120976190Y-110938152D01*
X120976190Y-110938152D02*
X121119047Y-110938152D01*
X121119047Y-110938152D02*
X121214285Y-110985771D01*
X121214285Y-110985771D02*
X121261904Y-111081009D01*
X121261904Y-111081009D02*
X121261904Y-111604819D01*
X121595238Y-110938152D02*
X121976190Y-110938152D01*
X121738095Y-110604819D02*
X121738095Y-111461961D01*
X121738095Y-111461961D02*
X121785714Y-111557200D01*
X121785714Y-111557200D02*
X121880952Y-111604819D01*
X121880952Y-111604819D02*
X121976190Y-111604819D01*
X122309524Y-111604819D02*
X122309524Y-110938152D01*
X122309524Y-110604819D02*
X122261905Y-110652438D01*
X122261905Y-110652438D02*
X122309524Y-110700057D01*
X122309524Y-110700057D02*
X122357143Y-110652438D01*
X122357143Y-110652438D02*
X122309524Y-110604819D01*
X122309524Y-110604819D02*
X122309524Y-110700057D01*
X122785714Y-110938152D02*
X122785714Y-111604819D01*
X122785714Y-111033390D02*
X122833333Y-110985771D01*
X122833333Y-110985771D02*
X122928571Y-110938152D01*
X122928571Y-110938152D02*
X123071428Y-110938152D01*
X123071428Y-110938152D02*
X123166666Y-110985771D01*
X123166666Y-110985771D02*
X123214285Y-111081009D01*
X123214285Y-111081009D02*
X123214285Y-111604819D01*
X124119047Y-110938152D02*
X124119047Y-111747676D01*
X124119047Y-111747676D02*
X124071428Y-111842914D01*
X124071428Y-111842914D02*
X124023809Y-111890533D01*
X124023809Y-111890533D02*
X123928571Y-111938152D01*
X123928571Y-111938152D02*
X123785714Y-111938152D01*
X123785714Y-111938152D02*
X123690476Y-111890533D01*
X124119047Y-111557200D02*
X124023809Y-111604819D01*
X124023809Y-111604819D02*
X123833333Y-111604819D01*
X123833333Y-111604819D02*
X123738095Y-111557200D01*
X123738095Y-111557200D02*
X123690476Y-111509580D01*
X123690476Y-111509580D02*
X123642857Y-111414342D01*
X123642857Y-111414342D02*
X123642857Y-111128628D01*
X123642857Y-111128628D02*
X123690476Y-111033390D01*
X123690476Y-111033390D02*
X123738095Y-110985771D01*
X123738095Y-110985771D02*
X123833333Y-110938152D01*
X123833333Y-110938152D02*
X124023809Y-110938152D01*
X124023809Y-110938152D02*
X124119047Y-110985771D01*
X124595238Y-111604819D02*
X124595238Y-110604819D01*
X124595238Y-111081009D02*
X125166666Y-111081009D01*
X125166666Y-111604819D02*
X125166666Y-110604819D01*
X125785714Y-111604819D02*
X125690476Y-111557200D01*
X125690476Y-111557200D02*
X125642857Y-111509580D01*
X125642857Y-111509580D02*
X125595238Y-111414342D01*
X125595238Y-111414342D02*
X125595238Y-111128628D01*
X125595238Y-111128628D02*
X125642857Y-111033390D01*
X125642857Y-111033390D02*
X125690476Y-110985771D01*
X125690476Y-110985771D02*
X125785714Y-110938152D01*
X125785714Y-110938152D02*
X125928571Y-110938152D01*
X125928571Y-110938152D02*
X126023809Y-110985771D01*
X126023809Y-110985771D02*
X126071428Y-111033390D01*
X126071428Y-111033390D02*
X126119047Y-111128628D01*
X126119047Y-111128628D02*
X126119047Y-111414342D01*
X126119047Y-111414342D02*
X126071428Y-111509580D01*
X126071428Y-111509580D02*
X126023809Y-111557200D01*
X126023809Y-111557200D02*
X125928571Y-111604819D01*
X125928571Y-111604819D02*
X125785714Y-111604819D01*
X126690476Y-111604819D02*
X126595238Y-111557200D01*
X126595238Y-111557200D02*
X126547619Y-111461961D01*
X126547619Y-111461961D02*
X126547619Y-110604819D01*
X127452381Y-111557200D02*
X127357143Y-111604819D01*
X127357143Y-111604819D02*
X127166667Y-111604819D01*
X127166667Y-111604819D02*
X127071429Y-111557200D01*
X127071429Y-111557200D02*
X127023810Y-111461961D01*
X127023810Y-111461961D02*
X127023810Y-111081009D01*
X127023810Y-111081009D02*
X127071429Y-110985771D01*
X127071429Y-110985771D02*
X127166667Y-110938152D01*
X127166667Y-110938152D02*
X127357143Y-110938152D01*
X127357143Y-110938152D02*
X127452381Y-110985771D01*
X127452381Y-110985771D02*
X127500000Y-111081009D01*
X127500000Y-111081009D02*
X127500000Y-111176247D01*
X127500000Y-111176247D02*
X127023810Y-111271485D01*
X127690477Y-111700057D02*
X128452381Y-111700057D01*
X128642858Y-110700057D02*
X128690477Y-110652438D01*
X128690477Y-110652438D02*
X128785715Y-110604819D01*
X128785715Y-110604819D02*
X129023810Y-110604819D01*
X129023810Y-110604819D02*
X129119048Y-110652438D01*
X129119048Y-110652438D02*
X129166667Y-110700057D01*
X129166667Y-110700057D02*
X129214286Y-110795295D01*
X129214286Y-110795295D02*
X129214286Y-110890533D01*
X129214286Y-110890533D02*
X129166667Y-111033390D01*
X129166667Y-111033390D02*
X128595239Y-111604819D01*
X128595239Y-111604819D02*
X129214286Y-111604819D01*
X129642858Y-111509580D02*
X129690477Y-111557200D01*
X129690477Y-111557200D02*
X129642858Y-111604819D01*
X129642858Y-111604819D02*
X129595239Y-111557200D01*
X129595239Y-111557200D02*
X129642858Y-111509580D01*
X129642858Y-111509580D02*
X129642858Y-111604819D01*
X130071429Y-110700057D02*
X130119048Y-110652438D01*
X130119048Y-110652438D02*
X130214286Y-110604819D01*
X130214286Y-110604819D02*
X130452381Y-110604819D01*
X130452381Y-110604819D02*
X130547619Y-110652438D01*
X130547619Y-110652438D02*
X130595238Y-110700057D01*
X130595238Y-110700057D02*
X130642857Y-110795295D01*
X130642857Y-110795295D02*
X130642857Y-110890533D01*
X130642857Y-110890533D02*
X130595238Y-111033390D01*
X130595238Y-111033390D02*
X130023810Y-111604819D01*
X130023810Y-111604819D02*
X130642857Y-111604819D01*
X131071429Y-111604819D02*
X131071429Y-110938152D01*
X131071429Y-111033390D02*
X131119048Y-110985771D01*
X131119048Y-110985771D02*
X131214286Y-110938152D01*
X131214286Y-110938152D02*
X131357143Y-110938152D01*
X131357143Y-110938152D02*
X131452381Y-110985771D01*
X131452381Y-110985771D02*
X131500000Y-111081009D01*
X131500000Y-111081009D02*
X131500000Y-111604819D01*
X131500000Y-111081009D02*
X131547619Y-110985771D01*
X131547619Y-110985771D02*
X131642857Y-110938152D01*
X131642857Y-110938152D02*
X131785714Y-110938152D01*
X131785714Y-110938152D02*
X131880953Y-110985771D01*
X131880953Y-110985771D02*
X131928572Y-111081009D01*
X131928572Y-111081009D02*
X131928572Y-111604819D01*
X132404762Y-111604819D02*
X132404762Y-110938152D01*
X132404762Y-111033390D02*
X132452381Y-110985771D01*
X132452381Y-110985771D02*
X132547619Y-110938152D01*
X132547619Y-110938152D02*
X132690476Y-110938152D01*
X132690476Y-110938152D02*
X132785714Y-110985771D01*
X132785714Y-110985771D02*
X132833333Y-111081009D01*
X132833333Y-111081009D02*
X132833333Y-111604819D01*
X132833333Y-111081009D02*
X132880952Y-110985771D01*
X132880952Y-110985771D02*
X132976190Y-110938152D01*
X132976190Y-110938152D02*
X133119047Y-110938152D01*
X133119047Y-110938152D02*
X133214286Y-110985771D01*
X133214286Y-110985771D02*
X133261905Y-111081009D01*
X133261905Y-111081009D02*
X133261905Y-111604819D01*
X133500000Y-111700057D02*
X134261904Y-111700057D01*
X134500000Y-111604819D02*
X134500000Y-110604819D01*
X134500000Y-110604819D02*
X134833333Y-111319104D01*
X134833333Y-111319104D02*
X135166666Y-110604819D01*
X135166666Y-110604819D02*
X135166666Y-111604819D01*
X135595238Y-110700057D02*
X135642857Y-110652438D01*
X135642857Y-110652438D02*
X135738095Y-110604819D01*
X135738095Y-110604819D02*
X135976190Y-110604819D01*
X135976190Y-110604819D02*
X136071428Y-110652438D01*
X136071428Y-110652438D02*
X136119047Y-110700057D01*
X136119047Y-110700057D02*
X136166666Y-110795295D01*
X136166666Y-110795295D02*
X136166666Y-110890533D01*
X136166666Y-110890533D02*
X136119047Y-111033390D01*
X136119047Y-111033390D02*
X135547619Y-111604819D01*
X135547619Y-111604819D02*
X136166666Y-111604819D01*
X125666666Y-108454819D02*
X125333333Y-107978628D01*
X125095238Y-108454819D02*
X125095238Y-107454819D01*
X125095238Y-107454819D02*
X125476190Y-107454819D01*
X125476190Y-107454819D02*
X125571428Y-107502438D01*
X125571428Y-107502438D02*
X125619047Y-107550057D01*
X125619047Y-107550057D02*
X125666666Y-107645295D01*
X125666666Y-107645295D02*
X125666666Y-107788152D01*
X125666666Y-107788152D02*
X125619047Y-107883390D01*
X125619047Y-107883390D02*
X125571428Y-107931009D01*
X125571428Y-107931009D02*
X125476190Y-107978628D01*
X125476190Y-107978628D02*
X125095238Y-107978628D01*
X126095238Y-107931009D02*
X126428571Y-107931009D01*
X126571428Y-108454819D02*
X126095238Y-108454819D01*
X126095238Y-108454819D02*
X126095238Y-107454819D01*
X126095238Y-107454819D02*
X126571428Y-107454819D01*
X127333333Y-107931009D02*
X127000000Y-107931009D01*
X127000000Y-108454819D02*
X127000000Y-107454819D01*
X127000000Y-107454819D02*
X127476190Y-107454819D01*
X128000000Y-107454819D02*
X128000000Y-107692914D01*
X127761905Y-107597676D02*
X128000000Y-107692914D01*
X128000000Y-107692914D02*
X128238095Y-107597676D01*
X127857143Y-107883390D02*
X128000000Y-107692914D01*
X128000000Y-107692914D02*
X128142857Y-107883390D01*
X128761905Y-107454819D02*
X128761905Y-107692914D01*
X128523810Y-107597676D02*
X128761905Y-107692914D01*
X128761905Y-107692914D02*
X129000000Y-107597676D01*
X128619048Y-107883390D02*
X128761905Y-107692914D01*
X128761905Y-107692914D02*
X128904762Y-107883390D01*
X163880952Y-111604819D02*
X163880952Y-110604819D01*
X163880952Y-110604819D02*
X164214285Y-111319104D01*
X164214285Y-111319104D02*
X164547618Y-110604819D01*
X164547618Y-110604819D02*
X164547618Y-111604819D01*
X165166666Y-111604819D02*
X165071428Y-111557200D01*
X165071428Y-111557200D02*
X165023809Y-111509580D01*
X165023809Y-111509580D02*
X164976190Y-111414342D01*
X164976190Y-111414342D02*
X164976190Y-111128628D01*
X164976190Y-111128628D02*
X165023809Y-111033390D01*
X165023809Y-111033390D02*
X165071428Y-110985771D01*
X165071428Y-110985771D02*
X165166666Y-110938152D01*
X165166666Y-110938152D02*
X165309523Y-110938152D01*
X165309523Y-110938152D02*
X165404761Y-110985771D01*
X165404761Y-110985771D02*
X165452380Y-111033390D01*
X165452380Y-111033390D02*
X165499999Y-111128628D01*
X165499999Y-111128628D02*
X165499999Y-111414342D01*
X165499999Y-111414342D02*
X165452380Y-111509580D01*
X165452380Y-111509580D02*
X165404761Y-111557200D01*
X165404761Y-111557200D02*
X165309523Y-111604819D01*
X165309523Y-111604819D02*
X165166666Y-111604819D01*
X166357142Y-110938152D02*
X166357142Y-111604819D01*
X165928571Y-110938152D02*
X165928571Y-111461961D01*
X165928571Y-111461961D02*
X165976190Y-111557200D01*
X165976190Y-111557200D02*
X166071428Y-111604819D01*
X166071428Y-111604819D02*
X166214285Y-111604819D01*
X166214285Y-111604819D02*
X166309523Y-111557200D01*
X166309523Y-111557200D02*
X166357142Y-111509580D01*
X166833333Y-110938152D02*
X166833333Y-111604819D01*
X166833333Y-111033390D02*
X166880952Y-110985771D01*
X166880952Y-110985771D02*
X166976190Y-110938152D01*
X166976190Y-110938152D02*
X167119047Y-110938152D01*
X167119047Y-110938152D02*
X167214285Y-110985771D01*
X167214285Y-110985771D02*
X167261904Y-111081009D01*
X167261904Y-111081009D02*
X167261904Y-111604819D01*
X167595238Y-110938152D02*
X167976190Y-110938152D01*
X167738095Y-110604819D02*
X167738095Y-111461961D01*
X167738095Y-111461961D02*
X167785714Y-111557200D01*
X167785714Y-111557200D02*
X167880952Y-111604819D01*
X167880952Y-111604819D02*
X167976190Y-111604819D01*
X168309524Y-111604819D02*
X168309524Y-110938152D01*
X168309524Y-110604819D02*
X168261905Y-110652438D01*
X168261905Y-110652438D02*
X168309524Y-110700057D01*
X168309524Y-110700057D02*
X168357143Y-110652438D01*
X168357143Y-110652438D02*
X168309524Y-110604819D01*
X168309524Y-110604819D02*
X168309524Y-110700057D01*
X168785714Y-110938152D02*
X168785714Y-111604819D01*
X168785714Y-111033390D02*
X168833333Y-110985771D01*
X168833333Y-110985771D02*
X168928571Y-110938152D01*
X168928571Y-110938152D02*
X169071428Y-110938152D01*
X169071428Y-110938152D02*
X169166666Y-110985771D01*
X169166666Y-110985771D02*
X169214285Y-111081009D01*
X169214285Y-111081009D02*
X169214285Y-111604819D01*
X170119047Y-110938152D02*
X170119047Y-111747676D01*
X170119047Y-111747676D02*
X170071428Y-111842914D01*
X170071428Y-111842914D02*
X170023809Y-111890533D01*
X170023809Y-111890533D02*
X169928571Y-111938152D01*
X169928571Y-111938152D02*
X169785714Y-111938152D01*
X169785714Y-111938152D02*
X169690476Y-111890533D01*
X170119047Y-111557200D02*
X170023809Y-111604819D01*
X170023809Y-111604819D02*
X169833333Y-111604819D01*
X169833333Y-111604819D02*
X169738095Y-111557200D01*
X169738095Y-111557200D02*
X169690476Y-111509580D01*
X169690476Y-111509580D02*
X169642857Y-111414342D01*
X169642857Y-111414342D02*
X169642857Y-111128628D01*
X169642857Y-111128628D02*
X169690476Y-111033390D01*
X169690476Y-111033390D02*
X169738095Y-110985771D01*
X169738095Y-110985771D02*
X169833333Y-110938152D01*
X169833333Y-110938152D02*
X170023809Y-110938152D01*
X170023809Y-110938152D02*
X170119047Y-110985771D01*
X170595238Y-111604819D02*
X170595238Y-110604819D01*
X170595238Y-111081009D02*
X171166666Y-111081009D01*
X171166666Y-111604819D02*
X171166666Y-110604819D01*
X171785714Y-111604819D02*
X171690476Y-111557200D01*
X171690476Y-111557200D02*
X171642857Y-111509580D01*
X171642857Y-111509580D02*
X171595238Y-111414342D01*
X171595238Y-111414342D02*
X171595238Y-111128628D01*
X171595238Y-111128628D02*
X171642857Y-111033390D01*
X171642857Y-111033390D02*
X171690476Y-110985771D01*
X171690476Y-110985771D02*
X171785714Y-110938152D01*
X171785714Y-110938152D02*
X171928571Y-110938152D01*
X171928571Y-110938152D02*
X172023809Y-110985771D01*
X172023809Y-110985771D02*
X172071428Y-111033390D01*
X172071428Y-111033390D02*
X172119047Y-111128628D01*
X172119047Y-111128628D02*
X172119047Y-111414342D01*
X172119047Y-111414342D02*
X172071428Y-111509580D01*
X172071428Y-111509580D02*
X172023809Y-111557200D01*
X172023809Y-111557200D02*
X171928571Y-111604819D01*
X171928571Y-111604819D02*
X171785714Y-111604819D01*
X172690476Y-111604819D02*
X172595238Y-111557200D01*
X172595238Y-111557200D02*
X172547619Y-111461961D01*
X172547619Y-111461961D02*
X172547619Y-110604819D01*
X173452381Y-111557200D02*
X173357143Y-111604819D01*
X173357143Y-111604819D02*
X173166667Y-111604819D01*
X173166667Y-111604819D02*
X173071429Y-111557200D01*
X173071429Y-111557200D02*
X173023810Y-111461961D01*
X173023810Y-111461961D02*
X173023810Y-111081009D01*
X173023810Y-111081009D02*
X173071429Y-110985771D01*
X173071429Y-110985771D02*
X173166667Y-110938152D01*
X173166667Y-110938152D02*
X173357143Y-110938152D01*
X173357143Y-110938152D02*
X173452381Y-110985771D01*
X173452381Y-110985771D02*
X173500000Y-111081009D01*
X173500000Y-111081009D02*
X173500000Y-111176247D01*
X173500000Y-111176247D02*
X173023810Y-111271485D01*
X173690477Y-111700057D02*
X174452381Y-111700057D01*
X174642858Y-110700057D02*
X174690477Y-110652438D01*
X174690477Y-110652438D02*
X174785715Y-110604819D01*
X174785715Y-110604819D02*
X175023810Y-110604819D01*
X175023810Y-110604819D02*
X175119048Y-110652438D01*
X175119048Y-110652438D02*
X175166667Y-110700057D01*
X175166667Y-110700057D02*
X175214286Y-110795295D01*
X175214286Y-110795295D02*
X175214286Y-110890533D01*
X175214286Y-110890533D02*
X175166667Y-111033390D01*
X175166667Y-111033390D02*
X174595239Y-111604819D01*
X174595239Y-111604819D02*
X175214286Y-111604819D01*
X175642858Y-111509580D02*
X175690477Y-111557200D01*
X175690477Y-111557200D02*
X175642858Y-111604819D01*
X175642858Y-111604819D02*
X175595239Y-111557200D01*
X175595239Y-111557200D02*
X175642858Y-111509580D01*
X175642858Y-111509580D02*
X175642858Y-111604819D01*
X176071429Y-110700057D02*
X176119048Y-110652438D01*
X176119048Y-110652438D02*
X176214286Y-110604819D01*
X176214286Y-110604819D02*
X176452381Y-110604819D01*
X176452381Y-110604819D02*
X176547619Y-110652438D01*
X176547619Y-110652438D02*
X176595238Y-110700057D01*
X176595238Y-110700057D02*
X176642857Y-110795295D01*
X176642857Y-110795295D02*
X176642857Y-110890533D01*
X176642857Y-110890533D02*
X176595238Y-111033390D01*
X176595238Y-111033390D02*
X176023810Y-111604819D01*
X176023810Y-111604819D02*
X176642857Y-111604819D01*
X177071429Y-111604819D02*
X177071429Y-110938152D01*
X177071429Y-111033390D02*
X177119048Y-110985771D01*
X177119048Y-110985771D02*
X177214286Y-110938152D01*
X177214286Y-110938152D02*
X177357143Y-110938152D01*
X177357143Y-110938152D02*
X177452381Y-110985771D01*
X177452381Y-110985771D02*
X177500000Y-111081009D01*
X177500000Y-111081009D02*
X177500000Y-111604819D01*
X177500000Y-111081009D02*
X177547619Y-110985771D01*
X177547619Y-110985771D02*
X177642857Y-110938152D01*
X177642857Y-110938152D02*
X177785714Y-110938152D01*
X177785714Y-110938152D02*
X177880953Y-110985771D01*
X177880953Y-110985771D02*
X177928572Y-111081009D01*
X177928572Y-111081009D02*
X177928572Y-111604819D01*
X178404762Y-111604819D02*
X178404762Y-110938152D01*
X178404762Y-111033390D02*
X178452381Y-110985771D01*
X178452381Y-110985771D02*
X178547619Y-110938152D01*
X178547619Y-110938152D02*
X178690476Y-110938152D01*
X178690476Y-110938152D02*
X178785714Y-110985771D01*
X178785714Y-110985771D02*
X178833333Y-111081009D01*
X178833333Y-111081009D02*
X178833333Y-111604819D01*
X178833333Y-111081009D02*
X178880952Y-110985771D01*
X178880952Y-110985771D02*
X178976190Y-110938152D01*
X178976190Y-110938152D02*
X179119047Y-110938152D01*
X179119047Y-110938152D02*
X179214286Y-110985771D01*
X179214286Y-110985771D02*
X179261905Y-111081009D01*
X179261905Y-111081009D02*
X179261905Y-111604819D01*
X179500000Y-111700057D02*
X180261904Y-111700057D01*
X180500000Y-111604819D02*
X180500000Y-110604819D01*
X180500000Y-110604819D02*
X180833333Y-111319104D01*
X180833333Y-111319104D02*
X181166666Y-110604819D01*
X181166666Y-110604819D02*
X181166666Y-111604819D01*
X181595238Y-110700057D02*
X181642857Y-110652438D01*
X181642857Y-110652438D02*
X181738095Y-110604819D01*
X181738095Y-110604819D02*
X181976190Y-110604819D01*
X181976190Y-110604819D02*
X182071428Y-110652438D01*
X182071428Y-110652438D02*
X182119047Y-110700057D01*
X182119047Y-110700057D02*
X182166666Y-110795295D01*
X182166666Y-110795295D02*
X182166666Y-110890533D01*
X182166666Y-110890533D02*
X182119047Y-111033390D01*
X182119047Y-111033390D02*
X181547619Y-111604819D01*
X181547619Y-111604819D02*
X182166666Y-111604819D01*
X171666666Y-108454819D02*
X171333333Y-107978628D01*
X171095238Y-108454819D02*
X171095238Y-107454819D01*
X171095238Y-107454819D02*
X171476190Y-107454819D01*
X171476190Y-107454819D02*
X171571428Y-107502438D01*
X171571428Y-107502438D02*
X171619047Y-107550057D01*
X171619047Y-107550057D02*
X171666666Y-107645295D01*
X171666666Y-107645295D02*
X171666666Y-107788152D01*
X171666666Y-107788152D02*
X171619047Y-107883390D01*
X171619047Y-107883390D02*
X171571428Y-107931009D01*
X171571428Y-107931009D02*
X171476190Y-107978628D01*
X171476190Y-107978628D02*
X171095238Y-107978628D01*
X172095238Y-107931009D02*
X172428571Y-107931009D01*
X172571428Y-108454819D02*
X172095238Y-108454819D01*
X172095238Y-108454819D02*
X172095238Y-107454819D01*
X172095238Y-107454819D02*
X172571428Y-107454819D01*
X173333333Y-107931009D02*
X173000000Y-107931009D01*
X173000000Y-108454819D02*
X173000000Y-107454819D01*
X173000000Y-107454819D02*
X173476190Y-107454819D01*
X174000000Y-107454819D02*
X174000000Y-107692914D01*
X173761905Y-107597676D02*
X174000000Y-107692914D01*
X174000000Y-107692914D02*
X174238095Y-107597676D01*
X173857143Y-107883390D02*
X174000000Y-107692914D01*
X174000000Y-107692914D02*
X174142857Y-107883390D01*
X174761905Y-107454819D02*
X174761905Y-107692914D01*
X174523810Y-107597676D02*
X174761905Y-107692914D01*
X174761905Y-107692914D02*
X175000000Y-107597676D01*
X174619048Y-107883390D02*
X174761905Y-107692914D01*
X174761905Y-107692914D02*
X174904762Y-107883390D01*
X117880952Y-95604819D02*
X117880952Y-94604819D01*
X117880952Y-94604819D02*
X118214285Y-95319104D01*
X118214285Y-95319104D02*
X118547618Y-94604819D01*
X118547618Y-94604819D02*
X118547618Y-95604819D01*
X119166666Y-95604819D02*
X119071428Y-95557200D01*
X119071428Y-95557200D02*
X119023809Y-95509580D01*
X119023809Y-95509580D02*
X118976190Y-95414342D01*
X118976190Y-95414342D02*
X118976190Y-95128628D01*
X118976190Y-95128628D02*
X119023809Y-95033390D01*
X119023809Y-95033390D02*
X119071428Y-94985771D01*
X119071428Y-94985771D02*
X119166666Y-94938152D01*
X119166666Y-94938152D02*
X119309523Y-94938152D01*
X119309523Y-94938152D02*
X119404761Y-94985771D01*
X119404761Y-94985771D02*
X119452380Y-95033390D01*
X119452380Y-95033390D02*
X119499999Y-95128628D01*
X119499999Y-95128628D02*
X119499999Y-95414342D01*
X119499999Y-95414342D02*
X119452380Y-95509580D01*
X119452380Y-95509580D02*
X119404761Y-95557200D01*
X119404761Y-95557200D02*
X119309523Y-95604819D01*
X119309523Y-95604819D02*
X119166666Y-95604819D01*
X120357142Y-94938152D02*
X120357142Y-95604819D01*
X119928571Y-94938152D02*
X119928571Y-95461961D01*
X119928571Y-95461961D02*
X119976190Y-95557200D01*
X119976190Y-95557200D02*
X120071428Y-95604819D01*
X120071428Y-95604819D02*
X120214285Y-95604819D01*
X120214285Y-95604819D02*
X120309523Y-95557200D01*
X120309523Y-95557200D02*
X120357142Y-95509580D01*
X120833333Y-94938152D02*
X120833333Y-95604819D01*
X120833333Y-95033390D02*
X120880952Y-94985771D01*
X120880952Y-94985771D02*
X120976190Y-94938152D01*
X120976190Y-94938152D02*
X121119047Y-94938152D01*
X121119047Y-94938152D02*
X121214285Y-94985771D01*
X121214285Y-94985771D02*
X121261904Y-95081009D01*
X121261904Y-95081009D02*
X121261904Y-95604819D01*
X121595238Y-94938152D02*
X121976190Y-94938152D01*
X121738095Y-94604819D02*
X121738095Y-95461961D01*
X121738095Y-95461961D02*
X121785714Y-95557200D01*
X121785714Y-95557200D02*
X121880952Y-95604819D01*
X121880952Y-95604819D02*
X121976190Y-95604819D01*
X122309524Y-95604819D02*
X122309524Y-94938152D01*
X122309524Y-94604819D02*
X122261905Y-94652438D01*
X122261905Y-94652438D02*
X122309524Y-94700057D01*
X122309524Y-94700057D02*
X122357143Y-94652438D01*
X122357143Y-94652438D02*
X122309524Y-94604819D01*
X122309524Y-94604819D02*
X122309524Y-94700057D01*
X122785714Y-94938152D02*
X122785714Y-95604819D01*
X122785714Y-95033390D02*
X122833333Y-94985771D01*
X122833333Y-94985771D02*
X122928571Y-94938152D01*
X122928571Y-94938152D02*
X123071428Y-94938152D01*
X123071428Y-94938152D02*
X123166666Y-94985771D01*
X123166666Y-94985771D02*
X123214285Y-95081009D01*
X123214285Y-95081009D02*
X123214285Y-95604819D01*
X124119047Y-94938152D02*
X124119047Y-95747676D01*
X124119047Y-95747676D02*
X124071428Y-95842914D01*
X124071428Y-95842914D02*
X124023809Y-95890533D01*
X124023809Y-95890533D02*
X123928571Y-95938152D01*
X123928571Y-95938152D02*
X123785714Y-95938152D01*
X123785714Y-95938152D02*
X123690476Y-95890533D01*
X124119047Y-95557200D02*
X124023809Y-95604819D01*
X124023809Y-95604819D02*
X123833333Y-95604819D01*
X123833333Y-95604819D02*
X123738095Y-95557200D01*
X123738095Y-95557200D02*
X123690476Y-95509580D01*
X123690476Y-95509580D02*
X123642857Y-95414342D01*
X123642857Y-95414342D02*
X123642857Y-95128628D01*
X123642857Y-95128628D02*
X123690476Y-95033390D01*
X123690476Y-95033390D02*
X123738095Y-94985771D01*
X123738095Y-94985771D02*
X123833333Y-94938152D01*
X123833333Y-94938152D02*
X124023809Y-94938152D01*
X124023809Y-94938152D02*
X124119047Y-94985771D01*
X124595238Y-95604819D02*
X124595238Y-94604819D01*
X124595238Y-95081009D02*
X125166666Y-95081009D01*
X125166666Y-95604819D02*
X125166666Y-94604819D01*
X125785714Y-95604819D02*
X125690476Y-95557200D01*
X125690476Y-95557200D02*
X125642857Y-95509580D01*
X125642857Y-95509580D02*
X125595238Y-95414342D01*
X125595238Y-95414342D02*
X125595238Y-95128628D01*
X125595238Y-95128628D02*
X125642857Y-95033390D01*
X125642857Y-95033390D02*
X125690476Y-94985771D01*
X125690476Y-94985771D02*
X125785714Y-94938152D01*
X125785714Y-94938152D02*
X125928571Y-94938152D01*
X125928571Y-94938152D02*
X126023809Y-94985771D01*
X126023809Y-94985771D02*
X126071428Y-95033390D01*
X126071428Y-95033390D02*
X126119047Y-95128628D01*
X126119047Y-95128628D02*
X126119047Y-95414342D01*
X126119047Y-95414342D02*
X126071428Y-95509580D01*
X126071428Y-95509580D02*
X126023809Y-95557200D01*
X126023809Y-95557200D02*
X125928571Y-95604819D01*
X125928571Y-95604819D02*
X125785714Y-95604819D01*
X126690476Y-95604819D02*
X126595238Y-95557200D01*
X126595238Y-95557200D02*
X126547619Y-95461961D01*
X126547619Y-95461961D02*
X126547619Y-94604819D01*
X127452381Y-95557200D02*
X127357143Y-95604819D01*
X127357143Y-95604819D02*
X127166667Y-95604819D01*
X127166667Y-95604819D02*
X127071429Y-95557200D01*
X127071429Y-95557200D02*
X127023810Y-95461961D01*
X127023810Y-95461961D02*
X127023810Y-95081009D01*
X127023810Y-95081009D02*
X127071429Y-94985771D01*
X127071429Y-94985771D02*
X127166667Y-94938152D01*
X127166667Y-94938152D02*
X127357143Y-94938152D01*
X127357143Y-94938152D02*
X127452381Y-94985771D01*
X127452381Y-94985771D02*
X127500000Y-95081009D01*
X127500000Y-95081009D02*
X127500000Y-95176247D01*
X127500000Y-95176247D02*
X127023810Y-95271485D01*
X127690477Y-95700057D02*
X128452381Y-95700057D01*
X128642858Y-94700057D02*
X128690477Y-94652438D01*
X128690477Y-94652438D02*
X128785715Y-94604819D01*
X128785715Y-94604819D02*
X129023810Y-94604819D01*
X129023810Y-94604819D02*
X129119048Y-94652438D01*
X129119048Y-94652438D02*
X129166667Y-94700057D01*
X129166667Y-94700057D02*
X129214286Y-94795295D01*
X129214286Y-94795295D02*
X129214286Y-94890533D01*
X129214286Y-94890533D02*
X129166667Y-95033390D01*
X129166667Y-95033390D02*
X128595239Y-95604819D01*
X128595239Y-95604819D02*
X129214286Y-95604819D01*
X129642858Y-95509580D02*
X129690477Y-95557200D01*
X129690477Y-95557200D02*
X129642858Y-95604819D01*
X129642858Y-95604819D02*
X129595239Y-95557200D01*
X129595239Y-95557200D02*
X129642858Y-95509580D01*
X129642858Y-95509580D02*
X129642858Y-95604819D01*
X130071429Y-94700057D02*
X130119048Y-94652438D01*
X130119048Y-94652438D02*
X130214286Y-94604819D01*
X130214286Y-94604819D02*
X130452381Y-94604819D01*
X130452381Y-94604819D02*
X130547619Y-94652438D01*
X130547619Y-94652438D02*
X130595238Y-94700057D01*
X130595238Y-94700057D02*
X130642857Y-94795295D01*
X130642857Y-94795295D02*
X130642857Y-94890533D01*
X130642857Y-94890533D02*
X130595238Y-95033390D01*
X130595238Y-95033390D02*
X130023810Y-95604819D01*
X130023810Y-95604819D02*
X130642857Y-95604819D01*
X131071429Y-95604819D02*
X131071429Y-94938152D01*
X131071429Y-95033390D02*
X131119048Y-94985771D01*
X131119048Y-94985771D02*
X131214286Y-94938152D01*
X131214286Y-94938152D02*
X131357143Y-94938152D01*
X131357143Y-94938152D02*
X131452381Y-94985771D01*
X131452381Y-94985771D02*
X131500000Y-95081009D01*
X131500000Y-95081009D02*
X131500000Y-95604819D01*
X131500000Y-95081009D02*
X131547619Y-94985771D01*
X131547619Y-94985771D02*
X131642857Y-94938152D01*
X131642857Y-94938152D02*
X131785714Y-94938152D01*
X131785714Y-94938152D02*
X131880953Y-94985771D01*
X131880953Y-94985771D02*
X131928572Y-95081009D01*
X131928572Y-95081009D02*
X131928572Y-95604819D01*
X132404762Y-95604819D02*
X132404762Y-94938152D01*
X132404762Y-95033390D02*
X132452381Y-94985771D01*
X132452381Y-94985771D02*
X132547619Y-94938152D01*
X132547619Y-94938152D02*
X132690476Y-94938152D01*
X132690476Y-94938152D02*
X132785714Y-94985771D01*
X132785714Y-94985771D02*
X132833333Y-95081009D01*
X132833333Y-95081009D02*
X132833333Y-95604819D01*
X132833333Y-95081009D02*
X132880952Y-94985771D01*
X132880952Y-94985771D02*
X132976190Y-94938152D01*
X132976190Y-94938152D02*
X133119047Y-94938152D01*
X133119047Y-94938152D02*
X133214286Y-94985771D01*
X133214286Y-94985771D02*
X133261905Y-95081009D01*
X133261905Y-95081009D02*
X133261905Y-95604819D01*
X133500000Y-95700057D02*
X134261904Y-95700057D01*
X134500000Y-95604819D02*
X134500000Y-94604819D01*
X134500000Y-94604819D02*
X134833333Y-95319104D01*
X134833333Y-95319104D02*
X135166666Y-94604819D01*
X135166666Y-94604819D02*
X135166666Y-95604819D01*
X135595238Y-94700057D02*
X135642857Y-94652438D01*
X135642857Y-94652438D02*
X135738095Y-94604819D01*
X135738095Y-94604819D02*
X135976190Y-94604819D01*
X135976190Y-94604819D02*
X136071428Y-94652438D01*
X136071428Y-94652438D02*
X136119047Y-94700057D01*
X136119047Y-94700057D02*
X136166666Y-94795295D01*
X136166666Y-94795295D02*
X136166666Y-94890533D01*
X136166666Y-94890533D02*
X136119047Y-95033390D01*
X136119047Y-95033390D02*
X135547619Y-95604819D01*
X135547619Y-95604819D02*
X136166666Y-95604819D01*
X125666666Y-92454819D02*
X125333333Y-91978628D01*
X125095238Y-92454819D02*
X125095238Y-91454819D01*
X125095238Y-91454819D02*
X125476190Y-91454819D01*
X125476190Y-91454819D02*
X125571428Y-91502438D01*
X125571428Y-91502438D02*
X125619047Y-91550057D01*
X125619047Y-91550057D02*
X125666666Y-91645295D01*
X125666666Y-91645295D02*
X125666666Y-91788152D01*
X125666666Y-91788152D02*
X125619047Y-91883390D01*
X125619047Y-91883390D02*
X125571428Y-91931009D01*
X125571428Y-91931009D02*
X125476190Y-91978628D01*
X125476190Y-91978628D02*
X125095238Y-91978628D01*
X126095238Y-91931009D02*
X126428571Y-91931009D01*
X126571428Y-92454819D02*
X126095238Y-92454819D01*
X126095238Y-92454819D02*
X126095238Y-91454819D01*
X126095238Y-91454819D02*
X126571428Y-91454819D01*
X127333333Y-91931009D02*
X127000000Y-91931009D01*
X127000000Y-92454819D02*
X127000000Y-91454819D01*
X127000000Y-91454819D02*
X127476190Y-91454819D01*
X128000000Y-91454819D02*
X128000000Y-91692914D01*
X127761905Y-91597676D02*
X128000000Y-91692914D01*
X128000000Y-91692914D02*
X128238095Y-91597676D01*
X127857143Y-91883390D02*
X128000000Y-91692914D01*
X128000000Y-91692914D02*
X128142857Y-91883390D01*
X128761905Y-91454819D02*
X128761905Y-91692914D01*
X128523810Y-91597676D02*
X128761905Y-91692914D01*
X128761905Y-91692914D02*
X129000000Y-91597676D01*
X128619048Y-91883390D02*
X128761905Y-91692914D01*
X128761905Y-91692914D02*
X128904762Y-91883390D01*
X131023809Y-107519104D02*
X131499999Y-107519104D01*
X130928571Y-107804819D02*
X131261904Y-106804819D01*
X131261904Y-106804819D02*
X131595237Y-107804819D01*
X132357142Y-107138152D02*
X132357142Y-107804819D01*
X131928571Y-107138152D02*
X131928571Y-107661961D01*
X131928571Y-107661961D02*
X131976190Y-107757200D01*
X131976190Y-107757200D02*
X132071428Y-107804819D01*
X132071428Y-107804819D02*
X132214285Y-107804819D01*
X132214285Y-107804819D02*
X132309523Y-107757200D01*
X132309523Y-107757200D02*
X132357142Y-107709580D01*
X133261904Y-107804819D02*
X133261904Y-106804819D01*
X133261904Y-107757200D02*
X133166666Y-107804819D01*
X133166666Y-107804819D02*
X132976190Y-107804819D01*
X132976190Y-107804819D02*
X132880952Y-107757200D01*
X132880952Y-107757200D02*
X132833333Y-107709580D01*
X132833333Y-107709580D02*
X132785714Y-107614342D01*
X132785714Y-107614342D02*
X132785714Y-107328628D01*
X132785714Y-107328628D02*
X132833333Y-107233390D01*
X132833333Y-107233390D02*
X132880952Y-107185771D01*
X132880952Y-107185771D02*
X132976190Y-107138152D01*
X132976190Y-107138152D02*
X133166666Y-107138152D01*
X133166666Y-107138152D02*
X133261904Y-107185771D01*
X133738095Y-107804819D02*
X133738095Y-107138152D01*
X133738095Y-106804819D02*
X133690476Y-106852438D01*
X133690476Y-106852438D02*
X133738095Y-106900057D01*
X133738095Y-106900057D02*
X133785714Y-106852438D01*
X133785714Y-106852438D02*
X133738095Y-106804819D01*
X133738095Y-106804819D02*
X133738095Y-106900057D01*
X134357142Y-107804819D02*
X134261904Y-107757200D01*
X134261904Y-107757200D02*
X134214285Y-107709580D01*
X134214285Y-107709580D02*
X134166666Y-107614342D01*
X134166666Y-107614342D02*
X134166666Y-107328628D01*
X134166666Y-107328628D02*
X134214285Y-107233390D01*
X134214285Y-107233390D02*
X134261904Y-107185771D01*
X134261904Y-107185771D02*
X134357142Y-107138152D01*
X134357142Y-107138152D02*
X134499999Y-107138152D01*
X134499999Y-107138152D02*
X134595237Y-107185771D01*
X134595237Y-107185771D02*
X134642856Y-107233390D01*
X134642856Y-107233390D02*
X134690475Y-107328628D01*
X134690475Y-107328628D02*
X134690475Y-107614342D01*
X134690475Y-107614342D02*
X134642856Y-107709580D01*
X134642856Y-107709580D02*
X134595237Y-107757200D01*
X134595237Y-107757200D02*
X134499999Y-107804819D01*
X134499999Y-107804819D02*
X134357142Y-107804819D01*
X135404761Y-106804819D02*
X135404761Y-107519104D01*
X135404761Y-107519104D02*
X135357142Y-107661961D01*
X135357142Y-107661961D02*
X135261904Y-107757200D01*
X135261904Y-107757200D02*
X135119047Y-107804819D01*
X135119047Y-107804819D02*
X135023809Y-107804819D01*
X136309523Y-107804819D02*
X136309523Y-107281009D01*
X136309523Y-107281009D02*
X136261904Y-107185771D01*
X136261904Y-107185771D02*
X136166666Y-107138152D01*
X136166666Y-107138152D02*
X135976190Y-107138152D01*
X135976190Y-107138152D02*
X135880952Y-107185771D01*
X136309523Y-107757200D02*
X136214285Y-107804819D01*
X136214285Y-107804819D02*
X135976190Y-107804819D01*
X135976190Y-107804819D02*
X135880952Y-107757200D01*
X135880952Y-107757200D02*
X135833333Y-107661961D01*
X135833333Y-107661961D02*
X135833333Y-107566723D01*
X135833333Y-107566723D02*
X135880952Y-107471485D01*
X135880952Y-107471485D02*
X135976190Y-107423866D01*
X135976190Y-107423866D02*
X136214285Y-107423866D01*
X136214285Y-107423866D02*
X136309523Y-107376247D01*
X137214285Y-107757200D02*
X137119047Y-107804819D01*
X137119047Y-107804819D02*
X136928571Y-107804819D01*
X136928571Y-107804819D02*
X136833333Y-107757200D01*
X136833333Y-107757200D02*
X136785714Y-107709580D01*
X136785714Y-107709580D02*
X136738095Y-107614342D01*
X136738095Y-107614342D02*
X136738095Y-107328628D01*
X136738095Y-107328628D02*
X136785714Y-107233390D01*
X136785714Y-107233390D02*
X136833333Y-107185771D01*
X136833333Y-107185771D02*
X136928571Y-107138152D01*
X136928571Y-107138152D02*
X137119047Y-107138152D01*
X137119047Y-107138152D02*
X137214285Y-107185771D01*
X137642857Y-107804819D02*
X137642857Y-106804819D01*
X137738095Y-107423866D02*
X138023809Y-107804819D01*
X138023809Y-107138152D02*
X137642857Y-107519104D01*
X138357143Y-106804819D02*
X138976190Y-106804819D01*
X138976190Y-106804819D02*
X138642857Y-107185771D01*
X138642857Y-107185771D02*
X138785714Y-107185771D01*
X138785714Y-107185771D02*
X138880952Y-107233390D01*
X138880952Y-107233390D02*
X138928571Y-107281009D01*
X138928571Y-107281009D02*
X138976190Y-107376247D01*
X138976190Y-107376247D02*
X138976190Y-107614342D01*
X138976190Y-107614342D02*
X138928571Y-107709580D01*
X138928571Y-107709580D02*
X138880952Y-107757200D01*
X138880952Y-107757200D02*
X138785714Y-107804819D01*
X138785714Y-107804819D02*
X138500000Y-107804819D01*
X138500000Y-107804819D02*
X138404762Y-107757200D01*
X138404762Y-107757200D02*
X138357143Y-107709580D01*
X134452380Y-97359580D02*
X134404761Y-97407200D01*
X134404761Y-97407200D02*
X134261904Y-97454819D01*
X134261904Y-97454819D02*
X134166666Y-97454819D01*
X134166666Y-97454819D02*
X134023809Y-97407200D01*
X134023809Y-97407200D02*
X133928571Y-97311961D01*
X133928571Y-97311961D02*
X133880952Y-97216723D01*
X133880952Y-97216723D02*
X133833333Y-97026247D01*
X133833333Y-97026247D02*
X133833333Y-96883390D01*
X133833333Y-96883390D02*
X133880952Y-96692914D01*
X133880952Y-96692914D02*
X133928571Y-96597676D01*
X133928571Y-96597676D02*
X134023809Y-96502438D01*
X134023809Y-96502438D02*
X134166666Y-96454819D01*
X134166666Y-96454819D02*
X134261904Y-96454819D01*
X134261904Y-96454819D02*
X134404761Y-96502438D01*
X134404761Y-96502438D02*
X134452380Y-96550057D01*
X134738095Y-96454819D02*
X135309523Y-96454819D01*
X135023809Y-97454819D02*
X135023809Y-96454819D01*
X136166666Y-97454819D02*
X135595238Y-97454819D01*
X135880952Y-97454819D02*
X135880952Y-96454819D01*
X135880952Y-96454819D02*
X135785714Y-96597676D01*
X135785714Y-96597676D02*
X135690476Y-96692914D01*
X135690476Y-96692914D02*
X135595238Y-96740533D01*
X161023809Y-107519104D02*
X161499999Y-107519104D01*
X160928571Y-107804819D02*
X161261904Y-106804819D01*
X161261904Y-106804819D02*
X161595237Y-107804819D01*
X162357142Y-107138152D02*
X162357142Y-107804819D01*
X161928571Y-107138152D02*
X161928571Y-107661961D01*
X161928571Y-107661961D02*
X161976190Y-107757200D01*
X161976190Y-107757200D02*
X162071428Y-107804819D01*
X162071428Y-107804819D02*
X162214285Y-107804819D01*
X162214285Y-107804819D02*
X162309523Y-107757200D01*
X162309523Y-107757200D02*
X162357142Y-107709580D01*
X163261904Y-107804819D02*
X163261904Y-106804819D01*
X163261904Y-107757200D02*
X163166666Y-107804819D01*
X163166666Y-107804819D02*
X162976190Y-107804819D01*
X162976190Y-107804819D02*
X162880952Y-107757200D01*
X162880952Y-107757200D02*
X162833333Y-107709580D01*
X162833333Y-107709580D02*
X162785714Y-107614342D01*
X162785714Y-107614342D02*
X162785714Y-107328628D01*
X162785714Y-107328628D02*
X162833333Y-107233390D01*
X162833333Y-107233390D02*
X162880952Y-107185771D01*
X162880952Y-107185771D02*
X162976190Y-107138152D01*
X162976190Y-107138152D02*
X163166666Y-107138152D01*
X163166666Y-107138152D02*
X163261904Y-107185771D01*
X163738095Y-107804819D02*
X163738095Y-107138152D01*
X163738095Y-106804819D02*
X163690476Y-106852438D01*
X163690476Y-106852438D02*
X163738095Y-106900057D01*
X163738095Y-106900057D02*
X163785714Y-106852438D01*
X163785714Y-106852438D02*
X163738095Y-106804819D01*
X163738095Y-106804819D02*
X163738095Y-106900057D01*
X164357142Y-107804819D02*
X164261904Y-107757200D01*
X164261904Y-107757200D02*
X164214285Y-107709580D01*
X164214285Y-107709580D02*
X164166666Y-107614342D01*
X164166666Y-107614342D02*
X164166666Y-107328628D01*
X164166666Y-107328628D02*
X164214285Y-107233390D01*
X164214285Y-107233390D02*
X164261904Y-107185771D01*
X164261904Y-107185771D02*
X164357142Y-107138152D01*
X164357142Y-107138152D02*
X164499999Y-107138152D01*
X164499999Y-107138152D02*
X164595237Y-107185771D01*
X164595237Y-107185771D02*
X164642856Y-107233390D01*
X164642856Y-107233390D02*
X164690475Y-107328628D01*
X164690475Y-107328628D02*
X164690475Y-107614342D01*
X164690475Y-107614342D02*
X164642856Y-107709580D01*
X164642856Y-107709580D02*
X164595237Y-107757200D01*
X164595237Y-107757200D02*
X164499999Y-107804819D01*
X164499999Y-107804819D02*
X164357142Y-107804819D01*
X165404761Y-106804819D02*
X165404761Y-107519104D01*
X165404761Y-107519104D02*
X165357142Y-107661961D01*
X165357142Y-107661961D02*
X165261904Y-107757200D01*
X165261904Y-107757200D02*
X165119047Y-107804819D01*
X165119047Y-107804819D02*
X165023809Y-107804819D01*
X166309523Y-107804819D02*
X166309523Y-107281009D01*
X166309523Y-107281009D02*
X166261904Y-107185771D01*
X166261904Y-107185771D02*
X166166666Y-107138152D01*
X166166666Y-107138152D02*
X165976190Y-107138152D01*
X165976190Y-107138152D02*
X165880952Y-107185771D01*
X166309523Y-107757200D02*
X166214285Y-107804819D01*
X166214285Y-107804819D02*
X165976190Y-107804819D01*
X165976190Y-107804819D02*
X165880952Y-107757200D01*
X165880952Y-107757200D02*
X165833333Y-107661961D01*
X165833333Y-107661961D02*
X165833333Y-107566723D01*
X165833333Y-107566723D02*
X165880952Y-107471485D01*
X165880952Y-107471485D02*
X165976190Y-107423866D01*
X165976190Y-107423866D02*
X166214285Y-107423866D01*
X166214285Y-107423866D02*
X166309523Y-107376247D01*
X167214285Y-107757200D02*
X167119047Y-107804819D01*
X167119047Y-107804819D02*
X166928571Y-107804819D01*
X166928571Y-107804819D02*
X166833333Y-107757200D01*
X166833333Y-107757200D02*
X166785714Y-107709580D01*
X166785714Y-107709580D02*
X166738095Y-107614342D01*
X166738095Y-107614342D02*
X166738095Y-107328628D01*
X166738095Y-107328628D02*
X166785714Y-107233390D01*
X166785714Y-107233390D02*
X166833333Y-107185771D01*
X166833333Y-107185771D02*
X166928571Y-107138152D01*
X166928571Y-107138152D02*
X167119047Y-107138152D01*
X167119047Y-107138152D02*
X167214285Y-107185771D01*
X167642857Y-107804819D02*
X167642857Y-106804819D01*
X167738095Y-107423866D02*
X168023809Y-107804819D01*
X168023809Y-107138152D02*
X167642857Y-107519104D01*
X168357143Y-106804819D02*
X168976190Y-106804819D01*
X168976190Y-106804819D02*
X168642857Y-107185771D01*
X168642857Y-107185771D02*
X168785714Y-107185771D01*
X168785714Y-107185771D02*
X168880952Y-107233390D01*
X168880952Y-107233390D02*
X168928571Y-107281009D01*
X168928571Y-107281009D02*
X168976190Y-107376247D01*
X168976190Y-107376247D02*
X168976190Y-107614342D01*
X168976190Y-107614342D02*
X168928571Y-107709580D01*
X168928571Y-107709580D02*
X168880952Y-107757200D01*
X168880952Y-107757200D02*
X168785714Y-107804819D01*
X168785714Y-107804819D02*
X168500000Y-107804819D01*
X168500000Y-107804819D02*
X168404762Y-107757200D01*
X168404762Y-107757200D02*
X168357143Y-107709580D01*
X164452380Y-97359580D02*
X164404761Y-97407200D01*
X164404761Y-97407200D02*
X164261904Y-97454819D01*
X164261904Y-97454819D02*
X164166666Y-97454819D01*
X164166666Y-97454819D02*
X164023809Y-97407200D01*
X164023809Y-97407200D02*
X163928571Y-97311961D01*
X163928571Y-97311961D02*
X163880952Y-97216723D01*
X163880952Y-97216723D02*
X163833333Y-97026247D01*
X163833333Y-97026247D02*
X163833333Y-96883390D01*
X163833333Y-96883390D02*
X163880952Y-96692914D01*
X163880952Y-96692914D02*
X163928571Y-96597676D01*
X163928571Y-96597676D02*
X164023809Y-96502438D01*
X164023809Y-96502438D02*
X164166666Y-96454819D01*
X164166666Y-96454819D02*
X164261904Y-96454819D01*
X164261904Y-96454819D02*
X164404761Y-96502438D01*
X164404761Y-96502438D02*
X164452380Y-96550057D01*
X164738095Y-96454819D02*
X165309523Y-96454819D01*
X165023809Y-97454819D02*
X165023809Y-96454819D01*
X165547619Y-96454819D02*
X166166666Y-96454819D01*
X166166666Y-96454819D02*
X165833333Y-96835771D01*
X165833333Y-96835771D02*
X165976190Y-96835771D01*
X165976190Y-96835771D02*
X166071428Y-96883390D01*
X166071428Y-96883390D02*
X166119047Y-96931009D01*
X166119047Y-96931009D02*
X166166666Y-97026247D01*
X166166666Y-97026247D02*
X166166666Y-97264342D01*
X166166666Y-97264342D02*
X166119047Y-97359580D01*
X166119047Y-97359580D02*
X166071428Y-97407200D01*
X166071428Y-97407200D02*
X165976190Y-97454819D01*
X165976190Y-97454819D02*
X165690476Y-97454819D01*
X165690476Y-97454819D02*
X165595238Y-97407200D01*
X165595238Y-97407200D02*
X165547619Y-97359580D01*
X146023809Y-107519104D02*
X146499999Y-107519104D01*
X145928571Y-107804819D02*
X146261904Y-106804819D01*
X146261904Y-106804819D02*
X146595237Y-107804819D01*
X147357142Y-107138152D02*
X147357142Y-107804819D01*
X146928571Y-107138152D02*
X146928571Y-107661961D01*
X146928571Y-107661961D02*
X146976190Y-107757200D01*
X146976190Y-107757200D02*
X147071428Y-107804819D01*
X147071428Y-107804819D02*
X147214285Y-107804819D01*
X147214285Y-107804819D02*
X147309523Y-107757200D01*
X147309523Y-107757200D02*
X147357142Y-107709580D01*
X148261904Y-107804819D02*
X148261904Y-106804819D01*
X148261904Y-107757200D02*
X148166666Y-107804819D01*
X148166666Y-107804819D02*
X147976190Y-107804819D01*
X147976190Y-107804819D02*
X147880952Y-107757200D01*
X147880952Y-107757200D02*
X147833333Y-107709580D01*
X147833333Y-107709580D02*
X147785714Y-107614342D01*
X147785714Y-107614342D02*
X147785714Y-107328628D01*
X147785714Y-107328628D02*
X147833333Y-107233390D01*
X147833333Y-107233390D02*
X147880952Y-107185771D01*
X147880952Y-107185771D02*
X147976190Y-107138152D01*
X147976190Y-107138152D02*
X148166666Y-107138152D01*
X148166666Y-107138152D02*
X148261904Y-107185771D01*
X148738095Y-107804819D02*
X148738095Y-107138152D01*
X148738095Y-106804819D02*
X148690476Y-106852438D01*
X148690476Y-106852438D02*
X148738095Y-106900057D01*
X148738095Y-106900057D02*
X148785714Y-106852438D01*
X148785714Y-106852438D02*
X148738095Y-106804819D01*
X148738095Y-106804819D02*
X148738095Y-106900057D01*
X149357142Y-107804819D02*
X149261904Y-107757200D01*
X149261904Y-107757200D02*
X149214285Y-107709580D01*
X149214285Y-107709580D02*
X149166666Y-107614342D01*
X149166666Y-107614342D02*
X149166666Y-107328628D01*
X149166666Y-107328628D02*
X149214285Y-107233390D01*
X149214285Y-107233390D02*
X149261904Y-107185771D01*
X149261904Y-107185771D02*
X149357142Y-107138152D01*
X149357142Y-107138152D02*
X149499999Y-107138152D01*
X149499999Y-107138152D02*
X149595237Y-107185771D01*
X149595237Y-107185771D02*
X149642856Y-107233390D01*
X149642856Y-107233390D02*
X149690475Y-107328628D01*
X149690475Y-107328628D02*
X149690475Y-107614342D01*
X149690475Y-107614342D02*
X149642856Y-107709580D01*
X149642856Y-107709580D02*
X149595237Y-107757200D01*
X149595237Y-107757200D02*
X149499999Y-107804819D01*
X149499999Y-107804819D02*
X149357142Y-107804819D01*
X150404761Y-106804819D02*
X150404761Y-107519104D01*
X150404761Y-107519104D02*
X150357142Y-107661961D01*
X150357142Y-107661961D02*
X150261904Y-107757200D01*
X150261904Y-107757200D02*
X150119047Y-107804819D01*
X150119047Y-107804819D02*
X150023809Y-107804819D01*
X151309523Y-107804819D02*
X151309523Y-107281009D01*
X151309523Y-107281009D02*
X151261904Y-107185771D01*
X151261904Y-107185771D02*
X151166666Y-107138152D01*
X151166666Y-107138152D02*
X150976190Y-107138152D01*
X150976190Y-107138152D02*
X150880952Y-107185771D01*
X151309523Y-107757200D02*
X151214285Y-107804819D01*
X151214285Y-107804819D02*
X150976190Y-107804819D01*
X150976190Y-107804819D02*
X150880952Y-107757200D01*
X150880952Y-107757200D02*
X150833333Y-107661961D01*
X150833333Y-107661961D02*
X150833333Y-107566723D01*
X150833333Y-107566723D02*
X150880952Y-107471485D01*
X150880952Y-107471485D02*
X150976190Y-107423866D01*
X150976190Y-107423866D02*
X151214285Y-107423866D01*
X151214285Y-107423866D02*
X151309523Y-107376247D01*
X152214285Y-107757200D02*
X152119047Y-107804819D01*
X152119047Y-107804819D02*
X151928571Y-107804819D01*
X151928571Y-107804819D02*
X151833333Y-107757200D01*
X151833333Y-107757200D02*
X151785714Y-107709580D01*
X151785714Y-107709580D02*
X151738095Y-107614342D01*
X151738095Y-107614342D02*
X151738095Y-107328628D01*
X151738095Y-107328628D02*
X151785714Y-107233390D01*
X151785714Y-107233390D02*
X151833333Y-107185771D01*
X151833333Y-107185771D02*
X151928571Y-107138152D01*
X151928571Y-107138152D02*
X152119047Y-107138152D01*
X152119047Y-107138152D02*
X152214285Y-107185771D01*
X152642857Y-107804819D02*
X152642857Y-106804819D01*
X152738095Y-107423866D02*
X153023809Y-107804819D01*
X153023809Y-107138152D02*
X152642857Y-107519104D01*
X153357143Y-106804819D02*
X153976190Y-106804819D01*
X153976190Y-106804819D02*
X153642857Y-107185771D01*
X153642857Y-107185771D02*
X153785714Y-107185771D01*
X153785714Y-107185771D02*
X153880952Y-107233390D01*
X153880952Y-107233390D02*
X153928571Y-107281009D01*
X153928571Y-107281009D02*
X153976190Y-107376247D01*
X153976190Y-107376247D02*
X153976190Y-107614342D01*
X153976190Y-107614342D02*
X153928571Y-107709580D01*
X153928571Y-107709580D02*
X153880952Y-107757200D01*
X153880952Y-107757200D02*
X153785714Y-107804819D01*
X153785714Y-107804819D02*
X153500000Y-107804819D01*
X153500000Y-107804819D02*
X153404762Y-107757200D01*
X153404762Y-107757200D02*
X153357143Y-107709580D01*
X149452380Y-97359580D02*
X149404761Y-97407200D01*
X149404761Y-97407200D02*
X149261904Y-97454819D01*
X149261904Y-97454819D02*
X149166666Y-97454819D01*
X149166666Y-97454819D02*
X149023809Y-97407200D01*
X149023809Y-97407200D02*
X148928571Y-97311961D01*
X148928571Y-97311961D02*
X148880952Y-97216723D01*
X148880952Y-97216723D02*
X148833333Y-97026247D01*
X148833333Y-97026247D02*
X148833333Y-96883390D01*
X148833333Y-96883390D02*
X148880952Y-96692914D01*
X148880952Y-96692914D02*
X148928571Y-96597676D01*
X148928571Y-96597676D02*
X149023809Y-96502438D01*
X149023809Y-96502438D02*
X149166666Y-96454819D01*
X149166666Y-96454819D02*
X149261904Y-96454819D01*
X149261904Y-96454819D02*
X149404761Y-96502438D01*
X149404761Y-96502438D02*
X149452380Y-96550057D01*
X149738095Y-96454819D02*
X150309523Y-96454819D01*
X150023809Y-97454819D02*
X150023809Y-96454819D01*
X150595238Y-96550057D02*
X150642857Y-96502438D01*
X150642857Y-96502438D02*
X150738095Y-96454819D01*
X150738095Y-96454819D02*
X150976190Y-96454819D01*
X150976190Y-96454819D02*
X151071428Y-96502438D01*
X151071428Y-96502438D02*
X151119047Y-96550057D01*
X151119047Y-96550057D02*
X151166666Y-96645295D01*
X151166666Y-96645295D02*
X151166666Y-96740533D01*
X151166666Y-96740533D02*
X151119047Y-96883390D01*
X151119047Y-96883390D02*
X150547619Y-97454819D01*
X150547619Y-97454819D02*
X151166666Y-97454819D01*
X157074819Y-100333333D02*
X157789104Y-100333333D01*
X157789104Y-100333333D02*
X157931961Y-100380952D01*
X157931961Y-100380952D02*
X158027200Y-100476190D01*
X158027200Y-100476190D02*
X158074819Y-100619047D01*
X158074819Y-100619047D02*
X158074819Y-100714285D01*
X157408152Y-99428571D02*
X158074819Y-99428571D01*
X157027200Y-99666666D02*
X157741485Y-99904761D01*
X157741485Y-99904761D02*
X157741485Y-99285714D01*
D11*
%TO.C,J5*%
X141110000Y-91110000D02*
X143650000Y-91110000D01*
X141110000Y-108255000D02*
X141110000Y-91110000D01*
X141745000Y-108890000D02*
X141110000Y-108255000D01*
X143650000Y-91110000D02*
X143650000Y-108890000D01*
X143650000Y-108890000D02*
X141745000Y-108890000D01*
%TO.C,CT1*%
X132000000Y-91000000D02*
X132500000Y-91000000D01*
X132000000Y-105500000D02*
X132000000Y-91000000D01*
X132500000Y-88500000D02*
X137500000Y-88500000D01*
X132500000Y-91000000D02*
X132500000Y-88500000D01*
X137500000Y-88500000D02*
X137500000Y-91000000D01*
X137500000Y-91000000D02*
X138000000Y-91000000D01*
X138000000Y-91000000D02*
X138000000Y-105500000D01*
X138000000Y-105500000D02*
X132000000Y-105500000D01*
%TO.C,CT3*%
X162000000Y-91000000D02*
X162500000Y-91000000D01*
X162000000Y-105500000D02*
X162000000Y-91000000D01*
X162500000Y-88500000D02*
X167500000Y-88500000D01*
X162500000Y-91000000D02*
X162500000Y-88500000D01*
X167500000Y-88500000D02*
X167500000Y-91000000D01*
X167500000Y-91000000D02*
X168000000Y-91000000D01*
X168000000Y-91000000D02*
X168000000Y-105500000D01*
X168000000Y-105500000D02*
X162000000Y-105500000D01*
%TO.C,CT2*%
X147000000Y-91000000D02*
X147500000Y-91000000D01*
X147000000Y-105500000D02*
X147000000Y-91000000D01*
X147500000Y-88500000D02*
X152500000Y-88500000D01*
X147500000Y-91000000D02*
X147500000Y-88500000D01*
X152500000Y-88500000D02*
X152500000Y-91000000D01*
X152500000Y-91000000D02*
X153000000Y-91000000D01*
X153000000Y-91000000D02*
X153000000Y-105500000D01*
X153000000Y-105500000D02*
X147000000Y-105500000D01*
%TO.C,J4*%
X156350000Y-91110000D02*
X158890000Y-91110000D01*
X156350000Y-108255000D02*
X156350000Y-91110000D01*
X156985000Y-108890000D02*
X156350000Y-108255000D01*
X158890000Y-91110000D02*
X158890000Y-108890000D01*
X158890000Y-108890000D02*
X156985000Y-108890000D01*
%TD*%
M02*
