M48
; DRILL file {KiCad 9.0.3} date 2026-02-10T09:27:58-0500
; FORMAT={-:-/ absolute / inch / decimal}
; #@! TF.CreationDate,2026-02-10T09:27:58-05:00
; #@! TF.GenerationSoftware,Kicad,Pcbnew,9.0.3
; #@! TF.FileFunction,Plated,1,2,PTH
FMAT,2
INCH
; #@! TA.AperFunction,Plated,PTH,ViaDrill
T1C0.0118
; #@! TA.AperFunction,Plated,PTH,ComponentDrill
T2C0.0394
%
G90
G05
T1
X5.1378Y-4.189
X5.1693Y-3.6772
X5.1693Y-4.0472
X5.7283Y-4.189
X5.7598Y-3.6772
X5.7598Y-4.0472
X6.3189Y-4.189
X6.3504Y-3.6772
X6.3504Y-4.0472
T2
X5.6055Y-3.637
X5.6055Y-3.737
X5.6055Y-3.837
X5.6055Y-3.937
X5.6055Y-4.037
X5.6055Y-4.137
X5.6055Y-4.237
X6.2055Y-3.637
X6.2055Y-3.737
X6.2055Y-3.837
X6.2055Y-3.937
X6.2055Y-4.037
X6.2055Y-4.137
X6.2055Y-4.237
M30
