%TF.GenerationSoftware,KiCad,Pcbnew,9.0.3*%
%TF.CreationDate,2026-05-23T15:46:17-04:00*%
%TF.ProjectId,home energy monitor,686f6d65-2065-46e6-9572-6779206d6f6e,0.1*%
%TF.SameCoordinates,Original*%
%TF.FileFunction,Copper,L1,Top*%
%TF.FilePolarity,Positive*%
%FSLAX46Y46*%
G04 Gerber Fmt 4.6, Leading zero omitted, Abs format (unit mm)*
G04 Created by KiCad (PCBNEW 9.0.3) date 2026-05-23 15:46:17*
%MOMM*%
%LPD*%
G01*
G04 APERTURE LIST*
%TA.AperFunction,ComponentPad*%
%ADD10R,1.700000X1.700000*%
%TD*%
%TA.AperFunction,ComponentPad*%
%ADD11C,1.700000*%
%TD*%
%TA.AperFunction,SMDPad,CuDef*%
%ADD12R,2.800000X2.200000*%
%TD*%
%TA.AperFunction,SMDPad,CuDef*%
%ADD13R,2.800000X2.800000*%
%TD*%
%TA.AperFunction,ViaPad*%
%ADD14C,0.600000*%
%TD*%
%TA.AperFunction,Conductor*%
%ADD15C,0.200000*%
%TD*%
G04 APERTURE END LIST*
D10*
%TO.P,J5,1,Pin_1*%
%TO.N,unconnected-(J5-Pin_1-Pad1)*%
X142380000Y-107620000D03*
D11*
%TO.P,J5,2,Pin_2*%
%TO.N,GND*%
X142380000Y-105080000D03*
%TO.P,J5,3,Pin_3*%
%TO.N,3.3V*%
X142380000Y-102540000D03*
%TO.P,J5,4,Pin_4*%
%TO.N,/ADC9*%
X142380000Y-100000000D03*
%TO.P,J5,5,Pin_5*%
%TO.N,/ADC8*%
X142380000Y-97460000D03*
%TO.P,J5,6,Pin_6*%
%TO.N,/ADC7*%
X142380000Y-94920000D03*
%TO.P,J5,7,Pin_7*%
%TO.N,unconnected-(J5-Pin_7-Pad7)*%
X142380000Y-92380000D03*
%TD*%
D12*
%TO.P,CT1,R*%
%TO.N,unconnected-(CT1-PadR)*%
X138700000Y-95400000D03*
%TO.P,CT1,S*%
%TO.N,Net-(JP4-C)*%
X131300000Y-93400000D03*
D13*
%TO.P,CT1,T*%
%TO.N,Net-(JP1-A)*%
X131300000Y-102800000D03*
%TD*%
D12*
%TO.P,CT3,R*%
%TO.N,unconnected-(CT3-PadR)*%
X168700000Y-95400000D03*
%TO.P,CT3,S*%
%TO.N,Net-(JP8-C)*%
X161300000Y-93400000D03*
D13*
%TO.P,CT3,T*%
%TO.N,Net-(JP3-A)*%
X161300000Y-102800000D03*
%TD*%
D12*
%TO.P,CT2,R*%
%TO.N,unconnected-(CT2-PadR)*%
X153700000Y-95400000D03*
%TO.P,CT2,S*%
%TO.N,Net-(JP6-C)*%
X146300000Y-93400000D03*
D13*
%TO.P,CT2,T*%
%TO.N,Net-(JP2-A)*%
X146300000Y-102800000D03*
%TD*%
D10*
%TO.P,J4,1,Pin_1*%
%TO.N,/ADC1*%
X157620000Y-107620000D03*
D11*
%TO.P,J4,2,Pin_2*%
%TO.N,/ADC2*%
X157620000Y-105080000D03*
%TO.P,J4,3,Pin_3*%
%TO.N,/ADC3*%
X157620000Y-102540000D03*
%TO.P,J4,4,Pin_4*%
%TO.N,/ADC4*%
X157620000Y-100000000D03*
%TO.P,J4,5,Pin_5*%
%TO.N,/ADC5*%
X157620000Y-97460000D03*
%TO.P,J4,6,Pin_6*%
%TO.N,/ADC6*%
X157620000Y-94920000D03*
%TO.P,J4,7,Pin_7*%
%TO.N,unconnected-(J4-Pin_7-Pad7)*%
X157620000Y-92380000D03*
%TD*%
D14*
%TO.N,/ADC1*%
X139500000Y-106500000D03*
%TO.N,/ADC4*%
X136000000Y-100000000D03*
X157000000Y-101000000D03*
%TO.N,/ADC3*%
X168500000Y-102000000D03*
%TO.N,/ADC6*%
X162500000Y-100000000D03*
X159000000Y-99000000D03*
%TO.N,/ADC9*%
X163000000Y-96000000D03*
%TO.N,/ADC5*%
X150000000Y-99000000D03*
%TO.N,/ADC8*%
X147500000Y-95500000D03*
%TO.N,/ADC7*%
X135000000Y-96500000D03*
%TO.N,Net-(JP1-A)*%
X131300000Y-102800000D03*
%TO.N,Net-(JP2-A)*%
X146300000Y-102800000D03*
%TO.N,Net-(JP3-A)*%
X161300000Y-102800000D03*
%TO.N,Net-(JP4-C)*%
X131300000Y-93400000D03*
%TO.N,Net-(JP6-C)*%
X146300000Y-93400000D03*
%TO.N,Net-(JP8-C)*%
X161300000Y-93400000D03*
%TO.N,3.3V*%
X145500000Y-106400000D03*
X130500000Y-106400000D03*
X160500000Y-106400000D03*
%TD*%
D15*
%TO.N,/ADC1*%
X145870057Y-107620000D02*
X157620000Y-107620000D01*
X139500000Y-106500000D02*
X139531000Y-106469000D01*
X139531000Y-106469000D02*
X144719057Y-106469000D01*
X144719057Y-106469000D02*
X145870057Y-107620000D01*
%TO.N,/ADC4*%
X142856760Y-101389000D02*
X137389000Y-101389000D01*
X156299000Y-100299000D02*
X143946760Y-100299000D01*
X157000000Y-101000000D02*
X156299000Y-100299000D01*
X137389000Y-101389000D02*
X136000000Y-100000000D01*
X143946760Y-100299000D02*
X142856760Y-101389000D01*
%TO.N,/ADC3*%
X159061000Y-101099000D02*
X157620000Y-102540000D01*
X163001000Y-101099000D02*
X159061000Y-101099000D01*
X163801000Y-100299000D02*
X163001000Y-101099000D01*
X166799000Y-100299000D02*
X163801000Y-100299000D01*
X168500000Y-102000000D02*
X166799000Y-100299000D01*
%TO.N,/ADC6*%
X160000000Y-100000000D02*
X159000000Y-99000000D01*
X162500000Y-100000000D02*
X160000000Y-100000000D01*
%TO.N,/ADC9*%
X144389670Y-97990330D02*
X142380000Y-100000000D01*
X156131000Y-96071000D02*
X154211670Y-97990330D01*
X162929000Y-96071000D02*
X156131000Y-96071000D01*
X163000000Y-96000000D02*
X162929000Y-96071000D01*
X154211670Y-97990330D02*
X144389670Y-97990330D01*
%TO.N,/ADC5*%
X156080000Y-99000000D02*
X157620000Y-97460000D01*
X150000000Y-99000000D02*
X156080000Y-99000000D01*
%TO.N,/ADC8*%
X147500000Y-95500000D02*
X144340000Y-95500000D01*
X144340000Y-95500000D02*
X142380000Y-97460000D01*
%TO.N,/ADC7*%
X135000000Y-96500000D02*
X135301000Y-96801000D01*
X135301000Y-96801000D02*
X140499000Y-96801000D01*
X140499000Y-96801000D02*
X142380000Y-94920000D01*
%TD*%
%TA.AperFunction,Conductor*%
%TO.N,3.3V*%
G36*
X144468786Y-100919185D02*
G01*
X144514541Y-100971989D01*
X144524485Y-101041147D01*
X144501013Y-101097811D01*
X144456206Y-101157664D01*
X144456202Y-101157671D01*
X144405908Y-101292517D01*
X144401880Y-101329987D01*
X144399501Y-101352123D01*
X144399500Y-101352135D01*
X144399500Y-104247870D01*
X144399501Y-104247876D01*
X144405908Y-104307483D01*
X144456202Y-104442328D01*
X144456206Y-104442335D01*
X144542452Y-104557544D01*
X144542455Y-104557547D01*
X144657664Y-104643793D01*
X144657671Y-104643797D01*
X144792517Y-104694091D01*
X144792516Y-104694091D01*
X144799444Y-104694835D01*
X144852127Y-104700500D01*
X147747872Y-104700499D01*
X147807483Y-104694091D01*
X147942331Y-104643796D01*
X148057546Y-104557546D01*
X148143796Y-104442331D01*
X148194091Y-104307483D01*
X148200500Y-104247873D01*
X148200499Y-101352128D01*
X148194091Y-101292517D01*
X148193379Y-101290609D01*
X148143797Y-101157671D01*
X148143793Y-101157664D01*
X148098987Y-101097811D01*
X148074569Y-101032347D01*
X148089420Y-100964074D01*
X148138825Y-100914668D01*
X148198253Y-100899500D01*
X148868501Y-100899500D01*
X148935540Y-100919185D01*
X148981295Y-100971989D01*
X148991239Y-101041147D01*
X148981223Y-101072726D01*
X148981994Y-101073046D01*
X148980129Y-101077547D01*
X148926597Y-101242302D01*
X148908236Y-101358230D01*
X148899500Y-101413389D01*
X148899500Y-101586611D01*
X148904917Y-101620814D01*
X148925712Y-101752111D01*
X148926598Y-101757701D01*
X148980127Y-101922445D01*
X149058768Y-102076788D01*
X149160586Y-102216928D01*
X149283072Y-102339414D01*
X149423212Y-102441232D01*
X149577555Y-102519873D01*
X149742299Y-102573402D01*
X149913389Y-102600500D01*
X149913390Y-102600500D01*
X150086610Y-102600500D01*
X150086611Y-102600500D01*
X150257701Y-102573402D01*
X150422445Y-102519873D01*
X150576788Y-102441232D01*
X150716928Y-102339414D01*
X150839414Y-102216928D01*
X150941232Y-102076788D01*
X151019873Y-101922445D01*
X151073402Y-101757701D01*
X151100500Y-101586611D01*
X151100500Y-101413389D01*
X151073402Y-101242299D01*
X151019873Y-101077555D01*
X151019871Y-101077552D01*
X151019870Y-101077547D01*
X151018006Y-101073046D01*
X151019626Y-101072374D01*
X151008116Y-101011148D01*
X151034380Y-100946403D01*
X151091479Y-100906136D01*
X151131499Y-100899500D01*
X155998903Y-100899500D01*
X156028343Y-100908144D01*
X156058330Y-100914668D01*
X156063345Y-100918422D01*
X156065942Y-100919185D01*
X156086584Y-100935819D01*
X156165425Y-101014660D01*
X156198910Y-101075983D01*
X156199361Y-101078149D01*
X156230261Y-101233491D01*
X156230264Y-101233501D01*
X156290602Y-101379172D01*
X156290609Y-101379185D01*
X156378210Y-101510288D01*
X156378213Y-101510292D01*
X156489017Y-101621096D01*
X156522502Y-101682419D01*
X156517518Y-101752111D01*
X156501655Y-101781661D01*
X156464949Y-101832183D01*
X156464948Y-101832185D01*
X156368444Y-102021585D01*
X156302753Y-102223760D01*
X156269500Y-102433713D01*
X156269500Y-102646286D01*
X156302753Y-102856239D01*
X156368444Y-103058414D01*
X156464951Y-103247820D01*
X156589890Y-103419786D01*
X156740213Y-103570109D01*
X156912182Y-103695050D01*
X156920946Y-103699516D01*
X156971742Y-103747491D01*
X156988536Y-103815312D01*
X156965998Y-103881447D01*
X156920946Y-103920484D01*
X156912182Y-103924949D01*
X156740213Y-104049890D01*
X156589890Y-104200213D01*
X156464951Y-104372179D01*
X156368444Y-104561585D01*
X156302753Y-104763760D01*
X156269500Y-104973713D01*
X156269500Y-105186286D01*
X156302753Y-105396239D01*
X156368444Y-105598414D01*
X156464951Y-105787820D01*
X156589890Y-105959786D01*
X156703430Y-106073326D01*
X156736915Y-106134649D01*
X156731931Y-106204341D01*
X156690059Y-106260274D01*
X156659083Y-106277189D01*
X156527669Y-106326203D01*
X156527664Y-106326206D01*
X156412455Y-106412452D01*
X156412452Y-106412455D01*
X156326206Y-106527664D01*
X156326202Y-106527671D01*
X156275908Y-106662517D01*
X156269501Y-106722116D01*
X156269501Y-106722123D01*
X156269500Y-106722135D01*
X156269500Y-106895500D01*
X156249815Y-106962539D01*
X156197011Y-107008294D01*
X156145500Y-107019500D01*
X146170154Y-107019500D01*
X146103115Y-106999815D01*
X146082473Y-106983181D01*
X145206647Y-106107355D01*
X145206645Y-106107352D01*
X145087774Y-105988481D01*
X145087773Y-105988480D01*
X144975285Y-105923535D01*
X144975285Y-105923534D01*
X144975280Y-105923533D01*
X144966752Y-105918609D01*
X144950843Y-105909423D01*
X144912660Y-105899192D01*
X144798114Y-105868499D01*
X144640000Y-105868499D01*
X144632404Y-105868499D01*
X144632388Y-105868500D01*
X143696290Y-105868500D01*
X143629251Y-105848815D01*
X143583496Y-105796011D01*
X143573552Y-105726853D01*
X143585805Y-105688205D01*
X143631557Y-105598412D01*
X143697246Y-105396243D01*
X143730500Y-105186287D01*
X143730500Y-104973713D01*
X143697246Y-104763757D01*
X143631557Y-104561588D01*
X143535051Y-104372184D01*
X143535049Y-104372181D01*
X143535048Y-104372179D01*
X143410109Y-104200213D01*
X143259786Y-104049890D01*
X143087817Y-103924949D01*
X143078504Y-103920204D01*
X143027707Y-103872230D01*
X143010912Y-103804409D01*
X143033449Y-103738274D01*
X143078507Y-103699232D01*
X143087555Y-103694622D01*
X143141716Y-103655270D01*
X143141717Y-103655270D01*
X142509408Y-103022962D01*
X142572993Y-103005925D01*
X142687007Y-102940099D01*
X142780099Y-102847007D01*
X142845925Y-102732993D01*
X142862962Y-102669409D01*
X143495270Y-103301717D01*
X143495270Y-103301716D01*
X143534622Y-103247554D01*
X143631095Y-103058217D01*
X143696757Y-102856130D01*
X143696757Y-102856127D01*
X143730000Y-102646246D01*
X143730000Y-102433753D01*
X143696757Y-102223872D01*
X143696757Y-102223869D01*
X143631095Y-102021782D01*
X143534622Y-101832445D01*
X143482381Y-101760542D01*
X143458901Y-101694736D01*
X143474726Y-101626682D01*
X143495013Y-101599980D01*
X144159177Y-100935819D01*
X144186104Y-100921115D01*
X144211923Y-100904523D01*
X144218123Y-100903631D01*
X144220500Y-100902334D01*
X144246858Y-100899500D01*
X144401747Y-100899500D01*
X144468786Y-100919185D01*
G37*
%TD.AperFunction*%
%TA.AperFunction,Conductor*%
G36*
X172528813Y-90520185D02*
G01*
X172574568Y-90572989D01*
X172584512Y-90642147D01*
X172555487Y-90705703D01*
X172500093Y-90742430D01*
X172481588Y-90748443D01*
X172481585Y-90748444D01*
X172292179Y-90844951D01*
X172120213Y-90969890D01*
X171969890Y-91120213D01*
X171844951Y-91292179D01*
X171748444Y-91481585D01*
X171682753Y-91683760D01*
X171649500Y-91893713D01*
X171649500Y-92106286D01*
X171669000Y-92229408D01*
X171682754Y-92316243D01*
X171734075Y-92474193D01*
X171748444Y-92518414D01*
X171844951Y-92707820D01*
X171969890Y-92879786D01*
X172120213Y-93030109D01*
X172292179Y-93155048D01*
X172292181Y-93155049D01*
X172292184Y-93155051D01*
X172481588Y-93251557D01*
X172683757Y-93317246D01*
X172893713Y-93350500D01*
X172893714Y-93350500D01*
X173106286Y-93350500D01*
X173106287Y-93350500D01*
X173316243Y-93317246D01*
X173518412Y-93251557D01*
X173707816Y-93155051D01*
X173729789Y-93139086D01*
X173879786Y-93030109D01*
X173879788Y-93030106D01*
X173879792Y-93030104D01*
X174030104Y-92879792D01*
X174030106Y-92879788D01*
X174030109Y-92879786D01*
X174155048Y-92707820D01*
X174155047Y-92707820D01*
X174155051Y-92707816D01*
X174251557Y-92518412D01*
X174257569Y-92499907D01*
X174297006Y-92442232D01*
X174361365Y-92415034D01*
X174430211Y-92426949D01*
X174481687Y-92474193D01*
X174499500Y-92538226D01*
X174499500Y-107461773D01*
X174479815Y-107528812D01*
X174427011Y-107574567D01*
X174357853Y-107584511D01*
X174294297Y-107555486D01*
X174257570Y-107500094D01*
X174251557Y-107481588D01*
X174155051Y-107292184D01*
X174155049Y-107292181D01*
X174155048Y-107292179D01*
X174030109Y-107120213D01*
X173879786Y-106969890D01*
X173707820Y-106844951D01*
X173518414Y-106748444D01*
X173518413Y-106748443D01*
X173518412Y-106748443D01*
X173316243Y-106682754D01*
X173316241Y-106682753D01*
X173316240Y-106682753D01*
X173154957Y-106657208D01*
X173106287Y-106649500D01*
X172893713Y-106649500D01*
X172845042Y-106657208D01*
X172683760Y-106682753D01*
X172683757Y-106682754D01*
X172527612Y-106733489D01*
X172481585Y-106748444D01*
X172292179Y-106844951D01*
X172120213Y-106969890D01*
X171969890Y-107120213D01*
X171844951Y-107292179D01*
X171748444Y-107481585D01*
X171682753Y-107683760D01*
X171649500Y-107893713D01*
X171649500Y-108106286D01*
X171670707Y-108240185D01*
X171682754Y-108316243D01*
X171726718Y-108451551D01*
X171748444Y-108518414D01*
X171844951Y-108707820D01*
X171969890Y-108879786D01*
X172120213Y-109030109D01*
X172292179Y-109155048D01*
X172292181Y-109155049D01*
X172292184Y-109155051D01*
X172481588Y-109251557D01*
X172500092Y-109257569D01*
X172557768Y-109297006D01*
X172584966Y-109361365D01*
X172573051Y-109430211D01*
X172525807Y-109481687D01*
X172461774Y-109499500D01*
X127538226Y-109499500D01*
X127471187Y-109479815D01*
X127425432Y-109427011D01*
X127415488Y-109357853D01*
X127444513Y-109294297D01*
X127499906Y-109257569D01*
X127518412Y-109251557D01*
X127707816Y-109155051D01*
X127737828Y-109133246D01*
X127879786Y-109030109D01*
X127879788Y-109030106D01*
X127879792Y-109030104D01*
X128030104Y-108879792D01*
X128030106Y-108879788D01*
X128030109Y-108879786D01*
X128155048Y-108707820D01*
X128155047Y-108707820D01*
X128155051Y-108707816D01*
X128251557Y-108518412D01*
X128317246Y-108316243D01*
X128350500Y-108106287D01*
X128350500Y-107893713D01*
X128317246Y-107683757D01*
X128251557Y-107481588D01*
X128155051Y-107292184D01*
X128155049Y-107292181D01*
X128155048Y-107292179D01*
X128030109Y-107120213D01*
X127879786Y-106969890D01*
X127707820Y-106844951D01*
X127518414Y-106748444D01*
X127518413Y-106748443D01*
X127518412Y-106748443D01*
X127316243Y-106682754D01*
X127316241Y-106682753D01*
X127316240Y-106682753D01*
X127154957Y-106657208D01*
X127106287Y-106649500D01*
X126893713Y-106649500D01*
X126845042Y-106657208D01*
X126683760Y-106682753D01*
X126683757Y-106682754D01*
X126527612Y-106733489D01*
X126481585Y-106748444D01*
X126292179Y-106844951D01*
X126120213Y-106969890D01*
X125969890Y-107120213D01*
X125844951Y-107292179D01*
X125748445Y-107481582D01*
X125748443Y-107481587D01*
X125748443Y-107481588D01*
X125742429Y-107500094D01*
X125702992Y-107557768D01*
X125638633Y-107584965D01*
X125569787Y-107573050D01*
X125518312Y-107525805D01*
X125500500Y-107461773D01*
X125500500Y-101352135D01*
X129399500Y-101352135D01*
X129399500Y-104247870D01*
X129399501Y-104247876D01*
X129405908Y-104307483D01*
X129456202Y-104442328D01*
X129456206Y-104442335D01*
X129542452Y-104557544D01*
X129542455Y-104557547D01*
X129657664Y-104643793D01*
X129657671Y-104643797D01*
X129792517Y-104694091D01*
X129792516Y-104694091D01*
X129799444Y-104694835D01*
X129852127Y-104700500D01*
X132747872Y-104700499D01*
X132807483Y-104694091D01*
X132942331Y-104643796D01*
X133057546Y-104557546D01*
X133143796Y-104442331D01*
X133194091Y-104307483D01*
X133200500Y-104247873D01*
X133200499Y-101352128D01*
X133194091Y-101292517D01*
X133193379Y-101290609D01*
X133143797Y-101157671D01*
X133143793Y-101157664D01*
X133057547Y-101042455D01*
X133057544Y-101042452D01*
X132942335Y-100956206D01*
X132942328Y-100956202D01*
X132807482Y-100905908D01*
X132807483Y-100905908D01*
X132747883Y-100899501D01*
X132747881Y-100899500D01*
X132747873Y-100899500D01*
X132747864Y-100899500D01*
X129852129Y-100899500D01*
X129852123Y-100899501D01*
X129792516Y-100905908D01*
X129657671Y-100956202D01*
X129657664Y-100956206D01*
X129542455Y-101042452D01*
X129542452Y-101042455D01*
X129456206Y-101157664D01*
X129456202Y-101157671D01*
X129405908Y-101292517D01*
X129401880Y-101329987D01*
X129399501Y-101352123D01*
X129399500Y-101352135D01*
X125500500Y-101352135D01*
X125500500Y-92538226D01*
X125520185Y-92471187D01*
X125572989Y-92425432D01*
X125642147Y-92415488D01*
X125705703Y-92444513D01*
X125742431Y-92499908D01*
X125748444Y-92518414D01*
X125844951Y-92707820D01*
X125969890Y-92879786D01*
X126120213Y-93030109D01*
X126292179Y-93155048D01*
X126292181Y-93155049D01*
X126292184Y-93155051D01*
X126481588Y-93251557D01*
X126683757Y-93317246D01*
X126893713Y-93350500D01*
X126893714Y-93350500D01*
X127106286Y-93350500D01*
X127106287Y-93350500D01*
X127316243Y-93317246D01*
X127518412Y-93251557D01*
X127707816Y-93155051D01*
X127729789Y-93139086D01*
X127879786Y-93030109D01*
X127879788Y-93030106D01*
X127879792Y-93030104D01*
X128030104Y-92879792D01*
X128030106Y-92879788D01*
X128030109Y-92879786D01*
X128155048Y-92707820D01*
X128155047Y-92707820D01*
X128155051Y-92707816D01*
X128251557Y-92518412D01*
X128317246Y-92316243D01*
X128327400Y-92252135D01*
X129399500Y-92252135D01*
X129399500Y-94547870D01*
X129399501Y-94547876D01*
X129405908Y-94607483D01*
X129456202Y-94742328D01*
X129456206Y-94742335D01*
X129542452Y-94857544D01*
X129542455Y-94857547D01*
X129657664Y-94943793D01*
X129657671Y-94943797D01*
X129792517Y-94994091D01*
X129792516Y-94994091D01*
X129799444Y-94994835D01*
X129852127Y-95000500D01*
X132747872Y-95000499D01*
X132807483Y-94994091D01*
X132942331Y-94943796D01*
X133057546Y-94857546D01*
X133143796Y-94742331D01*
X133194091Y-94607483D01*
X133200500Y-94547873D01*
X133200500Y-94413389D01*
X133899500Y-94413389D01*
X133899500Y-94586610D01*
X133924163Y-94742331D01*
X133926598Y-94757701D01*
X133980127Y-94922445D01*
X134058768Y-95076788D01*
X134160586Y-95216928D01*
X134283072Y-95339414D01*
X134423212Y-95441232D01*
X134577555Y-95519873D01*
X134648421Y-95542899D01*
X134706095Y-95582335D01*
X134733294Y-95646694D01*
X134721379Y-95715540D01*
X134674135Y-95767016D01*
X134657555Y-95775390D01*
X134620824Y-95790604D01*
X134620814Y-95790609D01*
X134489711Y-95878210D01*
X134489707Y-95878213D01*
X134378213Y-95989707D01*
X134378210Y-95989711D01*
X134290609Y-96120814D01*
X134290602Y-96120827D01*
X134230264Y-96266498D01*
X134230261Y-96266510D01*
X134199500Y-96421153D01*
X134199500Y-96578846D01*
X134230261Y-96733489D01*
X134230264Y-96733501D01*
X134290602Y-96879172D01*
X134290609Y-96879185D01*
X134378210Y-97010288D01*
X134378213Y-97010292D01*
X134489707Y-97121786D01*
X134489711Y-97121789D01*
X134620814Y-97209390D01*
X134620827Y-97209397D01*
X134766498Y-97269735D01*
X134766503Y-97269737D01*
X134921153Y-97300499D01*
X134921156Y-97300500D01*
X134921158Y-97300500D01*
X134931934Y-97300500D01*
X134947422Y-97304649D01*
X134961167Y-97303995D01*
X134993933Y-97317112D01*
X135019095Y-97331639D01*
X135019097Y-97331641D01*
X135069213Y-97360576D01*
X135069215Y-97360577D01*
X135221942Y-97401500D01*
X135221943Y-97401500D01*
X140412331Y-97401500D01*
X140412347Y-97401501D01*
X140419943Y-97401501D01*
X140578054Y-97401501D01*
X140578057Y-97401501D01*
X140730785Y-97360577D01*
X140780904Y-97331639D01*
X140843503Y-97295498D01*
X140911402Y-97279028D01*
X140977428Y-97301880D01*
X141020618Y-97356802D01*
X141029500Y-97402887D01*
X141029500Y-97566287D01*
X141062754Y-97776243D01*
X141117431Y-97944522D01*
X141128444Y-97978414D01*
X141224951Y-98167820D01*
X141349890Y-98339786D01*
X141500213Y-98490109D01*
X141672182Y-98615050D01*
X141680946Y-98619516D01*
X141731742Y-98667491D01*
X141748536Y-98735312D01*
X141725998Y-98801447D01*
X141680946Y-98840484D01*
X141672182Y-98844949D01*
X141500213Y-98969890D01*
X141349890Y-99120213D01*
X141224951Y-99292179D01*
X141128444Y-99481585D01*
X141128443Y-99481587D01*
X141128443Y-99481588D01*
X141106441Y-99549303D01*
X141062753Y-99683760D01*
X141029500Y-99893713D01*
X141029500Y-100106286D01*
X141062753Y-100316239D01*
X141062753Y-100316241D01*
X141062754Y-100316243D01*
X141121973Y-100498500D01*
X141128444Y-100518414D01*
X141174195Y-100608205D01*
X141187091Y-100676874D01*
X141160815Y-100741615D01*
X141103709Y-100781872D01*
X141063710Y-100788500D01*
X137689098Y-100788500D01*
X137622059Y-100768815D01*
X137601417Y-100752181D01*
X136834573Y-99985337D01*
X136801088Y-99924014D01*
X136800637Y-99921847D01*
X136769737Y-99766503D01*
X136769735Y-99766498D01*
X136709397Y-99620827D01*
X136709390Y-99620814D01*
X136621789Y-99489711D01*
X136621786Y-99489707D01*
X136510292Y-99378213D01*
X136510288Y-99378210D01*
X136379185Y-99290609D01*
X136379172Y-99290602D01*
X136233501Y-99230264D01*
X136233489Y-99230261D01*
X136078845Y-99199500D01*
X136078842Y-99199500D01*
X135921158Y-99199500D01*
X135921155Y-99199500D01*
X135766510Y-99230261D01*
X135766498Y-99230264D01*
X135620827Y-99290602D01*
X135620814Y-99290609D01*
X135489711Y-99378210D01*
X135489707Y-99378213D01*
X135378213Y-99489707D01*
X135378210Y-99489711D01*
X135290609Y-99620814D01*
X135290602Y-99620827D01*
X135230264Y-99766498D01*
X135230261Y-99766510D01*
X135199500Y-99921153D01*
X135199500Y-100078846D01*
X135230261Y-100233489D01*
X135232031Y-100239324D01*
X135230169Y-100239888D01*
X135236670Y-100300426D01*
X135205387Y-100362902D01*
X135145294Y-100398546D01*
X135095251Y-100400868D01*
X135086611Y-100399500D01*
X134913389Y-100399500D01*
X134873728Y-100405781D01*
X134742302Y-100426597D01*
X134577552Y-100480128D01*
X134423211Y-100558768D01*
X134355168Y-100608205D01*
X134283072Y-100660586D01*
X134283070Y-100660588D01*
X134283069Y-100660588D01*
X134160588Y-100783069D01*
X134160588Y-100783070D01*
X134160586Y-100783072D01*
X134147924Y-100800500D01*
X134058768Y-100923211D01*
X133980128Y-101077552D01*
X133926597Y-101242302D01*
X133908236Y-101358230D01*
X133899500Y-101413389D01*
X133899500Y-101586611D01*
X133904917Y-101620814D01*
X133925712Y-101752111D01*
X133926598Y-101757701D01*
X133980127Y-101922445D01*
X134058768Y-102076788D01*
X134160586Y-102216928D01*
X134283072Y-102339414D01*
X134423212Y-102441232D01*
X134577555Y-102519873D01*
X134742299Y-102573402D01*
X134913389Y-102600500D01*
X134913390Y-102600500D01*
X135086610Y-102600500D01*
X135086611Y-102600500D01*
X135257701Y-102573402D01*
X135422445Y-102519873D01*
X135576788Y-102441232D01*
X135716928Y-102339414D01*
X135839414Y-102216928D01*
X135941232Y-102076788D01*
X136019873Y-101922445D01*
X136073402Y-101757701D01*
X136100500Y-101586611D01*
X136100500Y-101413389D01*
X136081053Y-101290606D01*
X136072945Y-101239413D01*
X136081900Y-101170119D01*
X136126896Y-101116667D01*
X136193648Y-101096028D01*
X136260961Y-101114753D01*
X136283097Y-101132332D01*
X137020284Y-101869520D01*
X137020286Y-101869521D01*
X137020290Y-101869524D01*
X137111957Y-101922447D01*
X137157216Y-101948577D01*
X137309943Y-101989501D01*
X137309945Y-101989501D01*
X137475654Y-101989501D01*
X137475670Y-101989500D01*
X140968723Y-101989500D01*
X141035762Y-102009185D01*
X141081517Y-102061989D01*
X141091461Y-102131147D01*
X141086654Y-102151818D01*
X141063242Y-102223869D01*
X141063242Y-102223872D01*
X141030000Y-102433753D01*
X141030000Y-102646246D01*
X141063242Y-102856127D01*
X141063242Y-102856130D01*
X141128904Y-103058217D01*
X141225375Y-103247550D01*
X141264728Y-103301716D01*
X141897036Y-102669407D01*
X141914075Y-102732993D01*
X141979901Y-102847007D01*
X142072993Y-102940099D01*
X142187007Y-103005925D01*
X142250590Y-103022962D01*
X141618282Y-103655269D01*
X141618282Y-103655270D01*
X141672452Y-103694626D01*
X141672451Y-103694626D01*
X141681495Y-103699234D01*
X141732292Y-103747208D01*
X141749087Y-103815029D01*
X141726550Y-103881164D01*
X141681499Y-103920202D01*
X141672182Y-103924949D01*
X141500213Y-104049890D01*
X141349890Y-104200213D01*
X141224951Y-104372179D01*
X141128444Y-104561585D01*
X141062753Y-104763760D01*
X141029500Y-104973713D01*
X141029500Y-105186286D01*
X141062753Y-105396239D01*
X141128444Y-105598414D01*
X141174195Y-105688205D01*
X141187091Y-105756874D01*
X141160815Y-105821615D01*
X141103709Y-105861872D01*
X141063710Y-105868500D01*
X140033370Y-105868500D01*
X139966331Y-105848815D01*
X139964531Y-105847637D01*
X139879179Y-105790606D01*
X139879172Y-105790602D01*
X139733501Y-105730264D01*
X139733489Y-105730261D01*
X139578845Y-105699500D01*
X139578842Y-105699500D01*
X139421158Y-105699500D01*
X139421155Y-105699500D01*
X139266510Y-105730261D01*
X139266498Y-105730264D01*
X139120827Y-105790602D01*
X139120814Y-105790609D01*
X138989711Y-105878210D01*
X138989707Y-105878213D01*
X138878213Y-105989707D01*
X138878210Y-105989711D01*
X138790609Y-106120814D01*
X138790602Y-106120827D01*
X138730264Y-106266498D01*
X138730261Y-106266510D01*
X138699500Y-106421153D01*
X138699500Y-106578846D01*
X138730261Y-106733489D01*
X138730264Y-106733501D01*
X138790602Y-106879172D01*
X138790609Y-106879185D01*
X138878210Y-107010288D01*
X138878213Y-107010292D01*
X138989707Y-107121786D01*
X138989711Y-107121789D01*
X139120814Y-107209390D01*
X139120827Y-107209397D01*
X139266498Y-107269735D01*
X139266503Y-107269737D01*
X139379326Y-107292179D01*
X139421153Y-107300499D01*
X139421156Y-107300500D01*
X139421158Y-107300500D01*
X139578844Y-107300500D01*
X139578845Y-107300499D01*
X139733497Y-107269737D01*
X139879179Y-107209394D01*
X140010289Y-107121789D01*
X140011870Y-107120208D01*
X140026260Y-107105819D01*
X140087583Y-107072334D01*
X140113941Y-107069500D01*
X140905500Y-107069500D01*
X140972539Y-107089185D01*
X141018294Y-107141989D01*
X141029500Y-107193500D01*
X141029500Y-108517870D01*
X141029501Y-108517876D01*
X141035908Y-108577483D01*
X141086202Y-108712328D01*
X141086206Y-108712335D01*
X141172452Y-108827544D01*
X141172455Y-108827547D01*
X141287664Y-108913793D01*
X141287671Y-108913797D01*
X141422517Y-108964091D01*
X141422516Y-108964091D01*
X141429444Y-108964835D01*
X141482127Y-108970500D01*
X143277872Y-108970499D01*
X143337483Y-108964091D01*
X143472331Y-108913796D01*
X143587546Y-108827546D01*
X143673796Y-108712331D01*
X143724091Y-108577483D01*
X143730500Y-108517873D01*
X143730499Y-107193499D01*
X143750184Y-107126461D01*
X143802987Y-107080706D01*
X143854499Y-107069500D01*
X144418960Y-107069500D01*
X144485999Y-107089185D01*
X144506641Y-107105819D01*
X145385196Y-107984374D01*
X145385206Y-107984385D01*
X145389536Y-107988715D01*
X145389537Y-107988716D01*
X145501341Y-108100520D01*
X145588152Y-108150639D01*
X145588154Y-108150641D01*
X145626208Y-108172611D01*
X145638272Y-108179577D01*
X145791000Y-108220501D01*
X145791003Y-108220501D01*
X145956711Y-108220501D01*
X145956727Y-108220500D01*
X156145501Y-108220500D01*
X156212540Y-108240185D01*
X156258295Y-108292989D01*
X156269501Y-108344500D01*
X156269501Y-108517876D01*
X156275908Y-108577483D01*
X156326202Y-108712328D01*
X156326206Y-108712335D01*
X156412452Y-108827544D01*
X156412455Y-108827547D01*
X156527664Y-108913793D01*
X156527671Y-108913797D01*
X156662517Y-108964091D01*
X156662516Y-108964091D01*
X156669444Y-108964835D01*
X156722127Y-108970500D01*
X158517872Y-108970499D01*
X158577483Y-108964091D01*
X158712331Y-108913796D01*
X158827546Y-108827546D01*
X158913796Y-108712331D01*
X158964091Y-108577483D01*
X158970500Y-108517873D01*
X158970499Y-106722128D01*
X158964091Y-106662517D01*
X158932882Y-106578842D01*
X158913797Y-106527671D01*
X158913793Y-106527664D01*
X158827547Y-106412455D01*
X158827544Y-106412452D01*
X158712335Y-106326206D01*
X158712328Y-106326202D01*
X158580917Y-106277189D01*
X158524983Y-106235318D01*
X158500566Y-106169853D01*
X158515418Y-106101580D01*
X158536563Y-106073332D01*
X158650104Y-105959792D01*
X158775051Y-105787816D01*
X158871557Y-105598412D01*
X158937246Y-105396243D01*
X158970500Y-105186287D01*
X158970500Y-104973713D01*
X158937246Y-104763757D01*
X158871557Y-104561588D01*
X158775051Y-104372184D01*
X158775049Y-104372181D01*
X158775048Y-104372179D01*
X158650109Y-104200213D01*
X158499786Y-104049890D01*
X158327820Y-103924951D01*
X158327115Y-103924591D01*
X158319054Y-103920485D01*
X158268259Y-103872512D01*
X158251463Y-103804692D01*
X158273999Y-103738556D01*
X158319054Y-103699515D01*
X158327816Y-103695051D01*
X158382572Y-103655269D01*
X158499786Y-103570109D01*
X158499788Y-103570106D01*
X158499792Y-103570104D01*
X158650104Y-103419792D01*
X158650106Y-103419788D01*
X158650109Y-103419786D01*
X158775048Y-103247820D01*
X158775047Y-103247820D01*
X158775051Y-103247816D01*
X158871557Y-103058412D01*
X158937246Y-102856243D01*
X158970500Y-102646287D01*
X158970500Y-102433713D01*
X158937246Y-102223757D01*
X158923506Y-102181473D01*
X158921512Y-102111635D01*
X158953753Y-102055480D01*
X159187822Y-101821413D01*
X159249142Y-101787931D01*
X159318834Y-101792915D01*
X159374767Y-101834787D01*
X159399184Y-101900251D01*
X159399500Y-101909097D01*
X159399500Y-104247870D01*
X159399501Y-104247876D01*
X159405908Y-104307483D01*
X159456202Y-104442328D01*
X159456206Y-104442335D01*
X159542452Y-104557544D01*
X159542455Y-104557547D01*
X159657664Y-104643793D01*
X159657671Y-104643797D01*
X159792517Y-104694091D01*
X159792516Y-104694091D01*
X159799444Y-104694835D01*
X159852127Y-104700500D01*
X162747872Y-104700499D01*
X162807483Y-104694091D01*
X162942331Y-104643796D01*
X163057546Y-104557546D01*
X163143796Y-104442331D01*
X163194091Y-104307483D01*
X163200500Y-104247873D01*
X163200499Y-101748807D01*
X163220184Y-101681769D01*
X163262497Y-101641422D01*
X163298244Y-101620784D01*
X163369716Y-101579520D01*
X163481520Y-101467716D01*
X163481520Y-101467714D01*
X163491724Y-101457511D01*
X163491727Y-101457506D01*
X163698082Y-101251151D01*
X163759405Y-101217667D01*
X163829097Y-101222651D01*
X163885030Y-101264523D01*
X163909447Y-101329987D01*
X163908236Y-101358230D01*
X163905071Y-101378213D01*
X163899500Y-101413389D01*
X163899500Y-101586611D01*
X163904917Y-101620814D01*
X163925712Y-101752111D01*
X163926598Y-101757701D01*
X163980127Y-101922445D01*
X164058768Y-102076788D01*
X164160586Y-102216928D01*
X164283072Y-102339414D01*
X164423212Y-102441232D01*
X164577555Y-102519873D01*
X164742299Y-102573402D01*
X164913389Y-102600500D01*
X164913390Y-102600500D01*
X165086610Y-102600500D01*
X165086611Y-102600500D01*
X165257701Y-102573402D01*
X165422445Y-102519873D01*
X165576788Y-102441232D01*
X165716928Y-102339414D01*
X165839414Y-102216928D01*
X165941232Y-102076788D01*
X166019873Y-101922445D01*
X166073402Y-101757701D01*
X166100500Y-101586611D01*
X166100500Y-101413389D01*
X166073402Y-101242299D01*
X166019873Y-101077555D01*
X166019871Y-101077552D01*
X166019870Y-101077547D01*
X166018006Y-101073046D01*
X166019626Y-101072374D01*
X166008116Y-101011148D01*
X166034380Y-100946403D01*
X166091479Y-100906136D01*
X166131499Y-100899500D01*
X166498903Y-100899500D01*
X166565942Y-100919185D01*
X166586584Y-100935819D01*
X167665425Y-102014660D01*
X167698910Y-102075983D01*
X167699361Y-102078149D01*
X167730261Y-102233491D01*
X167730264Y-102233501D01*
X167790602Y-102379172D01*
X167790609Y-102379185D01*
X167878210Y-102510288D01*
X167878213Y-102510292D01*
X167989707Y-102621786D01*
X167989711Y-102621789D01*
X168120814Y-102709390D01*
X168120827Y-102709397D01*
X168177794Y-102732993D01*
X168266503Y-102769737D01*
X168421153Y-102800499D01*
X168421156Y-102800500D01*
X168421158Y-102800500D01*
X168578844Y-102800500D01*
X168578845Y-102800499D01*
X168733497Y-102769737D01*
X168879179Y-102709394D01*
X169010289Y-102621789D01*
X169121789Y-102510289D01*
X169209394Y-102379179D01*
X169269737Y-102233497D01*
X169300500Y-102078842D01*
X169300500Y-101921158D01*
X169300500Y-101921155D01*
X169300499Y-101921153D01*
X169290228Y-101869518D01*
X169269737Y-101766503D01*
X169266091Y-101757701D01*
X169209397Y-101620827D01*
X169209390Y-101620814D01*
X169121789Y-101489711D01*
X169121786Y-101489707D01*
X169010292Y-101378213D01*
X169010288Y-101378210D01*
X168879185Y-101290609D01*
X168879172Y-101290602D01*
X168733501Y-101230264D01*
X168733491Y-101230261D01*
X168578149Y-101199361D01*
X168516238Y-101166976D01*
X168514660Y-101165425D01*
X167286590Y-99937355D01*
X167286588Y-99937352D01*
X167167717Y-99818481D01*
X167167709Y-99818475D01*
X167077688Y-99766502D01*
X167077687Y-99766502D01*
X167055253Y-99753550D01*
X167030785Y-99739423D01*
X166878057Y-99698499D01*
X166719943Y-99698499D01*
X166712347Y-99698499D01*
X166712331Y-99698500D01*
X163887669Y-99698500D01*
X163887653Y-99698499D01*
X163880057Y-99698499D01*
X163721943Y-99698499D01*
X163569215Y-99739423D01*
X163569214Y-99739423D01*
X163522313Y-99766502D01*
X163522311Y-99766503D01*
X163440931Y-99813486D01*
X163373031Y-99829957D01*
X163307004Y-99807104D01*
X163264372Y-99753550D01*
X163209397Y-99620827D01*
X163209390Y-99620814D01*
X163121789Y-99489711D01*
X163121786Y-99489707D01*
X163010292Y-99378213D01*
X163010288Y-99378210D01*
X162879185Y-99290609D01*
X162879172Y-99290602D01*
X162733501Y-99230264D01*
X162733489Y-99230261D01*
X162578845Y-99199500D01*
X162578842Y-99199500D01*
X162421158Y-99199500D01*
X162421155Y-99199500D01*
X162266510Y-99230261D01*
X162266498Y-99230264D01*
X162120827Y-99290602D01*
X162120814Y-99290609D01*
X161989125Y-99378602D01*
X161922447Y-99399480D01*
X161920234Y-99399500D01*
X160300098Y-99399500D01*
X160233059Y-99379815D01*
X160212417Y-99363181D01*
X159834573Y-98985337D01*
X159801088Y-98924014D01*
X159800637Y-98921847D01*
X159776688Y-98801447D01*
X159769737Y-98766503D01*
X159762256Y-98748443D01*
X159709397Y-98620827D01*
X159709390Y-98620814D01*
X159621789Y-98489711D01*
X159621786Y-98489707D01*
X159510292Y-98378213D01*
X159510288Y-98378210D01*
X159379185Y-98290609D01*
X159379172Y-98290602D01*
X159233501Y-98230264D01*
X159233489Y-98230261D01*
X159078845Y-98199500D01*
X159078842Y-98199500D01*
X158961257Y-98199500D01*
X158894218Y-98179815D01*
X158848463Y-98127011D01*
X158838519Y-98057853D01*
X158850772Y-98019205D01*
X158851538Y-98017699D01*
X158871557Y-97978412D01*
X158937246Y-97776243D01*
X158970500Y-97566287D01*
X158970500Y-97353713D01*
X158937246Y-97143757D01*
X158871557Y-96941588D01*
X158825804Y-96851794D01*
X158812909Y-96783126D01*
X158839185Y-96718385D01*
X158896291Y-96678128D01*
X158936290Y-96671500D01*
X162526493Y-96671500D01*
X162593532Y-96691185D01*
X162595384Y-96692398D01*
X162620814Y-96709390D01*
X162620827Y-96709397D01*
X162700348Y-96742335D01*
X162766503Y-96769737D01*
X162921153Y-96800499D01*
X162921156Y-96800500D01*
X162921158Y-96800500D01*
X163078844Y-96800500D01*
X163078845Y-96800499D01*
X163233497Y-96769737D01*
X163379179Y-96709394D01*
X163510289Y-96621789D01*
X163621789Y-96510289D01*
X163709394Y-96379179D01*
X163769737Y-96233497D01*
X163800500Y-96078842D01*
X163800500Y-95921158D01*
X163800500Y-95921155D01*
X163800499Y-95921153D01*
X163774531Y-95790604D01*
X163769737Y-95766503D01*
X163741984Y-95699500D01*
X163709397Y-95620827D01*
X163709390Y-95620814D01*
X163621789Y-95489711D01*
X163621786Y-95489707D01*
X163510292Y-95378213D01*
X163510288Y-95378210D01*
X163379185Y-95290609D01*
X163379172Y-95290602D01*
X163233501Y-95230264D01*
X163233489Y-95230261D01*
X163078845Y-95199500D01*
X163078842Y-95199500D01*
X162944048Y-95199500D01*
X162877009Y-95179815D01*
X162831254Y-95127011D01*
X162821310Y-95057853D01*
X162850335Y-94994297D01*
X162900715Y-94959318D01*
X162942328Y-94943797D01*
X162942327Y-94943797D01*
X162942331Y-94943796D01*
X163057546Y-94857546D01*
X163143796Y-94742331D01*
X163194091Y-94607483D01*
X163200500Y-94547873D01*
X163200500Y-94413389D01*
X163899500Y-94413389D01*
X163899500Y-94586610D01*
X163924163Y-94742331D01*
X163926598Y-94757701D01*
X163980127Y-94922445D01*
X164058768Y-95076788D01*
X164160586Y-95216928D01*
X164283072Y-95339414D01*
X164423212Y-95441232D01*
X164577555Y-95519873D01*
X164742299Y-95573402D01*
X164913389Y-95600500D01*
X164913390Y-95600500D01*
X165086610Y-95600500D01*
X165086611Y-95600500D01*
X165257701Y-95573402D01*
X165422445Y-95519873D01*
X165576788Y-95441232D01*
X165716928Y-95339414D01*
X165839414Y-95216928D01*
X165941232Y-95076788D01*
X166019873Y-94922445D01*
X166073402Y-94757701D01*
X166100500Y-94586611D01*
X166100500Y-94413389D01*
X166074960Y-94252135D01*
X166799500Y-94252135D01*
X166799500Y-96547870D01*
X166799501Y-96547876D01*
X166805908Y-96607483D01*
X166856202Y-96742328D01*
X166856206Y-96742335D01*
X166942452Y-96857544D01*
X166942455Y-96857547D01*
X167057664Y-96943793D01*
X167057671Y-96943797D01*
X167192517Y-96994091D01*
X167192516Y-96994091D01*
X167199444Y-96994835D01*
X167252127Y-97000500D01*
X170147872Y-97000499D01*
X170207483Y-96994091D01*
X170342331Y-96943796D01*
X170457546Y-96857546D01*
X170543796Y-96742331D01*
X170594091Y-96607483D01*
X170600500Y-96547873D01*
X170600499Y-94252128D01*
X170594091Y-94192517D01*
X170543796Y-94057669D01*
X170543795Y-94057668D01*
X170543793Y-94057664D01*
X170457547Y-93942455D01*
X170457544Y-93942452D01*
X170342335Y-93856206D01*
X170342328Y-93856202D01*
X170207482Y-93805908D01*
X170207483Y-93805908D01*
X170147883Y-93799501D01*
X170147881Y-93799500D01*
X170147873Y-93799500D01*
X170147864Y-93799500D01*
X167252129Y-93799500D01*
X167252123Y-93799501D01*
X167192516Y-93805908D01*
X167057671Y-93856202D01*
X167057664Y-93856206D01*
X166942455Y-93942452D01*
X166942452Y-93942455D01*
X166856206Y-94057664D01*
X166856202Y-94057671D01*
X166805908Y-94192517D01*
X166800556Y-94242301D01*
X166799501Y-94252123D01*
X166799500Y-94252135D01*
X166074960Y-94252135D01*
X166073402Y-94242299D01*
X166019873Y-94077555D01*
X165941232Y-93923212D01*
X165839414Y-93783072D01*
X165716928Y-93660586D01*
X165576788Y-93558768D01*
X165422447Y-93480128D01*
X165422446Y-93480127D01*
X165422445Y-93480127D01*
X165257701Y-93426598D01*
X165257699Y-93426597D01*
X165257698Y-93426597D01*
X165126271Y-93405781D01*
X165086611Y-93399500D01*
X164913389Y-93399500D01*
X164873728Y-93405781D01*
X164742302Y-93426597D01*
X164577552Y-93480128D01*
X164423211Y-93558768D01*
X164395976Y-93578556D01*
X164283072Y-93660586D01*
X164283070Y-93660588D01*
X164283069Y-93660588D01*
X164160588Y-93783069D01*
X164160588Y-93783070D01*
X164160586Y-93783072D01*
X164148650Y-93799501D01*
X164058768Y-93923211D01*
X163980128Y-94077552D01*
X163926597Y-94242302D01*
X163899500Y-94413389D01*
X163200500Y-94413389D01*
X163200499Y-93399500D01*
X163200499Y-92252129D01*
X163200498Y-92252123D01*
X163200497Y-92252116D01*
X163194091Y-92192517D01*
X163161929Y-92106287D01*
X163143797Y-92057671D01*
X163143793Y-92057664D01*
X163057547Y-91942455D01*
X163057544Y-91942452D01*
X162942335Y-91856206D01*
X162942328Y-91856202D01*
X162807482Y-91805908D01*
X162807483Y-91805908D01*
X162747883Y-91799501D01*
X162747881Y-91799500D01*
X162747873Y-91799500D01*
X162747864Y-91799500D01*
X159852129Y-91799500D01*
X159852123Y-91799501D01*
X159792516Y-91805908D01*
X159657671Y-91856202D01*
X159657664Y-91856206D01*
X159542455Y-91942452D01*
X159542452Y-91942455D01*
X159456206Y-92057664D01*
X159456202Y-92057671D01*
X159405908Y-92192517D01*
X159399501Y-92252116D01*
X159399501Y-92252123D01*
X159399500Y-92252135D01*
X159399500Y-94547870D01*
X159399501Y-94547876D01*
X159405908Y-94607483D01*
X159456202Y-94742328D01*
X159456206Y-94742335D01*
X159542452Y-94857544D01*
X159542455Y-94857547D01*
X159657664Y-94943793D01*
X159657671Y-94943797D01*
X159792517Y-94994091D01*
X159792516Y-94994091D01*
X159799444Y-94994835D01*
X159852127Y-95000500D01*
X162697812Y-95000499D01*
X162764851Y-95020184D01*
X162810606Y-95072987D01*
X162820550Y-95142146D01*
X162791525Y-95205702D01*
X162745264Y-95239060D01*
X162620827Y-95290602D01*
X162620814Y-95290609D01*
X162489712Y-95378209D01*
X162469911Y-95398011D01*
X162433739Y-95434182D01*
X162372419Y-95467666D01*
X162346060Y-95470500D01*
X159031802Y-95470500D01*
X158964763Y-95450815D01*
X158919008Y-95398011D01*
X158909064Y-95328853D01*
X158913871Y-95308182D01*
X158919582Y-95290606D01*
X158937246Y-95236243D01*
X158970500Y-95026287D01*
X158970500Y-94813713D01*
X158937246Y-94603757D01*
X158871557Y-94401588D01*
X158775051Y-94212184D01*
X158775049Y-94212181D01*
X158775048Y-94212179D01*
X158650109Y-94040213D01*
X158499786Y-93889890D01*
X158327820Y-93764951D01*
X158327115Y-93764591D01*
X158319054Y-93760485D01*
X158268259Y-93712512D01*
X158251463Y-93644692D01*
X158273999Y-93578556D01*
X158319054Y-93539515D01*
X158327816Y-93535051D01*
X158403413Y-93480127D01*
X158499786Y-93410109D01*
X158499788Y-93410106D01*
X158499792Y-93410104D01*
X158650104Y-93259792D01*
X158650106Y-93259788D01*
X158650109Y-93259786D01*
X158775048Y-93087820D01*
X158775047Y-93087820D01*
X158775051Y-93087816D01*
X158871557Y-92898412D01*
X158937246Y-92696243D01*
X158970500Y-92486287D01*
X158970500Y-92273713D01*
X158937246Y-92063757D01*
X158871557Y-91861588D01*
X158775051Y-91672184D01*
X158775049Y-91672181D01*
X158775048Y-91672179D01*
X158650109Y-91500213D01*
X158499786Y-91349890D01*
X158327820Y-91224951D01*
X158138414Y-91128444D01*
X158138413Y-91128443D01*
X158138412Y-91128443D01*
X157936243Y-91062754D01*
X157936241Y-91062753D01*
X157936240Y-91062753D01*
X157774957Y-91037208D01*
X157726287Y-91029500D01*
X157513713Y-91029500D01*
X157465042Y-91037208D01*
X157303760Y-91062753D01*
X157101585Y-91128444D01*
X156912179Y-91224951D01*
X156740213Y-91349890D01*
X156589890Y-91500213D01*
X156464951Y-91672179D01*
X156368444Y-91861585D01*
X156302753Y-92063760D01*
X156272919Y-92252127D01*
X156269500Y-92273713D01*
X156269500Y-92486287D01*
X156302754Y-92696243D01*
X156306514Y-92707816D01*
X156368444Y-92898414D01*
X156464951Y-93087820D01*
X156589890Y-93259786D01*
X156740213Y-93410109D01*
X156912182Y-93535050D01*
X156920946Y-93539516D01*
X156971742Y-93587491D01*
X156988536Y-93655312D01*
X156965998Y-93721447D01*
X156920946Y-93760484D01*
X156912182Y-93764949D01*
X156740213Y-93889890D01*
X156589890Y-94040213D01*
X156464951Y-94212179D01*
X156368444Y-94401585D01*
X156302753Y-94603760D01*
X156282416Y-94732166D01*
X156269500Y-94813713D01*
X156269500Y-95026287D01*
X156274500Y-95057853D01*
X156301806Y-95230261D01*
X156302754Y-95236243D01*
X156326129Y-95308182D01*
X156328124Y-95378021D01*
X156292044Y-95437854D01*
X156229344Y-95468683D01*
X156208198Y-95470499D01*
X156051943Y-95470499D01*
X155950125Y-95497781D01*
X155899215Y-95511423D01*
X155786498Y-95576500D01*
X155718598Y-95592972D01*
X155652571Y-95570119D01*
X155609381Y-95515197D01*
X155600499Y-95469112D01*
X155600499Y-94252129D01*
X155600498Y-94252123D01*
X155600497Y-94252116D01*
X155594091Y-94192517D01*
X155543796Y-94057669D01*
X155543795Y-94057668D01*
X155543793Y-94057664D01*
X155457547Y-93942455D01*
X155457544Y-93942452D01*
X155342335Y-93856206D01*
X155342328Y-93856202D01*
X155207482Y-93805908D01*
X155207483Y-93805908D01*
X155147883Y-93799501D01*
X155147881Y-93799500D01*
X155147873Y-93799500D01*
X155147864Y-93799500D01*
X152252129Y-93799500D01*
X152252123Y-93799501D01*
X152192516Y-93805908D01*
X152057671Y-93856202D01*
X152057664Y-93856206D01*
X151942455Y-93942452D01*
X151942452Y-93942455D01*
X151856206Y-94057664D01*
X151856202Y-94057671D01*
X151805908Y-94192517D01*
X151800556Y-94242301D01*
X151799501Y-94252123D01*
X151799500Y-94252135D01*
X151799500Y-96547870D01*
X151799501Y-96547876D01*
X151805908Y-96607483D01*
X151856202Y-96742328D01*
X151856206Y-96742335D01*
X151942452Y-96857544D01*
X151942455Y-96857547D01*
X152057664Y-96943793D01*
X152057671Y-96943797D01*
X152192517Y-96994091D01*
X152192516Y-96994091D01*
X152199444Y-96994835D01*
X152252127Y-97000500D01*
X154052903Y-97000499D01*
X154074148Y-97006737D01*
X154096236Y-97008317D01*
X154107019Y-97016389D01*
X154119942Y-97020184D01*
X154134441Y-97036916D01*
X154152170Y-97050188D01*
X154156877Y-97062808D01*
X154165697Y-97072987D01*
X154168848Y-97094905D01*
X154176587Y-97115653D01*
X154173724Y-97128813D01*
X154175641Y-97142146D01*
X154166441Y-97162290D01*
X154161735Y-97183925D01*
X154148465Y-97201652D01*
X154146616Y-97205702D01*
X154140591Y-97212173D01*
X153999252Y-97353512D01*
X153937932Y-97386996D01*
X153911573Y-97389830D01*
X144476340Y-97389830D01*
X144476324Y-97389829D01*
X144468728Y-97389829D01*
X144310613Y-97389829D01*
X144234249Y-97410291D01*
X144157884Y-97430753D01*
X144157879Y-97430756D01*
X144020960Y-97509805D01*
X144020956Y-97509808D01*
X143942181Y-97588583D01*
X143880857Y-97622067D01*
X143811166Y-97617083D01*
X143755232Y-97575211D01*
X143730816Y-97509746D01*
X143730500Y-97500901D01*
X143730500Y-97353713D01*
X143722072Y-97300500D01*
X143697246Y-97143757D01*
X143683506Y-97101473D01*
X143681512Y-97031635D01*
X143713755Y-96975478D01*
X144552417Y-96136819D01*
X144613740Y-96103334D01*
X144640098Y-96100500D01*
X146920234Y-96100500D01*
X146987273Y-96120185D01*
X146989125Y-96121398D01*
X147120814Y-96209390D01*
X147120827Y-96209397D01*
X147258683Y-96266498D01*
X147266503Y-96269737D01*
X147421153Y-96300499D01*
X147421156Y-96300500D01*
X147421158Y-96300500D01*
X147578844Y-96300500D01*
X147578845Y-96300499D01*
X147733497Y-96269737D01*
X147879179Y-96209394D01*
X148010289Y-96121789D01*
X148121789Y-96010289D01*
X148209394Y-95879179D01*
X148269737Y-95733497D01*
X148300500Y-95578842D01*
X148300500Y-95421158D01*
X148300500Y-95421155D01*
X148300499Y-95421153D01*
X148280594Y-95321085D01*
X148269737Y-95266503D01*
X148257205Y-95236247D01*
X148209397Y-95120827D01*
X148209390Y-95120814D01*
X148121789Y-94989711D01*
X148121787Y-94989708D01*
X148104446Y-94972368D01*
X148070959Y-94911046D01*
X148075942Y-94841354D01*
X148092857Y-94810376D01*
X148143796Y-94742331D01*
X148194091Y-94607483D01*
X148200500Y-94547873D01*
X148200500Y-94413389D01*
X148899500Y-94413389D01*
X148899500Y-94586610D01*
X148924163Y-94742331D01*
X148926598Y-94757701D01*
X148980127Y-94922445D01*
X149058768Y-95076788D01*
X149160586Y-95216928D01*
X149283072Y-95339414D01*
X149423212Y-95441232D01*
X149577555Y-95519873D01*
X149742299Y-95573402D01*
X149913389Y-95600500D01*
X149913390Y-95600500D01*
X150086610Y-95600500D01*
X150086611Y-95600500D01*
X150257701Y-95573402D01*
X150422445Y-95519873D01*
X150576788Y-95441232D01*
X150716928Y-95339414D01*
X150839414Y-95216928D01*
X150941232Y-95076788D01*
X151019873Y-94922445D01*
X151073402Y-94757701D01*
X151100500Y-94586611D01*
X151100500Y-94413389D01*
X151073402Y-94242299D01*
X151019873Y-94077555D01*
X150941232Y-93923212D01*
X150839414Y-93783072D01*
X150716928Y-93660586D01*
X150576788Y-93558768D01*
X150422447Y-93480128D01*
X150422446Y-93480127D01*
X150422445Y-93480127D01*
X150257701Y-93426598D01*
X150257699Y-93426597D01*
X150257698Y-93426597D01*
X150126271Y-93405781D01*
X150086611Y-93399500D01*
X149913389Y-93399500D01*
X149873728Y-93405781D01*
X149742302Y-93426597D01*
X149577552Y-93480128D01*
X149423211Y-93558768D01*
X149395976Y-93578556D01*
X149283072Y-93660586D01*
X149283070Y-93660588D01*
X149283069Y-93660588D01*
X149160588Y-93783069D01*
X149160588Y-93783070D01*
X149160586Y-93783072D01*
X149148650Y-93799501D01*
X149058768Y-93923211D01*
X148980128Y-94077552D01*
X148926597Y-94242302D01*
X148899500Y-94413389D01*
X148200500Y-94413389D01*
X148200499Y-93399500D01*
X148200499Y-92252129D01*
X148200498Y-92252123D01*
X148200497Y-92252116D01*
X148194091Y-92192517D01*
X148161929Y-92106287D01*
X148143797Y-92057671D01*
X148143793Y-92057664D01*
X148057547Y-91942455D01*
X148057544Y-91942452D01*
X147942335Y-91856206D01*
X147942328Y-91856202D01*
X147807482Y-91805908D01*
X147807483Y-91805908D01*
X147747883Y-91799501D01*
X147747881Y-91799500D01*
X147747873Y-91799500D01*
X147747864Y-91799500D01*
X144852129Y-91799500D01*
X144852123Y-91799501D01*
X144792516Y-91805908D01*
X144657671Y-91856202D01*
X144657664Y-91856206D01*
X144542455Y-91942452D01*
X144542452Y-91942455D01*
X144456206Y-92057664D01*
X144456202Y-92057671D01*
X144405908Y-92192517D01*
X144399501Y-92252116D01*
X144399501Y-92252123D01*
X144399500Y-92252135D01*
X144399500Y-94547870D01*
X144399501Y-94547876D01*
X144405908Y-94607483D01*
X144452412Y-94732166D01*
X144457396Y-94801858D01*
X144423911Y-94863181D01*
X144362587Y-94896665D01*
X144336230Y-94899499D01*
X144260943Y-94899499D01*
X144184579Y-94919961D01*
X144108214Y-94940423D01*
X144108209Y-94940426D01*
X143971290Y-95019475D01*
X143971281Y-95019481D01*
X143942180Y-95048583D01*
X143880856Y-95082068D01*
X143811165Y-95077082D01*
X143755232Y-95035210D01*
X143730816Y-94969745D01*
X143730500Y-94960901D01*
X143730500Y-94813713D01*
X143728622Y-94801858D01*
X143697246Y-94603757D01*
X143631557Y-94401588D01*
X143535051Y-94212184D01*
X143535049Y-94212181D01*
X143535048Y-94212179D01*
X143410109Y-94040213D01*
X143259786Y-93889890D01*
X143087820Y-93764951D01*
X143087115Y-93764591D01*
X143079054Y-93760485D01*
X143028259Y-93712512D01*
X143011463Y-93644692D01*
X143033999Y-93578556D01*
X143079054Y-93539515D01*
X143087816Y-93535051D01*
X143163413Y-93480127D01*
X143259786Y-93410109D01*
X143259788Y-93410106D01*
X143259792Y-93410104D01*
X143410104Y-93259792D01*
X143410106Y-93259788D01*
X143410109Y-93259786D01*
X143535048Y-93087820D01*
X143535047Y-93087820D01*
X143535051Y-93087816D01*
X143631557Y-92898412D01*
X143697246Y-92696243D01*
X143730500Y-92486287D01*
X143730500Y-92273713D01*
X143697246Y-92063757D01*
X143631557Y-91861588D01*
X143535051Y-91672184D01*
X143535049Y-91672181D01*
X143535048Y-91672179D01*
X143410109Y-91500213D01*
X143259786Y-91349890D01*
X143087820Y-91224951D01*
X142898414Y-91128444D01*
X142898413Y-91128443D01*
X142898412Y-91128443D01*
X142696243Y-91062754D01*
X142696241Y-91062753D01*
X142696240Y-91062753D01*
X142534957Y-91037208D01*
X142486287Y-91029500D01*
X142273713Y-91029500D01*
X142225042Y-91037208D01*
X142063760Y-91062753D01*
X141861585Y-91128444D01*
X141672179Y-91224951D01*
X141500213Y-91349890D01*
X141349890Y-91500213D01*
X141224951Y-91672179D01*
X141128444Y-91861585D01*
X141062753Y-92063760D01*
X141032919Y-92252127D01*
X141029500Y-92273713D01*
X141029500Y-92486287D01*
X141062754Y-92696243D01*
X141066514Y-92707816D01*
X141128444Y-92898414D01*
X141224951Y-93087820D01*
X141349890Y-93259786D01*
X141500213Y-93410109D01*
X141672182Y-93535050D01*
X141680946Y-93539516D01*
X141731742Y-93587491D01*
X141748536Y-93655312D01*
X141725998Y-93721447D01*
X141680946Y-93760484D01*
X141672182Y-93764949D01*
X141500213Y-93889890D01*
X141349890Y-94040213D01*
X141224951Y-94212179D01*
X141128444Y-94401585D01*
X141062753Y-94603760D01*
X141029500Y-94813713D01*
X141029500Y-95026286D01*
X141062754Y-95236244D01*
X141062754Y-95236247D01*
X141076491Y-95278523D01*
X141078486Y-95348364D01*
X141046241Y-95404522D01*
X140812180Y-95638584D01*
X140750857Y-95672069D01*
X140681166Y-95667085D01*
X140625232Y-95625214D01*
X140600815Y-95559749D01*
X140600499Y-95550903D01*
X140600499Y-94252129D01*
X140600498Y-94252123D01*
X140600497Y-94252116D01*
X140594091Y-94192517D01*
X140543796Y-94057669D01*
X140543795Y-94057668D01*
X140543793Y-94057664D01*
X140457547Y-93942455D01*
X140457544Y-93942452D01*
X140342335Y-93856206D01*
X140342328Y-93856202D01*
X140207482Y-93805908D01*
X140207483Y-93805908D01*
X140147883Y-93799501D01*
X140147881Y-93799500D01*
X140147873Y-93799500D01*
X140147864Y-93799500D01*
X137252129Y-93799500D01*
X137252123Y-93799501D01*
X137192516Y-93805908D01*
X137057671Y-93856202D01*
X137057664Y-93856206D01*
X136942455Y-93942452D01*
X136942452Y-93942455D01*
X136856206Y-94057664D01*
X136856202Y-94057671D01*
X136805908Y-94192517D01*
X136800556Y-94242301D01*
X136799500Y-94252127D01*
X136799500Y-95216930D01*
X136799501Y-96076500D01*
X136779816Y-96143539D01*
X136727013Y-96189294D01*
X136675501Y-96200500D01*
X135825252Y-96200500D01*
X135758213Y-96180815D01*
X135712458Y-96128011D01*
X135710689Y-96123947D01*
X135709396Y-96120825D01*
X135709390Y-96120814D01*
X135621789Y-95989711D01*
X135621786Y-95989707D01*
X135510292Y-95878213D01*
X135510288Y-95878210D01*
X135379185Y-95790609D01*
X135379172Y-95790602D01*
X135342445Y-95775390D01*
X135288041Y-95731550D01*
X135265976Y-95665256D01*
X135283255Y-95597556D01*
X135334392Y-95549945D01*
X135351572Y-95542900D01*
X135422445Y-95519873D01*
X135576788Y-95441232D01*
X135716928Y-95339414D01*
X135839414Y-95216928D01*
X135941232Y-95076788D01*
X136019873Y-94922445D01*
X136073402Y-94757701D01*
X136100500Y-94586611D01*
X136100500Y-94413389D01*
X136073402Y-94242299D01*
X136019873Y-94077555D01*
X135941232Y-93923212D01*
X135839414Y-93783072D01*
X135716928Y-93660586D01*
X135576788Y-93558768D01*
X135422447Y-93480128D01*
X135422446Y-93480127D01*
X135422445Y-93480127D01*
X135257701Y-93426598D01*
X135257699Y-93426597D01*
X135257698Y-93426597D01*
X135126271Y-93405781D01*
X135086611Y-93399500D01*
X134913389Y-93399500D01*
X134873728Y-93405781D01*
X134742302Y-93426597D01*
X134577552Y-93480128D01*
X134423211Y-93558768D01*
X134395976Y-93578556D01*
X134283072Y-93660586D01*
X134283070Y-93660588D01*
X134283069Y-93660588D01*
X134160588Y-93783069D01*
X134160588Y-93783070D01*
X134160586Y-93783072D01*
X134148650Y-93799501D01*
X134058768Y-93923211D01*
X133980128Y-94077552D01*
X133926597Y-94242302D01*
X133899500Y-94413389D01*
X133200500Y-94413389D01*
X133200499Y-93399500D01*
X133200499Y-92252129D01*
X133200498Y-92252123D01*
X133200497Y-92252116D01*
X133194091Y-92192517D01*
X133161929Y-92106287D01*
X133143797Y-92057671D01*
X133143793Y-92057664D01*
X133057547Y-91942455D01*
X133057544Y-91942452D01*
X132942335Y-91856206D01*
X132942328Y-91856202D01*
X132807482Y-91805908D01*
X132807483Y-91805908D01*
X132747883Y-91799501D01*
X132747881Y-91799500D01*
X132747873Y-91799500D01*
X132747864Y-91799500D01*
X129852129Y-91799500D01*
X129852123Y-91799501D01*
X129792516Y-91805908D01*
X129657671Y-91856202D01*
X129657664Y-91856206D01*
X129542455Y-91942452D01*
X129542452Y-91942455D01*
X129456206Y-92057664D01*
X129456202Y-92057671D01*
X129405908Y-92192517D01*
X129399501Y-92252116D01*
X129399501Y-92252123D01*
X129399500Y-92252135D01*
X128327400Y-92252135D01*
X128350500Y-92106287D01*
X128350500Y-91893713D01*
X128317246Y-91683757D01*
X128251557Y-91481588D01*
X128155051Y-91292184D01*
X128155049Y-91292181D01*
X128155048Y-91292179D01*
X128030109Y-91120213D01*
X127879786Y-90969890D01*
X127707820Y-90844951D01*
X127518414Y-90748444D01*
X127518413Y-90748443D01*
X127518412Y-90748443D01*
X127499907Y-90742430D01*
X127442232Y-90702994D01*
X127415034Y-90638635D01*
X127426949Y-90569789D01*
X127474193Y-90518313D01*
X127538226Y-90500500D01*
X172461774Y-90500500D01*
X172528813Y-90520185D01*
G37*
%TD.AperFunction*%
%TD*%
M02*
